<svg id="my-svg" width="100%" xmlns="http://www.w3.org/2000/svg" xmlns:xlink="http://www.w3.org/1999/xlink" class="classDiagram" style="max-width: 934.758px; background-color: white;" viewBox="0 0 934.7578125 474" role="graphics-document document" aria-roledescription="class"><style>#my-svg{font-family:"trebuchet ms",verdana,arial,sans-serif;font-size:16px;fill:#333;}@keyframes edge-animation-frame{from{stroke-dashoffset:0;}}@keyframes dash{to{stroke-dashoffset:0;}}#my-svg .edge-animation-slow{stroke-dasharray:9,5!important;stroke-dashoffset:900;animation:dash 50s linear infinite;stroke-linecap:round;}#my-svg .edge-animation-fast{stroke-dasharray:9,5!important;stroke-dashoffset:900;animation:dash 20s linear infinite;stroke-linecap:round;}#my-svg .error-icon{fill:#552222;}#my-svg .error-text{fill:#552222;stroke:#552222;}#my-svg .edge-thickness-normal{stroke-width:1px;}#my-svg .edge-thickness-thick{stroke-width:3.5px;}#my-svg .edge-pattern-solid{stroke-dasharray:0;}#my-svg .edge-thickness-invisible{stroke-width:0;fill:none;}#my-svg .edge-pattern-dashed{stroke-dasharray:3;}#my-svg .edge-pattern-dotted{stroke-dasharray:2;}#my-svg .marker{fill:#333333;stroke:#333333;}#my-svg .marker.cross{stroke:#333333;}#my-svg svg{font-family:"trebuchet ms",verdana,arial,sans-serif;font-size:16px;}#my-svg p{margin:0;}#my-svg g.classGroup text{fill:#9370DB;stroke:none;font-family:"trebuchet ms",verdana,arial,sans-serif;font-size:10px;}#my-svg g.classGroup text .title{font-weight:bolder;}#my-svg .cluster-label text{fill:#333;}#my-svg .cluster-label span{color:#333;}#my-svg .cluster-label span p{background-color:transparent;}#my-svg .cluster rect{fill:#ffffde;stroke:#aaaa33;stroke-width:1px;}#my-svg .cluster text{fill:#333;}#my-svg .cluster span{color:#333;}#my-svg .nodeLabel,#my-svg .edgeLabel{color:#131300;}#my-svg .noteLabel .nodeLabel,#my-svg .noteLabel .edgeLabel{color:black;}#my-svg .edgeLabel .label rect{fill:#ECECFF;}#my-svg .label text{fill:#131300;}#my-svg .labelBkg{background:#ECECFF;}#my-svg .edgeLabel .label span{background:#ECECFF;}#my-svg .classTitle{font-weight:bolder;}#my-svg .node rect,#my-svg .node circle,#my-svg .node ellipse,#my-svg .node polygon,#my-svg .node path{fill:#ECECFF;stroke:#9370DB;stroke-width:1;}#my-svg .divider{stroke:#9370DB;stroke-width:1;}#my-svg g.clickable{cursor:pointer;}#my-svg g.classGroup rect{fill:#ECECFF;stroke:#9370DB;}#my-svg g.classGroup line{stroke:#9370DB;stroke-width:1;}#my-svg .classLabel .box{stroke:none;stroke-width:0;fill:#ECECFF;opacity:0.5;}#my-svg .classLabel .label{fill:#9370DB;font-size:10px;}#my-svg .relation{stroke:#333333;stroke-width:1;fill:none;}#my-svg .dashed-line{stroke-dasharray:3;}#my-svg .dotted-line{stroke-dasharray:1 2;}#my-svg [id$="-compositionStart"],#my-svg .composition{fill:#333333!important;stroke:#333333!important;stroke-width:1;}#my-svg [id$="-compositionEnd"],#my-svg .composition{fill:#333333!important;stroke:#333333!important;stroke-width:1;}#my-svg [id$="-dependencyStart"],#my-svg .dependency{fill:#333333!important;stroke:#333333!important;stroke-width:1;}#my-svg [id$="-dependencyEnd"],#my-svg .dependency{fill:#333333!important;stroke:#333333!important;stroke-width:1;}#my-svg [id$="-extensionStart"],#my-svg .extension{fill:transparent!important;stroke:#333333!important;stroke-width:1;}#my-svg [id$="-extensionEnd"],#my-svg .extension{fill:transparent!important;stroke:#333333!important;stroke-width:1;}#my-svg [id$="-aggregationStart"],#my-svg .aggregation{fill:transparent!important;stroke:#333333!important;stroke-width:1;}#my-svg [id$="-aggregationEnd"],#my-svg .aggregation{fill:transparent!important;stroke:#333333!important;stroke-width:1;}#my-svg [id$="-lollipopStart"],#my-svg .lollipop{fill:#ECECFF!important;stroke:#333333!important;stroke-width:1;}#my-svg [id$="-lollipopEnd"],#my-svg .lollipop{fill:#ECECFF!important;stroke:#333333!important;stroke-width:1;}#my-svg .edgeTerminals{font-size:11px;line-height:initial;}#my-svg .classTitleText{text-anchor:middle;font-size:18px;fill:#333;}#my-svg .edgeLabel[data-look="neo"]{background-color:rgba(232,232,232, 0.8);text-align:center;}#my-svg .edgeLabel[data-look="neo"] p{background-color:rgba(232,232,232, 0.8);}#my-svg .edgeLabel[data-look="neo"] rect{opacity:0.5;background-color:rgba(232,232,232, 0.8);fill:rgba(232,232,232, 0.8);}#my-svg .label-icon{display:inline-block;height:1em;overflow:visible;vertical-align:-0.125em;}#my-svg .node .label-icon path{fill:currentColor;stroke:revert;stroke-width:revert;}#my-svg .node .neo-node{stroke:#9370DB;}#my-svg [data-look="neo"].node rect,#my-svg [data-look="neo"].cluster rect,#my-svg [data-look="neo"].node polygon{stroke:#9370DB;filter:drop-shadow(1px 2px 2px rgba(185, 185, 185, 1));}#my-svg [data-look="neo"].node path{stroke:#9370DB;stroke-width:1px;}#my-svg [data-look="neo"].node .outer-path{filter:drop-shadow(1px 2px 2px rgba(185, 185, 185, 1));}#my-svg [data-look="neo"].node .neo-line path{stroke:#9370DB;filter:none;}#my-svg [data-look="neo"].node circle{stroke:#9370DB;filter:drop-shadow(1px 2px 2px rgba(185, 185, 185, 1));}#my-svg [data-look="neo"].node circle .state-start{fill:#000000;}#my-svg [data-look="neo"].icon-shape .icon{fill:#9370DB;filter:drop-shadow(1px 2px 2px rgba(185, 185, 185, 1));}#my-svg [data-look="neo"].icon-shape .icon-neo path{stroke:#9370DB;filter:drop-shadow(1px 2px 2px rgba(185, 185, 185, 1));}#my-svg :root{--mermaid-font-family:"trebuchet ms",verdana,arial,sans-serif;}</style><g><defs><marker id="my-svg_class-aggregationStart" class="marker aggregation class" refX="18" refY="7" markerWidth="190" markerHeight="240" orient="auto"><path d="M 18,7 L9,13 L1,7 L9,1 Z"/></marker></defs><defs><marker id="my-svg_class-aggregationEnd" class="marker aggregation class" refX="1" refY="7" markerWidth="20" markerHeight="28" orient="auto"><path d="M 18,7 L9,13 L1,7 L9,1 Z"/></marker></defs><defs><marker id="my-svg_class-aggregationStart-margin" class="marker aggregation class" refX="15" refY="7" markerWidth="190" markerHeight="240" orient="auto" markerUnits="userSpaceOnUse"><path d="M 18,7 L9,13 L1,7 L9,1 Z" style="stroke-width: 2;"/></marker></defs><defs><marker id="my-svg_class-aggregationEnd-margin" class="marker aggregation class" refX="1" refY="7" markerWidth="20" markerHeight="28" orient="auto" markerUnits="userSpaceOnUse"><path d="M 18,7 L9,13 L1,7 L9,1 Z" style="stroke-width: 2;"/></marker></defs><defs><marker id="my-svg_class-extensionStart" class="marker extension class" refX="18" refY="7" markerWidth="190" markerHeight="240" orient="auto" markerUnits="userSpaceOnUse"><path d="M 1,7 L18,13 V 1 Z"/></marker></defs><defs><marker id="my-svg_class-extensionEnd" class="marker extension class" refX="1" refY="7" markerWidth="20" markerHeight="28" orient="auto"><path d="M 1,1 V 13 L18,7 Z"/></marker></defs><marker id="my-svg_class-extensionStart-margin" class="marker extension class" refX="18" refY="7" markerWidth="20" markerHeight="28" orient="auto" markerUnits="userSpaceOnUse" viewBox="0 0 20 14"><polygon points="10,7 18,13 18,1" style="stroke-width: 2; stroke-dasharray: 0;"/></marker><defs><marker id="my-svg_class-extensionEnd-margin" class="marker extension class" refX="9" refY="7" markerWidth="20" markerHeight="28" orient="auto" markerUnits="userSpaceOnUse" viewBox="0 0 20 14"><polygon points="10,1 10,13 18,7" style="stroke-width: 2; stroke-dasharray: 0;"/></marker></defs><defs><marker id="my-svg_class-compositionStart" class="marker composition class" refX="18" refY="7" markerWidth="190" markerHeight="240" orient="auto"><path d="M 18,7 L9,13 L1,7 L9,1 Z"/></marker></defs><defs><marker id="my-svg_class-compositionEnd" class="marker composition class" refX="1" refY="7" markerWidth="20" markerHeight="28" orient="auto"><path d="M 18,7 L9,13 L1,7 L9,1 Z"/></marker></defs><defs><marker id="my-svg_class-compositionStart-margin" class="marker composition class" refX="15" refY="7" markerWidth="190" markerHeight="240" orient="auto" markerUnits="userSpaceOnUse"><path viewBox="0 0 15 15" d="M 18,7 L9,13 L1,7 L9,1 Z" style="stroke-width: 0;"/></marker></defs><defs><marker id="my-svg_class-compositionEnd-margin" class="marker composition class" refX="3.5" refY="7" markerWidth="20" markerHeight="28" orient="auto" markerUnits="userSpaceOnUse"><path d="M 18,7 L9,13 L1,7 L9,1 Z" style="stroke-width: 0;"/></marker></defs><defs><marker id="my-svg_class-dependencyStart" class="marker dependency class" refX="6" refY="7" markerWidth="190" markerHeight="240" orient="auto"><path d="M 5,7 L9,13 L1,7 L9,1 Z"/></marker></defs><defs><marker id="my-svg_class-dependencyEnd" class="marker dependency class" refX="13" refY="7" markerWidth="20" markerHeight="28" orient="auto"><path d="M 18,7 L9,13 L14,7 L9,1 Z"/></marker></defs><defs><marker id="my-svg_class-dependencyStart-margin" class="marker dependency class" refX="4" refY="7" markerWidth="190" markerHeight="240" orient="auto" markerUnits="userSpaceOnUse"><path d="M 5,7 L9,13 L1,7 L9,1 Z" style="stroke-width: 0;"/></marker></defs><defs><marker id="my-svg_class-dependencyEnd-margin" class="marker dependency class" refX="16" refY="7" markerWidth="20" markerHeight="28" orient="auto" markerUnits="userSpaceOnUse"><path d="M 18,7 L9,13 L14,7 L9,1 Z" style="stroke-width: 0;"/></marker></defs><defs><marker id="my-svg_class-lollipopStart" class="marker lollipop class" refX="13" refY="7" markerWidth="190" markerHeight="240" orient="auto"><circle fill="transparent" cx="7" cy="7" r="6"/></marker></defs><defs><marker id="my-svg_class-lollipopEnd" class="marker lollipop class" refX="1" refY="7" markerWidth="190" markerHeight="240" orient="auto"><circle fill="transparent" cx="7" cy="7" r="6"/></marker></defs><defs><marker id="my-svg_class-lollipopStart-margin" class="marker lollipop class" refX="13" refY="7" markerWidth="190" markerHeight="240" orient="auto" markerUnits="userSpaceOnUse"><circle fill="transparent" cx="7" cy="7" r="6" stroke-width="2"/></marker></defs><defs><marker id="my-svg_class-lollipopEnd-margin" class="marker lollipop class" refX="1" refY="7" markerWidth="190" markerHeight="240" orient="auto" markerUnits="userSpaceOnUse"><circle fill="transparent" cx="7" cy="7" r="6" stroke-width="2"/></marker></defs><g class="root"><g class="clusters"/><g class="edgePaths"><path d="M383.809,147.449L334.505,164.374C285.201,181.299,186.592,215.15,137.288,235.242C87.984,255.333,87.984,261.667,87.984,264.833L87.984,268" id="my-svg-id_CombatSystem_ChessSystem_1" class="edge-thickness-normal edge-pattern-solid relation" style=";;;" data-edge="true" data-et="edge" data-id="id_CombatSystem_ChessSystem_1" data-points="W3sieCI6MzgzLjgwODU5Mzc1LCJ5IjoxNDcuNDQ5MTE0Nzc2NTc2ODZ9LHsieCI6ODcuOTg0Mzc1LCJ5IjoyNDl9LHsieCI6ODcuOTg0Mzc1LCJ5IjoyNzR9XQ==" data-look="classic" marker-end="url(#my-svg_class-dependencyEnd)"/><path d="M383.809,180.697L367.689,192.081C351.569,203.465,319.329,226.232,303.21,240.783C287.09,255.333,287.09,261.667,287.09,264.833L287.09,268" id="my-svg-id_CombatSystem_BuffSystem_2" class="edge-thickness-normal edge-pattern-solid relation" style=";;;" data-edge="true" data-et="edge" data-id="id_CombatSystem_BuffSystem_2" data-points="W3sieCI6MzgzLjgwODU5Mzc1LCJ5IjoxODAuNjk3MjYwMDc1MDgzNDh9LHsieCI6Mjg3LjA4OTg0Mzc1LCJ5IjoyNDl9LHsieCI6Mjg3LjA4OTg0Mzc1LCJ5IjoyNzR9XQ==" data-look="classic" marker-end="url(#my-svg_class-dependencyEnd)"/><path d="M475.422,224L475.422,228.167C475.422,232.333,475.422,240.667,475.422,248C475.422,255.333,475.422,261.667,475.422,264.833L475.422,268" id="my-svg-id_CombatSystem_SkillSystem_3" class="edge-thickness-normal edge-pattern-solid relation" style=";;;" data-edge="true" data-et="edge" data-id="id_CombatSystem_SkillSystem_3" data-points="W3sieCI6NDc1LjQyMTg3NSwieSI6MjI0fSx7IngiOjQ3NS40MjE4NzUsInkiOjI0OX0seyJ4Ijo0NzUuNDIxODc1LCJ5IjoyNzR9XQ==" data-look="classic" marker-end="url(#my-svg_class-dependencyEnd)"/><path d="M567.035,182.121L582.479,193.267C597.923,204.414,628.811,226.707,644.255,241.02C659.699,255.333,659.699,261.667,659.699,264.833L659.699,268" id="my-svg-id_CombatSystem_AISystem_4" class="edge-thickness-normal edge-pattern-solid relation" style=";;;" data-edge="true" data-et="edge" data-id="id_CombatSystem_AISystem_4" data-points="W3sieCI6NTY3LjAzNTE1NjI1LCJ5IjoxODIuMTIwODA1NTExMzkzNzR9LHsieCI6NjU5LjY5OTIxODc1LCJ5IjoyNDl9LHsieCI6NjU5LjY5OTIxODc1LCJ5IjoyNzR9XQ==" data-look="classic" marker-end="url(#my-svg_class-dependencyEnd)"/><path d="M567.035,148.463L614.323,165.219C661.611,181.975,756.186,215.488,803.474,235.41C850.762,255.333,850.762,261.667,850.762,264.833L850.762,268" id="my-svg-id_CombatSystem_DamageSystem_5" class="edge-thickness-normal edge-pattern-solid relation" style=";;;" data-edge="true" data-et="edge" data-id="id_CombatSystem_DamageSystem_5" data-points="W3sieCI6NTY3LjAzNTE1NjI1LCJ5IjoxNDguNDYyNzU3NzA5MTU5NH0seyJ4Ijo4NTAuNzYxNzE4NzUsInkiOjI0OX0seyJ4Ijo4NTAuNzYxNzE4NzUsInkiOjI3NH1d" data-look="classic" marker-end="url(#my-svg_class-dependencyEnd)"/></g><g class="edgeLabels"><g class="edgeLabel"><g class="label" data-id="id_CombatSystem_ChessSystem_1" transform="translate(0, 0)"><foreignObject width="0" height="0"><div xmlns="http://www.w3.org/1999/xhtml" class="labelBkg" style="display: table-cell; white-space: nowrap; line-height: 1.5; max-width: 200px; text-align: center;"><span class="edgeLabel"></span></div></foreignObject></g></g><g class="edgeLabel"><g class="label" data-id="id_CombatSystem_BuffSystem_2" transform="translate(0, 0)"><foreignObject width="0" height="0"><div xmlns="http://www.w3.org/1999/xhtml" class="labelBkg" style="display: table-cell; white-space: nowrap; line-height: 1.5; max-width: 200px; text-align: center;"><span class="edgeLabel"></span></div></foreignObject></g></g><g class="edgeLabel"><g class="label" data-id="id_CombatSystem_SkillSystem_3" transform="translate(0, 0)"><foreignObject width="0" height="0"><div xmlns="http://www.w3.org/1999/xhtml" class="labelBkg" style="display: table-cell; white-space: nowrap; line-height: 1.5; max-width: 200px; text-align: center;"><span class="edgeLabel"></span></div></foreignObject></g></g><g class="edgeLabel"><g class="label" data-id="id_CombatSystem_AISystem_4" transform="translate(0, 0)"><foreignObject width="0" height="0"><div xmlns="http://www.w3.org/1999/xhtml" class="labelBkg" style="display: table-cell; white-space: nowrap; line-height: 1.5; max-width: 200px; text-align: center;"><span class="edgeLabel"></span></div></foreignObject></g></g><g class="edgeLabel"><g class="label" data-id="id_CombatSystem_DamageSystem_5" transform="translate(0, 0)"><foreignObject width="0" height="0"><div xmlns="http://www.w3.org/1999/xhtml" class="labelBkg" style="display: table-cell; white-space: nowrap; line-height: 1.5; max-width: 200px; text-align: center;"><span class="edgeLabel"></span></div></foreignObject></g></g></g><g class="nodes"><g class="node default" id="my-svg-classId-CombatSystem-0" data-look="classic" transform="translate(475.421875, 116)"><g class="basic label-container outer-path"><path d="M-91.61328125 -108 L91.61328125 -108 L91.61328125 108 L-91.61328125 108" stroke="none" stroke-width="0" fill="#ECECFF" style=""/><path d="M-91.61328125 -108 C-42.38978606172224 -108, 6.833709126555519 -108, 91.61328125 -108 M-91.61328125 -108 C-21.069920413076517 -108, 49.47344042384697 -108, 91.61328125 -108 M91.61328125 -108 C91.61328125 -22.466296361871215, 91.61328125 63.06740727625757, 91.61328125 108 M91.61328125 -108 C91.61328125 -64.10930656843468, 91.61328125 -20.218613136869365, 91.61328125 108 M91.61328125 108 C37.691497025197485 108, -16.23028719960503 108, -91.61328125 108 M91.61328125 108 C40.97922865734204 108, -9.654823935315918 108, -91.61328125 108 M-91.61328125 108 C-91.61328125 60.899245519736034, -91.61328125 13.798491039472069, -91.61328125 -108 M-91.61328125 108 C-91.61328125 42.04193295199494, -91.61328125 -23.916134096010126, -91.61328125 -108" stroke="#9370DB" stroke-width="1.3" fill="none" stroke-dasharray="0 0" style=""/></g><g class="annotation-group text" transform="translate(0, -84)"/><g class="label-group text" transform="translate(-54.8359375, -84)"><g class="label" style="font-weight: bolder" transform="translate(0,-12)"><foreignObject width="109.671875" height="24"><div xmlns="http://www.w3.org/1999/xhtml" style="display: table-cell; white-space: nowrap; line-height: 1.5; max-width: 148px; text-align: center;"><span class="nodeLabel markdown-node-label" style=""><p>CombatSystem</p></span></div></foreignObject></g></g><g class="members-group text" transform="translate(-79.61328125, -36)"><g class="label" style="" transform="translate(0,-12)"><foreignObject width="72.390625" height="24"><div xmlns="http://www.w3.org/1999/xhtml" style="display: table-cell; white-space: nowrap; line-height: 1.5; max-width: 128px; text-align: center;"><span class="nodeLabel markdown-node-label" style=""><p>+棋子系统</p></span></div></foreignObject></g><g class="label" style="" transform="translate(0,12)"><foreignObject width="70.015625" height="24"><div xmlns="http://www.w3.org/1999/xhtml" style="display: table-cell; white-space: nowrap; line-height: 1.5; max-width: 126px; text-align: center;"><span class="nodeLabel markdown-node-label" style=""><p>+Buff系统</p></span></div></foreignObject></g><g class="label" style="" transform="translate(0,36)"><foreignObject width="72.390625" height="24"><div xmlns="http://www.w3.org/1999/xhtml" style="display: table-cell; white-space: nowrap; line-height: 1.5; max-width: 128px; text-align: center;"><span class="nodeLabel markdown-node-label" style=""><p>+技能系统</p></span></div></foreignObject></g><g class="label" style="" transform="translate(0,60)"><foreignObject width="54.28125" height="24"><div xmlns="http://www.w3.org/1999/xhtml" style="display: table-cell; white-space: nowrap; line-height: 1.5; max-width: 113px; text-align: center;"><span class="nodeLabel markdown-node-label" style=""><p>+AI系统</p></span></div></foreignObject></g><g class="label" style="" transform="translate(0,84)"><foreignObject width="104.390625" height="24"><div xmlns="http://www.w3.org/1999/xhtml" style="display: table-cell; white-space: nowrap; line-height: 1.5; max-width: 160px; text-align: center;"><span class="nodeLabel markdown-node-label" style=""><p>+伤害计算系统</p></span></div></foreignObject></g></g><g class="methods-group text" transform="translate(-79.61328125, 108)"/><g class="divider" style=""><path d="M-91.61328125 -60 C-31.646443646912694 -59.99967271755369, 28.320393956174613 -59.999345435107394, 91.61328125 -59.999 M-91.61328125 -60 C-43.26144170526285 -59.999736109006875, 5.090397839474306 -59.99947221801376, 91.61328125 -59.999" stroke="#9370DB" stroke-width="1.3" fill="none" stroke-dasharray="0 0" style=""/></g><g class="divider" style=""><path d="M-91.61328125 84 C-22.662887270312183 84.00037631221717, 46.287506709375634 84.00075262443436, 91.61328125 84.001 M-91.61328125 84 C-38.616918771750065 84.00028923951722, 14.37944370649987 84.00057847903443, 91.61328125 84.001" stroke="#9370DB" stroke-width="1.3" fill="none" stroke-dasharray="0 0" style=""/></g></g><g class="node default" id="my-svg-classId-ChessSystem-1" data-look="classic" transform="translate(87.984375, 370)"><g class="basic label-container outer-path"><path d="M-79.984375 -96 L79.984375 -96 L79.984375 96 L-79.984375 96" stroke="none" stroke-width="0" fill="#ECECFF" style=""/><path d="M-79.984375 -96 C-39.75897258224128 -96, 0.4664298355174452 -96, 79.984375 -96 M-79.984375 -96 C-41.547814687027 -96, -3.111254374053999 -96, 79.984375 -96 M79.984375 -96 C79.984375 -31.603968972693764, 79.984375 32.79206205461247, 79.984375 96 M79.984375 -96 C79.984375 -56.07987496061089, 79.984375 -16.159749921221774, 79.984375 96 M79.984375 96 C36.83572946751621 96, -6.312916064967581 96, -79.984375 96 M79.984375 96 C47.575951364939556 96, 15.167527729879112 96, -79.984375 96 M-79.984375 96 C-79.984375 20.08888673915706, -79.984375 -55.82222652168588, -79.984375 -96 M-79.984375 96 C-79.984375 50.98916358092055, -79.984375 5.978327161841094, -79.984375 -96" stroke="#9370DB" stroke-width="1.3" fill="none" stroke-dasharray="0 0" style=""/></g><g class="annotation-group text" transform="translate(0, -72)"/><g class="label-group text" transform="translate(-47.578125, -72)"><g class="label" style="font-weight: bolder" transform="translate(0,-12)"><foreignObject width="95.15625" height="24"><div xmlns="http://www.w3.org/1999/xhtml" style="display: table-cell; white-space: nowrap; line-height: 1.5; max-width: 136px; text-align: center;"><span class="nodeLabel markdown-node-label" style=""><p>ChessSystem</p></span></div></foreignObject></g></g><g class="members-group text" transform="translate(-67.984375, -24)"><g class="label" style="" transform="translate(0,-12)"><foreignObject width="72.390625" height="24"><div xmlns="http://www.w3.org/1999/xhtml" style="display: table-cell; white-space: nowrap; line-height: 1.5; max-width: 128px; text-align: center;"><span class="nodeLabel markdown-node-label" style=""><p>+属性管理</p></span></div></foreignObject></g><g class="label" style="" transform="translate(0,12)"><foreignObject width="72.390625" height="24"><div xmlns="http://www.w3.org/1999/xhtml" style="display: table-cell; white-space: nowrap; line-height: 1.5; max-width: 128px; text-align: center;"><span class="nodeLabel markdown-node-label" style=""><p>+状态管理</p></span></div></foreignObject></g><g class="label" style="" transform="translate(0,36)"><foreignObject width="72.390625" height="24"><div xmlns="http://www.w3.org/1999/xhtml" style="display: table-cell; white-space: nowrap; line-height: 1.5; max-width: 128px; text-align: center;"><span class="nodeLabel markdown-node-label" style=""><p>+装备系统</p></span></div></foreignObject></g><g class="label" style="" transform="translate(0,60)"><foreignObject width="88.390625" height="24"><div xmlns="http://www.w3.org/1999/xhtml" style="display: table-cell; white-space: nowrap; line-height: 1.5; max-width: 144px; text-align: center;"><span class="nodeLabel markdown-node-label" style=""><p>+生命值继承</p></span></div></foreignObject></g></g><g class="methods-group text" transform="translate(-67.984375, 96)"/><g class="divider" style=""><path d="M-79.984375 -48 C-39.35541986437742 -47.99974601942482, 1.2735352712451657 -47.999492038849645, 79.984375 -47.999 M-79.984375 -48 C-40.49502113375162 -47.99975314332414, -1.0056672675032416 -47.999506286648284, 79.984375 -47.999" stroke="#9370DB" stroke-width="1.3" fill="none" stroke-dasharray="0 0" style=""/></g><g class="divider" style=""><path d="M-79.984375 72 C-45.8744180555273 72.00021322887717, -11.764461111054601 72.00042645775434, 79.984375 72.001 M-79.984375 72 C-21.37808070779416 72.00036636089419, 37.22821358441168 72.00073272178838, 79.984375 72.001" stroke="#9370DB" stroke-width="1.3" fill="none" stroke-dasharray="0 0" style=""/></g></g><g class="node default" id="my-svg-classId-BuffSystem-2" data-look="classic" transform="translate(287.08984375, 370)"><g class="basic label-container outer-path"><path d="M-69.12109375 -96 L69.12109375 -96 L69.12109375 96 L-69.12109375 96" stroke="none" stroke-width="0" fill="#ECECFF" style=""/><path d="M-69.12109375 -96 C-33.96623328066383 -96, 1.188627188672342 -96, 69.12109375 -96 M-69.12109375 -96 C-36.57381960523179 -96, -4.026545460463581 -96, 69.12109375 -96 M69.12109375 -96 C69.12109375 -19.242420675925942, 69.12109375 57.515158648148116, 69.12109375 96 M69.12109375 -96 C69.12109375 -26.656815492852303, 69.12109375 42.686369014295394, 69.12109375 96 M69.12109375 96 C27.210216541722247 96, -14.700660666555507 96, -69.12109375 96 M69.12109375 96 C24.74831404017742 96, -19.62446566964516 96, -69.12109375 96 M-69.12109375 96 C-69.12109375 48.83059004403294, -69.12109375 1.6611800880658762, -69.12109375 -96 M-69.12109375 96 C-69.12109375 51.24436850646772, -69.12109375 6.488737012935445, -69.12109375 -96" stroke="#9370DB" stroke-width="1.3" fill="none" stroke-dasharray="0 0" style=""/></g><g class="annotation-group text" transform="translate(0, -72)"/><g class="label-group text" transform="translate(-41.8515625, -72)"><g class="label" style="font-weight: bolder" transform="translate(0,-12)"><foreignObject width="83.703125" height="24"><div xmlns="http://www.w3.org/1999/xhtml" style="display: table-cell; white-space: nowrap; line-height: 1.5; max-width: 128px; text-align: center;"><span class="nodeLabel markdown-node-label" style=""><p>BuffSystem</p></span></div></foreignObject></g></g><g class="members-group text" transform="translate(-57.12109375, -24)"><g class="label" style="" transform="translate(0,-12)"><foreignObject width="70.015625" height="24"><div xmlns="http://www.w3.org/1999/xhtml" style="display: table-cell; white-space: nowrap; line-height: 1.5; max-width: 126px; text-align: center;"><span class="nodeLabel markdown-node-label" style=""><p>+Buff应用</p></span></div></foreignObject></g><g class="label" style="" transform="translate(0,12)"><foreignObject width="70.015625" height="24"><div xmlns="http://www.w3.org/1999/xhtml" style="display: table-cell; white-space: nowrap; line-height: 1.5; max-width: 126px; text-align: center;"><span class="nodeLabel markdown-node-label" style=""><p>+Buff移除</p></span></div></foreignObject></g><g class="label" style="" transform="translate(0,36)"><foreignObject width="70.015625" height="24"><div xmlns="http://www.w3.org/1999/xhtml" style="display: table-cell; white-space: nowrap; line-height: 1.5; max-width: 126px; text-align: center;"><span class="nodeLabel markdown-node-label" style=""><p>+Buff叠加</p></span></div></foreignObject></g><g class="label" style="" transform="translate(0,60)"><foreignObject width="72.390625" height="24"><div xmlns="http://www.w3.org/1999/xhtml" style="display: table-cell; white-space: nowrap; line-height: 1.5; max-width: 128px; text-align: center;"><span class="nodeLabel markdown-node-label" style=""><p>+条件判定</p></span></div></foreignObject></g></g><g class="methods-group text" transform="translate(-57.12109375, 96)"/><g class="divider" style=""><path d="M-69.12109375 -48 C-19.496795138878753 -47.99964103361276, 30.127503472242495 -47.99928206722552, 69.12109375 -47.999 M-69.12109375 -48 C-33.90669838868022 -47.999745270268086, 1.3076969726395617 -47.99949054053617, 69.12109375 -47.999" stroke="#9370DB" stroke-width="1.3" fill="none" stroke-dasharray="0 0" style=""/></g><g class="divider" style=""><path d="M-69.12109375 72 C-15.581627264532457 72.00038728746595, 37.957839220935085 72.00077457493192, 69.12109375 72.001 M-69.12109375 72 C-22.739030438797045 72.00033551308866, 23.64303287240591 72.00067102617733, 69.12109375 72.001" stroke="#9370DB" stroke-width="1.3" fill="none" stroke-dasharray="0 0" style=""/></g></g><g class="node default" id="my-svg-classId-SkillSystem-3" data-look="classic" transform="translate(475.421875, 370)"><g class="basic label-container outer-path"><path d="M-69.2109375 -96 L69.2109375 -96 L69.2109375 96 L-69.2109375 96" stroke="none" stroke-width="0" fill="#ECECFF" style=""/><path d="M-69.2109375 -96 C-18.2342499477544 -96, 32.7424376044912 -96, 69.2109375 -96 M-69.2109375 -96 C-20.227125392169214 -96, 28.756686715661573 -96, 69.2109375 -96 M69.2109375 -96 C69.2109375 -21.362771139305778, 69.2109375 53.274457721388444, 69.2109375 96 M69.2109375 -96 C69.2109375 -38.51725254909711, 69.2109375 18.965494901805783, 69.2109375 96 M69.2109375 96 C34.073074413711325 96, -1.0647886725773503 96, -69.2109375 96 M69.2109375 96 C35.953663477712524 96, 2.6963894554250487 96, -69.2109375 96 M-69.2109375 96 C-69.2109375 57.547369463559626, -69.2109375 19.094738927119252, -69.2109375 -96 M-69.2109375 96 C-69.2109375 26.585484317880628, -69.2109375 -42.829031364238745, -69.2109375 -96" stroke="#9370DB" stroke-width="1.3" fill="none" stroke-dasharray="0 0" style=""/></g><g class="annotation-group text" transform="translate(0, -72)"/><g class="label-group text" transform="translate(-42.03125, -72)"><g class="label" style="font-weight: bolder" transform="translate(0,-12)"><foreignObject width="84.0625" height="24"><div xmlns="http://www.w3.org/1999/xhtml" style="display: table-cell; white-space: nowrap; line-height: 1.5; max-width: 128px; text-align: center;"><span class="nodeLabel markdown-node-label" style=""><p>SkillSystem</p></span></div></foreignObject></g></g><g class="members-group text" transform="translate(-57.2109375, -24)"><g class="label" style="" transform="translate(0,-12)"><foreignObject width="72.390625" height="24"><div xmlns="http://www.w3.org/1999/xhtml" style="display: table-cell; white-space: nowrap; line-height: 1.5; max-width: 128px; text-align: center;"><span class="nodeLabel markdown-node-label" style=""><p>+技能选择</p></span></div></foreignObject></g><g class="label" style="" transform="translate(0,12)"><foreignObject width="72.390625" height="24"><div xmlns="http://www.w3.org/1999/xhtml" style="display: table-cell; white-space: nowrap; line-height: 1.5; max-width: 128px; text-align: center;"><span class="nodeLabel markdown-node-label" style=""><p>+技能执行</p></span></div></foreignObject></g><g class="label" style="" transform="translate(0,36)"><foreignObject width="72.390625" height="24"><div xmlns="http://www.w3.org/1999/xhtml" style="display: table-cell; white-space: nowrap; line-height: 1.5; max-width: 128px; text-align: center;"><span class="nodeLabel markdown-node-label" style=""><p>+冷却管理</p></span></div></foreignObject></g><g class="label" style="" transform="translate(0,60)"><foreignObject width="56.390625" height="24"><div xmlns="http://www.w3.org/1999/xhtml" style="display: table-cell; white-space: nowrap; line-height: 1.5; max-width: 112px; text-align: center;"><span class="nodeLabel markdown-node-label" style=""><p>+效果链</p></span></div></foreignObject></g></g><g class="methods-group text" transform="translate(-57.2109375, 96)"/><g class="divider" style=""><path d="M-69.2109375 -48 C-25.966538162945753 -47.99968758984563, 17.277861174108494 -47.999375179691256, 69.2109375 -47.999 M-69.2109375 -48 C-30.075470055288648 -47.999717273968116, 9.059997389422705 -47.99943454793623, 69.2109375 -47.999" stroke="#9370DB" stroke-width="1.3" fill="none" stroke-dasharray="0 0" style=""/></g><g class="divider" style=""><path d="M-69.2109375 72 C-15.720729707714142 72.00038642886315, 37.769478084571716 72.00077285772632, 69.2109375 72.001 M-69.2109375 72 C-29.956175587750316 72.00028358784992, 9.298586324499368 72.00056717569983, 69.2109375 72.001" stroke="#9370DB" stroke-width="1.3" fill="none" stroke-dasharray="0 0" style=""/></g></g><g class="node default" id="my-svg-classId-AISystem-4" data-look="classic" transform="translate(659.69921875, 370)"><g class="basic label-container outer-path"><path d="M-65.06640625 -96 L65.06640625 -96 L65.06640625 96 L-65.06640625 96" stroke="none" stroke-width="0" fill="#ECECFF" style=""/><path d="M-65.06640625 -96 C-31.5996504151733 -96, 1.8671054196533987 -96, 65.06640625 -96 M-65.06640625 -96 C-31.597003574650017 -96, 1.8723991006999654 -96, 65.06640625 -96 M65.06640625 -96 C65.06640625 -31.482788157737943, 65.06640625 33.034423684524114, 65.06640625 96 M65.06640625 -96 C65.06640625 -21.638235034442758, 65.06640625 52.723529931114484, 65.06640625 96 M65.06640625 96 C13.108209056306812 96, -38.849988137386376 96, -65.06640625 96 M65.06640625 96 C29.688390346783564 96, -5.689625556432873 96, -65.06640625 96 M-65.06640625 96 C-65.06640625 51.89005283999389, -65.06640625 7.780105679987784, -65.06640625 -96 M-65.06640625 96 C-65.06640625 57.10753373364205, -65.06640625 18.2150674672841, -65.06640625 -96" stroke="#9370DB" stroke-width="1.3" fill="none" stroke-dasharray="0 0" style=""/></g><g class="annotation-group text" transform="translate(0, -72)"/><g class="label-group text" transform="translate(-33.7421875, -72)"><g class="label" style="font-weight: bolder" transform="translate(0,-12)"><foreignObject width="67.484375" height="24"><div xmlns="http://www.w3.org/1999/xhtml" style="display: table-cell; white-space: nowrap; line-height: 1.5; max-width: 116px; text-align: center;"><span class="nodeLabel markdown-node-label" style=""><p>AISystem</p></span></div></foreignObject></g></g><g class="members-group text" transform="translate(-53.06640625, -24)"><g class="label" style="" transform="translate(0,-12)"><foreignObject width="72.390625" height="24"><div xmlns="http://www.w3.org/1999/xhtml" style="display: table-cell; white-space: nowrap; line-height: 1.5; max-width: 128px; text-align: center;"><span class="nodeLabel markdown-node-label" style=""><p>+决策算法</p></span></div></foreignObject></g><g class="label" style="" transform="translate(0,12)"><foreignObject width="72.390625" height="24"><div xmlns="http://www.w3.org/1999/xhtml" style="display: table-cell; white-space: nowrap; line-height: 1.5; max-width: 128px; text-align: center;"><span class="nodeLabel markdown-node-label" style=""><p>+评估函数</p></span></div></foreignObject></g><g class="label" style="" transform="translate(0,36)"><foreignObject width="72.390625" height="24"><div xmlns="http://www.w3.org/1999/xhtml" style="display: table-cell; white-space: nowrap; line-height: 1.5; max-width: 128px; text-align: center;"><span class="nodeLabel markdown-node-label" style=""><p>+难度调整</p></span></div></foreignObject></g><g class="label" style="" transform="translate(0,60)"><foreignObject width="72.390625" height="24"><div xmlns="http://www.w3.org/1999/xhtml" style="display: table-cell; white-space: nowrap; line-height: 1.5; max-width: 128px; text-align: center;"><span class="nodeLabel markdown-node-label" style=""><p>+目标选择</p></span></div></foreignObject></g></g><g class="methods-group text" transform="translate(-53.06640625, 96)"/><g class="divider" style=""><path d="M-65.06640625 -48 C-27.676439312996784 -47.9997126784074, 9.713527624006431 -47.999425356814804, 65.06640625 -47.999 M-65.06640625 -48 C-13.622346569786473 -47.999604680336255, 37.821713110427055 -47.9992093606725, 65.06640625 -47.999" stroke="#9370DB" stroke-width="1.3" fill="none" stroke-dasharray="0 0" style=""/></g><g class="divider" style=""><path d="M-65.06640625 72 C-14.36464537440942 72.00038961550052, 36.33711550118116 72.00077923100103, 65.06640625 72.001 M-65.06640625 72 C-14.042827381131147 72.00039208849704, 36.980751487737706 72.00078417699409, 65.06640625 72.001" stroke="#9370DB" stroke-width="1.3" fill="none" stroke-dasharray="0 0" style=""/></g></g><g class="node default" id="my-svg-classId-DamageSystem-5" data-look="classic" transform="translate(850.76171875, 370)"><g class="basic label-container outer-path"><path d="M-75.99609375 -96 L75.99609375 -96 L75.99609375 96 L-75.99609375 96" stroke="none" stroke-width="0" fill="#ECECFF" style=""/><path d="M-75.99609375 -96 C-28.651825165663425 -96, 18.69244341867315 -96, 75.99609375 -96 M-75.99609375 -96 C-41.69807480256583 -96, -7.400055855131654 -96, 75.99609375 -96 M75.99609375 -96 C75.99609375 -37.204337123631504, 75.99609375 21.591325752736992, 75.99609375 96 M75.99609375 -96 C75.99609375 -21.275535715417902, 75.99609375 53.448928569164195, 75.99609375 96 M75.99609375 96 C22.710844624056207 96, -30.574404501887585 96, -75.99609375 96 M75.99609375 96 C38.11908594617414 96, 0.24207814234827651 96, -75.99609375 96 M-75.99609375 96 C-75.99609375 28.24717915660348, -75.99609375 -39.50564168679304, -75.99609375 -96 M-75.99609375 96 C-75.99609375 31.311648885454545, -75.99609375 -33.37670222909091, -75.99609375 -96" stroke="#9370DB" stroke-width="1.3" fill="none" stroke-dasharray="0 0" style=""/></g><g class="annotation-group text" transform="translate(0, -72)"/><g class="label-group text" transform="translate(-55.6015625, -72)"><g class="label" style="font-weight: bolder" transform="translate(0,-12)"><foreignObject width="111.203125" height="24"><div xmlns="http://www.w3.org/1999/xhtml" style="display: table-cell; white-space: nowrap; line-height: 1.5; max-width: 152px; text-align: center;"><span class="nodeLabel markdown-node-label" style=""><p>DamageSystem</p></span></div></foreignObject></g></g><g class="members-group text" transform="translate(-63.99609375, -24)"><g class="label" style="" transform="translate(0,-12)"><foreignObject width="72.390625" height="24"><div xmlns="http://www.w3.org/1999/xhtml" style="display: table-cell; white-space: nowrap; line-height: 1.5; max-width: 128px; text-align: center;"><span class="nodeLabel markdown-node-label" style=""><p>+伤害计算</p></span></div></foreignObject></g><g class="label" style="" transform="translate(0,12)"><foreignObject width="72.390625" height="24"><div xmlns="http://www.w3.org/1999/xhtml" style="display: table-cell; white-space: nowrap; line-height: 1.5; max-width: 128px; text-align: center;"><span class="nodeLabel markdown-node-label" style=""><p>+命中判定</p></span></div></foreignObject></g><g class="label" style="" transform="translate(0,36)"><foreignObject width="72.390625" height="24"><div xmlns="http://www.w3.org/1999/xhtml" style="display: table-cell; white-space: nowrap; line-height: 1.5; max-width: 128px; text-align: center;"><span class="nodeLabel markdown-node-label" style=""><p>+暴击判定</p></span></div></foreignObject></g><g class="label" style="" transform="translate(0,60)"><foreignObject width="72.390625" height="24"><div xmlns="http://www.w3.org/1999/xhtml" style="display: table-cell; white-space: nowrap; line-height: 1.5; max-width: 128px; text-align: center;"><span class="nodeLabel markdown-node-label" style=""><p>+伤害应用</p></span></div></foreignObject></g></g><g class="methods-group text" transform="translate(-63.99609375, 96)"/><g class="divider" style=""><path d="M-75.99609375 -48 C-35.92034315763286 -47.999736330194, 4.155407434734286 -47.999472660387994, 75.99609375 -47.999 M-75.99609375 -48 C-17.267463992037023 -47.999613607575995, 41.461165765925955 -47.99922721515199, 75.99609375 -47.999" stroke="#9370DB" stroke-width="1.3" fill="none" stroke-dasharray="0 0" style=""/></g><g class="divider" style=""><path d="M-75.99609375 72 C-22.725010438940593 72.00035048566764, 30.546072872118813 72.00070097133528, 75.99609375 72.001 M-75.99609375 72 C-36.03044396405067 72.00026294542137, 3.9352058218986627 72.00052589084272, 75.99609375 72.001" stroke="#9370DB" stroke-width="1.3" fill="none" stroke-dasharray="0 0" style=""/></g></g></g></g></g><defs><filter id="my-svg-drop-shadow" height="130%" width="130%"><feDropShadow dx="4" dy="4" stdDeviation="0" flood-opacity="0.06" flood-color="#000000"/></filter></defs><defs><filter id="my-svg-drop-shadow-small" height="150%" width="150%"><feDropShadow dx="2" dy="2" stdDeviation="0" flood-opacity="0.06" flood-color="#000000"/></filter></defs></svg>