<?xml version="1.0" encoding="UTF-8" standalone="yes"?><svg xmlns="http://www.w3.org/2000/svg" xmlns:xlink="http://www.w3.org/1999/xlink" version="1.2" baseProfile="tiny" x="0" y="0" width="1434" height="797" viewBox="0 0 1433.92 797"><defs/><g id="graph0" class="graph" transform="matrix(1,0,0,1,4,793)"><polygon fill="#ffffff" stroke="rgba(0,0,0,0)" points="-4,4 -4,-793 1429.92,-793 1429.92,4 -4,4"/><g id="node1" class="node"><polygon fill="#e3f2fd" stroke="#1976d2" stroke-width="2" points="798.229,-475.5 798.229,-603.5 1041.93,-603.5 1041.93,-475.5 798.229,-475.5"/><text fill="#000000" font-family="Times,serif" font-size="10" text-anchor="middle" x="829.284" y="-536.5"><tspan>IChessSkill</tspan></text><polyline fill="none" stroke="#1976d2" stroke-width="2" points="860.34,-475.5 860.34,-603.5"/><text fill="#000000" font-family="Times,serif" font-size="10" text-anchor="middle" x="951.136" y="-590.5"><tspan>+ skillId: int</tspan></text><text fill="#000000" font-family="Times,serif" font-size="10" text-anchor="middle" x="951.136" y="-578.5"><tspan>+ skillName: string</tspan></text><text fill="#000000" font-family="Times,serif" font-size="10" text-anchor="middle" x="951.136" y="-566.5"><tspan>+ skillConfig: SkillConfig</tspan></text><text fill="#000000" font-family="Times,serif" font-size="10" text-anchor="middle" x="951.136" y="-554.5"><tspan>+ cooldownManager: CooldownManager</tspan></text><text fill="#000000" font-family="Times,serif" font-size="10" text-anchor="middle" x="951.136" y="-542.5"><tspan>---</tspan></text><text fill="#000000" font-family="Times,serif" font-size="10" text-anchor="middle" x="951.136" y="-530.5"><tspan>+ ExecuteSkill(caster, target)*</tspan></text><text fill="#000000" font-family="Times,serif" font-size="10" text-anchor="middle" x="951.136" y="-518.5"><tspan>+ CalculateDamage(caster)*</tspan></text><text fill="#000000" font-family="Times,serif" font-size="10" text-anchor="middle" x="951.136" y="-506.5"><tspan>+ GetCooldown()*</tspan></text><text fill="#000000" font-family="Times,serif" font-size="10" text-anchor="middle" x="951.136" y="-494.5"><tspan>+ IsAvailable()*</tspan></text><text fill="#000000" font-family="Times,serif" font-size="10" text-anchor="middle" x="951.136" y="-482.5"><tspan>+ OnSkillHit(target)*</tspan></text></g><g id="node3" class="node"><polygon fill="#fff3e0" stroke="#e65100" stroke-width="2" points="1221.78,-624.5 1221.78,-788.5 1394.97,-788.5 1394.97,-624.5 1221.78,-624.5"/><text fill="#000000" font-family="Times,serif" font-size="10" text-anchor="middle" x="1253.12" y="-703.5"><tspan>SkillConfig</tspan></text><polyline fill="none" stroke="#e65100" stroke-width="2" points="1284.46,-624.5 1284.46,-788.5"/><text fill="#000000" font-family="Times,serif" font-size="10" text-anchor="middle" x="1339.71" y="-775.5"><tspan>+ skillId: int</tspan></text><text fill="#000000" font-family="Times,serif" font-size="10" text-anchor="middle" x="1339.71" y="-763.5"><tspan>+ skillName: string</tspan></text><text fill="#000000" font-family="Times,serif" font-size="10" text-anchor="middle" x="1339.71" y="-751.5"><tspan>+ skillType: int</tspan></text><text fill="#000000" font-family="Times,serif" font-size="10" text-anchor="middle" x="1339.71" y="-739.5"><tspan>+ baseDamage: float</tspan></text><text fill="#000000" font-family="Times,serif" font-size="10" text-anchor="middle" x="1339.71" y="-727.5"><tspan>+ damageType: int</tspan></text><text fill="#000000" font-family="Times,serif" font-size="10" text-anchor="middle" x="1339.71" y="-715.5"><tspan>+ cooldownTime: float</tspan></text><text fill="#000000" font-family="Times,serif" font-size="10" text-anchor="middle" x="1339.71" y="-703.5"><tspan>+ manaCost: int</tspan></text><text fill="#000000" font-family="Times,serif" font-size="10" text-anchor="middle" x="1339.71" y="-691.5"><tspan>+ targetType: int</tspan></text><text fill="#000000" font-family="Times,serif" font-size="10" text-anchor="middle" x="1339.71" y="-679.5"><tspan>+ effectRadius: float</tspan></text><text fill="#000000" font-family="Times,serif" font-size="10" text-anchor="middle" x="1339.71" y="-667.5"><tspan>+ buffIds: int[]</tspan></text><text fill="#000000" font-family="Times,serif" font-size="10" text-anchor="middle" x="1339.71" y="-655.5"><tspan>+ selfBuffIds: int[]</tspan></text><text fill="#000000" font-family="Times,serif" font-size="10" text-anchor="middle" x="1339.71" y="-643.5"><tspan>+ castAnimation: string</tspan></text><text fill="#000000" font-family="Times,serif" font-size="10" text-anchor="middle" x="1339.71" y="-631.5"><tspan>+ castEffect: string</tspan></text></g><g id="edge2" class="edge"><path fill="none" stroke="#000000" d="M 1042.14 -591.996 C 1096.42 -615.339 1159.45 -642.449 1210.56 -664.429"/><polygon fill="#000000" stroke="#000000" points="1210.58,-664.44 1217.68,-663.136 1221.61,-669.182 1214.52,-670.486 1210.58,-664.44"/><text fill="#000000" font-family="Times,serif" font-size="14" text-anchor="middle" x="1119.92" y="-642.7"><tspan>持有配置</tspan></text></g><g id="node4" class="node"><polygon fill="#f3e5f5" stroke="#4a148c" stroke-width="2" points="1190.84,-464.5 1190.84,-580.5 1425.92,-580.5 1425.92,-464.5 1190.84,-464.5"/><text fill="#000000" font-family="Times,serif" font-size="10" text-anchor="middle" x="1237.44" y="-519.5"><tspan>CooldownManager</tspan></text><polyline fill="none" stroke="#4a148c" stroke-width="2" points="1284.04,-464.5 1284.04,-580.5"/><text fill="#000000" font-family="Times,serif" font-size="10" text-anchor="middle" x="1354.98" y="-567.5"><tspan>+ skillId: int</tspan></text><text fill="#000000" font-family="Times,serif" font-size="10" text-anchor="middle" x="1354.98" y="-555.5"><tspan>+ cooldownTime: float</tspan></text><text fill="#000000" font-family="Times,serif" font-size="10" text-anchor="middle" x="1354.98" y="-543.5"><tspan>+ remainingTime: float</tspan></text><text fill="#000000" font-family="Times,serif" font-size="10" text-anchor="middle" x="1354.98" y="-531.5"><tspan>+ isInCooldown: bool</tspan></text><text fill="#000000" font-family="Times,serif" font-size="10" text-anchor="middle" x="1354.98" y="-519.5"><tspan>---</tspan></text><text fill="#000000" font-family="Times,serif" font-size="10" text-anchor="middle" x="1354.98" y="-507.5"><tspan>+ StartCooldown(duration)</tspan></text><text fill="#000000" font-family="Times,serif" font-size="10" text-anchor="middle" x="1354.98" y="-495.5"><tspan>+ UpdateCooldown(deltaTime)</tspan></text><text fill="#000000" font-family="Times,serif" font-size="10" text-anchor="middle" x="1354.98" y="-483.5"><tspan>+ IsReady()</tspan></text><text fill="#000000" font-family="Times,serif" font-size="10" text-anchor="middle" x="1354.98" y="-471.5"><tspan>+ GetRemainingTime()</tspan></text></g><g id="edge3" class="edge"><path fill="none" stroke="#000000" d="M 1042.14 -534.156 C 1085.63 -532.252 1134.74 -530.102 1178.83 -528.172"/><polygon fill="#000000" stroke="#000000" points="1178.83,-528.172 1184.65,-523.913 1190.82,-527.647 1185,-531.905 1178.83,-528.172"/><text fill="#000000" font-family="Times,serif" font-size="14" text-anchor="middle" x="1119.92" y="-536.7"><tspan>持有冷却管理</tspan></text></g><g id="node2" class="node"><polygon fill="#e3f2fd" stroke="#1976d2" stroke-width="2" points="0,-493.5 0,-585.5 288.37,-585.5 288.37,-493.5 0,-493.5"/><text fill="#000000" font-family="Times,serif" font-size="10" text-anchor="middle" x="58.261" y="-536.5"><tspan>ChessNormalAttackBase</tspan></text><polyline fill="none" stroke="#1976d2" stroke-width="2" points="116.522,-493.5 116.522,-585.5"/><text fill="#000000" font-family="Times,serif" font-size="10" text-anchor="middle" x="202.446" y="-572.5"><tspan># m_Config: SkillConfig</tspan></text><text fill="#000000" font-family="Times,serif" font-size="10" text-anchor="middle" x="202.446" y="-560.5"><tspan># m_LastExecuteTime: float</tspan></text><text fill="#000000" font-family="Times,serif" font-size="10" text-anchor="middle" x="202.446" y="-548.5"><tspan>---</tspan></text><text fill="#000000" font-family="Times,serif" font-size="10" text-anchor="middle" x="202.446" y="-536.5"><tspan>+ ExecuteAttack(caster, target)*</tspan></text><text fill="#000000" font-family="Times,serif" font-size="10" text-anchor="middle" x="202.446" y="-524.5"><tspan>+ CalculateDamage(caster, isCritical)*</tspan></text><text fill="#000000" font-family="Times,serif" font-size="10" text-anchor="middle" x="202.446" y="-512.5"><tspan>+ GetSkillConfig()</tspan></text><text fill="#000000" font-family="Times,serif" font-size="10" text-anchor="middle" x="202.446" y="-500.5"><tspan>+ GetCooldownTime()</tspan></text></g><g id="edge1" class="edge"><path fill="none" stroke="#000000" d="M 288.76 -539.5 C 431.836 -539.5 648.995 -539.5 787.678 -539.5"/><polygon fill="none" stroke="#000000" points="787.939,-543 797.939,-539.5 787.939,-536 787.939,-543"/><text fill="#000000" font-family="Times,serif" font-size="14" text-anchor="middle" x="528.68" y="-543.7"><tspan>实现</tspan></text></g><g id="edge4" class="edge"><path fill="none" stroke="#000000" stroke-dasharray="5,2" d="M 200.945 -585.631 C 253.196 -625.074 334.649 -679.195 415.583 -703.5 C 694.399 -787.23 1044.66 -749.716 1211.45 -723.793"/><polygon fill="#000000" stroke="#000000" points="1221.69,-722.182 1212.51,-728.183 1216.75,-722.96 1211.81,-723.737 1211.81,-723.737 1211.81,-723.737 1216.75,-722.96 1211.11,-719.292 1221.69,-722.182 1221.69,-722.182"/><text fill="#000000" font-family="Times,serif" font-size="14" text-anchor="middle" x="716.472" y="-757.7"><tspan>引用配置</tspan></text></g><g id="node5" class="node"><polygon fill="#e8f5e9" stroke="#1b5e20" stroke-width="2" points="415.583,-288.5 415.583,-404.5 641.777,-404.5 641.777,-288.5 415.583,-288.5"/><text fill="#000000" font-family="Times,serif" font-size="10" text-anchor="middle" x="451.079" y="-343.5"><tspan>SkillExecutor</tspan></text><polyline fill="none" stroke="#1b5e20" stroke-width="2" points="486.574,-288.5 486.574,-404.5"/><text fill="#000000" font-family="Times,serif" font-size="10" text-anchor="middle" x="564.176" y="-391.5"><tspan>+ m_CurrentSkill: IChessSkill</tspan></text><text fill="#000000" font-family="Times,serif" font-size="10" text-anchor="middle" x="564.176" y="-379.5"><tspan>+ m_CasterEntity: ChessEntity</tspan></text><text fill="#000000" font-family="Times,serif" font-size="10" text-anchor="middle" x="564.176" y="-367.5"><tspan>---</tspan></text><text fill="#000000" font-family="Times,serif" font-size="10" text-anchor="middle" x="564.176" y="-355.5"><tspan>+ ExecuteSkill(skill, caster, target)</tspan></text><text fill="#000000" font-family="Times,serif" font-size="10" text-anchor="middle" x="564.176" y="-343.5"><tspan>+ PlayAnimation(animName)</tspan></text><text fill="#000000" font-family="Times,serif" font-size="10" text-anchor="middle" x="564.176" y="-331.5"><tspan>+ PlayEffect(effectName)</tspan></text><text fill="#000000" font-family="Times,serif" font-size="10" text-anchor="middle" x="564.176" y="-319.5"><tspan>+ OnSkillStart()</tspan></text><text fill="#000000" font-family="Times,serif" font-size="10" text-anchor="middle" x="564.176" y="-307.5"><tspan>+ OnSkillExecute()</tspan></text><text fill="#000000" font-family="Times,serif" font-size="10" text-anchor="middle" x="564.176" y="-295.5"><tspan>+ OnSkillEnd()</tspan></text></g><g id="edge5" class="edge"><path fill="none" stroke="#000000" stroke-dasharray="5,2" d="M 236.281 -493.272 C 287.21 -467.707 351.15 -435.613 406.24 -407.96"/><polygon fill="#000000" stroke="#000000" points="415.354,-403.385 408.435,-411.893 410.885,-405.628 406.417,-407.871 406.417,-407.871 406.417,-407.871 410.885,-405.628 404.398,-403.849 415.354,-403.385 415.354,-403.385"/><text fill="#000000" font-family="Times,serif" font-size="14" text-anchor="middle" x="351.977" y="-453.7"><tspan>委托执行</tspan></text></g><g id="edge6" class="edge"><path fill="none" stroke="#000000" d="M 641.889 -402.324 C 687.809 -424.967 741.147 -451.267 788.761 -474.747"/><polygon fill="#000000" stroke="#000000" points="797.893,-479.249 786.934,-478.863 793.408,-477.038 788.924,-474.827 788.924,-474.827 788.924,-474.827 793.408,-477.038 790.914,-470.791 797.893,-479.249 797.893,-479.249"/><text fill="#000000" font-family="Times,serif" font-size="14" text-anchor="middle" x="716.472" y="-459.7"><tspan>调用技能</tspan></text></g><g id="node6" class="node"><polygon fill="#fce4ec" stroke="#c2185b" stroke-width="2" points="830.718,-351.5 830.718,-431.5 1009.44,-431.5 1009.44,-351.5 830.718,-351.5"/><text fill="#000000" font-family="Times,serif" font-size="10" text-anchor="middle" x="869.548" y="-388.5"><tspan>SkillEventArgs</tspan></text><polyline fill="none" stroke="#c2185b" stroke-width="2" points="908.378,-351.5 908.378,-431.5"/><text fill="#000000" font-family="Times,serif" font-size="10" text-anchor="middle" x="958.91" y="-418.5"><tspan>+ skillId: int</tspan></text><text fill="#000000" font-family="Times,serif" font-size="10" text-anchor="middle" x="958.91" y="-406.5"><tspan>+ caster: ChessEntity</tspan></text><text fill="#000000" font-family="Times,serif" font-size="10" text-anchor="middle" x="958.91" y="-394.5"><tspan>+ target: ChessEntity</tspan></text><text fill="#000000" font-family="Times,serif" font-size="10" text-anchor="middle" x="958.91" y="-382.5"><tspan>+ damage: double</tspan></text><text fill="#000000" font-family="Times,serif" font-size="10" text-anchor="middle" x="958.91" y="-370.5"><tspan>+ isCritical: bool</tspan></text><text fill="#000000" font-family="Times,serif" font-size="10" text-anchor="middle" x="958.91" y="-358.5"><tspan>+ affectedBuffs: int[]</tspan></text></g><g id="edge7" class="edge"><path fill="none" stroke="#000000" stroke-dasharray="5,2" d="M 641.889 -359.516 C 698.32 -366.004 765.951 -373.779 820.399 -380.039"/><polygon fill="#000000" stroke="#000000" points="830.406,-381.19 819.957,-384.518 825.439,-380.619 820.471,-380.048 820.471,-380.048 820.471,-380.048 825.439,-380.619 820.986,-375.577 830.406,-381.19 830.406,-381.19"/><text fill="#000000" font-family="Times,serif" font-size="14" text-anchor="middle" x="716.472" y="-376.7"><tspan>发布事件</tspan></text></g><g id="node8" class="node"><polygon fill="#e0f2f1" stroke="#00695c" stroke-width="2" points="800.886,-0.5 800.886,-92.5 1039.27,-92.5 1039.27,-0.5 800.886,-0.5"/><text fill="#000000" font-family="Times,serif" font-size="10" text-anchor="middle" x="838.315" y="-43.5"><tspan>TargetSelector</tspan></text><polyline fill="none" stroke="#00695c" stroke-width="2" points="875.744,-0.5 875.744,-92.5"/><text fill="#000000" font-family="Times,serif" font-size="10" text-anchor="middle" x="957.509" y="-79.5"><tspan>+ m_TargetType: int</tspan></text><text fill="#000000" font-family="Times,serif" font-size="10" text-anchor="middle" x="957.509" y="-67.5"><tspan>---</tspan></text><text fill="#000000" font-family="Times,serif" font-size="10" text-anchor="middle" x="957.509" y="-55.5"><tspan>+ SelectTargets(caster, skillRange)</tspan></text><text fill="#000000" font-family="Times,serif" font-size="10" text-anchor="middle" x="957.509" y="-43.5"><tspan>+ FilterByDistance(targets, distance)</tspan></text><text fill="#000000" font-family="Times,serif" font-size="10" text-anchor="middle" x="957.509" y="-31.5"><tspan>+ FilterByAffiliation(targets, isAlly)</tspan></text><text fill="#000000" font-family="Times,serif" font-size="10" text-anchor="middle" x="957.509" y="-19.5"><tspan>+ SelectNearest(targets)</tspan></text><text fill="#000000" font-family="Times,serif" font-size="10" text-anchor="middle" x="957.509" y="-7.5"><tspan>+ SelectLowestHP(targets)</tspan></text></g><g id="edge9" class="edge"><path fill="none" stroke="#000000" d="M 555.732 -288.38 C 581.011 -239.931 623.051 -172.331 677.777 -130.7 C 710.861 -105.533 752.031 -87.5246 790.992 -74.8005"/><polygon fill="#000000" stroke="#000000" points="800.844,-71.6782 792.671,-78.9892 796.078,-73.1888 791.312,-74.6994 791.312,-74.6994 791.312,-74.6994 796.078,-73.1888 789.952,-70.4097 800.844,-71.6782 800.844,-71.6782"/><text fill="#000000" font-family="Times,serif" font-size="14" text-anchor="middle" x="716.472" y="-135.7"><tspan>选择目标</tspan></text></g><g id="node9" class="node"><polygon fill="#ede7f6" stroke="#512da8" stroke-width="2" points="1203.47,-133.5 1203.47,-225.5 1413.28,-225.5 1413.28,-133.5 1203.47,-133.5"/><text fill="#000000" font-family="Times,serif" font-size="10" text-anchor="middle" x="1233.7" y="-176.5"><tspan>HitContext</tspan></text><polyline fill="none" stroke="#512da8" stroke-width="2" points="1263.92,-133.5 1263.92,-225.5"/><text fill="#000000" font-family="Times,serif" font-size="10" text-anchor="middle" x="1338.6" y="-212.5"><tspan>+ Attacker: ChessEntity</tspan></text><text fill="#000000" font-family="Times,serif" font-size="10" text-anchor="middle" x="1338.6" y="-200.5"><tspan>+ LockedTarget: ChessEntity</tspan></text><text fill="#000000" font-family="Times,serif" font-size="10" text-anchor="middle" x="1338.6" y="-188.5"><tspan>+ BaseDamage: double</tspan></text><text fill="#000000" font-family="Times,serif" font-size="10" text-anchor="middle" x="1338.6" y="-176.5"><tspan>+ IsCritical: bool</tspan></text><text fill="#000000" font-family="Times,serif" font-size="10" text-anchor="middle" x="1338.6" y="-164.5"><tspan>+ SkillConfig: SkillConfig</tspan></text><text fill="#000000" font-family="Times,serif" font-size="10" text-anchor="middle" x="1338.6" y="-152.5"><tspan>+ OnHitCallback: Action</tspan></text><text fill="#000000" font-family="Times,serif" font-size="10" text-anchor="middle" x="1338.6" y="-140.5"><tspan>+ AffectedTargets: ChessEntity[]</tspan></text></g><g id="edge8" class="edge"><path fill="none" stroke="#000000" d="M 609.723 -288.448 C 659.515 -256.204 726.053 -219.001 791.166 -200.7 C 925.267 -163.009 1086.59 -163.188 1193 -169.196"/><polygon fill="#000000" stroke="#000000" points="1203.13,-169.794 1192.88,-173.696 1198.14,-169.499 1193.15,-169.204 1193.15,-169.204 1193.15,-169.204 1198.14,-169.499 1193.41,-164.712 1203.13,-169.794 1203.13,-169.794"/><text fill="#000000" font-family="Times,serif" font-size="14" text-anchor="middle" x="920.08" y="-205.7"><tspan>构建上下文</tspan></text></g><g id="node10" class="node"><polygon fill="#fff9c4" stroke="#f57f17" stroke-width="2" points="791.166,-239.5 791.166,-307.5 1048.99,-307.5 1048.99,-239.5 791.166,-239.5"/><text fill="#000000" font-family="Times,serif" font-size="10" text-anchor="middle" x="834.988" y="-270.5"><tspan>CriticalCalculator</tspan></text><polyline fill="none" stroke="#f57f17" stroke-width="2" points="878.81,-239.5 878.81,-307.5"/><text fill="#000000" font-family="Times,serif" font-size="10" text-anchor="middle" x="963.902" y="-294.5"><tspan>+ criticalRate: float</tspan></text><text fill="#000000" font-family="Times,serif" font-size="10" text-anchor="middle" x="963.902" y="-282.5"><tspan>+ criticalDamage: float</tspan></text><text fill="#000000" font-family="Times,serif" font-size="10" text-anchor="middle" x="963.902" y="-270.5"><tspan>---</tspan></text><text fill="#000000" font-family="Times,serif" font-size="10" text-anchor="middle" x="963.902" y="-258.5"><tspan>+ CalculateCritical(attacker)</tspan></text><text fill="#000000" font-family="Times,serif" font-size="10" text-anchor="middle" x="963.902" y="-246.5"><tspan>+ ApplyCriticalDamage(baseDamage)</tspan></text></g><g id="edge10" class="edge"><path fill="none" stroke="#000000" d="M 641.889 -325.385 C 685.324 -317.284 735.395 -307.946 780.982 -299.443"/><polygon fill="#000000" stroke="#000000" points="790.941,-297.586 781.935,-303.843 786.025,-298.503 781.11,-299.419 781.11,-299.419 781.11,-299.419 786.025,-298.503 780.285,-294.996 790.941,-297.586 790.941,-297.586"/><text fill="#000000" font-family="Times,serif" font-size="14" text-anchor="middle" x="716.472" y="-323.7"><tspan>计算暴击</tspan></text></g><g id="node7" class="node"><polygon fill="#f1f8e9" stroke="#558b2f" stroke-width="2" points="419.594,-637.5 419.594,-681.5 637.767,-681.5 637.767,-637.5 419.594,-637.5"/><text fill="#000000" font-family="Times,serif" font-size="10" text-anchor="middle" x="452.314" y="-656.5"><tspan>SkillFactory</tspan></text><polyline fill="none" stroke="#558b2f" stroke-width="2" points="485.035,-637.5 485.035,-681.5"/><text fill="#000000" font-family="Times,serif" font-size="10" text-anchor="middle" x="561.401" y="-668.5"><tspan>+ CreateSkill(skillId): IChessSkill</tspan></text><text fill="#000000" font-family="Times,serif" font-size="10" text-anchor="middle" x="561.401" y="-656.5"><tspan>+ RegisterSkill(skillId, skillType)</tspan></text><text fill="#000000" font-family="Times,serif" font-size="10" text-anchor="middle" x="561.401" y="-644.5"><tspan>+ GetSkillConfig(skillId)</tspan></text></g><g id="edge11" class="edge"><path fill="none" stroke="#000000" stroke-dasharray="5,2" d="M 600.469 -637.49 C 652.948 -621.401 725.622 -599.119 788.412 -579.869"/><polygon fill="#000000" stroke="#000000" points="798,-576.929 789.758,-584.163 793.219,-578.395 788.439,-579.86 788.439,-579.86 788.439,-579.86 793.219,-578.395 787.12,-575.558 798,-576.929 798,-576.929"/><text fill="#000000" font-family="Times,serif" font-size="14" text-anchor="middle" x="716.472" y="-618.7"><tspan>创建</tspan></text></g><g id="edge12" class="edge"><path fill="none" stroke="#000000" stroke-dasharray="5,2" d="M 637.915 -666.085 C 790.579 -675.287 1065.37 -691.852 1211.25 -700.645"/><polygon fill="#000000" stroke="#000000" points="1221.53,-701.265 1211.28,-705.155 1216.54,-700.964 1211.55,-700.663 1211.55,-700.663 1211.55,-700.663 1216.54,-700.964 1211.82,-696.171 1221.53,-701.265 1221.53,-701.265"/><text fill="#000000" font-family="Times,serif" font-size="14" text-anchor="middle" x="920.08" y="-695.7"><tspan>读取配置</tspan></text></g><g id="edge13" class="edge"><path fill="none" stroke="#000000" stroke-dasharray="5,2" d="M 1039.49 -87.3989 C 1088.59 -104.218 1145.22 -123.616 1193.81 -140.259"/><polygon fill="#000000" stroke="#000000" points="1203.42,-143.549 1192.5,-144.566 1198.69,-141.929 1193.96,-140.309 1193.96,-140.309 1193.96,-140.309 1198.69,-141.929 1195.42,-136.052 1203.42,-143.549 1203.42,-143.549"/><text fill="#000000" font-family="Times,serif" font-size="14" text-anchor="middle" x="1119.92" y="-129.7"><tspan>填充目标</tspan></text></g><g id="edge14" class="edge"><path fill="none" stroke="#000000" stroke-dasharray="5,2" d="M 1049.11 -242.265 C 1095.78 -230.966 1148.13 -218.293 1193.51 -207.309"/><polygon fill="#000000" stroke="#000000" points="1203.38,-204.919 1194.72,-211.646 1198.52,-206.095 1193.66,-207.272 1193.66,-207.272 1193.66,-207.272 1198.52,-206.095 1192.6,-202.898 1203.38,-204.919 1203.38,-204.919"/><text fill="#000000" font-family="Times,serif" font-size="14" text-anchor="middle" x="1119.92" y="-236.7"><tspan>填充暴击</tspan></text></g></g></svg>
