<?xml version="1.0" encoding="UTF-8" standalone="yes"?><svg xmlns="http://www.w3.org/2000/svg" xmlns:xlink="http://www.w3.org/1999/xlink" version="1.2" baseProfile="tiny" x="0" y="0" width="1298" height="650" viewBox="0 0 1298 650.4"><defs/><g id="graph0" class="graph" transform="matrix(1,0,0,1,4,646.4)"><polygon fill="#ffffff" stroke="rgba(0,0,0,0)" points="-4,4 -4,-646.4 1294,-646.4 1294,4 -4,4"/><g id="clust1" class="cluster"><polygon fill="#f0f0f0" stroke="#000000" points="477,-552 477,-634.4 625,-634.4 625,-552 477,-552"/><text fill="#000000" font-family="SimHei,sans-serif" font-size="14" text-anchor="middle" x="551" y="-617.8"><tspan>视野检测系统</tspan></text></g><g id="clust2" class="cluster"><polygon fill="#f0f0f0" stroke="#000000" points="8,-288.4 8,-504 333,-504 333,-288.4 8,-288.4"/><text fill="#000000" font-family="SimHei,sans-serif" font-size="14" text-anchor="middle" x="170.5" y="-487.4"><tspan>圈形检测 听觉/感知</tspan></text></g><g id="clust3" class="cluster"><polygon fill="#f0f0f0" stroke="#000000" points="381,-288.4 381,-504 736,-504 736,-288.4 381,-288.4"/><text fill="#000000" font-family="SimHei,sans-serif" font-size="14" text-anchor="middle" x="558.5" y="-487.4"><tspan>扇形检测 视觉</tspan></text></g><g id="clust4" class="cluster"><polygon fill="#f0f0f0" stroke="#000000" points="966,-8 966,-634.4 1282,-634.4 1282,-8 966,-8"/><text fill="#000000" font-family="SimHei,sans-serif" font-size="14" text-anchor="middle" x="1124" y="-617.8"><tspan>警觉度状态</tspan></text></g><g id="clust5" class="cluster"><polygon fill="#f0f0f0" stroke="#000000" points="762,-144 762,-504 926,-504 926,-144 762,-144"/><text fill="#000000" font-family="SimHei,sans-serif" font-size="14" text-anchor="middle" x="844" y="-487.4"><tspan>UI反馈系统</tspan></text></g><g id="node1" class="node"><path fill="#b3e5fc" stroke="#01579b" d="M 604.576 -601.402 C 604.576 -601.402 497.424 -601.402 497.424 -601.402 C 491.424 -601.402 485.424 -595.402 485.424 -589.402 C 485.424 -589.402 485.424 -572.198 485.424 -572.198 C 485.424 -566.198 491.424 -560.198 497.424 -560.198 C 497.424 -560.198 604.576 -560.198 604.576 -560.198 C 610.576 -560.198 616.576 -566.198 616.576 -572.198 C 616.576 -572.198 616.576 -589.402 616.576 -589.402 C 616.576 -595.402 610.576 -601.402 604.576 -601.402 Z"/><text fill="#000000" font-family="SimHei,sans-serif" font-size="14" text-anchor="middle" x="551" y="-585"><tspan>VisionConeDetector</tspan></text><text fill="#000000" font-family="SimHei,sans-serif" font-size="14" text-anchor="middle" x="551" y="-568.2"><tspan>视野检测</tspan></text></g><g id="node2" class="node"><path fill="#c8e6c9" stroke="#2e7d32" d="M 313.158 -471.2 C 313.158 -471.2 214.842 -471.2 214.842 -471.2 C 208.842 -471.2 202.842 -465.2 202.842 -459.2 C 202.842 -459.2 202.842 -447.2 202.842 -447.2 C 202.842 -441.2 208.842 -435.2 214.842 -435.2 C 214.842 -435.2 313.158 -435.2 313.158 -435.2 C 319.158 -435.2 325.158 -441.2 325.158 -447.2 C 325.158 -447.2 325.158 -459.2 325.158 -459.2 C 325.158 -465.2 319.158 -471.2 313.158 -471.2 Z"/><text fill="#000000" font-family="SimHei,sans-serif" font-size="14" text-anchor="middle" x="264" y="-449"><tspan>范围: 360度圆形</tspan></text></g><g id="edge1" class="edge"><path fill="none" stroke="#000000" d="M 498.037 -560.15 C 460.572 -545.248 409.324 -524.263 365 -504 C 345.847 -495.244 325.006 -484.903 307.257 -475.845"/><polygon fill="#000000" stroke="#000000" points="308.778,-472.692 298.283,-471.24 305.582,-478.92 308.778,-472.692"/></g><g id="node5" class="node"><path fill="#c8e6c9" stroke="#2e7d32" d="M 596.658 -471.2 C 596.658 -471.2 505.342 -471.2 505.342 -471.2 C 499.342 -471.2 493.342 -465.2 493.342 -459.2 C 493.342 -459.2 493.342 -447.2 493.342 -447.2 C 493.342 -441.2 499.342 -435.2 505.342 -435.2 C 505.342 -435.2 596.658 -435.2 596.658 -435.2 C 602.658 -435.2 608.658 -441.2 608.658 -447.2 C 608.658 -447.2 608.658 -459.2 608.658 -459.2 C 608.658 -465.2 602.658 -471.2 596.658 -471.2 Z"/><text fill="#000000" font-family="SimHei,sans-serif" font-size="14" text-anchor="middle" x="551" y="-449"><tspan>范围: 60度扇形</tspan></text></g><g id="edge2" class="edge"><path fill="none" stroke="#000000" d="M 551 -560.015 C 551 -538.703 551 -505.406 551 -481.656"/><polygon fill="#000000" stroke="#000000" points="554.5,-481.493 551,-471.493 547.5,-481.493 554.5,-481.493"/></g><g id="node14" class="node"><path fill="#f3e5f5" stroke="#4a148c" d="M 906.437 -471.2 C 906.437 -471.2 781.563 -471.2 781.563 -471.2 C 775.563 -471.2 769.563 -465.2 769.563 -459.2 C 769.563 -459.2 769.563 -447.2 769.563 -447.2 C 769.563 -441.2 775.563 -435.2 781.563 -435.2 C 781.563 -435.2 906.437 -435.2 906.437 -435.2 C 912.437 -435.2 918.437 -441.2 918.437 -447.2 C 918.437 -447.2 918.437 -459.2 918.437 -459.2 C 918.437 -465.2 912.437 -471.2 906.437 -471.2 Z"/><text fill="#000000" font-family="SimHei,sans-serif" font-size="14" text-anchor="middle" x="844" y="-449"><tspan>EnemyAlertUIManager</tspan></text></g><g id="edge14" class="edge"><path fill="none" stroke="#000000" d="M 611.716 -560.1 C 652.074 -545.735 705.921 -525.398 752 -504 C 769.707 -495.778 788.684 -485.554 804.776 -476.438"/><polygon fill="#000000" stroke="#000000" points="806.947,-479.229 813.886,-471.223 803.469,-473.154 806.947,-479.229"/></g><g id="node3" class="node"><path fill="#c8e6c9" stroke="#2e7d32" d="M 130.427 -337.802 C 130.427 -337.802 27.5729 -337.802 27.5729 -337.802 C 21.5729 -337.802 15.5729 -331.802 15.5729 -325.802 C 15.5729 -325.802 15.5729 -308.598 15.5729 -308.598 C 15.5729 -302.598 21.5729 -296.598 27.5729 -296.598 C 27.5729 -296.598 130.427 -296.598 130.427 -296.598 C 136.427 -296.598 142.427 -302.598 142.427 -308.598 C 142.427 -308.598 142.427 -325.802 142.427 -325.802 C 142.427 -331.802 136.427 -337.802 130.427 -337.802 Z"/><text fill="#000000" font-family="SimHei,sans-serif" font-size="14" text-anchor="middle" x="79" y="-321.4"><tspan>距离: 8米</tspan></text><text fill="#000000" font-family="SimHei,sans-serif" font-size="14" text-anchor="middle" x="79" y="-304.6"><tspan>VisionCircleRadius</tspan></text></g><g id="edge3" class="edge"><path fill="none" stroke="#000000" d="M 239.433 -435.14 C 207.768 -411.862 152.43 -371.181 115.749 -344.215"/><polygon fill="#000000" stroke="#000000" points="117.439,-341.114 107.308,-338.01 113.292,-346.754 117.439,-341.114"/></g><g id="node4" class="node"><path fill="#c8e6c9" stroke="#2e7d32" d="M 312.544 -337.802 C 312.544 -337.802 219.456 -337.802 219.456 -337.802 C 213.456 -337.802 207.456 -331.802 207.456 -325.802 C 207.456 -325.802 207.456 -308.598 207.456 -308.598 C 207.456 -302.598 213.456 -296.598 219.456 -296.598 C 219.456 -296.598 312.544 -296.598 312.544 -296.598 C 318.544 -296.598 324.544 -302.598 324.544 -308.598 C 324.544 -308.598 324.544 -325.802 324.544 -325.802 C 324.544 -331.802 318.544 -337.802 312.544 -337.802 Z"/><text fill="#000000" font-family="SimHei,sans-serif" font-size="14" text-anchor="middle" x="266" y="-321.4"><tspan>增长率: 0.5/秒</tspan></text><text fill="#000000" font-family="SimHei,sans-serif" font-size="14" text-anchor="middle" x="266" y="-304.6"><tspan>AlertIncreaseRate</tspan></text></g><g id="edge4" class="edge"><path fill="none" stroke="#000000" d="M 264.266 -435.14 C 264.592 -412.942 265.151 -374.92 265.546 -348.056"/><polygon fill="#000000" stroke="#000000" points="269.046,-348.061 265.694,-338.01 262.047,-347.958 269.046,-348.061"/></g><g id="node6" class="node"><path fill="#c8e6c9" stroke="#2e7d32" d="M 508.86 -337.802 C 508.86 -337.802 401.14 -337.802 401.14 -337.802 C 395.14 -337.802 389.14 -331.802 389.14 -325.802 C 389.14 -325.802 389.14 -308.598 389.14 -308.598 C 389.14 -302.598 395.14 -296.598 401.14 -296.598 C 401.14 -296.598 508.86 -296.598 508.86 -296.598 C 514.86 -296.598 520.86 -302.598 520.86 -308.598 C 520.86 -308.598 520.86 -325.802 520.86 -325.802 C 520.86 -331.802 514.86 -337.802 508.86 -337.802 Z"/><text fill="#000000" font-family="SimHei,sans-serif" font-size="14" text-anchor="middle" x="455" y="-321.4"><tspan>距离: 12米</tspan></text><text fill="#000000" font-family="SimHei,sans-serif" font-size="14" text-anchor="middle" x="455" y="-304.6"><tspan>VisionConeDistance</tspan></text></g><g id="edge5" class="edge"><path fill="none" stroke="#000000" d="M 538.252 -435.14 C 522.236 -412.451 494.55 -373.229 475.534 -346.289"/><polygon fill="#000000" stroke="#000000" points="478.316,-344.162 469.69,-338.01 472.597,-348.199 478.316,-344.162"/></g><g id="node7" class="node"><path fill="#c8e6c9" stroke="#2e7d32" d="M 716.205 -337.802 C 716.205 -337.802 597.795 -337.802 597.795 -337.802 C 591.795 -337.802 585.795 -331.802 585.795 -325.802 C 585.795 -325.802 585.795 -308.598 585.795 -308.598 C 585.795 -302.598 591.795 -296.598 597.795 -296.598 C 597.795 -296.598 716.205 -296.598 716.205 -296.598 C 722.205 -296.598 728.205 -302.598 728.205 -308.598 C 728.205 -308.598 728.205 -325.802 728.205 -325.802 C 728.205 -331.802 722.205 -337.802 716.205 -337.802 Z"/><text fill="#000000" font-family="SimHei,sans-serif" font-size="14" text-anchor="middle" x="657" y="-321.4"><tspan>增长率: 0.75/秒</tspan></text><text fill="#000000" font-family="SimHei,sans-serif" font-size="14" text-anchor="middle" x="657" y="-304.6"><tspan>AlertIncreaseRate×1.5</tspan></text></g><g id="edge6" class="edge"><path fill="none" stroke="#000000" d="M 565.076 -435.14 C 582.837 -412.353 613.595 -372.89 634.6 -345.94"/><polygon fill="#000000" stroke="#000000" points="637.393,-348.049 640.78,-338.01 631.872,-343.746 637.393,-348.049"/></g><g id="node8" class="node"><path fill="#ffcccc" stroke="#b71c1c" d="M 1193.05 -601.402 C 1193.05 -601.402 1136.95 -601.402 1136.95 -601.402 C 1130.95 -601.402 1124.95 -595.402 1124.95 -589.402 C 1124.95 -589.402 1124.95 -572.198 1124.95 -572.198 C 1124.95 -566.198 1130.95 -560.198 1136.95 -560.198 C 1136.95 -560.198 1193.05 -560.198 1193.05 -560.198 C 1199.05 -560.198 1205.05 -566.198 1205.05 -572.198 C 1205.05 -572.198 1205.05 -589.402 1205.05 -589.402 C 1205.05 -595.402 1199.05 -601.402 1193.05 -601.402 Z"/><text fill="#000000" font-family="SimHei,sans-serif" font-size="14" text-anchor="middle" x="1165" y="-585"><tspan>离开范围</tspan></text><text fill="#000000" font-family="SimHei,sans-serif" font-size="14" text-anchor="middle" x="1165" y="-568.2"><tspan>衰减速度</tspan></text></g><g id="node9" class="node"><path fill="#c8e6c9" stroke="#2e7d32" d="M 1184.16 -473.802 C 1184.16 -473.802 1145.84 -473.802 1145.84 -473.802 C 1139.84 -473.802 1133.84 -467.802 1133.84 -461.802 C 1133.84 -461.802 1133.84 -444.598 1133.84 -444.598 C 1133.84 -438.598 1139.84 -432.598 1145.84 -432.598 C 1145.84 -432.598 1184.16 -432.598 1184.16 -432.598 C 1190.16 -432.598 1196.16 -438.598 1196.16 -444.598 C 1196.16 -444.598 1196.16 -461.802 1196.16 -461.802 C 1196.16 -467.802 1190.16 -473.802 1184.16 -473.802 Z"/><text fill="#000000" font-family="SimHei,sans-serif" font-size="14" text-anchor="middle" x="1165" y="-457.4"><tspan>未检测</tspan></text><text fill="#000000" font-family="SimHei,sans-serif" font-size="14" text-anchor="middle" x="1165" y="-440.6"><tspan>0.0 - 0.1</tspan></text></g><g id="edge7" class="edge"><path fill="none" stroke="#000000" d="M 1165 -560.015 C 1165 -539.438 1165 -507.688 1165 -484.146"/><polygon fill="#000000" stroke="#000000" points="1168.5,-483.976 1165,-473.976 1161.5,-483.976 1168.5,-483.976"/></g><g id="node10" class="node"><path fill="#b3e5fc" stroke="#01579b" d="M 1046.32 -346.601 C 1046.32 -346.601 985.679 -346.601 985.679 -346.601 C 979.679 -346.601 973.679 -340.601 973.679 -334.601 C 973.679 -334.601 973.679 -299.799 973.679 -299.799 C 973.679 -293.799 979.679 -287.799 985.679 -287.799 C 985.679 -287.799 1046.32 -287.799 1046.32 -287.799 C 1052.32 -287.799 1058.32 -293.799 1058.32 -299.799 C 1058.32 -299.799 1058.32 -334.601 1058.32 -334.601 C 1058.32 -340.601 1052.32 -346.601 1046.32 -346.601 Z"/><text fill="#000000" font-family="SimHei,sans-serif" font-size="14" text-anchor="middle" x="1016" y="-329.8"><tspan>圈形范围</tspan></text><text fill="#000000" font-family="SimHei,sans-serif" font-size="14" text-anchor="middle" x="1016" y="-313"><tspan>0.1 - 阈值</tspan></text><text fill="#000000" font-family="SimHei,sans-serif" font-size="14" text-anchor="middle" x="1016" y="-296.2"><tspan>缓慢增长</tspan></text></g><g id="edge8" class="edge"><path fill="none" stroke="#000000" d="M 1142.37 -432.545 C 1119.45 -411.625 1083.53 -378.836 1055.83 -353.557"/><polygon fill="#000000" stroke="#000000" points="1058,-350.798 1048.26,-346.642 1053.28,-355.969 1058,-350.798"/></g><g id="node11" class="node"><path fill="#fff9c4" stroke="#f57f17" d="M 1194.64 -346.601 C 1194.64 -346.601 1135.36 -346.601 1135.36 -346.601 C 1129.36 -346.601 1123.36 -340.601 1123.36 -334.601 C 1123.36 -334.601 1123.36 -299.799 1123.36 -299.799 C 1123.36 -293.799 1129.36 -287.799 1135.36 -287.799 C 1135.36 -287.799 1194.64 -287.799 1194.64 -287.799 C 1200.64 -287.799 1206.64 -293.799 1206.64 -299.799 C 1206.64 -299.799 1206.64 -334.601 1206.64 -334.601 C 1206.64 -340.601 1200.64 -346.601 1194.64 -346.601 Z"/><text fill="#000000" font-family="SimHei,sans-serif" font-size="14" text-anchor="middle" x="1165" y="-329.8"><tspan>扇形范围</tspan></text><text fill="#000000" font-family="SimHei,sans-serif" font-size="14" text-anchor="middle" x="1165" y="-313"><tspan>0.3 - 阈值</tspan></text><text fill="#000000" font-family="SimHei,sans-serif" font-size="14" text-anchor="middle" x="1165" y="-296.2"><tspan>快速增长</tspan></text></g><g id="edge9" class="edge"><path fill="none" stroke="#000000" d="M 1165 -432.545 C 1165 -412.519 1165 -381.617 1165 -356.837"/><polygon fill="#000000" stroke="#000000" points="1168.5,-356.642 1165,-346.642 1161.5,-356.642 1168.5,-356.642"/></g><g id="node12" class="node"><path fill="#f8bbd0" stroke="#880e4f" d="M 1195.16 -202.201 C 1195.16 -202.201 1128.84 -202.201 1128.84 -202.201 C 1122.84 -202.201 1116.84 -196.201 1116.84 -190.201 C 1116.84 -190.201 1116.84 -155.399 1116.84 -155.399 C 1116.84 -149.399 1122.84 -143.399 1128.84 -143.399 C 1128.84 -143.399 1195.16 -143.399 1195.16 -143.399 C 1201.16 -143.399 1207.16 -149.399 1207.16 -155.399 C 1207.16 -155.399 1207.16 -190.201 1207.16 -190.201 C 1207.16 -196.201 1201.16 -202.201 1195.16 -202.201 Z"/><text fill="#000000" font-family="SimHei,sans-serif" font-size="14" text-anchor="middle" x="1162" y="-185.4"><tspan>已检测</tspan></text><text fill="#000000" font-family="SimHei,sans-serif" font-size="14" text-anchor="middle" x="1162" y="-168.6"><tspan>阈值 - 1.0</tspan></text><text fill="#000000" font-family="SimHei,sans-serif" font-size="14" text-anchor="middle" x="1162" y="-151.8"><tspan>锁定追击</tspan></text></g><g id="edge10" class="edge"><path fill="none" stroke="#000000" d="M 1045.55 -287.978 C 1068.43 -265.349 1100.26 -233.863 1124.86 -209.53"/><polygon fill="#000000" stroke="#000000" points="1127.6,-211.746 1132.25,-202.226 1122.68,-206.769 1127.6,-211.746"/></g><g id="edge11" class="edge"><path fill="none" stroke="#000000" d="M 1164.39 -287.978 C 1163.94 -266.299 1163.32 -236.49 1162.83 -212.63"/><polygon fill="#000000" stroke="#000000" points="1166.32,-212.399 1162.62,-202.474 1159.33,-212.544 1166.32,-212.399"/></g><g id="node13" class="node"><path fill="#c8e6c9" stroke="#2e7d32" d="M 1230.93 -57.4019 C 1230.93 -57.4019 1153.07 -57.4019 1153.07 -57.4019 C 1147.07 -57.4019 1141.07 -51.4019 1141.07 -45.4019 C 1141.07 -45.4019 1141.07 -28.1981 1141.07 -28.1981 C 1141.07 -22.1981 1147.07 -16.1981 1153.07 -16.1981 C 1153.07 -16.1981 1230.93 -16.1981 1230.93 -16.1981 C 1236.93 -16.1981 1242.93 -22.1981 1242.93 -28.1981 C 1242.93 -28.1981 1242.93 -45.4019 1242.93 -45.4019 C 1242.93 -51.4019 1236.93 -57.4019 1230.93 -57.4019 Z"/><text fill="#000000" font-family="SimHei,sans-serif" font-size="14" text-anchor="middle" x="1192" y="-41"><tspan>追击失败</tspan></text><text fill="#000000" font-family="SimHei,sans-serif" font-size="14" text-anchor="middle" x="1192" y="-24.2"><tspan>衰减回到未检测</tspan></text></g><g id="edge12" class="edge"><path fill="none" stroke="#000000" d="M 1168.51 -143.29 C 1173.47 -120.798 1180.28 -89.9292 1185.29 -67.2163"/><polygon fill="#000000" stroke="#000000" points="1188.72,-67.9331 1187.45,-57.4139 1181.88,-66.4252 1188.72,-67.9331"/></g><g id="edge13" class="edge"><path fill="none" stroke="#000000" d="M 1204.53 -57.568 C 1216.35 -78.4514 1233.22 -111.996 1240 -143.6 C 1258.89 -231.732 1266.19 -260.464 1239 -346.4 C 1229.63 -376.019 1208.92 -404.678 1191.79 -424.839"/><polygon fill="#000000" stroke="#000000" points="1189.13,-422.565 1185.19,-432.401 1194.41,-427.167 1189.13,-422.565"/></g><g id="node15" class="node"><path fill="#f3e5f5" stroke="#4a148c" d="M 896.918 -337.802 C 896.918 -337.802 805.082 -337.802 805.082 -337.802 C 799.082 -337.802 793.082 -331.802 793.082 -325.802 C 793.082 -325.802 793.082 -308.598 793.082 -308.598 C 793.082 -302.598 799.082 -296.598 805.082 -296.598 C 805.082 -296.598 896.918 -296.598 896.918 -296.598 C 902.918 -296.598 908.918 -302.598 908.918 -308.598 C 908.918 -308.598 908.918 -325.802 908.918 -325.802 C 908.918 -331.802 902.918 -337.802 896.918 -337.802 Z"/><text fill="#000000" font-family="SimHei,sans-serif" font-size="14" text-anchor="middle" x="851" y="-321.4"><tspan>EnemyMask Item</tspan></text><text fill="#000000" font-family="SimHei,sans-serif" font-size="14" text-anchor="middle" x="851" y="-304.6"><tspan>头像+进度条</tspan></text></g><g id="edge15" class="edge"><path fill="none" stroke="#000000" d="M 844.929 -435.14 C 846.072 -412.942 848.029 -374.92 849.412 -348.056"/><polygon fill="#000000" stroke="#000000" points="852.91,-348.177 849.929,-338.01 845.919,-347.817 852.91,-348.177"/></g><g id="node16" class="node"><path fill="#f3e5f5" stroke="#4a148c" d="M 898.123 -193.402 C 898.123 -193.402 803.877 -193.402 803.877 -193.402 C 797.877 -193.402 791.877 -187.402 791.877 -181.402 C 791.877 -181.402 791.877 -164.198 791.877 -164.198 C 791.877 -158.198 797.877 -152.198 803.877 -152.198 C 803.877 -152.198 898.123 -152.198 898.123 -152.198 C 904.123 -152.198 910.123 -158.198 910.123 -164.198 C 910.123 -164.198 910.123 -181.402 910.123 -181.402 C 910.123 -187.402 904.123 -193.402 898.123 -193.402 Z"/><text fill="#000000" font-family="SimHei,sans-serif" font-size="14" text-anchor="middle" x="851" y="-177"><tspan>警觉度进度条</tspan></text><text fill="#000000" font-family="SimHei,sans-serif" font-size="14" text-anchor="middle" x="851" y="-160.2"><tspan>实时更新</tspan></text></g><g id="edge16" class="edge"><path fill="none" stroke="#000000" d="M 851 -296.511 C 851 -272.17 851 -231.531 851 -203.511"/><polygon fill="#000000" stroke="#000000" points="854.5,-203.451 851,-193.451 847.5,-203.451 854.5,-203.451"/></g></g></svg>
