<?xml version="1.0" encoding="UTF-8" standalone="yes"?><svg xmlns="http://www.w3.org/2000/svg" xmlns:xlink="http://www.w3.org/1999/xlink" version="1.2" baseProfile="tiny" x="0" y="0" width="1610" height="1056" viewBox="0 0 1610.1 1056.4"><defs/><g id="graph0" class="graph" transform="matrix(1,0,0,1,4,1052.4)"><polygon fill="#ffffff" stroke="rgba(0,0,0,0)" points="-4,4 -4,-1052.4 1606.1,-1052.4 1606.1,4 -4,4"/><g id="node1" class="node"><polygon fill="#e3f2fd" stroke="#1976d2" stroke-width="2" points="348.401,-394.3 348.401,-521.1 585.42,-521.1 585.42,-394.3 348.401,-394.3"/><text fill="#000000" font-family="Times,serif" font-size="9" text-anchor="middle" x="389.886" y="-455"><tspan>InventoryManager</tspan></text><polyline fill="none" stroke="#1976d2" stroke-width="2" points="431.371,-394.3 431.371,-521.1"/><text fill="#000000" font-family="Times,serif" font-size="9" text-anchor="middle" x="508.396" y="-509"><tspan>- m_Items: ItemStack[]</tspan></text><text fill="#000000" font-family="Times,serif" font-size="9" text-anchor="middle" x="508.396" y="-498.2"><tspan>- m_MaxSlots: int</tspan></text><text fill="#000000" font-family="Times,serif" font-size="9" text-anchor="middle" x="508.396" y="-487.4"><tspan>- m_TotalWeight: float</tspan></text><text fill="#000000" font-family="Times,serif" font-size="9" text-anchor="middle" x="508.396" y="-476.6"><tspan>- m_MaxWeight: float</tspan></text><text fill="#000000" font-family="Times,serif" font-size="9" text-anchor="middle" x="508.396" y="-465.8"><tspan>---</tspan></text><text fill="#000000" font-family="Times,serif" font-size="9" text-anchor="middle" x="508.396" y="-455"><tspan>+ AddItem(itemId, quantity): bool</tspan></text><text fill="#000000" font-family="Times,serif" font-size="9" text-anchor="middle" x="508.396" y="-444.2"><tspan>+ RemoveItem(itemId, quantity): bool</tspan></text><text fill="#000000" font-family="Times,serif" font-size="9" text-anchor="middle" x="508.396" y="-433.4"><tspan>+ UseItem(itemId): bool</tspan></text><text fill="#000000" font-family="Times,serif" font-size="9" text-anchor="middle" x="508.396" y="-422.6"><tspan>+ GetItem(itemId): ItemStack</tspan></text><text fill="#000000" font-family="Times,serif" font-size="9" text-anchor="middle" x="508.396" y="-411.8"><tspan>+ SortInventory()</tspan></text><text fill="#000000" font-family="Times,serif" font-size="9" text-anchor="middle" x="508.396" y="-401"><tspan>+ OnInventoryChanged()</tspan></text></g><g id="node2" class="node"><polygon fill="#e3f2fd" stroke="#1976d2" stroke-width="2" points="1129.26,-399.7 1129.26,-515.7 1320.3,-515.7 1320.3,-399.7 1129.26,-399.7"/><text fill="#000000" font-family="Times,serif" font-size="9" text-anchor="middle" x="1155.5" y="-455"><tspan>ItemStack</tspan></text><polyline fill="none" stroke="#1976d2" stroke-width="2" points="1181.75,-399.7 1181.75,-515.7"/><text fill="#000000" font-family="Times,serif" font-size="9" text-anchor="middle" x="1251.02" y="-503.6"><tspan>- m_Item: ItemBase</tspan></text><text fill="#000000" font-family="Times,serif" font-size="9" text-anchor="middle" x="1251.02" y="-492.8"><tspan>- m_Quantity: int</tspan></text><text fill="#000000" font-family="Times,serif" font-size="9" text-anchor="middle" x="1251.02" y="-482"><tspan>- m_MaxStackSize: int</tspan></text><text fill="#000000" font-family="Times,serif" font-size="9" text-anchor="middle" x="1251.02" y="-471.2"><tspan>---</tspan></text><text fill="#000000" font-family="Times,serif" font-size="9" text-anchor="middle" x="1251.02" y="-460.4"><tspan>+ Item: ItemBase</tspan></text><text fill="#000000" font-family="Times,serif" font-size="9" text-anchor="middle" x="1251.02" y="-449.6"><tspan>+ Quantity: int</tspan></text><text fill="#000000" font-family="Times,serif" font-size="9" text-anchor="middle" x="1251.02" y="-438.8"><tspan>+ CanAddQuantity(amount): bool</tspan></text><text fill="#000000" font-family="Times,serif" font-size="9" text-anchor="middle" x="1251.02" y="-428"><tspan>+ AddQuantity(amount)</tspan></text><text fill="#000000" font-family="Times,serif" font-size="9" text-anchor="middle" x="1251.02" y="-417.2"><tspan>+ RemoveQuantity(amount)</tspan></text><text fill="#000000" font-family="Times,serif" font-size="9" text-anchor="middle" x="1251.02" y="-406.4"><tspan>+ IsFull(): bool</tspan></text></g><g id="edge1" class="edge"><path fill="none" stroke="#000000" d="M 585.745 -457.7 C 731.568 -457.7 976.699 -457.7 1117.19 -457.7"/><polygon fill="#000000" stroke="#000000" points="1117.2,-457.7 1123.2,-453.7 1129.2,-457.7 1123.2,-461.7 1117.2,-457.7"/><text fill="#000000" font-family="Times,serif" font-size="14" text-anchor="middle" x="873.536" y="-461.9"><tspan>包含物品栈</tspan></text></g><g id="node3" class="node"><polygon fill="#e3f2fd" stroke="#1976d2" stroke-width="2" points="776.265,-138.7 776.265,-254.7 970.806,-254.7 970.806,-138.7 776.265,-138.7"/><text fill="#000000" font-family="Times,serif" font-size="9" text-anchor="middle" x="809.012" y="-194"><tspan>InventorySlot</tspan></text><polyline fill="none" stroke="#1976d2" stroke-width="2" points="841.759,-138.7 841.759,-254.7"/><text fill="#000000" font-family="Times,serif" font-size="9" text-anchor="middle" x="906.282" y="-242.6"><tspan>- m_SlotIndex: int</tspan></text><text fill="#000000" font-family="Times,serif" font-size="9" text-anchor="middle" x="906.282" y="-231.8"><tspan>- m_SlotType: int</tspan></text><text fill="#000000" font-family="Times,serif" font-size="9" text-anchor="middle" x="906.282" y="-221"><tspan>- m_ItemStack: ItemStack</tspan></text><text fill="#000000" font-family="Times,serif" font-size="9" text-anchor="middle" x="906.282" y="-210.2"><tspan>- m_IsEmpty: bool</tspan></text><text fill="#000000" font-family="Times,serif" font-size="9" text-anchor="middle" x="906.282" y="-199.4"><tspan>---</tspan></text><text fill="#000000" font-family="Times,serif" font-size="9" text-anchor="middle" x="906.282" y="-188.6"><tspan>+ SetItemStack(itemStack)</tspan></text><text fill="#000000" font-family="Times,serif" font-size="9" text-anchor="middle" x="906.282" y="-177.8"><tspan>+ GetItemStack(): ItemStack</tspan></text><text fill="#000000" font-family="Times,serif" font-size="9" text-anchor="middle" x="906.282" y="-167"><tspan>+ ClearSlot()</tspan></text><text fill="#000000" font-family="Times,serif" font-size="9" text-anchor="middle" x="906.282" y="-156.2"><tspan>+ IsValidForItem(itemId): bool</tspan></text><text fill="#000000" font-family="Times,serif" font-size="9" text-anchor="middle" x="906.282" y="-145.4"><tspan>+ GetSlotWeight()</tspan></text></g><g id="edge2" class="edge"><path fill="none" stroke="#000000" d="M 563.783 -394.28 C 617.311 -359.375 685.078 -315.411 745.794 -276.7 C 753.628 -271.705 761.747 -266.556 769.92 -261.393"/><polygon fill="#000000" stroke="#000000" points="770.136,-261.257 773.077,-254.673 780.285,-254.855 777.345,-261.44 770.136,-261.257"/><text fill="#000000" font-family="Times,serif" font-size="14" text-anchor="middle" x="665.607" y="-360.9"><tspan>管理格子</tspan></text></g><g id="node9" class="node"><polygon fill="#f3e5f5" stroke="#4a148c" stroke-width="2" points="778.512,-298.3 778.512,-371.1 968.559,-371.1 968.559,-298.3 778.512,-298.3"/><text fill="#000000" font-family="Times,serif" font-size="9" text-anchor="middle" x="816.753" y="-332"><tspan>BackpackConfig</tspan></text><polyline fill="none" stroke="#4a148c" stroke-width="2" points="854.994,-298.3 854.994,-371.1"/><text fill="#000000" font-family="Times,serif" font-size="9" text-anchor="middle" x="911.777" y="-359"><tspan>+ maxSlots: int</tspan></text><text fill="#000000" font-family="Times,serif" font-size="9" text-anchor="middle" x="911.777" y="-348.2"><tspan>+ maxWeight: float</tspan></text><text fill="#000000" font-family="Times,serif" font-size="9" text-anchor="middle" x="911.777" y="-337.4"><tspan>+ slotTypes: int[]</tspan></text><text fill="#000000" font-family="Times,serif" font-size="9" text-anchor="middle" x="911.777" y="-326.6"><tspan>+ sortMethod: int</tspan></text><text fill="#000000" font-family="Times,serif" font-size="9" text-anchor="middle" x="911.777" y="-315.8"><tspan>+ autoStackItems: bool</tspan></text><text fill="#000000" font-family="Times,serif" font-size="9" text-anchor="middle" x="911.777" y="-305"><tspan>+ ignoreWeightLimit: bool</tspan></text></g><g id="edge3" class="edge"><path fill="none" stroke="#000000" stroke-dasharray="5,2" d="M 585.778 -419.898 C 597.808 -416.15 609.85 -412.429 621.42 -408.9 C 669.6 -394.203 723.112 -378.383 768.397 -365.142"/><polygon fill="#000000" stroke="#000000" points="778.227,-362.27 769.89,-369.394 773.427,-363.672 768.628,-365.074 768.628,-365.074 768.628,-365.074 773.427,-363.672 767.366,-360.755 778.227,-362.27 778.227,-362.27"/><text fill="#000000" font-family="Times,serif" font-size="14" text-anchor="middle" x="665.607" y="-413.9"><tspan>读取配置</tspan></text></g><g id="node12" class="node"><polygon fill="#f1f8e9" stroke="#558b2f" stroke-width="2" points="771.642,-0.5 771.642,-94.9 975.429,-94.9 975.429,-0.5 771.642,-0.5"/><text fill="#000000" font-family="Times,serif" font-size="9" text-anchor="middle" x="797.637" y="-45"><tspan>ItemFilter</tspan></text><polyline fill="none" stroke="#558b2f" stroke-width="2" points="823.633,-0.5 823.633,-94.9"/><text fill="#000000" font-family="Times,serif" font-size="9" text-anchor="middle" x="899.531" y="-82.8"><tspan>- filterType: int</tspan></text><text fill="#000000" font-family="Times,serif" font-size="9" text-anchor="middle" x="899.531" y="-72"><tspan>- filterQuality: int</tspan></text><text fill="#000000" font-family="Times,serif" font-size="9" text-anchor="middle" x="899.531" y="-61.2"><tspan>- filterWeight: float</tspan></text><text fill="#000000" font-family="Times,serif" font-size="9" text-anchor="middle" x="899.531" y="-50.4"><tspan>---</tspan></text><text fill="#000000" font-family="Times,serif" font-size="9" text-anchor="middle" x="899.531" y="-39.6"><tspan>+ Filter(items): ItemStack[]</tspan></text><text fill="#000000" font-family="Times,serif" font-size="9" text-anchor="middle" x="899.531" y="-28.8"><tspan>+ FilterByType(items, type)</tspan></text><text fill="#000000" font-family="Times,serif" font-size="9" text-anchor="middle" x="899.531" y="-18"><tspan>+ FilterByQuality(items, quality)</tspan></text><text fill="#000000" font-family="Times,serif" font-size="9" text-anchor="middle" x="899.531" y="-7.2"><tspan>+ FilterByWeight(items, maxWeight)</tspan></text></g><g id="edge4" class="edge"><path fill="none" stroke="#000000" d="M 507.555 -394.179 C 557.046 -320.524 646.427 -198.755 745.794 -116.7 C 752.499 -111.163 759.717 -105.865 767.188 -100.843"/><polygon fill="#000000" stroke="#000000" points="776.059,-95.0752 770.128,-104.299 771.867,-97.8006 767.675,-100.526 767.675,-100.526 767.675,-100.526 771.867,-97.8006 765.222,-96.7534 776.059,-95.0752 776.059,-95.0752"/><text fill="#000000" font-family="Times,serif" font-size="14" text-anchor="middle" x="665.607" y="-240.9"><tspan>委托过滤</tspan></text></g><g id="node13" class="node"><polygon fill="#e0f2f1" stroke="#00695c" stroke-width="2" points="745.794,-645.1 745.794,-696.3 1001.28,-696.3 1001.28,-645.1 745.794,-645.1"/><text fill="#000000" font-family="Times,serif" font-size="9" text-anchor="middle" x="788.528" y="-668"><tspan>InventorySerializer</tspan></text><polyline fill="none" stroke="#00695c" stroke-width="2" points="831.261,-645.1 831.261,-696.3"/><text fill="#000000" font-family="Times,serif" font-size="9" text-anchor="middle" x="916.269" y="-684.2"><tspan>+ SaveInventory(manager, path)</tspan></text><text fill="#000000" font-family="Times,serif" font-size="9" text-anchor="middle" x="916.269" y="-673.4"><tspan>+ LoadInventory(path): InventoryManager</tspan></text><text fill="#000000" font-family="Times,serif" font-size="9" text-anchor="middle" x="916.269" y="-662.6"><tspan>+ SerializeItemStack(itemStack)</tspan></text><text fill="#000000" font-family="Times,serif" font-size="9" text-anchor="middle" x="916.269" y="-651.8"><tspan>+ DeserializeItemStack(data)</tspan></text></g><g id="edge6" class="edge"><path fill="none" stroke="#000000" stroke-dasharray="5,2" d="M 563.538 -521.217 C 616.135 -554.238 683.104 -593.823 745.794 -623.7 C 758.88 -629.936 773.029 -635.883 786.981 -641.32"/><polygon fill="#000000" stroke="#000000" points="796.593,-645 785.645,-645.627 791.923,-643.212 787.254,-641.424 787.254,-641.424 787.254,-641.424 791.923,-643.212 788.863,-637.222 796.593,-645 796.593,-645"/><text fill="#000000" font-family="Times,serif" font-size="14" text-anchor="middle" x="665.607" y="-607.9"><tspan>序列化存档</tspan></text></g><g id="node14" class="node"><polygon fill="#fff9c4" stroke="#f57f17" stroke-width="2" points="777.895,-517.9 777.895,-601.5 969.177,-601.5 969.177,-517.9 777.895,-517.9"/><text fill="#000000" font-family="Times,serif" font-size="9" text-anchor="middle" x="814.632" y="-557"><tspan>BackpackSorter</tspan></text><polyline fill="none" stroke="#f57f17" stroke-width="2" points="851.369,-517.9 851.369,-601.5"/><text fill="#000000" font-family="Times,serif" font-size="9" text-anchor="middle" x="910.273" y="-589.4"><tspan>- sortMethod: int</tspan></text><text fill="#000000" font-family="Times,serif" font-size="9" text-anchor="middle" x="910.273" y="-578.6"><tspan>---</tspan></text><text fill="#000000" font-family="Times,serif" font-size="9" text-anchor="middle" x="910.273" y="-567.8"><tspan>+ SortByType(items)</tspan></text><text fill="#000000" font-family="Times,serif" font-size="9" text-anchor="middle" x="910.273" y="-557"><tspan>+ SortByQuality(items)</tspan></text><text fill="#000000" font-family="Times,serif" font-size="9" text-anchor="middle" x="910.273" y="-546.2"><tspan>+ SortByWeight(items)</tspan></text><text fill="#000000" font-family="Times,serif" font-size="9" text-anchor="middle" x="910.273" y="-535.4"><tspan>+ SortByName(items)</tspan></text><text fill="#000000" font-family="Times,serif" font-size="9" text-anchor="middle" x="910.273" y="-524.6"><tspan>+ SortByObtainTime(items)</tspan></text></g><g id="edge5" class="edge"><path fill="none" stroke="#000000" d="M 585.616 -487.477 C 643.223 -501.927 711.859 -519.144 767.666 -533.143"/><polygon fill="#000000" stroke="#000000" points="777.574,-535.629 766.78,-537.56 772.725,-534.412 767.875,-533.196 767.875,-533.196 767.875,-533.196 772.725,-534.412 768.97,-528.831 777.574,-535.629 777.574,-535.629"/><text fill="#000000" font-family="Times,serif" font-size="14" text-anchor="middle" x="665.607" y="-521.9"><tspan>委托排序</tspan></text></g><g id="node15" class="node"><polygon fill="#fce4ec" stroke="#c2185b" stroke-width="2" points="791.016,-740.1 791.016,-791.3 956.055,-791.3 956.055,-740.1 791.016,-740.1"/><text fill="#000000" font-family="Times,serif" font-size="9" text-anchor="middle" x="835.754" y="-763"><tspan>InventoryEventArgs</tspan></text><polyline fill="none" stroke="#c2185b" stroke-width="2" points="880.492,-740.1 880.492,-791.3"/><text fill="#000000" font-family="Times,serif" font-size="9" text-anchor="middle" x="918.274" y="-779.2"><tspan>+ itemId: int</tspan></text><text fill="#000000" font-family="Times,serif" font-size="9" text-anchor="middle" x="918.274" y="-768.4"><tspan>+ quantity: int</tspan></text><text fill="#000000" font-family="Times,serif" font-size="9" text-anchor="middle" x="918.274" y="-757.6"><tspan>+ slotIndex: int</tspan></text><text fill="#000000" font-family="Times,serif" font-size="9" text-anchor="middle" x="918.274" y="-746.8"><tspan>+ eventType: int</tspan></text></g><g id="edge7" class="edge"><path fill="none" stroke="#000000" stroke-dasharray="5,2" d="M 517.728 -521.317 C 546.453 -555.481 584.02 -597.312 621.42 -630.7 C 671.934 -675.795 685.862 -687.181 745.794 -718.7 C 757.911 -725.073 771.087 -730.968 784.221 -736.276"/><polygon fill="#000000" stroke="#000000" points="793.762,-740.036 782.808,-740.556 789.11,-738.203 784.458,-736.37 784.458,-736.37 784.458,-736.37 789.11,-738.203 786.108,-732.183 793.762,-740.036 793.762,-740.036"/><text fill="#000000" font-family="Times,serif" font-size="14" text-anchor="middle" x="665.607" y="-702.9"><tspan>发布事件</tspan></text></g><g id="node4" class="node"><polygon fill="#fff3e0" stroke="#e65100" stroke-width="2" points="1435.07,-606.9 1435.07,-744.5 1602.1,-744.5 1602.1,-606.9 1435.07,-606.9"/><text fill="#000000" font-family="Times,serif" font-size="9" text-anchor="middle" x="1460.06" y="-673"><tspan>ItemBase</tspan></text><polyline fill="none" stroke="#e65100" stroke-width="2" points="1485.06,-606.9 1485.06,-744.5"/><text fill="#000000" font-family="Times,serif" font-size="9" text-anchor="middle" x="1543.58" y="-732.4"><tspan>+ itemId: int</tspan></text><text fill="#000000" font-family="Times,serif" font-size="9" text-anchor="middle" x="1543.58" y="-721.6"><tspan>+ itemName: string</tspan></text><text fill="#000000" font-family="Times,serif" font-size="9" text-anchor="middle" x="1543.58" y="-710.8"><tspan>+ itemType: int</tspan></text><text fill="#000000" font-family="Times,serif" font-size="9" text-anchor="middle" x="1543.58" y="-700"><tspan>+ quality: int</tspan></text><text fill="#000000" font-family="Times,serif" font-size="9" text-anchor="middle" x="1543.58" y="-689.2"><tspan>+ weight: float</tspan></text><text fill="#000000" font-family="Times,serif" font-size="9" text-anchor="middle" x="1543.58" y="-678.4"><tspan>+ maxStackSize: int</tspan></text><text fill="#000000" font-family="Times,serif" font-size="9" text-anchor="middle" x="1543.58" y="-667.6"><tspan>+ description: string</tspan></text><text fill="#000000" font-family="Times,serif" font-size="9" text-anchor="middle" x="1543.58" y="-656.8"><tspan>+ iconPath: string</tspan></text><text fill="#000000" font-family="Times,serif" font-size="9" text-anchor="middle" x="1543.58" y="-646"><tspan>---</tspan></text><text fill="#000000" font-family="Times,serif" font-size="9" text-anchor="middle" x="1543.58" y="-635.2"><tspan>+ GetDisplayName(): string</tspan></text><text fill="#000000" font-family="Times,serif" font-size="9" text-anchor="middle" x="1543.58" y="-624.4"><tspan>+ GetDescription(): string</tspan></text><text fill="#000000" font-family="Times,serif" font-size="9" text-anchor="middle" x="1543.58" y="-613.6"><tspan>+ CanBeUsed(): bool</tspan></text></g><g id="edge8" class="edge"><path fill="none" stroke="#000000" d="M 1303.13 -515.834 C 1341.14 -544.036 1387.04 -578.095 1426.69 -607.517"/><polygon fill="#000000" stroke="#000000" points="1435.05,-613.721 1424.34,-611.376 1431.04,-610.741 1427.02,-607.762 1427.02,-607.762 1427.02,-607.762 1431.04,-610.741 1429.7,-604.148 1435.05,-613.721 1435.05,-613.721"/><text fill="#000000" font-family="Times,serif" font-size="14" text-anchor="middle" x="1378.56" y="-589.9"><tspan>持有物品</tspan></text></g><g id="edge9" class="edge"><path fill="none" stroke="#000000" d="M 969.245 -254.862 C 980.176 -262.026 991.055 -269.401 1001.28 -276.7 C 1052.35 -313.167 1107.14 -357.451 1149.69 -393.089"/><polygon fill="#000000" stroke="#000000" points="1157.49,-399.639 1146.94,-396.654 1153.66,-396.423 1149.83,-393.208 1149.83,-393.208 1149.83,-393.208 1153.66,-396.423 1152.73,-389.762 1157.49,-399.639 1157.49,-399.639"/><text fill="#000000" font-family="Times,serif" font-size="14" text-anchor="middle" x="1064.39" y="-347.9"><tspan>存放物品栈</tspan></text></g><g id="node5" class="node"><polygon fill="#ffccbc" stroke="#d84315" stroke-width="2" points="1133.89,-953.5 1133.89,-1047.9 1315.67,-1047.9 1315.67,-953.5 1133.89,-953.5"/><text fill="#000000" font-family="Times,serif" font-size="9" text-anchor="middle" x="1172.63" y="-998"><tspan>ConsumableItem</tspan></text><polyline fill="none" stroke="#d84315" stroke-width="2" points="1211.38,-953.5 1211.38,-1047.9"/><text fill="#000000" font-family="Times,serif" font-size="9" text-anchor="middle" x="1263.52" y="-1035.8"><tspan>- effectType: int</tspan></text><text fill="#000000" font-family="Times,serif" font-size="9" text-anchor="middle" x="1263.52" y="-1025"><tspan>- effectValue: float</tspan></text><text fill="#000000" font-family="Times,serif" font-size="9" text-anchor="middle" x="1263.52" y="-1014.2"><tspan>- usageCount: int</tspan></text><text fill="#000000" font-family="Times,serif" font-size="9" text-anchor="middle" x="1263.52" y="-1003.4"><tspan>- maxUsage: int</tspan></text><text fill="#000000" font-family="Times,serif" font-size="9" text-anchor="middle" x="1263.52" y="-992.6"><tspan>---</tspan></text><text fill="#000000" font-family="Times,serif" font-size="9" text-anchor="middle" x="1263.52" y="-981.8"><tspan>+ CanBeUsed(): bool</tspan></text><text fill="#000000" font-family="Times,serif" font-size="9" text-anchor="middle" x="1263.52" y="-971"><tspan>+ UseItem(target)</tspan></text><text fill="#000000" font-family="Times,serif" font-size="9" text-anchor="middle" x="1263.52" y="-960.2"><tspan>+ GetRemainingUsage()</tspan></text></g><g id="edge10" class="edge"><path fill="none" stroke="#000000" d="M 1295.81 -953.323 C 1304.98 -946.144 1313.98 -938.513 1322.05 -930.7 C 1377.81 -876.741 1430.89 -806.317 1467.8 -753.153"/><polygon fill="none" stroke="#000000" points="1470.78,-754.992 1473.58,-744.774 1465.02,-751.016 1470.78,-754.992"/><text fill="#000000" font-family="Times,serif" font-size="14" text-anchor="middle" x="1378.56" y="-896.9"><tspan>继承</tspan></text></g><g id="node6" class="node"><polygon fill="#ffccbc" stroke="#d84315" stroke-width="2" points="1146.14,-836.3 1146.14,-909.1 1303.42,-909.1 1303.42,-836.3 1146.14,-836.3"/><text fill="#000000" font-family="Times,serif" font-size="9" text-anchor="middle" x="1172.88" y="-870"><tspan>QuestItem</tspan></text><polyline fill="none" stroke="#d84315" stroke-width="2" points="1199.62,-836.3 1199.62,-909.1"/><text fill="#000000" font-family="Times,serif" font-size="9" text-anchor="middle" x="1251.52" y="-897"><tspan>- questId: string</tspan></text><text fill="#000000" font-family="Times,serif" font-size="9" text-anchor="middle" x="1251.52" y="-886.2"><tspan>- isActive: bool</tspan></text><text fill="#000000" font-family="Times,serif" font-size="9" text-anchor="middle" x="1251.52" y="-875.4"><tspan>---</tspan></text><text fill="#000000" font-family="Times,serif" font-size="9" text-anchor="middle" x="1251.52" y="-864.6"><tspan>+ CanBeUsed(): bool</tspan></text><text fill="#000000" font-family="Times,serif" font-size="9" text-anchor="middle" x="1251.52" y="-853.8"><tspan>+ OnItemUsed()</tspan></text><text fill="#000000" font-family="Times,serif" font-size="9" text-anchor="middle" x="1251.52" y="-843"><tspan>+ LinkToQuest(questId)</tspan></text></g><g id="edge11" class="edge"><path fill="none" stroke="#000000" d="M 1286.4 -836.18 C 1298.32 -828.876 1310.64 -821.154 1322.05 -813.7 C 1356.64 -791.102 1393.9 -765.32 1426.58 -742.205"/><polygon fill="none" stroke="#000000" points="1428.65,-745.027 1434.79,-736.389 1424.61,-739.316 1428.65,-745.027"/><text fill="#000000" font-family="Times,serif" font-size="14" text-anchor="middle" x="1378.56" y="-791.9"><tspan>继承</tspan></text></g><g id="node7" class="node"><polygon fill="#ffccbc" stroke="#d84315" stroke-width="2" points="1132.08,-697.5 1132.08,-791.9 1317.48,-791.9 1317.48,-697.5 1132.08,-697.5"/><text fill="#000000" font-family="Times,serif" font-size="9" text-anchor="middle" x="1164.06" y="-742"><tspan>TreasureItem</tspan></text><polyline fill="none" stroke="#d84315" stroke-width="2" points="1196.05,-697.5 1196.05,-791.9"/><text fill="#000000" font-family="Times,serif" font-size="9" text-anchor="middle" x="1256.77" y="-779.8"><tspan>- specialEffect: SpecialEffect</tspan></text><text fill="#000000" font-family="Times,serif" font-size="9" text-anchor="middle" x="1256.77" y="-769"><tspan>- affixes: Affix[]</tspan></text><text fill="#000000" font-family="Times,serif" font-size="9" text-anchor="middle" x="1256.77" y="-758.2"><tspan>- synergies: Synergy[]</tspan></text><text fill="#000000" font-family="Times,serif" font-size="9" text-anchor="middle" x="1256.77" y="-747.4"><tspan>- rarity: int</tspan></text><text fill="#000000" font-family="Times,serif" font-size="9" text-anchor="middle" x="1256.77" y="-736.6"><tspan>---</tspan></text><text fill="#000000" font-family="Times,serif" font-size="9" text-anchor="middle" x="1256.77" y="-725.8"><tspan>+ CanBeEquipped(): bool</tspan></text><text fill="#000000" font-family="Times,serif" font-size="9" text-anchor="middle" x="1256.77" y="-715"><tspan>+ GetTotalBonus()</tspan></text><text fill="#000000" font-family="Times,serif" font-size="9" text-anchor="middle" x="1256.77" y="-704.2"><tspan>+ CanStack(): bool</tspan></text></g><g id="edge12" class="edge"><path fill="none" stroke="#000000" d="M 1317.74 -722.868 C 1351.86 -714.855 1390.49 -705.782 1424.7 -697.75"/><polygon fill="none" stroke="#000000" points="1425.75,-701.097 1434.69,-695.403 1424.15,-694.282 1425.75,-701.097"/><text fill="#000000" font-family="Times,serif" font-size="14" text-anchor="middle" x="1378.56" y="-715.9"><tspan>继承</tspan></text></g><g id="node8" class="node"><polygon fill="#ffccbc" stroke="#d84315" stroke-width="2" points="1127.51,-559.5 1127.51,-653.9 1322.05,-653.9 1322.05,-559.5 1127.51,-559.5"/><text fill="#000000" font-family="Times,serif" font-size="9" text-anchor="middle" x="1163.51" y="-604"><tspan>EquipmentItem</tspan></text><polyline fill="none" stroke="#d84315" stroke-width="2" points="1199.5,-559.5 1199.5,-653.9"/><text fill="#000000" font-family="Times,serif" font-size="9" text-anchor="middle" x="1260.78" y="-641.8"><tspan>- equipmentType: int</tspan></text><text fill="#000000" font-family="Times,serif" font-size="9" text-anchor="middle" x="1260.78" y="-631"><tspan>- attackBonus: int</tspan></text><text fill="#000000" font-family="Times,serif" font-size="9" text-anchor="middle" x="1260.78" y="-620.2"><tspan>- defenseBonus: int</tspan></text><text fill="#000000" font-family="Times,serif" font-size="9" text-anchor="middle" x="1260.78" y="-609.4"><tspan>- specialEffect: SpecialEffect</tspan></text><text fill="#000000" font-family="Times,serif" font-size="9" text-anchor="middle" x="1260.78" y="-598.6"><tspan>---</tspan></text><text fill="#000000" font-family="Times,serif" font-size="9" text-anchor="middle" x="1260.78" y="-587.8"><tspan>+ CanBeEquipped(): bool</tspan></text><text fill="#000000" font-family="Times,serif" font-size="9" text-anchor="middle" x="1260.78" y="-577"><tspan>+ CanStack(): bool</tspan></text><text fill="#000000" font-family="Times,serif" font-size="9" text-anchor="middle" x="1260.78" y="-566.2"><tspan>+ GetStatBonus(): Dictionary</tspan></text></g><g id="edge13" class="edge"><path fill="none" stroke="#000000" d="M 1322.21 -629.58 C 1355.21 -637.33 1391.98 -645.966 1424.7 -653.651"/><polygon fill="none" stroke="#000000" points="1424.18,-657.124 1434.71,-656.003 1425.78,-650.309 1424.18,-657.124"/><text fill="#000000" font-family="Times,serif" font-size="14" text-anchor="middle" x="1378.56" y="-650.9"><tspan>继承</tspan></text></g><g id="node10" class="node"><polygon fill="#e8f5e9" stroke="#1b5e20" stroke-width="2" points="0,-405.1 0,-510.3 200.958,-510.3 200.958,-405.1 0,-405.1"/><text fill="#000000" font-family="Times,serif" font-size="9" text-anchor="middle" x="30.2408" y="-455"><tspan>InventoryUI</tspan></text><polyline fill="none" stroke="#1b5e20" stroke-width="2" points="60.4816,-405.1 60.4816,-510.3"/><text fill="#000000" font-family="Times,serif" font-size="9" text-anchor="middle" x="130.72" y="-498.2"><tspan>- m_Manager: InventoryManager</tspan></text><text fill="#000000" font-family="Times,serif" font-size="9" text-anchor="middle" x="130.72" y="-487.4"><tspan>- m_SlotUIList: InventorySlotUI[]</tspan></text><text fill="#000000" font-family="Times,serif" font-size="9" text-anchor="middle" x="130.72" y="-476.6"><tspan>- m_CurrentSort: int</tspan></text><text fill="#000000" font-family="Times,serif" font-size="9" text-anchor="middle" x="130.72" y="-465.8"><tspan>---</tspan></text><text fill="#000000" font-family="Times,serif" font-size="9" text-anchor="middle" x="130.72" y="-455"><tspan>+ DisplayInventory()</tspan></text><text fill="#000000" font-family="Times,serif" font-size="9" text-anchor="middle" x="130.72" y="-444.2"><tspan>+ RefreshDisplay()</tspan></text><text fill="#000000" font-family="Times,serif" font-size="9" text-anchor="middle" x="130.72" y="-433.4"><tspan>+ OnItemSelected(slotIndex)</tspan></text><text fill="#000000" font-family="Times,serif" font-size="9" text-anchor="middle" x="130.72" y="-422.6"><tspan>+ OnItemDrop(fromSlot, toSlot)</tspan></text><text fill="#000000" font-family="Times,serif" font-size="9" text-anchor="middle" x="130.72" y="-411.8"><tspan>+ ShowItemDetail(itemId)</tspan></text></g><g id="edge14" class="edge"><path fill="none" stroke="#000000" d="M 201.093 -457.7 C 243.442 -457.7 293.239 -457.7 338.213 -457.7"/><polygon fill="#000000" stroke="#000000" points="348.329,-457.7 338.329,-462.2 343.329,-457.7 338.329,-457.7 338.329,-457.7 338.329,-457.7 343.329,-457.7 338.329,-453.2 348.329,-457.7 348.329,-457.7"/><text fill="#000000" font-family="Times,serif" font-size="14" text-anchor="middle" x="274.68" y="-461.9"><tspan>引用管理器</tspan></text></g><g id="node11" class="node"><polygon fill="#c8e6c9" stroke="#2e7d32" stroke-width="2" points="372.769,-719.3 372.769,-846.1 561.053,-846.1 561.053,-719.3 372.769,-719.3"/><text fill="#000000" font-family="Times,serif" font-size="9" text-anchor="middle" x="410.262" y="-780"><tspan>InventorySlotUI</tspan></text><polyline fill="none" stroke="#2e7d32" stroke-width="2" points="447.755,-719.3 447.755,-846.1"/><text fill="#000000" font-family="Times,serif" font-size="9" text-anchor="middle" x="504.404" y="-834"><tspan>- m_SlotIndex: int</tspan></text><text fill="#000000" font-family="Times,serif" font-size="9" text-anchor="middle" x="504.404" y="-823.2"><tspan>- m_ItemStack: ItemStack</tspan></text><text fill="#000000" font-family="Times,serif" font-size="9" text-anchor="middle" x="504.404" y="-812.4"><tspan>- m_Icon: Image</tspan></text><text fill="#000000" font-family="Times,serif" font-size="9" text-anchor="middle" x="504.404" y="-801.6"><tspan>- m_QuantityText: Text</tspan></text><text fill="#000000" font-family="Times,serif" font-size="9" text-anchor="middle" x="504.404" y="-790.8"><tspan>- m_IsSelected: bool</tspan></text><text fill="#000000" font-family="Times,serif" font-size="9" text-anchor="middle" x="504.404" y="-780"><tspan>---</tspan></text><text fill="#000000" font-family="Times,serif" font-size="9" text-anchor="middle" x="504.404" y="-769.2"><tspan>+ SetItemStack(itemStack)</tspan></text><text fill="#000000" font-family="Times,serif" font-size="9" text-anchor="middle" x="504.404" y="-758.4"><tspan>+ OnClicked()</tspan></text><text fill="#000000" font-family="Times,serif" font-size="9" text-anchor="middle" x="504.404" y="-747.6"><tspan>+ OnDragStart()</tspan></text><text fill="#000000" font-family="Times,serif" font-size="9" text-anchor="middle" x="504.404" y="-736.8"><tspan>+ OnDragEnd(targetSlot)</tspan></text><text fill="#000000" font-family="Times,serif" font-size="9" text-anchor="middle" x="504.404" y="-726"><tspan>+ ShowTooltip()</tspan></text></g><g id="edge15" class="edge"><path fill="none" stroke="#000000" d="M 160.168 -510.64 C 221.693 -565.208 318.003 -650.63 386.275 -711.182"/><polygon fill="#000000" stroke="#000000" points="386.318,-711.22 393.461,-712.208 395.295,-719.182 388.152,-718.193 386.318,-711.22"/><text fill="#000000" font-family="Times,serif" font-size="14" text-anchor="middle" x="274.68" y="-642.9"><tspan>管理格子UI</tspan></text></g><g id="edge16" class="edge"><path fill="none" stroke="#000000" stroke-dasharray="5,2" d="M 179.401 -405.001 C 279.524 -339.467 458.776 -226.512 621.42 -146.7 C 666.448 -124.604 717.721 -103.735 762.218 -86.9052"/><polygon fill="#000000" stroke="#000000" points="771.606,-83.3764 763.829,-91.1073 766.926,-85.1357 762.245,-86.8951 762.245,-86.8951 762.245,-86.8951 766.926,-85.1357 760.662,-82.6828 771.606,-83.3764 771.606,-83.3764"/><text fill="#000000" font-family="Times,serif" font-size="14" text-anchor="middle" x="466.911" y="-298.9"><tspan>调用过滤</tspan></text></g><g id="edge17" class="edge"><path fill="none" stroke="#000000" d="M 561.302 -819.417 C 675.195 -857.142 867.963 -899.323 1001.28 -813.7 C 1114.77 -740.806 1045.26 -644.612 1127.51 -537.7 C 1131.36 -532.696 1135.58 -527.803 1140.03 -523.06"/><polygon fill="#000000" stroke="#000000" points="1147.21,-515.735 1143.43,-526.027 1143.71,-519.306 1140.21,-522.877 1140.21,-522.877 1140.21,-522.877 1143.71,-519.306 1137,-519.728 1147.21,-515.735 1147.21,-515.735"/><text fill="#000000" font-family="Times,serif" font-size="14" text-anchor="middle" x="873.536" y="-867.9"><tspan>显示物品数据</tspan></text></g><g id="edge18" class="edge"><path fill="none" stroke="#000000" stroke-dasharray="5,2" d="M 561.221 -778.757 C 627.139 -776.001 714.762 -772.338 780.417 -769.593"/><polygon fill="#000000" stroke="#000000" points="790.759,-769.161 780.956,-774.075 785.763,-769.37 780.768,-769.578 780.768,-769.578 780.768,-769.578 785.763,-769.37 780.58,-765.082 790.759,-769.161 790.759,-769.161"/><text fill="#000000" font-family="Times,serif" font-size="14" text-anchor="middle" x="665.607" y="-779.9"><tspan>触发交互事件</tspan></text></g><g id="edge20" class="edge"><path fill="none" stroke="#000000" stroke-dasharray="5,2" d="M 964.581 -95.1271 C 1062.1 -149.331 1216.97 -245.61 1322.05 -360.9 C 1387.99 -433.245 1444.88 -530.596 1480.24 -597.791"/><polygon fill="#000000" stroke="#000000" points="1484.88,-606.655 1476.26,-599.876 1482.56,-602.223 1480.24,-597.792 1480.24,-597.792 1480.24,-597.792 1482.56,-602.223 1484.23,-595.708 1484.88,-606.655 1484.88,-606.655"/><text fill="#000000" font-family="Times,serif" font-size="14" text-anchor="middle" x="1224.78" y="-365.9"><tspan>按属性过滤</tspan></text></g><g id="edge19" class="edge"><path fill="none" stroke="#000000" stroke-dasharray="5,2" d="M 969.515 -531.828 C 1015.98 -518.336 1071.87 -502.103 1119.5 -488.273"/><polygon fill="#000000" stroke="#000000" points="1129.22,-485.45 1120.87,-492.56 1124.42,-486.844 1119.62,-488.239 1119.62,-488.239 1119.62,-488.239 1124.42,-486.844 1118.36,-483.917 1129.22,-485.45 1129.22,-485.45"/><text fill="#000000" font-family="Times,serif" font-size="14" text-anchor="middle" x="1064.39" y="-515.9"><tspan>排序物品栈</tspan></text></g></g></svg>
