<?xml version="1.0" encoding="UTF-8" standalone="yes"?><svg xmlns="http://www.w3.org/2000/svg" xmlns:xlink="http://www.w3.org/1999/xlink" version="1.2" baseProfile="tiny" x="0" y="0" width="1042" height="420" viewBox="0 0 1041.54 420"><defs/><g id="graph0" class="graph" transform="matrix(1,0,0,1,4,416)"><polygon fill="#ffffff" stroke="rgba(0,0,0,0)" points="-4,4 -4,-416 1037.54,-416 1037.54,4 -4,4"/><g id="node1" class="node"><ellipse fill="#90ee90" stroke="#000000" cx="968.062" cy="-394" rx="65.4589" ry="18"/><text fill="#000000" font-family="SimHei,sans-serif" font-size="14" text-anchor="middle" x="968.062" y="-389.8"><tspan>AI 决策开始</tspan></text></g><g id="node2" class="node"><polygon fill="#87ceeb" stroke="#000000" points="844.854,-412 725.27,-412 725.27,-376 844.854,-376 844.854,-412"/><text fill="#000000" font-family="SimHei,sans-serif" font-size="14" text-anchor="middle" x="785.062" y="-389.8"><tspan>获取当前战斗状态</tspan></text></g><g id="edge4" class="edge"><path fill="none" stroke="#000000" d="M 906.106 -388 C 906.106 -388 855.093 -388 855.093 -388"/><polygon fill="#000000" stroke="#000000" points="855.093,-384.5 845.093,-388 855.093,-391.5 855.093,-384.5"/></g><g id="node3" class="node"><polygon fill="#87ceeb" stroke="#000000" points="666.722,-412 533.401,-412 533.401,-376 666.722,-376 666.722,-412"/><text fill="#000000" font-family="SimHei,sans-serif" font-size="14" text-anchor="middle" x="600.062" y="-389.8"><tspan>获取可用行动列表</tspan></text></g><g id="edge5" class="edge"><path fill="none" stroke="#000000" d="M 725.253 -388 C 725.253 -388 677.039 -388 677.039 -388"/><polygon fill="#000000" stroke="#000000" points="677.039,-384.5 667.039,-388 677.039,-391.5 677.039,-384.5"/></g><g id="node4" class="node"><polygon fill="#ffd700" stroke="#000000" points="475.111,-412 367.012,-412 367.012,-376 475.111,-376 475.111,-412"/><text fill="#000000" font-family="SimHei,sans-serif" font-size="14" text-anchor="middle" x="421.062" y="-389.8"><tspan>评估所有行动</tspan></text></g><g id="edge6" class="edge"><path fill="none" stroke="#000000" d="M 533.154 -388 C 533.154 -388 485.344 -388 485.344 -388"/><polygon fill="#000000" stroke="#000000" points="485.344,-384.5 475.344,-388 485.344,-391.5 485.344,-384.5"/></g><g id="node5" class="node"><polygon fill="#87ceeb" stroke="#000000" points="473.04,-318 369.083,-318 369.083,-282 473.04,-282 473.04,-318"/><text fill="#000000" font-family="SimHei,sans-serif" font-size="14" text-anchor="middle" x="421.062" y="-295.8"><tspan>遍历每个行动</tspan></text></g><g id="edge7" class="edge"><path fill="none" stroke="#000000" d="M 421.062 -375.876 C 421.062 -375.876 421.062 -328.068 421.062 -328.068"/><polygon fill="#000000" stroke="#000000" points="424.562,-328.068 421.062,-318.068 417.562,-328.068 424.562,-328.068"/></g><g id="node6" class="node"><polygon fill="#ffd700" stroke="#000000" points="643.389,-318 530.735,-318 530.735,-282 643.389,-282 643.389,-318"/><text fill="#000000" font-family="SimHei,sans-serif" font-size="14" text-anchor="middle" x="587.062" y="-295.8"><tspan>计算行动评分</tspan></text></g><g id="edge8" class="edge"><path fill="none" stroke="#000000" d="M 473.13 -300 C 473.13 -300 520.572 -300 520.572 -300"/><polygon fill="#000000" stroke="#000000" points="520.572,-303.5 530.572,-300 520.572,-296.5 520.572,-303.5"/></g><g id="node7" class="node"><polygon fill="#87ceeb" stroke="#000000" points="389.784,-224 266.34,-224 266.34,-188 389.784,-188 389.784,-224"/><text fill="#000000" font-family="SimHei,sans-serif" font-size="14" text-anchor="middle" x="328.062" y="-201.8"><tspan>评估伤害输出</tspan></text></g><g id="edge9" class="edge"><path fill="none" stroke="#000000" d="M 539.803 -281.963 C 539.803 -268.709 539.803 -253 539.803 -253 C 539.803 -253 379.623 -253 379.623 -253 C 379.623 -253 379.623 -234.037 379.623 -234.037"/><polygon fill="#000000" stroke="#000000" points="383.123,-234.037 379.623,-224.037 376.123,-234.037 383.123,-234.037"/></g><g id="node8" class="node"><polygon fill="#87ceeb" stroke="#000000" points="558.164,-224 447.959,-224 447.959,-188 558.164,-188 558.164,-224"/><text fill="#000000" font-family="SimHei,sans-serif" font-size="14" text-anchor="middle" x="503.062" y="-201.8"><tspan>评估防御效果</tspan></text></g><g id="edge10" class="edge"><path fill="none" stroke="#000000" d="M 548.958 -281.876 C 548.958 -281.876 548.958 -234.069 548.958 -234.069"/><polygon fill="#000000" stroke="#000000" points="552.458,-234.069 548.958,-224.069 545.458,-234.069 552.458,-234.069"/></g><g id="node9" class="node"><polygon fill="#87ceeb" stroke="#000000" points="726.556,-224 615.567,-224 615.567,-188 726.556,-188 726.556,-224"/><text fill="#000000" font-family="SimHei,sans-serif" font-size="14" text-anchor="middle" x="671.062" y="-201.8"><tspan>评估 Buff 效果</tspan></text></g><g id="edge11" class="edge"><path fill="none" stroke="#000000" d="M 629.645 -281.876 C 629.645 -281.876 629.645 -234.069 629.645 -234.069"/><polygon fill="#000000" stroke="#000000" points="633.145,-234.069 629.645,-224.069 626.145,-234.069 633.145,-234.069"/></g><g id="node10" class="node"><polygon fill="#87ceeb" stroke="#000000" points="889.897,-224 784.226,-224 784.226,-188 889.897,-188 889.897,-224"/><text fill="#000000" font-family="SimHei,sans-serif" font-size="14" text-anchor="middle" x="837.062" y="-201.8"><tspan>评估治疗效果</tspan></text></g><g id="edge12" class="edge"><path fill="none" stroke="#000000" d="M 643.587 -300 C 710.961 -300 814.551 -300 814.551 -300 C 814.551 -300 814.551 -234.124 814.551 -234.124"/><polygon fill="#000000" stroke="#000000" points="818.051,-234.124 814.551,-224.124 811.051,-234.124 818.051,-234.124"/></g><g id="node11" class="node"><polygon fill="#87ceeb" stroke="#000000" points="637.055,-130 537.069,-130 537.069,-94 637.055,-94 637.055,-130"/><text fill="#000000" font-family="SimHei,sans-serif" font-size="14" text-anchor="middle" x="587.062" y="-107.8"><tspan>计算优先级</tspan></text></g><g id="edge13" class="edge"><path fill="none" stroke="#000000" d="M 362.733 -187.876 C 362.733 -160.56 362.733 -112 362.733 -112 C 362.733 -112 526.997 -112 526.997 -112"/><polygon fill="#000000" stroke="#000000" points="526.997,-115.5 536.997,-112 526.997,-108.5 526.997,-115.5"/></g><g id="edge14" class="edge"><path fill="none" stroke="#000000" d="M 547.589 -187.876 C 547.589 -187.876 547.589 -140.069 547.589 -140.069"/><polygon fill="#000000" stroke="#000000" points="551.089,-140.069 547.589,-130.069 544.089,-140.069 551.089,-140.069"/></g><g id="edge15" class="edge"><path fill="none" stroke="#000000" d="M 622.896 -187.876 C 622.896 -187.876 622.896 -140.069 622.896 -140.069"/><polygon fill="#000000" stroke="#000000" points="626.396,-140.069 622.896,-130.069 619.396,-140.069 626.396,-140.069"/></g><g id="edge16" class="edge"><path fill="none" stroke="#000000" d="M 819.449 -187.965 C 819.449 -171.266 819.449 -149 819.449 -149 C 819.449 -149 629.977 -149 629.977 -149 C 629.977 -149 629.977 -140.066 629.977 -140.066"/><polygon fill="#000000" stroke="#000000" points="633.477,-140.066 629.977,-130.066 626.477,-140.066 633.477,-140.066"/></g><g id="node12" class="node"><polygon fill="#87ceeb" stroke="#000000" points="775.062,-130 695.174,-112 775.062,-94 854.949,-112 775.062,-130"/><text fill="#000000" font-family="SimHei,sans-serif" font-size="14" text-anchor="middle" x="775.062" y="-107.8"><tspan>还有行动?</tspan></text></g><g id="edge17" class="edge"><path fill="none" stroke="#000000" d="M 637.442 -112 C 637.442 -112 685.118 -112 685.118 -112"/><polygon fill="#000000" stroke="#000000" points="685.118,-115.5 695.118,-112 685.117,-108.5 685.118,-115.5"/></g><g id="edge18" class="edge"><path fill="none" stroke="#000000" d="M 710.838 -115.674 C 710.838 -128.133 710.838 -168 710.838 -168 C 710.838 -168 444.295 -168 444.295 -168 C 444.295 -168 444.295 -271.923 444.295 -271.923"/><polygon fill="#000000" stroke="#000000" points="440.795,-271.923 444.295,-281.923 447.795,-271.923 440.795,-271.923"/></g><g id="node13" class="node"><polygon fill="#dda0dd" stroke="#000000" points="847.842,-36 702.281,-36 702.281,0 847.842,0 847.842,-36"/><text fill="#000000" font-family="SimHei,sans-serif" font-size="14" text-anchor="middle" x="775.062" y="-13.8"><tspan>选择评分最高的行动</tspan></text></g><g id="edge23" class="edge"><path fill="none" stroke="#000000" d="M 775.062 -93.8759 C 775.062 -93.8759 775.062 -46.0685 775.062 -46.0685"/><polygon fill="#000000" stroke="#000000" points="778.562,-46.0685 775.062,-36.0685 771.562,-46.0685 778.562,-46.0685"/><text fill="#000000" font-family="SimHei,sans-serif" font-size="14" text-anchor="middle" x="767.67" y="-74.1722"><tspan>是</tspan></text></g><g id="node14" class="node"><polygon fill="#87ceeb" stroke="#000000" points="571.062,-36 498.329,-18 571.062,0 643.794,-18 571.062,-36"/><text fill="#000000" font-family="SimHei,sans-serif" font-size="14" text-anchor="middle" x="571.062" y="-13.8"><tspan>随机因子?</tspan></text></g><g id="edge24" class="edge"><path fill="none" stroke="#000000" d="M 702.277 -24 C 702.277 -24 629.56 -24 629.56 -24"/><polygon fill="#000000" stroke="#000000" points="629.56,-20.5001 619.56,-24 629.56,-27.5001 629.56,-20.5001"/></g><g id="node15" class="node"><polygon fill="#dda0dd" stroke="#000000" points="440.597,-36 335.526,-36 335.526,0 440.597,0 440.597,-36"/><text fill="#000000" font-family="SimHei,sans-serif" font-size="14" text-anchor="middle" x="388.062" y="-13.8"><tspan>应用随机波动</tspan></text></g><g id="edge25" class="edge"><path fill="none" stroke="#000000" d="M 522.501 -24 C 522.501 -24 450.707 -24 450.707 -24"/><polygon fill="#000000" stroke="#000000" points="450.707,-20.5001 440.707,-24 450.707,-27.5001 450.707,-20.5001"/><text fill="#000000" font-family="SimHei,sans-serif" font-size="14" text-anchor="middle" x="479.213" y="-28.2"><tspan>是</tspan></text></g><g id="node16" class="node"><polygon fill="#dda0dd" stroke="#000000" points="277.775,-36 206.348,-36 206.348,0 277.775,0 277.775,-36"/><text fill="#000000" font-family="SimHei,sans-serif" font-size="14" text-anchor="middle" x="242.062" y="-13.8"><tspan>最终行动</tspan></text></g><g id="edge26" class="edge"><path fill="none" stroke="#000000" d="M 517.63 -23.0298 C 517.63 -35.1545 517.63 -65 517.63 -65 C 517.63 -65 271.935 -65 271.935 -65 C 271.935 -65 271.935 -46.037 271.935 -46.037"/><polygon fill="#000000" stroke="#000000" points="275.435,-46.037 271.935,-36.037 268.435,-46.037 275.435,-46.037"/><text fill="#000000" font-family="SimHei,sans-serif" font-size="14" text-anchor="middle" x="399.286" y="-69.2"><tspan>否</tspan></text></g><g id="edge27" class="edge"><path fill="none" stroke="#000000" d="M 335.352 -24 C 335.352 -24 287.801 -24 287.801 -24"/><polygon fill="#000000" stroke="#000000" points="287.801,-20.5001 277.801,-24 287.8,-27.5001 287.801,-20.5001"/></g><g id="node17" class="node"><ellipse fill="#ffb6c6" stroke="#000000" cx="74.0616" cy="-18" rx="74.1232" ry="18"/><text fill="#000000" font-family="SimHei,sans-serif" font-size="14" text-anchor="middle" x="74.0616" y="-13.8"><tspan>返回选定行动</tspan></text></g><g id="edge28" class="edge"><path fill="none" stroke="#000000" d="M 206.433 -12 C 206.433 -12 153.902 -12 153.902 -12"/><polygon fill="#000000" stroke="#000000" points="153.902,-8.5001 143.902,-12 153.902,-15.5001 153.902,-8.5001"/></g></g></svg>
