<?xml version="1.0" encoding="UTF-8" standalone="yes"?><svg xmlns="http://www.w3.org/2000/svg" xmlns:xlink="http://www.w3.org/1999/xlink" version="1.2" baseProfile="tiny" x="0" y="0" width="1256" height="320" viewBox="0 0 1256.25 320"><defs/><g id="graph0" class="graph" transform="matrix(1,0,0,1,4,316)"><polygon fill="#ffffff" stroke="rgba(0,0,0,0)" points="-4,4 -4,-316 1252.25,-316 1252.25,4 -4,4"/><g id="clust1" class="cluster"><path fill="#eceff1" stroke="#546e7a" d="M 20 -98 C 20 -98 122.966 -98 122.966 -98 C 128.966 -98 134.966 -104 134.966 -110 C 134.966 -110 134.966 -160 134.966 -160 C 134.966 -166 128.966 -172 122.966 -172 C 122.966 -172 20 -172 20 -172 C 14 -172 8 -166 8 -160 C 8 -160 8 -110 8 -110 C 8 -104 14 -98 20 -98 Z"/><text fill="#000000" font-family="SimHei,sans-serif" font-size="12" text-anchor="middle" x="71.483" y="-157.2"><tspan>初始化</tspan></text></g><g id="clust3" class="cluster"><path fill="#fffde7" stroke="#f57f17" d="M 550.943 -128 C 550.943 -128 645.014 -128 645.014 -128 C 651.014 -128 657.014 -134 657.014 -140 C 657.014 -140 657.014 -234 657.014 -234 C 657.014 -240 651.014 -246 645.014 -246 C 645.014 -246 550.943 -246 550.943 -246 C 544.943 -246 538.943 -240 538.943 -234 C 538.943 -234 538.943 -140 538.943 -140 C 538.943 -134 544.943 -128 550.943 -128 Z"/><text fill="#000000" font-family="SimHei,sans-serif" font-size="12" text-anchor="middle" x="597.978" y="-231.2"><tspan>警戒状态</tspan></text></g><g id="clust4" class="cluster"><path fill="#fff3e0" stroke="#e65100" d="M 844.598 -134 C 844.598 -134 945.285 -134 945.285 -134 C 951.285 -134 957.285 -140 957.285 -146 C 957.285 -146 957.285 -228 957.285 -228 C 957.285 -234 951.285 -240 945.285 -240 C 945.285 -240 844.598 -240 844.598 -240 C 838.598 -240 832.598 -234 832.598 -228 C 832.598 -228 832.598 -146 832.598 -146 C 832.598 -140 838.598 -134 844.598 -134 Z"/><text fill="#000000" font-family="SimHei,sans-serif" font-size="12" text-anchor="middle" x="894.942" y="-225.2"><tspan>追击状态</tspan></text></g><g id="node1" class="node"><path fill="#cfd8dc" stroke="#546e7a" stroke-width="1.5" d="M 114.949 -142 C 114.949 -142 28.017 -142 28.017 -142 C 22.017 -142 16.017 -136 16.017 -130 C 16.017 -130 16.017 -118 16.017 -118 C 16.017 -112 22.017 -106 28.017 -106 C 28.017 -106 114.949 -106 114.949 -106 C 120.949 -106 126.949 -112 126.949 -118 C 126.949 -118 126.949 -130 126.949 -130 C 126.949 -136 120.949 -142 114.949 -142 Z"/><text fill="#000000" font-family="SimHei,sans-serif" font-size="10" text-anchor="middle" x="71.483" y="-127"><tspan>敌人生成</tspan></text><text fill="#000000" font-family="SimHei,sans-serif" font-size="10" text-anchor="middle" x="71.483" y="-115"><tspan>(EnemyEntityManager)</tspan></text></g><g id="node2" class="node"><path fill="#bbdefb" stroke="#1565c0" stroke-width="1.5" d="M 346.186 -158 C 346.186 -158 300.286 -158 300.286 -158 C 294.286 -158 288.286 -152 288.286 -146 C 288.286 -146 288.286 -102 288.286 -102 C 288.286 -96 294.286 -90 300.286 -90 C 300.286 -90 346.186 -90 346.186 -90 C 352.186 -90 358.186 -96 358.186 -102 C 358.186 -102 358.186 -146 358.186 -146 C 358.186 -152 352.186 -158 346.186 -158 Z"/><text fill="#000000" font-family="SimHei,sans-serif" font-size="10" text-anchor="middle" x="323.236" y="-145"><tspan>Idle (休息)</tspan></text><text fill="#000000" font-family="SimHei,sans-serif" font-size="10" text-anchor="middle" x="323.236" y="-133"><tspan>---</tspan></text><text fill="#000000" font-family="SimHei,sans-serif" font-size="10" text-anchor="middle" x="323.236" y="-121"><tspan>原地待机</tspan></text><text fill="#000000" font-family="SimHei,sans-serif" font-size="10" text-anchor="middle" x="323.236" y="-109"><tspan>可被偷袭</tspan></text><text fill="#000000" font-family="SimHei,sans-serif" font-size="10" text-anchor="middle" x="323.236" y="-97"><tspan>AlertLevel=0</tspan></text></g><g id="edge1" class="edge"><path fill="none" stroke="#000000" stroke-width="1.2" d="M 127.043 -124 C 172.392 -124 235.668 -124 277.973 -124"/><polygon fill="#000000" stroke="#000000" stroke-width="1.2" points="277.988,-127.5 287.988,-124 277.988,-120.5 277.988,-127.5"/><text fill="#000000" font-family="SimHei,sans-serif" font-size="9" text-anchor="middle" x="200.343" y="-126.7"><tspan>初始化完成</tspan></text></g><g id="node3" class="node"><path fill="#bbdefb" stroke="#1565c0" stroke-width="1.5" d="M 360.769 -312 C 360.769 -312 285.703 -312 285.703 -312 C 279.703 -312 273.703 -306 273.703 -300 C 273.703 -300 273.703 -256 273.703 -256 C 273.703 -250 279.703 -244 285.703 -244 C 285.703 -244 360.769 -244 360.769 -244 C 366.769 -244 372.769 -250 372.769 -256 C 372.769 -256 372.769 -300 372.769 -300 C 372.769 -306 366.769 -312 360.769 -312 Z"/><text fill="#000000" font-family="SimHei,sans-serif" font-size="10" text-anchor="middle" x="323.236" y="-299"><tspan>Patrol (巡逻)</tspan></text><text fill="#000000" font-family="SimHei,sans-serif" font-size="10" text-anchor="middle" x="323.236" y="-287"><tspan>---</tspan></text><text fill="#000000" font-family="SimHei,sans-serif" font-size="10" text-anchor="middle" x="323.236" y="-275"><tspan>NavMesh随机移动</tspan></text><text fill="#000000" font-family="SimHei,sans-serif" font-size="10" text-anchor="middle" x="323.236" y="-263"><tspan>配置范围内巡逻</tspan></text><text fill="#000000" font-family="SimHei,sans-serif" font-size="10" text-anchor="middle" x="323.236" y="-251"><tspan>低警觉度</tspan></text></g><g id="edge2" class="edge"><path fill="none" stroke="#000000" stroke-width="1.2" d="M 335.66 -158.031 C 336.203 -160.285 336.671 -162.537 337.036 -164.749 C 341.782 -193.563 342.227 -203.584 337.347 -233.874"/><polygon fill="#000000" stroke="#000000" stroke-width="1.2" points="333.856,-233.528 335.66,-243.969 340.76,-234.682 333.856,-233.528"/><text fill="#000000" font-family="SimHei,sans-serif" font-size="9" text-anchor="middle" x="331.636" y="-198.3"><tspan>               休息结束</tspan></text></g><g id="node4" class="node"><path fill="#fff9c4" stroke="#f57f17" stroke-width="1.5" d="M 637.049 -216 C 637.049 -216 558.907 -216 558.907 -216 C 552.907 -216 546.907 -210 546.907 -204 C 546.907 -204 546.907 -148 546.907 -148 C 546.907 -142 552.907 -136 558.907 -136 C 558.907 -136 637.049 -136 637.049 -136 C 643.049 -136 649.049 -142 649.049 -148 C 649.049 -148 649.049 -204 649.049 -204 C 649.049 -210 643.049 -216 637.049 -216 Z"/><text fill="#000000" font-family="SimHei,sans-serif" font-size="10" text-anchor="middle" x="597.978" y="-203"><tspan>Alert (警戒)</tspan></text><text fill="#000000" font-family="SimHei,sans-serif" font-size="10" text-anchor="middle" x="597.978" y="-191"><tspan>---</tspan></text><text fill="#000000" font-family="SimHei,sans-serif" font-size="10" text-anchor="middle" x="597.978" y="-179"><tspan>VisionCone检测玩家</tspan></text><text fill="#000000" font-family="SimHei,sans-serif" font-size="10" text-anchor="middle" x="597.978" y="-167"><tspan>警觉度逐渐上升</tspan></text><text fill="#000000" font-family="SimHei,sans-serif" font-size="10" text-anchor="middle" x="597.978" y="-155"><tspan>显示警觉度UI</tspan></text><text fill="#000000" font-family="SimHei,sans-serif" font-size="10" text-anchor="middle" x="597.978" y="-143"><tspan>广播通知附近敌人</tspan></text></g><g id="edge3" class="edge"><path fill="none" stroke="#000000" stroke-width="1.2" d="M 358.311 -130.639 C 403.252 -139.145 481.893 -154.029 536.792 -164.419"/><polygon fill="#000000" stroke="#000000" stroke-width="1.2" points="536.276,-167.884 546.753,-166.305 537.578,-161.006 536.276,-167.884"/><text fill="#000000" font-family="SimHei,sans-serif" font-size="9" text-anchor="middle" x="459.847" y="-156.7"><tspan>玩家进入视野</tspan></text></g><g id="edge4" class="edge"><path fill="none" stroke="#000000" stroke-width="1.2" d="M 323.236 -243.918 C 323.236 -221.707 323.236 -192.497 323.236 -168.466"/><polygon fill="#000000" stroke="#000000" stroke-width="1.2" points="326.736,-168.178 323.236,-158.178 319.736,-168.178 326.736,-168.178"/><text fill="#000000" font-family="SimHei,sans-serif" font-size="9" text-anchor="middle" x="314.836" y="-198.3"><tspan>随机休息(概率)               </tspan></text></g><g id="edge5" class="edge"><path fill="none" stroke="#000000" stroke-width="1.2" d="M 372.865 -272.168 C 407.445 -266.986 454.143 -257.724 492.943 -242 C 508.232 -235.804 523.776 -227.407 538.053 -218.68"/><polygon fill="#000000" stroke="#000000" stroke-width="1.2" points="540.15,-221.496 546.765,-213.221 536.433,-215.565 540.15,-221.496"/><text fill="#000000" font-family="SimHei,sans-serif" font-size="9" text-anchor="middle" x="459.847" y="-263.7"><tspan>玩家进入视野</tspan></text></g><g id="edge6" class="edge"><path fill="none" stroke="#000000" stroke-width="1.2" d="M 546.717 -143.634 C 530.189 -134.9 511.366 -126.644 492.943 -122.2 C 451.67 -112.245 403.093 -114.067 368.51 -117.562"/><polygon fill="#000000" stroke="#000000" stroke-width="1.2" points="367.808,-114.118 358.25,-118.689 368.573,-121.076 367.808,-114.118"/><text fill="#000000" font-family="SimHei,sans-serif" font-size="9" text-anchor="middle" x="459.847" y="-124.7"><tspan>玩家离开(立即)</tspan></text></g><g id="edge7" class="edge"><path fill="none" stroke="#000000" stroke-width="1.2" d="M 546.768 -189.887 C 512.404 -199.697 466.353 -213.8 426.752 -229.2 C 412.094 -234.9 396.603 -241.742 382.195 -248.473"/><polygon fill="#000000" stroke="#000000" stroke-width="1.2" points="380.447,-245.428 372.904,-252.868 383.44,-251.756 380.447,-245.428"/><text fill="#000000" font-family="SimHei,sans-serif" font-size="9" text-anchor="middle" x="459.847" y="-231.7"><tspan>警戒超时</tspan></text></g><g id="node5" class="node"><path fill="#ffe0b2" stroke="#e65100" stroke-width="1.5" d="M 937.129 -210 C 937.129 -210 852.755 -210 852.755 -210 C 846.755 -210 840.755 -204 840.755 -198 C 840.755 -198 840.755 -154 840.755 -154 C 840.755 -148 846.755 -142 852.755 -142 C 852.755 -142 937.129 -142 937.129 -142 C 943.129 -142 949.129 -148 949.129 -154 C 949.129 -154 949.129 -198 949.129 -198 C 949.129 -204 943.129 -210 937.129 -210 Z"/><text fill="#000000" font-family="SimHei,sans-serif" font-size="10" text-anchor="middle" x="894.942" y="-197"><tspan>Chase (追击)</tspan></text><text fill="#000000" font-family="SimHei,sans-serif" font-size="10" text-anchor="middle" x="894.942" y="-185"><tspan>---</tspan></text><text fill="#000000" font-family="SimHei,sans-serif" font-size="10" text-anchor="middle" x="894.942" y="-173"><tspan>NavMesh追踪玩家</tspan></text><text fill="#000000" font-family="SimHei,sans-serif" font-size="10" text-anchor="middle" x="894.942" y="-161"><tspan>加速移动</tspan></text><text fill="#000000" font-family="SimHei,sans-serif" font-size="10" text-anchor="middle" x="894.942" y="-149"><tspan>接近触发战斗</tspan></text></g><g id="edge8" class="edge"><path fill="none" stroke="#000000" stroke-width="1.2" d="M 649.028 -176 C 699.193 -176 775.923 -176 830.316 -176"/><polygon fill="#000000" stroke="#000000" stroke-width="1.2" points="830.542,-179.5 840.542,-176 830.542,-172.5 830.542,-179.5"/><text fill="#000000" font-family="SimHei,sans-serif" font-size="9" text-anchor="middle" x="744.806" y="-178.7"><tspan>警觉度达到阈值</tspan></text></g><g id="edge10" class="edge"><path fill="none" stroke="#000000" stroke-width="1.2" d="M 840.741 -146.741 C 749.138 -101.635 560.613 -27.878 426.752 -104 C 413.736 -111.402 372.186 -186.037 345.854 -235.125"/><polygon fill="#000000" stroke="#000000" stroke-width="1.2" points="342.752,-233.503 341.124,-243.972 348.925,-236.803 342.752,-233.503"/><text fill="#000000" font-family="SimHei,sans-serif" font-size="9" text-anchor="middle" x="597.978" y="-82.7"><tspan>追击失败/超时</tspan></text></g><g id="edge9" class="edge"><path fill="none" stroke="#000000" stroke-width="1.2" d="M 840.672 -163.492 C 823.478 -160.093 804.331 -156.887 786.598 -155.2 C 749.616 -151.682 739.985 -151.575 703.014 -155.2 C 688.796 -156.594 673.65 -159.026 659.413 -161.746"/><polygon fill="#000000" stroke="#000000" stroke-width="1.2" points="658.36,-158.387 649.233,-163.767 659.724,-165.253 658.36,-158.387"/><text fill="#000000" font-family="SimHei,sans-serif" font-size="9" text-anchor="middle" x="744.806" y="-157.7"><tspan>玩家逃离(距离增加)</tspan></text></g><g id="node6" class="node"><path fill="#f8bbd0" stroke="#c2185b" stroke-width="1.5" d="M 1236.04 -210 C 1236.04 -210 1125.89 -210 1125.89 -210 C 1119.89 -210 1113.89 -204 1113.89 -198 C 1113.89 -198 1113.89 -154 1113.89 -154 C 1113.89 -148 1119.89 -142 1125.89 -142 C 1125.89 -142 1236.04 -142 1236.04 -142 C 1242.04 -142 1248.04 -148 1248.04 -154 C 1248.04 -154 1248.04 -198 1248.04 -198 C 1248.04 -204 1242.04 -210 1236.04 -210 Z"/><text fill="#000000" font-family="SimHei,sans-serif" font-size="10" text-anchor="middle" x="1180.96" y="-197"><tspan>Combat (战斗)</tspan></text><text fill="#000000" font-family="SimHei,sans-serif" font-size="10" text-anchor="middle" x="1180.96" y="-185"><tspan>---</tspan></text><text fill="#000000" font-family="SimHei,sans-serif" font-size="10" text-anchor="middle" x="1180.96" y="-173"><tspan>CombatTriggerManager接管</tspan></text><text fill="#000000" font-family="SimHei,sans-serif" font-size="10" text-anchor="middle" x="1180.96" y="-161"><tspan>敌人实体隐藏</tspan></text><text fill="#000000" font-family="SimHei,sans-serif" font-size="10" text-anchor="middle" x="1180.96" y="-149"><tspan>生成战斗棋子</tspan></text></g><g id="edge11" class="edge"><path fill="none" stroke="#000000" stroke-width="1.2" d="M 949.413 -176 C 993.069 -176 1054.87 -176 1103.65 -176"/><polygon fill="#000000" stroke="#000000" stroke-width="1.2" points="1103.85,-179.5 1113.85,-176 1103.85,-172.5 1103.85,-179.5"/><text fill="#000000" font-family="SimHei,sans-serif" font-size="9" text-anchor="middle" x="1031.48" y="-178.7"><tspan>进入战斗距离</tspan></text></g><g id="edge12" class="edge"><path fill="none" stroke="#000000" stroke-width="1.2" d="M 1120.45 -141.88 C 983.787 -69.8562 646.131 79.3532 426.752 -69 C 381.307 -99.7322 397.123 -130.849 372.752 -180 C 363.892 -197.868 354.004 -217.5 345.407 -234.469"/><polygon fill="#000000" stroke="#000000" stroke-width="1.2" points="342.181,-233.093 340.779,-243.595 348.424,-236.26 342.181,-233.093"/><text fill="#000000" font-family="SimHei,sans-serif" font-size="9" text-anchor="middle" x="744.806" y="-31.5"><tspan>战斗失败(玩家败)</tspan></text><text fill="#000000" font-family="SimHei,sans-serif" font-size="9" text-anchor="middle" x="744.806" y="-20.7"><tspan>恢复敌人实体</tspan></text></g><g id="node7" class="node"><path fill="#ffcdd2" stroke="#b71c1c" stroke-width="1.5" d="M 1210.13 -56 C 1210.13 -56 1151.8 -56 1151.8 -56 C 1145.8 -56 1139.8 -50 1139.8 -44 C 1139.8 -44 1139.8 -12 1139.8 -12 C 1139.8 -6 1145.8 0 1151.8 0 C 1151.8 0 1210.13 0 1210.13 0 C 1216.13 0 1222.13 -6 1222.13 -12 C 1222.13 -12 1222.13 -44 1222.13 -44 C 1222.13 -50 1216.13 -56 1210.13 -56 Z"/><text fill="#000000" font-family="SimHei,sans-serif" font-size="10" text-anchor="middle" x="1180.96" y="-43"><tspan>敌人销毁</tspan></text><text fill="#000000" font-family="SimHei,sans-serif" font-size="10" text-anchor="middle" x="1180.96" y="-31"><tspan>---</tspan></text><text fill="#000000" font-family="SimHei,sans-serif" font-size="10" text-anchor="middle" x="1180.96" y="-19"><tspan>战斗胜利净化</tspan></text><text fill="#000000" font-family="SimHei,sans-serif" font-size="10" text-anchor="middle" x="1180.96" y="-7"><tspan>或Boss被击败</tspan></text></g><g id="edge13" class="edge"><path fill="none" stroke="#000000" stroke-width="1.2" d="M 1180.96 -141.944 C 1180.96 -119.41 1180.96 -89.8207 1180.96 -66.4426"/><polygon fill="#000000" stroke="#000000" stroke-width="1.2" points="1184.46,-66.186 1180.96,-56.186 1177.46,-66.1861 1184.46,-66.186"/><text fill="#000000" font-family="SimHei,sans-serif" font-size="9" text-anchor="middle" x="1167.16" y="-101.7"><tspan>战斗胜利(玩家胜)</tspan></text><text fill="#000000" font-family="SimHei,sans-serif" font-size="9" text-anchor="middle" x="1167.16" y="-90.9"><tspan>敌人被净化</tspan></text></g></g></svg>
