<?xml version="1.0" encoding="UTF-8" standalone="yes"?><svg xmlns="http://www.w3.org/2000/svg" xmlns:xlink="http://www.w3.org/1999/xlink" version="1.2" baseProfile="tiny" x="0" y="0" width="1638" height="854" viewBox="0 0 1638.37 853.8"><defs/><g id="graph0" class="graph" transform="matrix(1,0,0,1,4,849.8)"><polygon fill="#ffffff" stroke="rgba(0,0,0,0)" points="-4,4 -4,-849.8 1634.37,-849.8 1634.37,4 -4,4"/><g id="node1" class="node"><polygon fill="#e3f2fd" stroke="#1976d2" stroke-width="2" points="735.547,-337.7 735.547,-399.7 963.053,-399.7 963.053,-337.7 735.547,-337.7"/><text fill="#000000" font-family="Times,serif" font-size="9" text-anchor="middle" x="766.285" y="-366"><tspan>IHitDetector</tspan></text><polyline fill="none" stroke="#1976d2" stroke-width="2" points="797.023,-337.7 797.023,-399.7"/><text fill="#000000" font-family="Times,serif" font-size="9" text-anchor="middle" x="880.038" y="-387.6"><tspan>+ detectorType: int</tspan></text><text fill="#000000" font-family="Times,serif" font-size="9" text-anchor="middle" x="880.038" y="-376.8"><tspan>---</tspan></text><text fill="#000000" font-family="Times,serif" font-size="9" text-anchor="middle" x="880.038" y="-366"><tspan>+ Execute(context)*</tspan></text><text fill="#000000" font-family="Times,serif" font-size="9" text-anchor="middle" x="880.038" y="-355.2"><tspan>+ DetectHit(context)*: bool</tspan></text><text fill="#000000" font-family="Times,serif" font-size="9" text-anchor="middle" x="880.038" y="-344.4"><tspan>+ GetHitTargets(context)*: ChessEntity[]</tspan></text></g><g id="node2" class="node"><polygon fill="#e3f2fd" stroke="#1976d2" stroke-width="2" points="356.16,-502.1 356.16,-607.3 577.269,-607.3 577.269,-502.1 356.16,-502.1"/><text fill="#000000" font-family="Times,serif" font-size="9" text-anchor="middle" x="394.146" y="-552"><tspan>HitDetectorBase</tspan></text><polyline fill="none" stroke="#1976d2" stroke-width="2" points="432.132,-502.1 432.132,-607.3"/><text fill="#000000" font-family="Times,serif" font-size="9" text-anchor="middle" x="504.701" y="-595.2"><tspan># m_HitTargets: List&lt;ChessEntity&gt;</tspan></text><text fill="#000000" font-family="Times,serif" font-size="9" text-anchor="middle" x="504.701" y="-584.4"><tspan># m_Context: HitContext</tspan></text><text fill="#000000" font-family="Times,serif" font-size="9" text-anchor="middle" x="504.701" y="-573.6"><tspan>---</tspan></text><text fill="#000000" font-family="Times,serif" font-size="9" text-anchor="middle" x="504.701" y="-562.8"><tspan>+ Execute(context)</tspan></text><text fill="#000000" font-family="Times,serif" font-size="9" text-anchor="middle" x="504.701" y="-552"><tspan># DetectHit()*: bool</tspan></text><text fill="#000000" font-family="Times,serif" font-size="9" text-anchor="middle" x="504.701" y="-541.2"><tspan># GetHitTargets()*: ChessEntity[]</tspan></text><text fill="#000000" font-family="Times,serif" font-size="9" text-anchor="middle" x="504.701" y="-530.4"><tspan># ApplyDamage(target)</tspan></text><text fill="#000000" font-family="Times,serif" font-size="9" text-anchor="middle" x="504.701" y="-519.6"><tspan># ApplyEffect(target)</tspan></text><text fill="#000000" font-family="Times,serif" font-size="9" text-anchor="middle" x="504.701" y="-508.8"><tspan># PlayHitEffect()</tspan></text></g><g id="edge1" class="edge"><path fill="none" stroke="#000000" d="M 510.31 -501.944 C 537.481 -472.5 574.872 -437.672 615.207 -416.9 C 648.842 -399.579 688.213 -388.481 724.967 -381.372"/><polygon fill="none" stroke="#000000" points="726.06,-384.729 735.258,-379.471 724.788,-377.846 726.06,-384.729"/><text fill="#000000" font-family="Times,serif" font-size="14" text-anchor="middle" x="653.319" y="-420.9"><tspan>实现</tspan></text></g><g id="node9" class="node"><polygon fill="#fff3e0" stroke="#e65100" stroke-width="2" points="746.446,-633.7 746.446,-749.7 952.153,-749.7 952.153,-633.7 746.446,-633.7"/><text fill="#000000" font-family="Times,serif" font-size="9" text-anchor="middle" x="774.446" y="-689"><tspan>HitContext</tspan></text><polyline fill="none" stroke="#e65100" stroke-width="2" points="802.445,-633.7 802.445,-749.7"/><text fill="#000000" font-family="Times,serif" font-size="9" text-anchor="middle" x="877.299" y="-737.6"><tspan>+ Attacker: ChessEntity</tspan></text><text fill="#000000" font-family="Times,serif" font-size="9" text-anchor="middle" x="877.299" y="-726.8"><tspan>+ LockedTarget: ChessEntity</tspan></text><text fill="#000000" font-family="Times,serif" font-size="9" text-anchor="middle" x="877.299" y="-716"><tspan>+ AttackPosition: Vector3</tspan></text><text fill="#000000" font-family="Times,serif" font-size="9" text-anchor="middle" x="877.299" y="-705.2"><tspan>+ AttackRotation: Quaternion</tspan></text><text fill="#000000" font-family="Times,serif" font-size="9" text-anchor="middle" x="877.299" y="-694.4"><tspan>+ AttackRange: float</tspan></text><text fill="#000000" font-family="Times,serif" font-size="9" text-anchor="middle" x="877.299" y="-683.6"><tspan>+ BaseDamage: double</tspan></text><text fill="#000000" font-family="Times,serif" font-size="9" text-anchor="middle" x="877.299" y="-672.8"><tspan>+ DamageType: int</tspan></text><text fill="#000000" font-family="Times,serif" font-size="9" text-anchor="middle" x="877.299" y="-662"><tspan>+ IsCritical: bool</tspan></text><text fill="#000000" font-family="Times,serif" font-size="9" text-anchor="middle" x="877.299" y="-651.2"><tspan>+ SkillConfig: SkillConfig</tspan></text><text fill="#000000" font-family="Times,serif" font-size="9" text-anchor="middle" x="877.299" y="-640.4"><tspan>+ HitCallback: Action&lt;ChessEntity&gt;</tspan></text></g><g id="edge7" class="edge"><path fill="none" stroke="#000000" d="M 577.374 -594.326 C 627.443 -612.255 686.533 -633.415 736.818 -651.421"/><polygon fill="#000000" stroke="#000000" points="746.426,-654.862 735.494,-655.727 741.719,-653.176 737.011,-651.491 737.011,-651.491 737.011,-651.491 741.719,-653.176 738.529,-647.254 746.426,-654.862 746.426,-654.862"/><text fill="#000000" font-family="Times,serif" font-size="14" text-anchor="middle" x="653.319" y="-634.9"><tspan>接收上下文</tspan></text></g><g id="node10" class="node"><polygon fill="#e8f5e9" stroke="#1b5e20" stroke-width="2" points="727.431,-794.1 727.431,-845.3 971.168,-845.3 971.168,-794.1 727.431,-794.1"/><text fill="#000000" font-family="Times,serif" font-size="9" text-anchor="middle" x="762.665" y="-817"><tspan>EffectExecutor</tspan></text><polyline fill="none" stroke="#1b5e20" stroke-width="2" points="797.899,-794.1 797.899,-845.3"/><text fill="#000000" font-family="Times,serif" font-size="9" text-anchor="middle" x="884.533" y="-833.2"><tspan>+ ApplyDamage(target, damage, isCritical)</tspan></text><text fill="#000000" font-family="Times,serif" font-size="9" text-anchor="middle" x="884.533" y="-822.4"><tspan>+ ApplyBuffsOnHit(target, buffIds, source)</tspan></text><text fill="#000000" font-family="Times,serif" font-size="9" text-anchor="middle" x="884.533" y="-811.6"><tspan>+ PlayHitEffect(position, effectId)</tspan></text><text fill="#000000" font-family="Times,serif" font-size="9" text-anchor="middle" x="884.533" y="-800.8"><tspan>+ PlayHitSound(soundId)</tspan></text></g><g id="edge8" class="edge"><path fill="none" stroke="#000000" d="M 519.763 -607.659 C 569.881 -655.448 648.891 -725.187 727.431 -771.7 C 738.735 -778.394 751.144 -784.512 763.583 -789.972"/><polygon fill="#000000" stroke="#000000" points="773.083,-794.018 762.12,-794.24 768.483,-792.059 763.883,-790.1 763.883,-790.1 763.883,-790.1 768.483,-792.059 765.646,-785.959 773.083,-794.018 773.083,-794.018"/><text fill="#000000" font-family="Times,serif" font-size="14" text-anchor="middle" x="653.319" y="-750.9"><tspan>委托效果执行</tspan></text></g><g id="node13" class="node"><polygon fill="#fce4ec" stroke="#c2185b" stroke-width="2" points="1146.62,-531.5 1146.62,-625.9 1326.65,-625.9 1326.65,-531.5 1146.62,-531.5"/><text fill="#000000" font-family="Times,serif" font-size="9" text-anchor="middle" x="1183.36" y="-576"><tspan>DamageApplier</tspan></text><polyline fill="none" stroke="#c2185b" stroke-width="2" points="1220.09,-531.5 1220.09,-625.9"/><text fill="#000000" font-family="Times,serif" font-size="9" text-anchor="middle" x="1273.37" y="-613.8"><tspan>+ m_Target: ChessEntity</tspan></text><text fill="#000000" font-family="Times,serif" font-size="9" text-anchor="middle" x="1273.37" y="-603"><tspan>+ m_Damage: double</tspan></text><text fill="#000000" font-family="Times,serif" font-size="9" text-anchor="middle" x="1273.37" y="-592.2"><tspan>+ m_DamageType: int</tspan></text><text fill="#000000" font-family="Times,serif" font-size="9" text-anchor="middle" x="1273.37" y="-581.4"><tspan>---</tspan></text><text fill="#000000" font-family="Times,serif" font-size="9" text-anchor="middle" x="1273.37" y="-570.6"><tspan>+ ApplyDamage()</tspan></text><text fill="#000000" font-family="Times,serif" font-size="9" text-anchor="middle" x="1273.37" y="-559.8"><tspan>+ UpdateHealth()</tspan></text><text fill="#000000" font-family="Times,serif" font-size="9" text-anchor="middle" x="1273.37" y="-549"><tspan>+ CheckDeath()</tspan></text><text fill="#000000" font-family="Times,serif" font-size="9" text-anchor="middle" x="1273.37" y="-538.2"><tspan>+ PlayDamageEffect()</tspan></text></g><g id="edge9" class="edge"><path fill="none" stroke="#000000" d="M 577.435 -558.151 C 727.181 -562.819 992.078 -571.077 1136.28 -575.572"/><polygon fill="#000000" stroke="#000000" points="1146.45,-575.889 1136.32,-580.075 1141.45,-575.733 1136.46,-575.577 1136.46,-575.577 1136.46,-575.577 1141.45,-575.733 1136.6,-571.079 1146.45,-575.889 1146.45,-575.889"/><text fill="#000000" font-family="Times,serif" font-size="14" text-anchor="middle" x="849.3" y="-573.9"><tspan>委托伤害应用</tspan></text></g><g id="node14" class="node"><polygon fill="#e0f2f1" stroke="#00695c" stroke-width="2" points="1447.65,-440.1 1447.65,-491.3 1630.37,-491.3 1630.37,-440.1 1447.65,-440.1"/><text fill="#000000" font-family="Times,serif" font-size="9" text-anchor="middle" x="1472.9" y="-463"><tspan>HitResult</tspan></text><polyline fill="none" stroke="#00695c" stroke-width="2" points="1498.15,-440.1 1498.15,-491.3"/><text fill="#000000" font-family="Times,serif" font-size="9" text-anchor="middle" x="1564.26" y="-479.2"><tspan>+ isHit: bool</tspan></text><text fill="#000000" font-family="Times,serif" font-size="9" text-anchor="middle" x="1564.26" y="-468.4"><tspan>+ hitTargets: List&lt;ChessEntity&gt;</tspan></text><text fill="#000000" font-family="Times,serif" font-size="9" text-anchor="middle" x="1564.26" y="-457.6"><tspan>+ hitPositions: List&lt;Vector3&gt;</tspan></text><text fill="#000000" font-family="Times,serif" font-size="9" text-anchor="middle" x="1564.26" y="-446.8"><tspan>+ totalDamageApplied: double</tspan></text></g><g id="edge10" class="edge"><path fill="none" stroke="#000000" d="M 577.43 -545.511 C 786.337 -528.172 1235.75 -490.871 1437.42 -474.132"/><polygon fill="#000000" stroke="#000000" points="1447.42,-473.302 1437.83,-478.614 1442.44,-473.716 1437.45,-474.129 1437.45,-474.129 1437.45,-474.129 1442.44,-473.716 1437.08,-469.645 1447.42,-473.302 1447.42,-473.302"/><text fill="#000000" font-family="Times,serif" font-size="14" text-anchor="middle" x="1058.89" y="-512.9"><tspan>返回结果</tspan></text></g><g id="node3" class="node"><polygon fill="#bbdefb" stroke="#1565c0" stroke-width="2" points="4.9977,-481.5 4.9977,-521.9 211.51,-521.9 211.51,-481.5 4.9977,-481.5"/><text fill="#000000" font-family="Times,serif" font-size="9" text-anchor="middle" x="40.7348" y="-499"><tspan>InstantDetector</tspan></text><polyline fill="none" stroke="#1565c0" stroke-width="2" points="76.4719,-481.5 76.4719,-521.9"/><text fill="#000000" font-family="Times,serif" font-size="9" text-anchor="middle" x="143.991" y="-509.8"><tspan>--- 瞬发命中检测</tspan></text><text fill="#000000" font-family="Times,serif" font-size="9" text-anchor="middle" x="143.991" y="-499"><tspan>+ DetectHit(): bool</tspan></text><text fill="#000000" font-family="Times,serif" font-size="9" text-anchor="middle" x="143.991" y="-488.2"><tspan>+ GetHitTargets(): ChessEntity[]</tspan></text></g><g id="edge2" class="edge"><path fill="none" stroke="#000000" d="M 211.935 -517.03 C 253.85 -523.227 302.512 -530.422 346.008 -536.853"/><polygon fill="none" stroke="#000000" points="345.669,-540.341 356.073,-538.341 346.693,-533.416 345.669,-540.341"/><text fill="#000000" font-family="Times,serif" font-size="14" text-anchor="middle" x="285.365" y="-534.9"><tspan>继承</tspan></text></g><g id="node4" class="node"><polygon fill="#bbdefb" stroke="#1565c0" stroke-width="2" points="6.0012,-375.7 6.0012,-437.7 210.506,-437.7 210.506,-375.7 6.0012,-375.7"/><text fill="#000000" font-family="Times,serif" font-size="9" text-anchor="middle" x="40.7348" y="-404"><tspan>MeleeDetector</tspan></text><polyline fill="none" stroke="#1565c0" stroke-width="2" points="75.4684,-375.7 75.4684,-437.7"/><text fill="#000000" font-family="Times,serif" font-size="9" text-anchor="middle" x="142.987" y="-425.6"><tspan>- attackerWeapon: Collider</tspan></text><text fill="#000000" font-family="Times,serif" font-size="9" text-anchor="middle" x="142.987" y="-414.8"><tspan>- contactPoints: List&lt;Vector3&gt;</tspan></text><text fill="#000000" font-family="Times,serif" font-size="9" text-anchor="middle" x="142.987" y="-404"><tspan>---</tspan></text><text fill="#000000" font-family="Times,serif" font-size="9" text-anchor="middle" x="142.987" y="-393.2"><tspan>+ DetectHit(): bool</tspan></text><text fill="#000000" font-family="Times,serif" font-size="9" text-anchor="middle" x="142.987" y="-382.4"><tspan>+ GetHitTargets(): ChessEntity[]</tspan></text></g><g id="edge3" class="edge"><path fill="none" stroke="#000000" d="M 183.399 -437.726 C 230.655 -457.237 292.684 -482.847 346.652 -505.129"/><polygon fill="none" stroke="#000000" points="345.354,-508.38 355.933,-508.961 348.025,-501.909 345.354,-508.38"/><text fill="#000000" font-family="Times,serif" font-size="14" text-anchor="middle" x="285.365" y="-492.9"><tspan>继承</tspan></text></g><g id="node5" class="node"><polygon fill="#bbdefb" stroke="#1565c0" stroke-width="2" points="0,-124.3 0,-197.1 216.507,-197.1 216.507,-124.3 0,-124.3"/><text fill="#000000" font-family="Times,serif" font-size="9" text-anchor="middle" x="40.7348" y="-158"><tspan>ProjectileDetector</tspan></text><polyline fill="none" stroke="#1565c0" stroke-width="2" points="81.4696,-124.3 81.4696,-197.1"/><text fill="#000000" font-family="Times,serif" font-size="9" text-anchor="middle" x="148.988" y="-185"><tspan>- projectile: Projectile</tspan></text><text fill="#000000" font-family="Times,serif" font-size="9" text-anchor="middle" x="148.988" y="-174.2"><tspan>- projectileCollider: Collider</tspan></text><text fill="#000000" font-family="Times,serif" font-size="9" text-anchor="middle" x="148.988" y="-163.4"><tspan>---</tspan></text><text fill="#000000" font-family="Times,serif" font-size="9" text-anchor="middle" x="148.988" y="-152.6"><tspan>+ DetectHit(): bool</tspan></text><text fill="#000000" font-family="Times,serif" font-size="9" text-anchor="middle" x="148.988" y="-141.8"><tspan>+ GetHitTargets(): ChessEntity[]</tspan></text><text fill="#000000" font-family="Times,serif" font-size="9" text-anchor="middle" x="148.988" y="-131"><tspan>+ OnProjectileHit(collision)</tspan></text></g><g id="edge4" class="edge"><path fill="none" stroke="#000000" d="M 141.655 -197.413 C 203.448 -265.332 336.163 -411.205 411.508 -494.02"/><polygon fill="none" stroke="#000000" points="409.297,-496.791 418.616,-501.833 414.475,-492.08 409.297,-496.791"/><text fill="#000000" font-family="Times,serif" font-size="14" text-anchor="middle" x="285.365" y="-384.9"><tspan>继承</tspan></text></g><g id="node11" class="node"><polygon fill="#f3e5f5" stroke="#4a148c" stroke-width="2" points="374.496,-0.5 374.496,-94.9 558.933,-94.9 558.933,-0.5 374.496,-0.5"/><text fill="#000000" font-family="Times,serif" font-size="9" text-anchor="middle" x="399.74" y="-45"><tspan>Projectile</tspan></text><polyline fill="none" stroke="#4a148c" stroke-width="2" points="424.985,-0.5 424.985,-94.9"/><text fill="#000000" font-family="Times,serif" font-size="9" text-anchor="middle" x="491.959" y="-82.8"><tspan>- m_Speed: float</tspan></text><text fill="#000000" font-family="Times,serif" font-size="9" text-anchor="middle" x="491.959" y="-72"><tspan>- m_Direction: Vector3</tspan></text><text fill="#000000" font-family="Times,serif" font-size="9" text-anchor="middle" x="491.959" y="-61.2"><tspan>- m_Owner: ChessEntity</tspan></text><text fill="#000000" font-family="Times,serif" font-size="9" text-anchor="middle" x="491.959" y="-50.4"><tspan>- m_Detector: ProjectileDetector</tspan></text><text fill="#000000" font-family="Times,serif" font-size="9" text-anchor="middle" x="491.959" y="-39.6"><tspan>---</tspan></text><text fill="#000000" font-family="Times,serif" font-size="9" text-anchor="middle" x="491.959" y="-28.8"><tspan>+ Initialize(owner, target, speed)</tspan></text><text fill="#000000" font-family="Times,serif" font-size="9" text-anchor="middle" x="491.959" y="-18"><tspan>+ OnTriggerEnter(collision)</tspan></text><text fill="#000000" font-family="Times,serif" font-size="9" text-anchor="middle" x="491.959" y="-7.2"><tspan>+ DestroyProjectile()</tspan></text></g><g id="edge13" class="edge"><path fill="none" stroke="#000000" d="M 214.466 -124.299 C 227.262 -120.053 240.165 -115.836 252.507 -111.9 C 288.231 -100.508 327.489 -88.5738 362.529 -78.1281"/><polygon fill="#000000" stroke="#000000" points="362.737,-78.0662 367.348,-72.5219 374.24,-74.6456 369.629,-80.19 362.737,-78.0662"/><text fill="#000000" font-family="Times,serif" font-size="14" text-anchor="middle" x="285.365" y="-116.9"><tspan>持有弹体</tspan></text></g><g id="edge14" class="edge"><path fill="none" stroke="#000000" stroke-dasharray="5,2" d="M 216.884 -160.7 C 287.962 -160.7 382.856 -160.7 466.714 -160.7 C 466.714 -160.7 466.714 -160.7 1236.64 -160.7 C 1387.28 -160.7 1488.48 -350.669 1524.45 -430.757"/><polygon fill="#000000" stroke="#000000" points="1528.51,-439.959 1520.36,-432.628 1526.49,-435.385 1524.47,-430.81 1524.47,-430.81 1524.47,-430.81 1526.49,-435.385 1528.59,-428.993 1528.51,-439.959 1528.51,-439.959"/><text fill="#000000" font-family="Times,serif" font-size="14" text-anchor="middle" x="849.3" y="-164.9"><tspan>生成结果</tspan></text></g><g id="node6" class="node"><polygon fill="#bbdefb" stroke="#1565c0" stroke-width="2" points="7.9983,-693.3 7.9983,-766.1 208.509,-766.1 208.509,-693.3 7.9983,-693.3"/><text fill="#000000" font-family="Times,serif" font-size="9" text-anchor="middle" x="40.7348" y="-727"><tspan>AOEDetector</tspan></text><polyline fill="none" stroke="#1565c0" stroke-width="2" points="73.4713,-693.3 73.4713,-766.1"/><text fill="#000000" font-family="Times,serif" font-size="9" text-anchor="middle" x="140.99" y="-754"><tspan>- explosionCenter: Vector3</tspan></text><text fill="#000000" font-family="Times,serif" font-size="9" text-anchor="middle" x="140.99" y="-743.2"><tspan>- explosionRadius: float</tspan></text><text fill="#000000" font-family="Times,serif" font-size="9" text-anchor="middle" x="140.99" y="-732.4"><tspan>---</tspan></text><text fill="#000000" font-family="Times,serif" font-size="9" text-anchor="middle" x="140.99" y="-721.6"><tspan>+ DetectHit(): bool</tspan></text><text fill="#000000" font-family="Times,serif" font-size="9" text-anchor="middle" x="140.99" y="-710.8"><tspan>+ GetHitTargets(): ChessEntity[]</tspan></text><text fill="#000000" font-family="Times,serif" font-size="9" text-anchor="middle" x="140.99" y="-700"><tspan>+ CheckInSphere(center, radius)</tspan></text></g><g id="edge5" class="edge"><path fill="none" stroke="#000000" d="M 182.962 -693.227 C 231.165 -669.695 294.871 -638.594 349.706 -611.823"/><polygon fill="none" stroke="#000000" points="351.326,-614.927 358.777,-607.395 348.255,-608.637 351.326,-614.927"/><text fill="#000000" font-family="Times,serif" font-size="14" text-anchor="middle" x="285.365" y="-661.9"><tspan>继承</tspan></text></g><g id="node7" class="node"><polygon fill="#bbdefb" stroke="#1565c0" stroke-width="2" points="3.0001,-565.9 3.0001,-649.5 213.507,-649.5 213.507,-565.9 3.0001,-565.9"/><text fill="#000000" font-family="Times,serif" font-size="9" text-anchor="middle" x="40.7348" y="-605"><tspan>RaycastDetector</tspan></text><polyline fill="none" stroke="#1565c0" stroke-width="2" points="78.4695,-565.9 78.4695,-649.5"/><text fill="#000000" font-family="Times,serif" font-size="9" text-anchor="middle" x="145.988" y="-637.4"><tspan>- rayOrigin: Vector3</tspan></text><text fill="#000000" font-family="Times,serif" font-size="9" text-anchor="middle" x="145.988" y="-626.6"><tspan>- rayDirection: Vector3</tspan></text><text fill="#000000" font-family="Times,serif" font-size="9" text-anchor="middle" x="145.988" y="-615.8"><tspan>- rayDistance: float</tspan></text><text fill="#000000" font-family="Times,serif" font-size="9" text-anchor="middle" x="145.988" y="-605"><tspan>---</tspan></text><text fill="#000000" font-family="Times,serif" font-size="9" text-anchor="middle" x="145.988" y="-594.2"><tspan>+ DetectHit(): bool</tspan></text><text fill="#000000" font-family="Times,serif" font-size="9" text-anchor="middle" x="145.988" y="-583.4"><tspan>+ GetHitTargets(): ChessEntity[]</tspan></text><text fill="#000000" font-family="Times,serif" font-size="9" text-anchor="middle" x="145.988" y="-572.6"><tspan>+ CheckRaycast()</tspan></text></g><g id="edge6" class="edge"><path fill="none" stroke="#000000" d="M 213.865 -592.085 C 255.345 -585.952 303.192 -578.878 346.028 -572.544"/><polygon fill="none" stroke="#000000" points="346.561,-576.003 355.941,-571.078 345.537,-569.079 346.561,-576.003"/><text fill="#000000" font-family="Times,serif" font-size="14" text-anchor="middle" x="285.365" y="-589.9"><tspan>继承</tspan></text></g><g id="node8" class="node"><polygon fill="#f1f8e9" stroke="#558b2f" stroke-width="2" points="354.222,-276.7 354.222,-312.7 579.207,-312.7 579.207,-276.7 354.222,-276.7"/><text fill="#000000" font-family="Times,serif" font-size="9" text-anchor="middle" x="397.207" y="-292.2"><tspan>HitDetectorFactory</tspan></text><polyline fill="none" stroke="#558b2f" stroke-width="2" points="440.192,-277.1 440.192,-312.7"/><text fill="#000000" font-family="Times,serif" font-size="9" text-anchor="middle" x="509.7" y="-297.6"><tspan>+ GetDetector(type): IHitDetector</tspan></text><text fill="#000000" font-family="Times,serif" font-size="9" text-anchor="middle" x="509.7" y="-286.8"><tspan>+ GetDetectorByConfig(config)</tspan></text></g><g id="edge11" class="edge"><path fill="none" stroke="#000000" stroke-dasharray="5,2" d="M 559.816 -312.708 C 609.582 -322.334 671.512 -334.312 725.304 -344.717"/><polygon fill="#000000" stroke="#000000" points="735.249,-346.64 724.577,-349.159 730.34,-345.691 725.431,-344.741 725.431,-344.741 725.431,-344.741 730.34,-345.691 726.286,-340.323 735.249,-346.64 735.249,-346.64"/><text fill="#000000" font-family="Times,serif" font-size="14" text-anchor="middle" x="653.319" y="-339.9"><tspan>创建</tspan></text></g><g id="node12" class="node"><polygon fill="#fff9c4" stroke="#f57f17" stroke-width="2" points="754.285,-221.3 754.285,-294.1 944.315,-294.1 944.315,-221.3 754.285,-221.3"/><text fill="#000000" font-family="Times,serif" font-size="9" text-anchor="middle" x="798.027" y="-255"><tspan>HitDetectionConfig</tspan></text><polyline fill="none" stroke="#f57f17" stroke-width="2" points="841.769,-221.3 841.769,-294.1"/><text fill="#000000" font-family="Times,serif" font-size="9" text-anchor="middle" x="893.042" y="-282"><tspan>+ detectionType: int</tspan></text><text fill="#000000" font-family="Times,serif" font-size="9" text-anchor="middle" x="893.042" y="-271.2"><tspan>+ projectilePrefabId: int</tspan></text><text fill="#000000" font-family="Times,serif" font-size="9" text-anchor="middle" x="893.042" y="-260.4"><tspan>+ meleeWeaponId: int</tspan></text><text fill="#000000" font-family="Times,serif" font-size="9" text-anchor="middle" x="893.042" y="-249.6"><tspan>+ aoeRadius: float</tspan></text><text fill="#000000" font-family="Times,serif" font-size="9" text-anchor="middle" x="893.042" y="-238.8"><tspan>+ raycastDistance: float</tspan></text><text fill="#000000" font-family="Times,serif" font-size="9" text-anchor="middle" x="893.042" y="-228"><tspan>+ ignoreLayerMask: int</tspan></text></g><g id="edge12" class="edge"><path fill="none" stroke="#000000" stroke-dasharray="5,2" d="M 534.981 -276.631 C 560.027 -270.796 588.726 -265.03 615.207 -261.9 C 657.165 -256.94 703.642 -255.315 744.052 -255.135"/><polygon fill="#000000" stroke="#000000" points="754.188,-255.119 744.195,-259.635 749.188,-255.127 744.188,-255.135 744.188,-255.135 744.188,-255.135 749.188,-255.127 744.181,-250.635 754.188,-255.119 754.188,-255.119"/><text fill="#000000" font-family="Times,serif" font-size="14" text-anchor="middle" x="653.319" y="-265.9"><tspan>读取配置</tspan></text></g><g id="edge15" class="edge"><path fill="none" stroke="#000000" d="M 923.173 -794.081 C 939.344 -787.523 956.117 -779.96 971.168 -771.7 C 1044.34 -731.544 1120.69 -674.153 1172.62 -632.398"/><polygon fill="#000000" stroke="#000000" points="1180.43,-626.096 1175.47,-635.88 1176.54,-629.238 1172.65,-632.38 1172.65,-632.38 1172.65,-632.38 1176.54,-629.238 1169.82,-628.879 1180.43,-626.096 1180.43,-626.096"/><text fill="#000000" font-family="Times,serif" font-size="14" text-anchor="middle" x="1058.89" y="-752.9"><tspan>调用伤害计算</tspan></text></g><g id="edge16" class="edge"><path fill="none" stroke="#000000" d="M 1326.95 -544.949 C 1369.57 -529.021 1419.94 -510.197 1460.89 -494.893"/><polygon fill="#000000" stroke="#000000" points="1470.28,-491.383 1462.49,-499.099 1465.6,-493.134 1460.92,-494.884 1460.92,-494.884 1460.92,-494.884 1465.6,-493.134 1459.34,-490.669 1470.28,-491.383 1470.28,-491.383"/><text fill="#000000" font-family="Times,serif" font-size="14" text-anchor="middle" x="1387.15" y="-532.9"><tspan>写入结果</tspan></text></g></g></svg>
