<?xml version="1.0" encoding="UTF-8" standalone="yes"?><svg xmlns="http://www.w3.org/2000/svg" xmlns:xlink="http://www.w3.org/1999/xlink" version="1.2" baseProfile="tiny" x="0" y="0" width="1339" height="1075" viewBox="0 0 1339.44 1075"><defs/><g id="graph0" class="graph" transform="matrix(1,0,0,1,4,1071)"><polygon fill="#ffffff" stroke="rgba(0,0,0,0)" points="-4,4 -4,-1071 1335.44,-1071 1335.44,4 -4,4"/><g id="clust2" class="cluster"><path fill="#fff3e0" stroke="#e65100" d="M 423.592 -8 C 423.592 -8 513.02 -8 513.02 -8 C 519.02 -8 525.02 -14 525.02 -20 C 525.02 -20 525.02 -343 525.02 -343 C 525.02 -349 519.02 -355 513.02 -355 C 513.02 -355 423.592 -355 423.592 -355 C 417.592 -355 411.592 -349 411.592 -343 C 411.592 -343 411.592 -20 411.592 -20 C 411.592 -14 417.592 -8 423.592 -8 Z"/><text fill="#000000" font-family="SimHei,sans-serif" font-size="12" text-anchor="middle" x="468.306" y="-340.2"><tspan>触发判定</tspan></text></g><g id="clust3" class="cluster"><path fill="#fff9c4" stroke="#f57f17" d="M 431.592 -16 C 431.592 -16 505.02 -16 505.02 -16 C 511.02 -16 517.02 -22 517.02 -28 C 517.02 -28 517.02 -313 517.02 -313 C 517.02 -319 511.02 -325 505.02 -325 C 505.02 -325 431.592 -325 431.592 -325 C 425.592 -325 419.592 -319 419.592 -313 C 419.592 -313 419.592 -28 419.592 -28 C 419.592 -22 425.592 -16 431.592 -16 Z"/><text fill="#000000" font-family="SimHei,sans-serif" font-size="10" text-anchor="middle" x="468.306" y="-312"><tspan>CombatTriggerType</tspan></text></g><g id="clust4" class="cluster"><path fill="#e3f2fd" stroke="#1565c0" d="M 1216.25 -353 C 1216.25 -353 1311.44 -353 1311.44 -353 C 1317.44 -353 1323.44 -359 1323.44 -365 C 1323.44 -365 1323.44 -551 1323.44 -551 C 1323.44 -557 1317.44 -563 1311.44 -563 C 1311.44 -563 1216.25 -563 1216.25 -563 C 1210.25 -563 1204.25 -557 1204.25 -551 C 1204.25 -551 1204.25 -365 1204.25 -365 C 1204.25 -359 1210.25 -353 1216.25 -353 Z"/><text fill="#000000" font-family="SimHei,sans-serif" font-size="12" text-anchor="middle" x="1263.85" y="-548.2"><tspan>战斗阶段</tspan></text></g><g id="node1" class="node"><path fill="#c8e6c9" stroke="#2e7d32" stroke-width="1.5" d="M 224.553 -751 C 224.553 -751 165.134 -751 165.134 -751 C 159.134 -751 153.134 -745 153.134 -739 C 153.134 -739 153.134 -727 153.134 -727 C 153.134 -721 159.134 -715 165.134 -715 C 165.134 -715 224.553 -715 224.553 -715 C 230.553 -715 236.553 -721 236.553 -727 C 236.553 -727 236.553 -739 236.553 -739 C 236.553 -745 230.553 -751 224.553 -751 Z"/><text fill="#000000" font-family="SimHei,sans-serif" font-size="10" text-anchor="middle" x="194.843" y="-736"><tspan>ExplorationState</tspan></text><text fill="#000000" font-family="SimHei,sans-serif" font-size="10" text-anchor="middle" x="194.843" y="-724"><tspan>(探索状态)</tspan></text></g><g id="node2" class="node"><path fill="#c8e6c9" stroke="#2e7d32" stroke-width="1.5" d="M 248.317 -499 C 248.317 -499 141.369 -499 141.369 -499 C 135.369 -499 129.369 -493 129.369 -487 C 129.369 -487 129.369 -475 129.369 -475 C 129.369 -469 135.369 -463 141.369 -463 C 141.369 -463 248.317 -463 248.317 -463 C 254.317 -463 260.317 -469 260.317 -475 C 260.317 -475 260.317 -487 260.317 -487 C 260.317 -493 254.317 -499 248.317 -499 Z"/><text fill="#000000" font-family="SimHei,sans-serif" font-size="10" text-anchor="middle" x="194.843" y="-484"><tspan>CombatOpportunityDetector</tspan></text><text fill="#000000" font-family="SimHei,sans-serif" font-size="10" text-anchor="middle" x="194.843" y="-472"><tspan>(战斗机会检测器)</tspan></text></g><g id="edge1" class="edge"><path fill="none" stroke="#000000" stroke-width="1.2" d="M 236.505 -733 C 243.978 -733 249.445 -733 249.445 -733 C 249.445 -733 249.445 -509.123 249.445 -509.123"/><polygon fill="#000000" stroke="#000000" stroke-width="1.2" points="252.945,-509.123 249.445,-499.123 245.945,-509.123 252.945,-509.123"/><text fill="#000000" font-family="SimHei,sans-serif" font-size="9" text-anchor="middle" x="65.487" y="-604.3"><tspan>Update检测</tspan></text></g><g id="node5" class="node"><path fill="#ffe0b2" stroke="#e65100" stroke-width="1.5" d="M 512.492 -589 C 512.492 -589 423.12 -589 423.12 -589 C 417.12 -589 411.12 -583 411.12 -577 C 411.12 -577 411.12 -533 411.12 -533 C 411.12 -527 417.12 -521 423.12 -521 C 423.12 -521 512.492 -521 512.492 -521 C 518.492 -521 524.492 -527 524.492 -533 C 524.492 -533 524.492 -577 524.492 -577 C 524.492 -583 518.492 -589 512.492 -589 Z"/><text fill="#000000" font-family="SimHei,sans-serif" font-size="10" text-anchor="middle" x="467.806" y="-576"><tspan>CombatTriggerManager</tspan></text><text fill="#000000" font-family="SimHei,sans-serif" font-size="10" text-anchor="middle" x="467.806" y="-564"><tspan>(战斗触发管理器)</tspan></text><text fill="#000000" font-family="SimHei,sans-serif" font-size="10" text-anchor="middle" x="467.806" y="-552"><tspan>---</tspan></text><text fill="#000000" font-family="SimHei,sans-serif" font-size="10" text-anchor="middle" x="467.806" y="-540"><tspan>TriggerCombat()</tspan></text><text fill="#000000" font-family="SimHei,sans-serif" font-size="10" text-anchor="middle" x="467.806" y="-528"><tspan>ClearContext()</tspan></text></g><g id="edge4" class="edge"><path fill="none" stroke="#000000" stroke-width="1.2" d="M 255.445 -499.106 C 255.445 -518.339 255.445 -546 255.445 -546 C 255.445 -546 401.176 -546 401.176 -546"/><polygon fill="#000000" stroke="#000000" stroke-width="1.2" points="401.176,-549.5 411.176,-546 401.176,-542.5 401.176,-549.5"/><text fill="#000000" font-family="SimHei,sans-serif" font-size="9" text-anchor="middle" x="335.772" y="-520.7"><tspan>触发战斗</tspan></text></g><g id="node7" class="node"><path fill="#fff176" stroke="#f57f17" stroke-width="1.5" d="M 489.615 -297.402 C 489.615 -297.402 445.997 -297.402 445.997 -297.402 C 439.997 -297.402 433.997 -291.402 433.997 -285.402 C 433.997 -285.402 433.997 -262.598 433.997 -262.598 C 433.997 -256.598 439.997 -250.598 445.997 -250.598 C 445.997 -250.598 489.615 -250.598 489.615 -250.598 C 495.615 -250.598 501.615 -256.598 501.615 -262.598 C 501.615 -262.598 501.615 -285.402 501.615 -285.402 C 501.615 -291.402 495.615 -297.402 489.615 -297.402 Z"/><text fill="#000000" font-family="SimHei,sans-serif" font-size="8" text-anchor="middle" x="467.806" y="-286"><tspan>SneakAttack</tspan></text><text fill="#000000" font-family="SimHei,sans-serif" font-size="8" text-anchor="middle" x="467.806" y="-276.4"><tspan>偷袭</tspan></text><text fill="#000000" font-family="SimHei,sans-serif" font-size="8" text-anchor="middle" x="467.806" y="-266.8"><tspan>距离&lt;3m 背后</tspan></text><text fill="#000000" font-family="SimHei,sans-serif" font-size="8" text-anchor="middle" x="467.806" y="-257.2"><tspan>警觉&lt;0.3</tspan></text></g><g id="edge5" class="edge"><path fill="none" stroke="#000000" stroke-width="1.2" stroke-dasharray="5,2" d="M 217.445 -462.992 C 217.445 -412.63 217.445 -274 217.445 -274 C 217.445 -274 424.041 -274 424.041 -274"/><polygon fill="#000000" stroke="#000000" stroke-width="1.2" points="424.041,-277.5 434.041,-274 424.041,-270.5 424.041,-277.5"/><text fill="#000000" font-family="SimHei,sans-serif" font-size="9" text-anchor="middle" x="335.772" y="-278.7"><tspan>偷袭条件满足</tspan></text></g><g id="node8" class="node"><path fill="#fff176" stroke="#f57f17" stroke-width="1.5" d="M 492.165 -70.4017 C 492.165 -70.4017 443.447 -70.4017 443.447 -70.4017 C 437.447 -70.4017 431.447 -64.4017 431.447 -58.4017 C 431.447 -58.4017 431.447 -35.5983 431.447 -35.5983 C 431.447 -29.5983 437.447 -23.5983 443.447 -23.5983 C 443.447 -23.5983 492.165 -23.5983 492.165 -23.5983 C 498.165 -23.5983 504.165 -29.5983 504.165 -35.5983 C 504.165 -35.5983 504.165 -58.4017 504.165 -58.4017 C 504.165 -64.4017 498.165 -70.4017 492.165 -70.4017 Z"/><text fill="#000000" font-family="SimHei,sans-serif" font-size="8" text-anchor="middle" x="467.806" y="-59"><tspan>Encounter</tspan></text><text fill="#000000" font-family="SimHei,sans-serif" font-size="8" text-anchor="middle" x="467.806" y="-49.4"><tspan>遭遇战</tspan></text><text fill="#000000" font-family="SimHei,sans-serif" font-size="8" text-anchor="middle" x="467.806" y="-39.8"><tspan>距离&lt;5m 正面</tspan></text><text fill="#000000" font-family="SimHei,sans-serif" font-size="8" text-anchor="middle" x="467.806" y="-30.2"><tspan>警觉&lt;0.5</tspan></text></g><g id="edge6" class="edge"><path fill="none" stroke="#000000" stroke-width="1.2" stroke-dasharray="5,2" d="M 173.445 -462.904 C 173.445 -380.766 173.445 -47 173.445 -47 C 173.445 -47 421.416 -47 421.416 -47"/><polygon fill="#000000" stroke="#000000" stroke-width="1.2" points="421.416,-50.5001 431.416,-47 421.416,-43.5001 421.416,-50.5001"/><text fill="#000000" font-family="SimHei,sans-serif" font-size="9" text-anchor="middle" x="335.772" y="-139.7"><tspan>遭遇条件满足</tspan></text></g><g id="node3" class="node"><path fill="#a5d6a7" stroke="#1b5e20" stroke-width="1.5" d="M 217.117 -679 C 217.117 -679 172.57 -679 172.57 -679 C 166.57 -679 160.57 -673 160.57 -667 C 160.57 -667 160.57 -655 160.57 -655 C 160.57 -649 166.57 -643 172.57 -643 C 172.57 -643 217.117 -643 217.117 -643 C 223.117 -643 229.117 -649 229.117 -655 C 229.117 -655 229.117 -667 229.117 -667 C 229.117 -673 223.117 -679 217.117 -679 Z"/><text fill="#000000" font-family="SimHei,sans-serif" font-size="10" text-anchor="middle" x="194.843" y="-664"><tspan>EnemyEntity</tspan></text><text fill="#000000" font-family="SimHei,sans-serif" font-size="10" text-anchor="middle" x="194.843" y="-652"><tspan>(敌人实体)</tspan></text></g><g id="node20" class="node"><path fill="#f8bbd0" stroke="#c2185b" stroke-width="1.5" d="M 755.901 -641 C 755.901 -641 675.284 -641 675.284 -641 C 669.284 -641 663.284 -635 663.284 -629 C 663.284 -629 663.284 -585 663.284 -585 C 663.284 -579 669.284 -573 675.284 -573 C 675.284 -573 755.901 -573 755.901 -573 C 761.901 -573 767.901 -579 767.901 -585 C 767.901 -585 767.901 -629 767.901 -629 C 767.901 -635 761.901 -641 755.901 -641 Z"/><text fill="#000000" font-family="SimHei,sans-serif" font-size="10" text-anchor="middle" x="715.592" y="-628"><tspan>EnemyEntityManager</tspan></text><text fill="#000000" font-family="SimHei,sans-serif" font-size="10" text-anchor="middle" x="715.592" y="-616"><tspan>(敌人管理器)</tspan></text><text fill="#000000" font-family="SimHei,sans-serif" font-size="10" text-anchor="middle" x="715.592" y="-604"><tspan>---</tspan></text><text fill="#000000" font-family="SimHei,sans-serif" font-size="10" text-anchor="middle" x="715.592" y="-592"><tspan>TriggerCombat()</tspan></text><text fill="#000000" font-family="SimHei,sans-serif" font-size="10" text-anchor="middle" x="715.592" y="-580"><tspan>OnCombatEnd()</tspan></text></g><g id="edge3" class="edge"><path fill="none" stroke="#000000" stroke-width="1.2" stroke-dasharray="5,2" d="M 195.445 -642.658 C 195.445 -631.094 195.445 -618.333 195.445 -618.333 C 195.445 -618.333 653.337 -618.333 653.337 -618.333"/><polygon fill="#000000" stroke="#000000" stroke-width="1.2" points="653.337,-621.833 663.337,-618.333 653.337,-614.833 653.337,-621.833"/><text fill="#000000" font-family="SimHei,sans-serif" font-size="9" text-anchor="middle" x="467.806" y="-663.7"><tspan>追击触发</tspan></text></g><g id="node4" class="node"><path fill="#a5d6a7" stroke="#1b5e20" stroke-width="1.5" d="M 232.031 -607 C 232.031 -607 157.655 -607 157.655 -607 C 151.655 -607 145.655 -601 145.655 -595 C 145.655 -595 145.655 -583 145.655 -583 C 145.655 -577 151.655 -571 157.655 -571 C 157.655 -571 232.031 -571 232.031 -571 C 238.031 -571 244.031 -577 244.031 -583 C 244.031 -583 244.031 -595 244.031 -595 C 244.031 -601 238.031 -607 232.031 -607 Z"/><text fill="#000000" font-family="SimHei,sans-serif" font-size="10" text-anchor="middle" x="194.843" y="-592"><tspan>PlayerInputManager</tspan></text><text fill="#000000" font-family="SimHei,sans-serif" font-size="10" text-anchor="middle" x="194.843" y="-580"><tspan>(空格键触发)</tspan></text></g><g id="edge2" class="edge"><path fill="none" stroke="#000000" stroke-width="1.2" d="M 195.445 -570.679 C 195.445 -570.679 195.445 -509.05 195.445 -509.05"/><polygon fill="#000000" stroke="#000000" stroke-width="1.2" points="198.945,-509.05 195.445,-499.05 191.945,-509.05 198.945,-509.05"/></g><g id="node6" class="node"><path fill="#ffccbc" stroke="#d84315" stroke-width="1.5" d="M 510.623 -449 C 510.623 -449 424.988 -449 424.988 -449 C 418.988 -449 412.988 -443 412.988 -437 C 412.988 -437 412.988 -381 412.988 -381 C 412.988 -375 418.988 -369 424.988 -369 C 424.988 -369 510.623 -369 510.623 -369 C 516.624 -369 522.624 -375 522.624 -381 C 522.624 -381 522.624 -437 522.624 -437 C 522.624 -443 516.624 -449 510.623 -449 Z"/><text fill="#000000" font-family="SimHei,sans-serif" font-size="10" text-anchor="middle" x="467.806" y="-436"><tspan>CombatTriggerContext</tspan></text><text fill="#000000" font-family="SimHei,sans-serif" font-size="10" text-anchor="middle" x="467.806" y="-424"><tspan>(触发上下文)</tspan></text><text fill="#000000" font-family="SimHei,sans-serif" font-size="10" text-anchor="middle" x="467.806" y="-412"><tspan>---</tspan></text><text fill="#000000" font-family="SimHei,sans-serif" font-size="10" text-anchor="middle" x="467.806" y="-400"><tspan>TriggerType</tspan></text><text fill="#000000" font-family="SimHei,sans-serif" font-size="10" text-anchor="middle" x="467.806" y="-388"><tspan>AvailableDebuffs</tspan></text><text fill="#000000" font-family="SimHei,sans-serif" font-size="10" text-anchor="middle" x="467.806" y="-376"><tspan>InitiativeBuffId</tspan></text></g><g id="edge12" class="edge"><path fill="none" stroke="#000000" stroke-width="1.2" d="M 468.445 -520.769 C 468.445 -520.769 468.445 -459.232 468.445 -459.232"/><polygon fill="#000000" stroke="#000000" stroke-width="1.2" points="471.945,-459.232 468.445,-449.232 464.945,-459.232 471.945,-459.232"/></g><g id="edge13" class="edge"><path fill="none" stroke="#000000" stroke-width="1.2" d="M 524.653 -578.333 C 524.653 -578.333 653.237 -578.333 653.237 -578.333"/><polygon fill="#000000" stroke="#000000" stroke-width="1.2" points="653.237,-581.833 663.237,-578.333 653.237,-574.833 653.237,-581.833"/><text fill="#000000" font-family="SimHei,sans-serif" font-size="9" text-anchor="middle" x="592.396" y="-609.7"><tspan>保存战斗数据</tspan></text></g><g id="edge8" class="edge"><path fill="none" stroke="#000000" stroke-width="1.2" d="M 468.445 -297.207 C 468.445 -297.207 468.445 -358.927 468.445 -358.927"/><polygon fill="#000000" stroke="#000000" stroke-width="1.2" points="464.945,-358.927 468.445,-368.927 471.945,-358.927 464.945,-358.927"/></g><g id="edge9" class="edge"><path fill="none" stroke="#000000" stroke-width="1.2" d="M 504.554 -47 C 510.334 -47 514.445 -47 514.445 -47 C 514.445 -47 514.445 -358.877 514.445 -358.877"/><polygon fill="#000000" stroke="#000000" stroke-width="1.2" points="510.945,-358.877 514.445,-368.877 517.945,-358.877 510.945,-358.877"/><text fill="#000000" font-family="SimHei,sans-serif" font-size="9" text-anchor="middle" x="335.772" y="-317.3"><tspan>随机玩家Buff</tspan></text></g><g id="node9" class="node"><path fill="#fff176" stroke="#f57f17" stroke-width="1.5" d="M 493.235 -214.3 C 493.235 -214.3 442.377 -214.3 442.377 -214.3 C 436.377 -214.3 430.377 -208.3 430.377 -202.3 C 430.377 -202.3 430.377 -189.7 430.377 -189.7 C 430.377 -183.7 436.377 -177.7 442.377 -177.7 C 442.377 -177.7 493.235 -177.7 493.235 -177.7 C 499.235 -177.7 505.235 -183.7 505.235 -189.7 C 505.235 -189.7 505.235 -202.3 505.235 -202.3 C 505.235 -208.3 499.235 -214.3 493.235 -214.3 Z"/><text fill="#000000" font-family="SimHei,sans-serif" font-size="8" text-anchor="middle" x="467.806" y="-203.2"><tspan>EnemyInitiated</tspan></text><text fill="#000000" font-family="SimHei,sans-serif" font-size="8" text-anchor="middle" x="467.806" y="-193.6"><tspan>敌方先手</tspan></text><text fill="#000000" font-family="SimHei,sans-serif" font-size="8" text-anchor="middle" x="467.806" y="-184"><tspan>敌人追击触发</tspan></text></g><g id="edge10" class="edge"><path fill="none" stroke="#000000" stroke-width="1.2" d="M 430.304 -196 C 427.33 -196 425.445 -196 425.445 -196 C 425.445 -196 425.445 -358.936 425.445 -358.936"/><polygon fill="#000000" stroke="#000000" stroke-width="1.2" points="421.945,-358.936 425.445,-368.936 428.945,-358.936 421.945,-358.936"/><text fill="#000000" font-family="SimHei,sans-serif" font-size="9" text-anchor="middle" x="335.772" y="-297.3"><tspan>随机敌方Buff</tspan></text></g><g id="node10" class="node"><path fill="#fff176" stroke="#f57f17" stroke-width="1.5" d="M 482.806 -142 C 482.806 -142 452.806 -142 452.806 -142 C 446.806 -142 440.806 -136 440.806 -130 C 440.806 -130 440.806 -118 440.806 -118 C 440.806 -112 446.806 -106 452.806 -106 C 452.806 -106 482.806 -106 482.806 -106 C 488.806 -106 494.806 -112 494.806 -118 C 494.806 -118 494.806 -130 494.806 -130 C 494.806 -136 488.806 -142 482.806 -142 Z"/><text fill="#000000" font-family="SimHei,sans-serif" font-size="8" text-anchor="middle" x="467.806" y="-126.4"><tspan>Normal</tspan></text><text fill="#000000" font-family="SimHei,sans-serif" font-size="8" text-anchor="middle" x="467.806" y="-116.8"><tspan>普通触发</tspan></text></g><g id="edge11" class="edge"><path fill="none" stroke="#000000" stroke-width="1.2" d="M 440.798 -124 C 429.72 -124 419.445 -124 419.445 -124 C 419.445 -124 419.445 -358.771 419.445 -358.771"/><polygon fill="#000000" stroke="#000000" stroke-width="1.2" points="415.945,-358.771 419.445,-368.771 422.945,-358.771 415.945,-358.771"/></g><g id="node11" class="node"><path fill="#bbdefb" stroke="#1565c0" stroke-width="1.5" d="M 1046.14 -791 C 1046.14 -791 956.633 -791 956.633 -791 C 950.633 -791 944.633 -785 944.633 -779 C 944.633 -779 944.633 -723 944.633 -723 C 944.633 -717 950.633 -711 956.633 -711 C 956.633 -711 1046.14 -711 1046.14 -711 C 1052.14 -711 1058.14 -717 1058.14 -723 C 1058.14 -723 1058.14 -779 1058.14 -779 C 1058.14 -785 1052.14 -791 1046.14 -791 Z"/><text fill="#000000" font-family="SimHei,sans-serif" font-size="10" text-anchor="middle" x="1001.39" y="-778"><tspan>CombatPreparationState</tspan></text><text fill="#000000" font-family="SimHei,sans-serif" font-size="10" text-anchor="middle" x="1001.39" y="-766"><tspan>(战斗准备状态)</tspan></text><text fill="#000000" font-family="SimHei,sans-serif" font-size="10" text-anchor="middle" x="1001.39" y="-754"><tspan>---</tspan></text><text fill="#000000" font-family="SimHei,sans-serif" font-size="10" text-anchor="middle" x="1001.39" y="-742"><tspan>记录玩家位置</tspan></text><text fill="#000000" font-family="SimHei,sans-serif" font-size="10" text-anchor="middle" x="1001.39" y="-730"><tspan>显示入场提示</tspan></text><text fill="#000000" font-family="SimHei,sans-serif" font-size="10" text-anchor="middle" x="1001.39" y="-718"><tspan>生成敌人棋子</tspan></text></g><g id="node12" class="node"><path fill="#90caf9" stroke="#0d47a1" stroke-width="1.5" d="M 1031.24 -639 C 1031.24 -639 971.531 -639 971.531 -639 C 965.531 -639 959.531 -633 959.531 -627 C 959.531 -627 959.531 -571 959.531 -571 C 959.531 -565 965.531 -559 971.531 -559 C 971.531 -559 1031.24 -559 1031.24 -559 C 1037.24 -559 1043.24 -565 1043.24 -571 C 1043.24 -571 1043.24 -627 1043.24 -627 C 1043.24 -633 1037.24 -639 1031.24 -639 Z"/><text fill="#000000" font-family="SimHei,sans-serif" font-size="10" text-anchor="middle" x="1001.39" y="-626"><tspan>CombatState</tspan></text><text fill="#000000" font-family="SimHei,sans-serif" font-size="10" text-anchor="middle" x="1001.39" y="-614"><tspan>(战斗状态)</tspan></text><text fill="#000000" font-family="SimHei,sans-serif" font-size="10" text-anchor="middle" x="1001.39" y="-602"><tspan>---</tspan></text><text fill="#000000" font-family="SimHei,sans-serif" font-size="10" text-anchor="middle" x="1001.39" y="-590"><tspan>启用战斗系统</tspan></text><text fill="#000000" font-family="SimHei,sans-serif" font-size="10" text-anchor="middle" x="1001.39" y="-578"><tspan>订阅结束事件</tspan></text><text fill="#000000" font-family="SimHei,sans-serif" font-size="10" text-anchor="middle" x="1001.39" y="-566"><tspan>启用棋子AI</tspan></text></g><g id="edge15" class="edge"><path fill="none" stroke="#000000" stroke-width="1.2" d="M 1015.44 -710.666 C 1015.44 -710.666 1015.44 -649.259 1015.44 -649.259"/><polygon fill="#000000" stroke="#000000" stroke-width="1.2" points="1018.94,-649.259 1015.44,-639.259 1011.94,-649.259 1018.94,-649.259"/></g><g id="node13" class="node"><path fill="#bbdefb" stroke="#1565c0" stroke-width="1.5" d="M 1043.03 -487 C 1043.03 -487 959.74 -487 959.74 -487 C 953.74 -487 947.74 -481 947.74 -475 C 947.74 -475 947.74 -419 947.74 -419 C 947.74 -413 953.74 -407 959.74 -407 C 959.74 -407 1043.03 -407 1043.03 -407 C 1049.03 -407 1055.03 -413 1055.03 -419 C 1055.03 -419 1055.03 -475 1055.03 -475 C 1055.03 -481 1049.03 -487 1043.03 -487 Z"/><text fill="#000000" font-family="SimHei,sans-serif" font-size="10" text-anchor="middle" x="1001.39" y="-474"><tspan>CombatManager</tspan></text><text fill="#000000" font-family="SimHei,sans-serif" font-size="10" text-anchor="middle" x="1001.39" y="-462"><tspan>(战斗管理器)</tspan></text><text fill="#000000" font-family="SimHei,sans-serif" font-size="10" text-anchor="middle" x="1001.39" y="-450"><tspan>---</tspan></text><text fill="#000000" font-family="SimHei,sans-serif" font-size="10" text-anchor="middle" x="1001.39" y="-438"><tspan>StartCombat()</tspan></text><text fill="#000000" font-family="SimHei,sans-serif" font-size="10" text-anchor="middle" x="1001.39" y="-426"><tspan>EndCombat(isVictory)</tspan></text><text fill="#000000" font-family="SimHei,sans-serif" font-size="10" text-anchor="middle" x="1001.39" y="-414"><tspan>IsInCombat</tspan></text></g><g id="edge16" class="edge"><path fill="none" stroke="#000000" stroke-width="1.2" d="M 1001.44 -558.666 C 1001.44 -558.666 1001.44 -497.259 1001.44 -497.259"/><polygon fill="#000000" stroke="#000000" stroke-width="1.2" points="1004.94,-497.259 1001.44,-487.259 997.945,-497.259 1004.94,-497.259"/></g><g id="node16" class="node"><path fill="#f8bbd0" stroke="#c2185b" stroke-width="1.5" d="M 758.993 -769 C 758.993 -769 672.192 -769 672.192 -769 C 666.192 -769 660.192 -763 660.192 -757 C 660.192 -757 660.192 -689 660.192 -689 C 660.192 -683 666.192 -677 672.192 -677 C 672.192 -677 758.993 -677 758.993 -677 C 764.993 -677 770.993 -683 770.993 -689 C 770.993 -689 770.993 -757 770.993 -757 C 770.993 -763 764.993 -769 758.993 -769 Z"/><text fill="#000000" font-family="SimHei,sans-serif" font-size="10" text-anchor="middle" x="715.592" y="-756"><tspan>CombatEscapeSystem</tspan></text><text fill="#000000" font-family="SimHei,sans-serif" font-size="10" text-anchor="middle" x="715.592" y="-744"><tspan>(脱战系统)</tspan></text><text fill="#000000" font-family="SimHei,sans-serif" font-size="10" text-anchor="middle" x="715.592" y="-732"><tspan>---</tspan></text><text fill="#000000" font-family="SimHei,sans-serif" font-size="10" text-anchor="middle" x="715.592" y="-720"><tspan>AttemptEscape()</tspan></text><text fill="#000000" font-family="SimHei,sans-serif" font-size="10" text-anchor="middle" x="715.592" y="-708"><tspan>CalculateSuccessRate()</tspan></text><text fill="#000000" font-family="SimHei,sans-serif" font-size="10" text-anchor="middle" x="715.592" y="-696"><tspan>基础率+回合奖励</tspan></text><text fill="#000000" font-family="SimHei,sans-serif" font-size="10" text-anchor="middle" x="715.592" y="-684"><tspan>冷却期减半</tspan></text></g><g id="edge19" class="edge"><path fill="none" stroke="#000000" stroke-width="1.2" d="M 987.445 -639.013 C 987.445 -664.976 987.445 -694 987.445 -694 C 987.445 -694 780.933 -694 780.933 -694"/><polygon fill="#000000" stroke="#000000" stroke-width="1.2" points="780.933,-690.5 770.933,-694 780.933,-697.5 780.933,-690.5"/><text fill="#000000" font-family="SimHei,sans-serif" font-size="9" text-anchor="middle" x="857.651" y="-603.7"><tspan>玩家选择脱战</tspan></text></g><g id="node14" class="node"><path fill="#bbdefb" stroke="#1565c0" stroke-width="1.5" d="M 1303.54 -533 C 1303.54 -533 1224.15 -533 1224.15 -533 C 1218.15 -533 1212.15 -527 1212.15 -521 C 1212.15 -521 1212.15 -477 1212.15 -477 C 1212.15 -471 1218.15 -465 1224.15 -465 C 1224.15 -465 1303.54 -465 1303.54 -465 C 1309.54 -465 1315.54 -471 1315.54 -477 C 1315.54 -477 1315.54 -521 1315.54 -521 C 1315.54 -527 1309.54 -533 1303.54 -533 Z"/><text fill="#000000" font-family="SimHei,sans-serif" font-size="10" text-anchor="middle" x="1263.85" y="-520"><tspan>CombatEntityTracker</tspan></text><text fill="#000000" font-family="SimHei,sans-serif" font-size="10" text-anchor="middle" x="1263.85" y="-508"><tspan>(实体追踪器)</tspan></text><text fill="#000000" font-family="SimHei,sans-serif" font-size="10" text-anchor="middle" x="1263.85" y="-496"><tspan>---</tspan></text><text fill="#000000" font-family="SimHei,sans-serif" font-size="10" text-anchor="middle" x="1263.85" y="-484"><tspan>按阵营分组棋子</tspan></text><text fill="#000000" font-family="SimHei,sans-serif" font-size="10" text-anchor="middle" x="1263.85" y="-472"><tspan>构建敌人缓存</tspan></text></g><g id="edge17" class="edge"><path fill="none" stroke="#000000" stroke-width="1.2" d="M 1055.13 -476 C 1055.13 -476 1201.96 -476 1201.96 -476"/><polygon fill="#000000" stroke="#000000" stroke-width="1.2" points="1201.96,-479.5 1211.96,-476 1201.96,-472.5 1201.96,-479.5"/><text fill="#000000" font-family="SimHei,sans-serif" font-size="9" text-anchor="middle" x="1135.26" y="-488.7"><tspan>BuildEnemyCache</tspan></text></g><g id="node15" class="node"><path fill="#bbdefb" stroke="#1565c0" stroke-width="1.5" d="M 1301.65 -429 C 1301.65 -429 1226.04 -429 1226.04 -429 C 1220.04 -429 1214.04 -423 1214.04 -417 C 1214.04 -417 1214.04 -373 1214.04 -373 C 1214.04 -367 1220.04 -361 1226.04 -361 C 1226.04 -361 1301.65 -361 1301.65 -361 C 1307.65 -361 1313.65 -367 1313.65 -373 C 1313.65 -373 1313.65 -417 1313.65 -417 C 1313.65 -423 1307.65 -429 1301.65 -429 Z"/><text fill="#000000" font-family="SimHei,sans-serif" font-size="10" text-anchor="middle" x="1263.85" y="-416"><tspan>BattleChessManager</tspan></text><text fill="#000000" font-family="SimHei,sans-serif" font-size="10" text-anchor="middle" x="1263.85" y="-404"><tspan>(棋子管理器)</tspan></text><text fill="#000000" font-family="SimHei,sans-serif" font-size="10" text-anchor="middle" x="1263.85" y="-392"><tspan>---</tspan></text><text fill="#000000" font-family="SimHei,sans-serif" font-size="10" text-anchor="middle" x="1263.85" y="-380"><tspan>OnBattleEnd()</tspan></text><text fill="#000000" font-family="SimHei,sans-serif" font-size="10" text-anchor="middle" x="1263.85" y="-368"><tspan>回写血量到全局</tspan></text></g><g id="edge18" class="edge"><path fill="none" stroke="#000000" stroke-width="1.2" d="M 1055.13 -418 C 1055.13 -418 1204.17 -418 1204.17 -418"/><polygon fill="#000000" stroke="#000000" stroke-width="1.2" points="1204.17,-421.5 1214.17,-418 1204.17,-414.5 1204.17,-421.5"/><text fill="#000000" font-family="SimHei,sans-serif" font-size="9" text-anchor="middle" x="1135.26" y="-423.7"><tspan>管理棋子</tspan></text></g><g id="node19" class="node"><path fill="#f8bbd0" stroke="#c2185b" stroke-width="1.5" d="M 756.632 -963 C 756.632 -963 674.552 -963 674.552 -963 C 668.552 -963 662.552 -957 662.552 -951 C 662.552 -951 662.552 -919 662.552 -919 C 662.552 -913 668.552 -907 674.552 -907 C 674.552 -907 756.632 -907 756.632 -907 C 762.632 -907 768.632 -913 768.632 -919 C 768.632 -919 768.632 -951 768.632 -951 C 768.632 -957 762.632 -963 756.632 -963 Z"/><text fill="#000000" font-family="SimHei,sans-serif" font-size="10" text-anchor="middle" x="715.592" y="-950"><tspan>CombatEndEventArgs</tspan></text><text fill="#000000" font-family="SimHei,sans-serif" font-size="10" text-anchor="middle" x="715.592" y="-938"><tspan>(战斗结束事件)</tspan></text><text fill="#000000" font-family="SimHei,sans-serif" font-size="10" text-anchor="middle" x="715.592" y="-926"><tspan>---</tspan></text><text fill="#000000" font-family="SimHei,sans-serif" font-size="10" text-anchor="middle" x="715.592" y="-914"><tspan>IsVictory</tspan></text></g><g id="edge23" class="edge"><path fill="none" stroke="#000000" stroke-width="1.2" d="M 947.419 -475 C 917.968 -475 887.445 -475 887.445 -475 C 887.445 -475 887.445 -921 887.445 -921 C 887.445 -921 779.025 -921 779.025 -921"/><polygon fill="#000000" stroke="#000000" stroke-width="1.2" points="779.025,-917.5 769.025,-921 779.025,-924.5 779.025,-917.5"/><text fill="#000000" font-family="SimHei,sans-serif" font-size="9" text-anchor="middle" x="857.651" y="-860.7"><tspan>EndCombat()</tspan></text></g><g id="node17" class="node"><path fill="#e1bee7" stroke="#6a1b9a" stroke-width="1.5" d="M 1022.72 -963 C 1022.72 -963 980.057 -963 980.057 -963 C 974.057 -963 968.057 -957 968.057 -951 C 968.057 -951 968.057 -919 968.057 -919 C 968.057 -913 974.057 -907 980.057 -907 C 980.057 -907 1022.72 -907 1022.72 -907 C 1028.72 -907 1034.72 -913 1034.72 -919 C 1034.72 -919 1034.72 -951 1034.72 -951 C 1034.72 -957 1028.72 -963 1022.72 -963 Z"/><text fill="#000000" font-family="SimHei,sans-serif" font-size="10" text-anchor="middle" x="1001.39" y="-950"><tspan>脱战成功</tspan></text><text fill="#000000" font-family="SimHei,sans-serif" font-size="10" text-anchor="middle" x="1001.39" y="-938"><tspan>---</tspan></text><text fill="#000000" font-family="SimHei,sans-serif" font-size="10" text-anchor="middle" x="1001.39" y="-926"><tspan>增加污染值</tspan></text><text fill="#000000" font-family="SimHei,sans-serif" font-size="10" text-anchor="middle" x="1001.39" y="-914"><tspan>清除上下文</tspan></text></g><g id="edge20" class="edge"><path fill="none" stroke="#000000" stroke-width="1.2" d="M 770.851 -740 C 799.859 -740 829.445 -740 829.445 -740 C 829.445 -740 829.445 -935 829.445 -935 C 829.445 -935 957.826 -935 957.826 -935"/><polygon fill="#000000" stroke="#000000" stroke-width="1.2" points="957.826,-938.5 967.826,-935 957.826,-931.5 957.826,-938.5"/><text fill="#000000" font-family="SimHei,sans-serif" font-size="9" text-anchor="middle" x="857.651" y="-767.7"><tspan>成功</tspan></text></g><g id="node18" class="node"><path fill="#ffcdd2" stroke="#b71c1c" stroke-width="1.5" d="M 1029.11 -871 C 1029.11 -871 973.66 -871 973.66 -871 C 967.66 -871 961.66 -865 961.66 -859 C 961.66 -859 961.66 -839 961.66 -839 C 961.66 -833 967.66 -827 973.66 -827 C 973.66 -827 1029.11 -827 1029.11 -827 C 1035.11 -827 1041.11 -833 1041.11 -839 C 1041.11 -839 1041.11 -859 1041.11 -859 C 1041.11 -865 1035.11 -871 1029.11 -871 Z"/><text fill="#000000" font-family="SimHei,sans-serif" font-size="10" text-anchor="middle" x="1001.39" y="-858"><tspan>脱战失败</tspan></text><text fill="#000000" font-family="SimHei,sans-serif" font-size="10" text-anchor="middle" x="1001.39" y="-846"><tspan>---</tspan></text><text fill="#000000" font-family="SimHei,sans-serif" font-size="10" text-anchor="middle" x="1001.39" y="-834"><tspan>设置冷却回合</tspan></text></g><g id="edge21" class="edge"><path fill="none" stroke="#000000" stroke-width="1.2" d="M 716.445 -769.202 C 716.445 -805.163 716.445 -849 716.445 -849 C 716.445 -849 951.766 -849 951.766 -849"/><polygon fill="#000000" stroke="#000000" stroke-width="1.2" points="951.766,-852.5 961.766,-849 951.766,-845.5 951.766,-852.5"/><text fill="#000000" font-family="SimHei,sans-serif" font-size="9" text-anchor="middle" x="857.651" y="-715.7"><tspan>失败</tspan></text></g><g id="edge24" class="edge"><path fill="none" stroke="#000000" stroke-width="1.2" d="M 968.043 -949 C 968.043 -949 778.869 -949 778.869 -949"/><polygon fill="#000000" stroke="#000000" stroke-width="1.2" points="778.87,-945.5 768.869,-949 778.869,-952.5 778.87,-945.5"/><text fill="#000000" font-family="SimHei,sans-serif" font-size="9" text-anchor="middle" x="857.651" y="-937.7"><tspan>触发结束</tspan></text></g><g id="edge22" class="edge"><path fill="none" stroke="#000000" stroke-width="1.2" d="M 1041.25 -849 C 1080.76 -849 1135.44 -849 1135.44 -849 C 1135.44 -849 1135.44 -599 1135.44 -599 C 1135.44 -599 1053.44 -599 1053.44 -599"/><polygon fill="#000000" stroke="#000000" stroke-width="1.2" points="1053.44,-595.5 1043.44,-599 1053.44,-602.5 1053.44,-595.5"/><text fill="#000000" font-family="SimHei,sans-serif" font-size="9" text-anchor="middle" x="857.651" y="-783.3"><tspan>继续战斗</tspan></text></g><g id="edge25" class="edge"><path fill="none" stroke="#000000" stroke-width="1.2" d="M 662.294 -935 C 629.012 -935 592.445 -935 592.445 -935 C 592.445 -935 592.445 -629.667 592.445 -629.667 C 592.445 -629.667 653.367 -629.667 653.367 -629.667"/><polygon fill="#000000" stroke="#000000" stroke-width="1.2" points="653.367,-633.167 663.367,-629.667 653.367,-626.167 653.367,-633.167"/><text fill="#000000" font-family="SimHei,sans-serif" font-size="9" text-anchor="middle" x="592.396" y="-790.3"><tspan>通知胜负</tspan></text></g><g id="node21" class="node"><path fill="#c8e6c9" stroke="#2e7d32" stroke-width="1.5" d="M 1032 -1067 C 1032 -1067 970.771 -1067 970.771 -1067 C 964.771 -1067 958.771 -1061 958.771 -1055 C 958.771 -1055 958.771 -1011 958.771 -1011 C 958.771 -1005 964.771 -999 970.771 -999 C 970.771 -999 1032 -999 1032 -999 C 1038 -999 1044 -1005 1044 -1011 C 1044 -1011 1044 -1055 1044 -1055 C 1044 -1061 1038 -1067 1032 -1067 Z"/><text fill="#000000" font-family="SimHei,sans-serif" font-size="10" text-anchor="middle" x="1001.39" y="-1054"><tspan>返回探索状态</tspan></text><text fill="#000000" font-family="SimHei,sans-serif" font-size="10" text-anchor="middle" x="1001.39" y="-1042"><tspan>---</tspan></text><text fill="#000000" font-family="SimHei,sans-serif" font-size="10" text-anchor="middle" x="1001.39" y="-1030"><tspan>恢复玩家位置</tspan></text><text fill="#000000" font-family="SimHei,sans-serif" font-size="10" text-anchor="middle" x="1001.39" y="-1018"><tspan>恢复相机视角</tspan></text><text fill="#000000" font-family="SimHei,sans-serif" font-size="10" text-anchor="middle" x="1001.39" y="-1006"><tspan>销毁战斗场地</tspan></text></g><g id="edge26" class="edge"><path fill="none" stroke="#000000" stroke-width="1.2" d="M 716.445 -963.378 C 716.445 -988.654 716.445 -1021.67 716.445 -1021.67 C 716.445 -1021.67 948.728 -1021.67 948.728 -1021.67"/><polygon fill="#000000" stroke="#000000" stroke-width="1.2" points="948.728,-1025.17 958.728,-1021.67 948.728,-1018.17 948.728,-1025.17"/><text fill="#000000" font-family="SimHei,sans-serif" font-size="9" text-anchor="middle" x="857.651" y="-1034.7"><tspan>CombatState.OnLeave()</tspan></text></g><g id="edge7" class="edge"><path fill="none" stroke="#000000" stroke-width="1.2" d="M 663.346 -583.667 C 663.346 -583.667 534.732 -583.667 534.732 -583.667"/><polygon fill="#000000" stroke="#000000" stroke-width="1.2" points="534.732,-580.167 524.732,-583.667 534.732,-587.167 534.732,-580.167"/><text fill="#000000" font-family="SimHei,sans-serif" font-size="9" text-anchor="middle" x="592.396" y="-557.7"><tspan>敌方先手触发</tspan></text></g><g id="edge14" class="edge"><path fill="none" stroke="#000000" stroke-width="1.2" d="M 768.009 -606 C 838.32 -606 954.445 -606 954.445 -606 C 954.445 -606 954.445 -700.994 954.445 -700.994"/><polygon fill="#000000" stroke="#000000" stroke-width="1.2" points="950.945,-700.994 954.445,-710.994 957.945,-700.994 950.945,-700.994"/><text fill="#000000" font-family="SimHei,sans-serif" font-size="9" text-anchor="middle" x="857.651" y="-660.7"><tspan>切换状态</tspan></text></g><g id="edge27" class="edge"><path fill="none" stroke="#000000" stroke-width="1.2" d="M 958.624 -1044.33 C 792.007 -1044.33 195.445 -1044.33 195.445 -1044.33 C 195.445 -1044.33 195.445 -761.084 195.445 -761.084"/><polygon fill="#000000" stroke="#000000" stroke-width="1.2" points="198.945,-761.084 195.445,-751.084 191.945,-761.084 198.945,-761.084"/><text fill="#000000" font-family="SimHei,sans-serif" font-size="9" text-anchor="middle" x="592.396" y="-729.7"><tspan>状态切换</tspan></text></g></g></svg>
