<?xml version="1.0" encoding="UTF-8" standalone="yes"?><svg xmlns="http://www.w3.org/2000/svg" xmlns:xlink="http://www.w3.org/1999/xlink" version="1.2" baseProfile="tiny" x="0" y="0" width="1271" height="783" viewBox="0 0 1270.63 782.8"><defs/><g id="graph0" class="graph" transform="matrix(1,0,0,1,4,778.8)"><polygon fill="#ffffff" stroke="rgba(0,0,0,0)" points="-4,4 -4,-778.8 1266.63,-778.8 1266.63,4 -4,4"/><g id="clust6" class="cluster"><path fill="#fffde7" stroke="#f57f17" d="M 119.561 -292 C 119.561 -292 208.935 -292 208.935 -292 C 214.935 -292 220.935 -298 220.935 -304 C 220.935 -304 220.935 -514 220.935 -514 C 220.935 -520 214.935 -526 208.935 -526 C 208.935 -526 119.561 -526 119.561 -526 C 113.561 -526 107.561 -520 107.561 -514 C 107.561 -514 107.561 -304 107.561 -304 C 107.561 -298 113.561 -292 119.561 -292 Z"/><text fill="#000000" font-family="SimHei,sans-serif" font-size="12" text-anchor="middle" x="164.248" y="-511.2"><tspan>配置表</tspan></text></g><g id="node1" class="node"><path fill="#c8e6c9" stroke="#2e7d32" stroke-width="1.5" d="M 197.115 -714 C 197.115 -714 131.381 -714 131.381 -714 C 125.381 -714 119.381 -708 119.381 -702 C 119.381 -702 119.381 -690 119.381 -690 C 119.381 -684 125.381 -678 131.381 -678 C 131.381 -678 197.115 -678 197.115 -678 C 203.115 -678 209.115 -684 209.115 -690 C 209.115 -690 209.115 -702 209.115 -702 C 209.115 -708 203.115 -714 197.115 -714 Z"/><text fill="#000000" font-family="SimHei,sans-serif" font-size="10" text-anchor="middle" x="164.248" y="-699"><tspan>探索场景</tspan></text><text fill="#000000" font-family="SimHei,sans-serif" font-size="10" text-anchor="middle" x="164.248" y="-687"><tspan>(ExplorationState)</tspan></text></g><g id="node2" class="node"><path fill="#a5d6a7" stroke="#1b5e20" stroke-width="1.5" d="M 195.813 -264 C 195.813 -264 132.683 -264 132.683 -264 C 126.683 -264 120.683 -258 120.683 -252 C 120.683 -252 120.683 -208 120.683 -208 C 120.683 -202 126.683 -196 132.683 -196 C 132.683 -196 195.813 -196 195.813 -196 C 201.813 -196 207.813 -202 207.813 -208 C 207.813 -208 207.813 -252 207.813 -252 C 207.813 -258 201.813 -264 195.813 -264 Z"/><text fill="#000000" font-family="SimHei,sans-serif" font-size="10" text-anchor="middle" x="164.248" y="-251"><tspan>玩家角色</tspan></text><text fill="#000000" font-family="SimHei,sans-serif" font-size="10" text-anchor="middle" x="164.248" y="-239"><tspan>(PlayerCharacter)</tspan></text><text fill="#000000" font-family="SimHei,sans-serif" font-size="10" text-anchor="middle" x="164.248" y="-227"><tspan>---</tspan></text><text fill="#000000" font-family="SimHei,sans-serif" font-size="10" text-anchor="middle" x="164.248" y="-215"><tspan>RecordPosition()</tspan></text><text fill="#000000" font-family="SimHei,sans-serif" font-size="10" text-anchor="middle" x="164.248" y="-203"><tspan>RestorePosition()</tspan></text></g><g id="edge1" class="edge"><path fill="none" stroke="#000000" stroke-width="1.2" d="M 119.073 -696 C 107.192 -696 97.6276 -696 97.6276 -696 C 97.6276 -696 97.6276 -230 97.6276 -230 C 97.6276 -230 110.555 -230 110.555 -230"/><polygon fill="#000000" stroke="#000000" stroke-width="1.2" points="110.555,-233.5 120.555,-230 110.555,-226.5 110.555,-233.5"/><text fill="#000000" font-family="SimHei,sans-serif" font-size="9" text-anchor="middle" x="64.6865" y="-466.3"><tspan>包含</tspan></text></g><g id="node3" class="node"><path fill="#a5d6a7" stroke="#1b5e20" stroke-width="1.5" d="M 193.337 -606 C 193.337 -606 135.159 -606 135.159 -606 C 129.159 -606 123.159 -600 123.159 -594 C 123.159 -594 123.159 -550 123.159 -550 C 123.159 -544 129.159 -538 135.159 -538 C 135.159 -538 193.337 -538 193.337 -538 C 199.337 -538 205.337 -544 205.337 -550 C 205.337 -550 205.337 -594 205.337 -594 C 205.337 -600 199.337 -606 193.337 -606 Z"/><text fill="#000000" font-family="SimHei,sans-serif" font-size="10" text-anchor="middle" x="164.248" y="-593"><tspan>敌人实体组</tspan></text><text fill="#000000" font-family="SimHei,sans-serif" font-size="10" text-anchor="middle" x="164.248" y="-581"><tspan>(EnemyEntity[])</tspan></text><text fill="#000000" font-family="SimHei,sans-serif" font-size="10" text-anchor="middle" x="164.248" y="-569"><tspan>---</tspan></text><text fill="#000000" font-family="SimHei,sans-serif" font-size="10" text-anchor="middle" x="164.248" y="-557"><tspan>AlertLevel</tspan></text><text fill="#000000" font-family="SimHei,sans-serif" font-size="10" text-anchor="middle" x="164.248" y="-545"><tspan>EntityGuid</tspan></text></g><g id="edge2" class="edge"><path fill="none" stroke="#000000" stroke-width="1.2" d="M 164.628 -677.969 C 164.628 -677.969 164.628 -616.22 164.628 -616.22"/><polygon fill="#000000" stroke="#000000" stroke-width="1.2" points="168.128,-616.22 164.628,-606.22 161.128,-616.22 168.128,-616.22"/></g><g id="node14" class="node"><path fill="#b2ebf2" stroke="#00838f" stroke-width="1.5" d="M 704.212 -80 C 704.212 -80 597.264 -80 597.264 -80 C 591.264 -80 585.264 -74 585.264 -68 C 585.264 -68 585.264 -12 585.264 -12 C 585.264 -6 591.264 0 597.264 0 C 597.264 0 704.212 0 704.212 0 C 710.212 0 716.212 -6 716.212 -12 C 716.212 -12 716.212 -68 716.212 -68 C 716.212 -74 710.212 -80 704.212 -80 Z"/><text fill="#000000" font-family="SimHei,sans-serif" font-size="10" text-anchor="middle" x="650.739" y="-67"><tspan>CombatOpportunityDetector</tspan></text><text fill="#000000" font-family="SimHei,sans-serif" font-size="10" text-anchor="middle" x="650.739" y="-55"><tspan>(战斗机会检测器)</tspan></text><text fill="#000000" font-family="SimHei,sans-serif" font-size="10" text-anchor="middle" x="650.739" y="-43"><tspan>---</tspan></text><text fill="#000000" font-family="SimHei,sans-serif" font-size="10" text-anchor="middle" x="650.739" y="-31"><tspan>CheckSneakAttack()</tspan></text><text fill="#000000" font-family="SimHei,sans-serif" font-size="10" text-anchor="middle" x="650.739" y="-19"><tspan>CheckEncounter()</tspan></text><text fill="#000000" font-family="SimHei,sans-serif" font-size="10" text-anchor="middle" x="650.739" y="-7"><tspan>TriggerCombat()</tspan></text></g><g id="edge13" class="edge"><path fill="none" stroke="#000000" stroke-width="1.2" d="M 207.782 -242.5 C 316.943 -242.5 593.628 -242.5 593.628 -242.5 C 593.628 -242.5 593.628 -90.0075 593.628 -90.0075"/><polygon fill="#000000" stroke="#000000" stroke-width="1.2" points="597.128,-90.0074 593.628,-80.0075 590.128,-90.0075 597.128,-90.0074"/><text fill="#000000" font-family="SimHei,sans-serif" font-size="9" text-anchor="middle" x="397.09" y="-56.7"><tspan>挂载检测器</tspan></text></g><g id="node4" class="node"><path fill="#bbdefb" stroke="#1565c0" stroke-width="1.5" d="M 1001.21 -612 C 1001.21 -612 888.073 -612 888.073 -612 C 882.073 -612 876.073 -606 876.073 -600 C 876.073 -600 876.073 -544 876.073 -544 C 876.073 -538 882.073 -532 888.073 -532 C 888.073 -532 1001.21 -532 1001.21 -532 C 1007.21 -532 1013.21 -538 1013.21 -544 C 1013.21 -544 1013.21 -600 1013.21 -600 C 1013.21 -606 1007.21 -612 1001.21 -612 Z"/><text fill="#000000" font-family="SimHei,sans-serif" font-size="10" text-anchor="middle" x="944.643" y="-599"><tspan>EnemyEntityManager</tspan></text><text fill="#000000" font-family="SimHei,sans-serif" font-size="10" text-anchor="middle" x="944.643" y="-587"><tspan>(敌人实体管理器)</tspan></text><text fill="#000000" font-family="SimHei,sans-serif" font-size="10" text-anchor="middle" x="944.643" y="-575"><tspan>---</tspan></text><text fill="#000000" font-family="SimHei,sans-serif" font-size="10" text-anchor="middle" x="944.643" y="-563"><tspan>TriggerCombat()</tspan></text><text fill="#000000" font-family="SimHei,sans-serif" font-size="10" text-anchor="middle" x="944.643" y="-551"><tspan>OnCombatEnd()</tspan></text><text fill="#000000" font-family="SimHei,sans-serif" font-size="10" text-anchor="middle" x="944.643" y="-539"><tspan>NotifyPlayerEnteredCombat()</tspan></text></g><g id="edge3" class="edge"><path fill="none" stroke="#000000" stroke-width="1.2" d="M 205.38 -544 C 205.38 -544 865.913 -544 865.913 -544"/><polygon fill="#000000" stroke="#000000" stroke-width="1.2" points="865.913,-547.5 875.913,-544 865.913,-540.5 865.913,-547.5"/><text fill="#000000" font-family="SimHei,sans-serif" font-size="9" text-anchor="middle" x="511.001" y="-675.7"><tspan>注册实体</tspan></text></g><g id="node8" class="node"><path fill="#e1bee7" stroke="#6a1b9a" stroke-width="1.5" d="M 424.911 -618 C 424.911 -618 369.268 -618 369.268 -618 C 363.268 -618 357.268 -612 357.268 -606 C 357.268 -606 357.268 -562 357.268 -562 C 357.268 -556 363.268 -550 369.268 -550 C 369.268 -550 424.911 -550 424.911 -550 C 430.911 -550 436.911 -556 436.911 -562 C 436.911 -562 436.911 -606 436.911 -606 C 436.911 -612 430.911 -618 424.911 -618 Z"/><text fill="#000000" font-family="SimHei,sans-serif" font-size="10" text-anchor="middle" x="397.09" y="-605"><tspan>EnemyEntityAI</tspan></text><text fill="#000000" font-family="SimHei,sans-serif" font-size="10" text-anchor="middle" x="397.09" y="-593"><tspan>(敌人AI核心)</tspan></text><text fill="#000000" font-family="SimHei,sans-serif" font-size="10" text-anchor="middle" x="397.09" y="-581"><tspan>---</tspan></text><text fill="#000000" font-family="SimHei,sans-serif" font-size="10" text-anchor="middle" x="397.09" y="-569"><tspan>CurrentState</tspan></text><text fill="#000000" font-family="SimHei,sans-serif" font-size="10" text-anchor="middle" x="397.09" y="-557"><tspan>Update()</tspan></text></g><g id="edge5" class="edge"><path fill="none" stroke="#000000" stroke-width="1.2" d="M 205.339 -578 C 205.339 -578 347.187 -578 347.187 -578"/><polygon fill="#000000" stroke="#000000" stroke-width="1.2" points="347.187,-581.5 357.187,-578 347.187,-574.5 347.187,-581.5"/><text fill="#000000" font-family="SimHei,sans-serif" font-size="9" text-anchor="middle" x="285.182" y="-578.7"><tspan>驱动AI</tspan></text></g><g id="node5" class="node"><path fill="#bbdefb" stroke="#1565c0" stroke-width="1.5" d="M 985.554 -460 C 985.554 -460 903.732 -460 903.732 -460 C 897.732 -460 891.732 -454 891.732 -448 C 891.732 -448 891.732 -404 891.732 -404 C 891.732 -398 897.732 -392 903.732 -392 C 903.732 -392 985.554 -392 985.554 -392 C 991.554 -392 997.554 -398 997.554 -404 C 997.554 -404 997.554 -448 997.554 -448 C 997.554 -454 991.554 -460 985.554 -460 Z"/><text fill="#000000" font-family="SimHei,sans-serif" font-size="10" text-anchor="middle" x="944.643" y="-447"><tspan>EnemyGroupManager</tspan></text><text fill="#000000" font-family="SimHei,sans-serif" font-size="10" text-anchor="middle" x="944.643" y="-435"><tspan>(敌人组管理器)</tspan></text><text fill="#000000" font-family="SimHei,sans-serif" font-size="10" text-anchor="middle" x="944.643" y="-423"><tspan>---</tspan></text><text fill="#000000" font-family="SimHei,sans-serif" font-size="10" text-anchor="middle" x="944.643" y="-411"><tspan>SpawnGroup()</tspan></text><text fill="#000000" font-family="SimHei,sans-serif" font-size="10" text-anchor="middle" x="944.643" y="-399"><tspan>DespawnGroup()</tspan></text></g><g id="edge4" class="edge"><path fill="none" stroke="#000000" stroke-width="1.2" d="M 945.628 -531.718 C 945.628 -531.718 945.628 -470.215 945.628 -470.215"/><polygon fill="#000000" stroke="#000000" stroke-width="1.2" points="949.128,-470.215 945.628,-460.215 942.128,-470.215 949.128,-470.215"/></g><g id="node7" class="node"><path fill="#90caf9" stroke="#0d47a1" stroke-width="1.5" d="M 989.33 -169 C 989.33 -169 899.957 -169 899.957 -169 C 893.957 -169 887.957 -163 887.957 -157 C 887.957 -157 887.957 -113 887.957 -113 C 887.957 -107 893.957 -101 899.957 -101 C 899.957 -101 989.33 -101 989.33 -101 C 995.33 -101 1001.33 -107 1001.33 -113 C 1001.33 -113 1001.33 -157 1001.33 -157 C 1001.33 -163 995.33 -169 989.33 -169 Z"/><text fill="#000000" font-family="SimHei,sans-serif" font-size="10" text-anchor="middle" x="944.643" y="-156"><tspan>CombatTriggerManager</tspan></text><text fill="#000000" font-family="SimHei,sans-serif" font-size="10" text-anchor="middle" x="944.643" y="-144"><tspan>(战斗触发管理器)</tspan></text><text fill="#000000" font-family="SimHei,sans-serif" font-size="10" text-anchor="middle" x="944.643" y="-132"><tspan>---</tspan></text><text fill="#000000" font-family="SimHei,sans-serif" font-size="10" text-anchor="middle" x="944.643" y="-120"><tspan>TriggerCombat()</tspan></text><text fill="#000000" font-family="SimHei,sans-serif" font-size="10" text-anchor="middle" x="944.643" y="-108"><tspan>ClearContext()</tspan></text></g><g id="edge18" class="edge"><path fill="none" stroke="#000000" stroke-width="1.2" d="M 1005.63 -531.641 C 1005.63 -424.847 1005.63 -143 1005.63 -143 C 1005.63 -143 1005.19 -143 1005.19 -143"/><polygon fill="#000000" stroke="#000000" stroke-width="1.2" points="1011.24,-139.5 1001.24,-143 1011.24,-146.5 1011.24,-139.5"/><text fill="#000000" font-family="SimHei,sans-serif" font-size="9" text-anchor="middle" x="796.167" y="-430.3"><tspan>敌方先手触发</tspan></text></g><g id="node6" class="node"><path fill="#90caf9" stroke="#0d47a1" stroke-width="1.5" d="M 978.8 -273 C 978.8 -273 910.487 -273 910.487 -273 C 904.487 -273 898.487 -267 898.487 -261 C 898.487 -261 898.487 -217 898.487 -217 C 898.487 -211 904.487 -205 910.487 -205 C 910.487 -205 978.8 -205 978.8 -205 C 984.8 -205 990.8 -211 990.8 -217 C 990.8 -217 990.8 -261 990.8 -261 C 990.8 -267 984.8 -273 978.8 -273 Z"/><text fill="#000000" font-family="SimHei,sans-serif" font-size="10" text-anchor="middle" x="944.643" y="-260"><tspan>PurificationSystem</tspan></text><text fill="#000000" font-family="SimHei,sans-serif" font-size="10" text-anchor="middle" x="944.643" y="-248"><tspan>(净化系统)</tspan></text><text fill="#000000" font-family="SimHei,sans-serif" font-size="10" text-anchor="middle" x="944.643" y="-236"><tspan>---</tspan></text><text fill="#000000" font-family="SimHei,sans-serif" font-size="10" text-anchor="middle" x="944.643" y="-224"><tspan>StartPurification()</tspan></text><text fill="#000000" font-family="SimHei,sans-serif" font-size="10" text-anchor="middle" x="944.643" y="-212"><tspan>GetRewards()</tspan></text></g><g id="node20" class="node"><path fill="#ffccbc" stroke="#d84315" stroke-width="1.5" d="M 1232.47 -247 C 1232.47 -247 1181.83 -247 1181.83 -247 C 1175.83 -247 1169.83 -241 1169.83 -235 C 1169.83 -235 1169.83 -191 1169.83 -191 C 1169.83 -185 1175.83 -179 1181.83 -179 C 1181.83 -179 1232.47 -179 1232.47 -179 C 1238.47 -179 1244.47 -185 1244.47 -191 C 1244.47 -191 1244.47 -235 1244.47 -235 C 1244.47 -241 1238.47 -247 1232.47 -247 Z"/><text fill="#000000" font-family="SimHei,sans-serif" font-size="10" text-anchor="middle" x="1207.15" y="-234"><tspan>战斗系统</tspan></text><text fill="#000000" font-family="SimHei,sans-serif" font-size="10" text-anchor="middle" x="1207.15" y="-222"><tspan>(CombatState)</tspan></text><text fill="#000000" font-family="SimHei,sans-serif" font-size="10" text-anchor="middle" x="1207.15" y="-210"><tspan>---</tspan></text><text fill="#000000" font-family="SimHei,sans-serif" font-size="10" text-anchor="middle" x="1207.15" y="-198"><tspan>OnEnter()</tspan></text><text fill="#000000" font-family="SimHei,sans-serif" font-size="10" text-anchor="middle" x="1207.15" y="-186"><tspan>OnLeave()</tspan></text></g><g id="edge20" class="edge"><path fill="none" stroke="#000000" stroke-width="1.2" stroke-dasharray="5,2" d="M 990.97 -215.5 C 990.97 -215.5 1159.77 -215.5 1159.77 -215.5"/><polygon fill="#000000" stroke="#000000" stroke-width="1.2" points="1159.77,-219 1169.77,-215.5 1159.77,-212 1159.77,-219"/><text fill="#000000" font-family="SimHei,sans-serif" font-size="9" text-anchor="middle" x="1082.43" y="-241.7"><tspan>净化处理</tspan></text></g><g id="node19" class="node"><path fill="#f8bbd0" stroke="#c2185b" stroke-width="1.5" d="M 1247.46 -117 C 1247.46 -117 1166.84 -117 1166.84 -117 C 1160.84 -117 1154.84 -111 1154.84 -105 C 1154.84 -105 1154.84 -61 1154.84 -61 C 1154.84 -55 1160.84 -49 1166.84 -49 C 1166.84 -49 1247.46 -49 1247.46 -49 C 1253.46 -49 1259.46 -55 1259.46 -61 C 1259.46 -61 1259.46 -105 1259.46 -105 C 1259.46 -111 1253.46 -117 1247.46 -117 Z"/><text fill="#000000" font-family="SimHei,sans-serif" font-size="10" text-anchor="middle" x="1207.15" y="-104"><tspan>CombatPreparationUI</tspan></text><text fill="#000000" font-family="SimHei,sans-serif" font-size="10" text-anchor="middle" x="1207.15" y="-92"><tspan>(战斗准备UI)</tspan></text><text fill="#000000" font-family="SimHei,sans-serif" font-size="10" text-anchor="middle" x="1207.15" y="-80"><tspan>---</tspan></text><text fill="#000000" font-family="SimHei,sans-serif" font-size="10" text-anchor="middle" x="1207.15" y="-68"><tspan>ShowEnterTip()</tspan></text><text fill="#000000" font-family="SimHei,sans-serif" font-size="10" text-anchor="middle" x="1207.15" y="-56"><tspan>OnConfirm()</tspan></text></g><g id="edge24" class="edge"><path fill="none" stroke="#000000" stroke-width="1.2" d="M 1001.28 -109 C 1001.28 -109 1144.63 -109 1144.63 -109"/><polygon fill="#000000" stroke="#000000" stroke-width="1.2" points="1144.63,-112.5 1154.63,-109 1144.63,-105.5 1144.63,-112.5"/><text fill="#000000" font-family="SimHei,sans-serif" font-size="9" text-anchor="middle" x="1082.43" y="-85.7"><tspan>显示准备界面</tspan></text></g><g id="edge19" class="edge"><path fill="none" stroke="#000000" stroke-width="1.2" d="M 945.628 -169.109 C 945.628 -177.683 945.628 -184.5 945.628 -184.5 C 945.628 -184.5 1159.96 -184.5 1159.96 -184.5"/><polygon fill="#000000" stroke="#000000" stroke-width="1.2" points="1159.96,-188 1169.96,-184.5 1159.96,-181 1159.96,-188"/><text fill="#000000" font-family="SimHei,sans-serif" font-size="9" text-anchor="middle" x="1082.43" y="-189.7"><tspan>切换战斗状态</tspan></text></g><g id="node9" class="node"><path fill="#d1c4e9" stroke="#512da8" stroke-width="1.5" d="M 412.09 -226 C 412.09 -226 382.09 -226 382.09 -226 C 376.09 -226 370.09 -220 370.09 -214 C 370.09 -214 370.09 -202 370.09 -202 C 370.09 -196 376.09 -190 382.09 -190 C 382.09 -190 412.09 -190 412.09 -190 C 418.09 -190 424.09 -196 424.09 -202 C 424.09 -202 424.09 -214 424.09 -214 C 424.09 -220 418.09 -226 412.09 -226 Z"/><text fill="#000000" font-family="SimHei,sans-serif" font-size="9" text-anchor="middle" x="397.09" y="-210.7"><tspan>IdleState</tspan></text><text fill="#000000" font-family="SimHei,sans-serif" font-size="9" text-anchor="middle" x="397.09" y="-199.9"><tspan>休息</tspan></text></g><g id="edge6" class="edge"><path fill="none" stroke="#000000" stroke-width="1.2" d="M 431.628 -549.993 C 431.628 -458.768 431.628 -215.5 431.628 -215.5 C 431.628 -215.5 430.895 -215.5 430.895 -215.5"/><polygon fill="#000000" stroke="#000000" stroke-width="1.2" points="434.303,-212 424.303,-215.5 434.303,-219 434.303,-212"/><text fill="#000000" font-family="SimHei,sans-serif" font-size="9" text-anchor="middle" x="285.182" y="-506.3"><tspan>切换状态</tspan></text></g><g id="node10" class="node"><path fill="#d1c4e9" stroke="#512da8" stroke-width="1.5" d="M 413.084 -298 C 413.084 -298 381.095 -298 381.095 -298 C 375.095 -298 369.095 -292 369.095 -286 C 369.095 -286 369.095 -274 369.095 -274 C 369.095 -268 375.095 -262 381.095 -262 C 381.095 -262 413.084 -262 413.084 -262 C 419.084 -262 425.084 -268 425.084 -274 C 425.084 -274 425.084 -286 425.084 -286 C 425.084 -292 419.084 -298 413.084 -298 Z"/><text fill="#000000" font-family="SimHei,sans-serif" font-size="9" text-anchor="middle" x="397.09" y="-282.7"><tspan>PatrolState</tspan></text><text fill="#000000" font-family="SimHei,sans-serif" font-size="9" text-anchor="middle" x="397.09" y="-271.9"><tspan>巡逻</tspan></text></g><g id="edge7" class="edge"><path fill="none" stroke="#000000" stroke-width="1.2" d="M 363.628 -549.831 C 363.628 -470.589 363.628 -281 363.628 -281 C 363.628 -281 364.18 -281 364.18 -281"/><polygon fill="#000000" stroke="#000000" stroke-width="1.2" points="359.153,-284.5 369.153,-281 359.153,-277.5 359.153,-284.5"/><text fill="#000000" font-family="SimHei,sans-serif" font-size="9" text-anchor="middle" x="285.182" y="-490.3"><tspan>切换状态</tspan></text></g><g id="node11" class="node"><path fill="#d1c4e9" stroke="#512da8" stroke-width="1.5" d="M 412.09 -478 C 412.09 -478 382.09 -478 382.09 -478 C 376.09 -478 370.09 -472 370.09 -466 C 370.09 -466 370.09 -454 370.09 -454 C 370.09 -448 376.09 -442 382.09 -442 C 382.09 -442 412.09 -442 412.09 -442 C 418.09 -442 424.09 -448 424.09 -454 C 424.09 -454 424.09 -466 424.09 -466 C 424.09 -472 418.09 -478 412.09 -478 Z"/><text fill="#000000" font-family="SimHei,sans-serif" font-size="9" text-anchor="middle" x="397.09" y="-462.7"><tspan>AlertState</tspan></text><text fill="#000000" font-family="SimHei,sans-serif" font-size="9" text-anchor="middle" x="397.09" y="-451.9"><tspan>警戒</tspan></text></g><g id="edge8" class="edge"><path fill="none" stroke="#000000" stroke-width="1.2" d="M 397.628 -549.788 C 397.628 -549.788 397.628 -488.033 397.628 -488.033"/><polygon fill="#000000" stroke="#000000" stroke-width="1.2" points="401.128,-488.033 397.628,-478.033 394.128,-488.033 401.128,-488.033"/></g><g id="node12" class="node"><path fill="#d1c4e9" stroke="#512da8" stroke-width="1.5" d="M 413.077 -370 C 413.077 -370 381.102 -370 381.102 -370 C 375.102 -370 369.102 -364 369.102 -358 C 369.102 -358 369.102 -346 369.102 -346 C 369.102 -340 375.102 -334 381.102 -334 C 381.102 -334 413.077 -334 413.077 -334 C 419.077 -334 425.077 -340 425.077 -346 C 425.077 -346 425.077 -358 425.077 -358 C 425.077 -364 419.077 -370 413.077 -370 Z"/><text fill="#000000" font-family="SimHei,sans-serif" font-size="9" text-anchor="middle" x="397.09" y="-354.7"><tspan>ChaseState</tspan></text><text fill="#000000" font-family="SimHei,sans-serif" font-size="9" text-anchor="middle" x="397.09" y="-343.9"><tspan>追击</tspan></text></g><g id="edge9" class="edge"><path fill="none" stroke="#000000" stroke-width="1.2" d="M 366.628 -549.768 C 366.628 -485.233 366.628 -352 366.628 -352 C 366.628 -352 366.867 -352 366.867 -352"/><polygon fill="#000000" stroke="#000000" stroke-width="1.2" points="359.018,-355.5 369.018,-352 359.018,-348.5 359.018,-355.5"/><text fill="#000000" font-family="SimHei,sans-serif" font-size="9" text-anchor="middle" x="285.182" y="-474.3"><tspan>切换状态</tspan></text></g><g id="node15" class="node"><path fill="#b2ebf2" stroke="#00838f" stroke-width="1.5" d="M 679.73 -327 C 679.73 -327 621.747 -327 621.747 -327 C 615.747 -327 609.747 -321 609.747 -315 C 609.747 -315 609.747 -271 609.747 -271 C 609.747 -265 615.747 -259 621.747 -259 C 621.747 -259 679.73 -259 679.73 -259 C 685.73 -259 691.73 -265 691.73 -271 C 691.73 -271 691.73 -315 691.73 -315 C 691.73 -321 685.73 -327 679.73 -327 Z"/><text fill="#000000" font-family="SimHei,sans-serif" font-size="10" text-anchor="middle" x="650.739" y="-314"><tspan>NavMeshAgent</tspan></text><text fill="#000000" font-family="SimHei,sans-serif" font-size="10" text-anchor="middle" x="650.739" y="-302"><tspan>(寻路导航)</tspan></text><text fill="#000000" font-family="SimHei,sans-serif" font-size="10" text-anchor="middle" x="650.739" y="-290"><tspan>---</tspan></text><text fill="#000000" font-family="SimHei,sans-serif" font-size="10" text-anchor="middle" x="650.739" y="-278"><tspan>SetDestination()</tspan></text><text fill="#000000" font-family="SimHei,sans-serif" font-size="10" text-anchor="middle" x="650.739" y="-266"><tspan>PatrolPath</tspan></text></g><g id="edge11" class="edge"><path fill="none" stroke="#000000" stroke-width="1.2" d="M 425.204 -280 C 425.204 -280 599.511 -280 599.511 -280"/><polygon fill="#000000" stroke="#000000" stroke-width="1.2" points="599.511,-283.5 609.511,-280 599.511,-276.5 599.511,-283.5"/><text fill="#000000" font-family="SimHei,sans-serif" font-size="9" text-anchor="middle" x="511.001" y="-287.7"><tspan>寻路巡逻</tspan></text></g><g id="edge15" class="edge"><path fill="none" stroke="#000000" stroke-width="1.2" d="M 383.628 -441.679 C 383.628 -441.679 383.628 -380.05 383.628 -380.05"/><polygon fill="#000000" stroke="#000000" stroke-width="1.2" points="387.128,-380.05 383.628,-370.05 380.128,-380.05 387.128,-380.05"/></g><g id="node13" class="node"><path fill="#b2ebf2" stroke="#00838f" stroke-width="1.5" d="M 687.936 -440 C 687.936 -440 613.541 -440 613.541 -440 C 607.541 -440 601.541 -434 601.541 -428 C 601.541 -428 601.541 -384 601.541 -384 C 601.541 -378 607.541 -372 613.541 -372 C 613.541 -372 687.936 -372 687.936 -372 C 693.936 -372 699.936 -378 699.936 -384 C 699.936 -384 699.936 -428 699.936 -428 C 699.936 -434 693.936 -440 687.936 -440 Z"/><text fill="#000000" font-family="SimHei,sans-serif" font-size="10" text-anchor="middle" x="650.739" y="-427"><tspan>VisionConeDetector</tspan></text><text fill="#000000" font-family="SimHei,sans-serif" font-size="10" text-anchor="middle" x="650.739" y="-415"><tspan>(视野锥检测器)</tspan></text><text fill="#000000" font-family="SimHei,sans-serif" font-size="10" text-anchor="middle" x="650.739" y="-403"><tspan>---</tspan></text><text fill="#000000" font-family="SimHei,sans-serif" font-size="10" text-anchor="middle" x="650.739" y="-391"><tspan>DetectPlayer()</tspan></text><text fill="#000000" font-family="SimHei,sans-serif" font-size="10" text-anchor="middle" x="650.739" y="-379"><tspan>UpdateAlertLevel()</tspan></text></g><g id="edge10" class="edge"><path fill="none" stroke="#000000" stroke-width="1.2" d="M 410.628 -441.793 C 410.628 -436.445 410.628 -432 410.628 -432 C 410.628 -432 591.569 -432 591.569 -432"/><polygon fill="#000000" stroke="#000000" stroke-width="1.2" points="591.569,-435.5 601.569,-432 591.569,-428.5 591.569,-435.5"/><text fill="#000000" font-family="SimHei,sans-serif" font-size="9" text-anchor="middle" x="511.001" y="-429.7"><tspan>视野检测</tspan></text></g><g id="edge16" class="edge"><path fill="none" stroke="#000000" stroke-width="1.2" d="M 425.293 -352 C 528.918 -352 882.628 -352 882.628 -352 C 882.628 -352 882.628 -521.904 882.628 -521.904"/><polygon fill="#000000" stroke="#000000" stroke-width="1.2" points="879.128,-521.904 882.628,-531.904 886.128,-521.904 879.128,-521.904"/><text fill="#000000" font-family="SimHei,sans-serif" font-size="9" text-anchor="middle" x="650.739" y="-544.7"><tspan>追上玩家触发战斗</tspan></text></g><g id="edge12" class="edge"><path fill="none" stroke="#000000" stroke-width="1.2" d="M 397.628 -333.806 C 397.628 -325.722 397.628 -318 397.628 -318 C 397.628 -318 599.509 -318 599.509 -318"/><polygon fill="#000000" stroke="#000000" stroke-width="1.2" points="599.509,-321.5 609.509,-318 599.509,-314.5 599.509,-321.5"/><text fill="#000000" font-family="SimHei,sans-serif" font-size="9" text-anchor="middle" x="511.001" y="-344.7"><tspan>寻路追击</tspan></text></g><g id="edge14" class="edge"><path fill="none" stroke="#000000" stroke-width="1.2" d="M 601.636 -424 C 528.03 -424 397.628 -424 397.628 -424 C 397.628 -424 397.628 -431.578 397.628 -431.578"/><polygon fill="#000000" stroke="#000000" stroke-width="1.2" points="394.128,-431.578 397.628,-441.578 401.128,-431.578 394.128,-431.578"/><text fill="#000000" font-family="SimHei,sans-serif" font-size="9" text-anchor="middle" x="511.001" y="-21.7"><tspan>发现玩家</tspan></text></g><g id="node18" class="node"><path fill="#f8bbd0" stroke="#c2185b" stroke-width="1.5" d="M 1250.61 -379 C 1250.61 -379 1163.7 -379 1163.7 -379 C 1157.7 -379 1151.7 -373 1151.7 -367 C 1151.7 -367 1151.7 -323 1151.7 -323 C 1151.7 -317 1157.7 -311 1163.7 -311 C 1163.7 -311 1250.61 -311 1250.61 -311 C 1256.61 -311 1262.61 -317 1262.61 -323 C 1262.61 -323 1262.61 -367 1262.61 -367 C 1262.61 -373 1256.61 -379 1250.61 -379 Z"/><text fill="#000000" font-family="SimHei,sans-serif" font-size="10" text-anchor="middle" x="1207.15" y="-366"><tspan>EnemyAlertUIManager</tspan></text><text fill="#000000" font-family="SimHei,sans-serif" font-size="10" text-anchor="middle" x="1207.15" y="-354"><tspan>(警觉度UI)</tspan></text><text fill="#000000" font-family="SimHei,sans-serif" font-size="10" text-anchor="middle" x="1207.15" y="-342"><tspan>---</tspan></text><text fill="#000000" font-family="SimHei,sans-serif" font-size="10" text-anchor="middle" x="1207.15" y="-330"><tspan>ShowAlertBar()</tspan></text><text fill="#000000" font-family="SimHei,sans-serif" font-size="10" text-anchor="middle" x="1207.15" y="-318"><tspan>UpdateAlertLevel()</tspan></text></g><g id="edge23" class="edge"><path fill="none" stroke="#000000" stroke-width="1.2" d="M 700.116 -375.5 C 700.116 -375.5 1141.34 -375.5 1141.34 -375.5"/><polygon fill="#000000" stroke="#000000" stroke-width="1.2" points="1141.34,-379 1151.34,-375.5 1141.34,-372 1141.34,-379"/><text fill="#000000" font-family="SimHei,sans-serif" font-size="9" text-anchor="middle" x="944.643" y="-347.7"><tspan>更新警觉度</tspan></text></g><g id="edge17" class="edge"><path fill="none" stroke="#000000" stroke-width="1.2" d="M 708.628 -80.3629 C 708.628 -101.758 708.628 -123.667 708.628 -123.667 C 708.628 -123.667 877.811 -123.667 877.811 -123.667"/><polygon fill="#000000" stroke="#000000" stroke-width="1.2" points="877.811,-127.167 887.811,-123.667 877.811,-120.167 877.811,-127.167"/><text fill="#000000" font-family="SimHei,sans-serif" font-size="9" text-anchor="middle" x="796.167" y="-72.7"><tspan>偷袭/遭遇战触发</tspan></text></g><g id="node16" class="node"><path fill="#fff9c4" stroke="#f57f17" stroke-width="1.5" d="M 201.122 -496 C 201.122 -496 127.374 -496 127.374 -496 C 121.374 -496 115.374 -490 115.374 -484 C 115.374 -484 115.374 -428 115.374 -428 C 115.374 -422 121.374 -416 127.374 -416 C 127.374 -416 201.122 -416 201.122 -416 C 207.122 -416 213.122 -422 213.122 -428 C 213.122 -428 213.122 -484 213.122 -484 C 213.122 -490 207.122 -496 201.122 -496 Z"/><text fill="#000000" font-family="SimHei,sans-serif" font-size="10" text-anchor="middle" x="164.248" y="-483"><tspan>EnemyEntityTable</tspan></text><text fill="#000000" font-family="SimHei,sans-serif" font-size="10" text-anchor="middle" x="164.248" y="-471"><tspan>(敌人实体配置)</tspan></text><text fill="#000000" font-family="SimHei,sans-serif" font-size="10" text-anchor="middle" x="164.248" y="-459"><tspan>---</tspan></text><text fill="#000000" font-family="SimHei,sans-serif" font-size="10" text-anchor="middle" x="164.248" y="-447"><tspan>AlertLevel</tspan></text><text fill="#000000" font-family="SimHei,sans-serif" font-size="10" text-anchor="middle" x="164.248" y="-435"><tspan>PatrolRange</tspan></text><text fill="#000000" font-family="SimHei,sans-serif" font-size="10" text-anchor="middle" x="164.248" y="-423"><tspan>ChaseSpeed</tspan></text></g><g id="edge21" class="edge"><path fill="none" stroke="#000000" stroke-width="1.2" stroke-dasharray="5,2" d="M 213.044 -487 C 271.204 -487 360.628 -487 360.628 -487 C 360.628 -487 360.628 -539.801 360.628 -539.801"/><polygon fill="#000000" stroke="#000000" stroke-width="1.2" points="357.128,-539.801 360.628,-549.801 364.128,-539.802 357.128,-539.801"/><text fill="#000000" font-family="SimHei,sans-serif" font-size="9" text-anchor="middle" x="285.182" y="-458.7"><tspan>读取AI配置</tspan></text></g><g id="node17" class="node"><path fill="#fff9c4" stroke="#f57f17" stroke-width="1.5" d="M 195.562 -380 C 195.562 -380 132.934 -380 132.934 -380 C 126.934 -380 120.934 -374 120.934 -368 C 120.934 -368 120.934 -312 120.934 -312 C 120.934 -306 126.934 -300 132.934 -300 C 132.934 -300 195.562 -300 195.562 -300 C 201.562 -300 207.562 -306 207.562 -312 C 207.562 -312 207.562 -368 207.562 -368 C 207.562 -374 201.562 -380 195.562 -380 Z"/><text fill="#000000" font-family="SimHei,sans-serif" font-size="10" text-anchor="middle" x="164.248" y="-367"><tspan>EnemyTable</tspan></text><text fill="#000000" font-family="SimHei,sans-serif" font-size="10" text-anchor="middle" x="164.248" y="-355"><tspan>(敌人战斗配置)</tspan></text><text fill="#000000" font-family="SimHei,sans-serif" font-size="10" text-anchor="middle" x="164.248" y="-343"><tspan>---</tspan></text><text fill="#000000" font-family="SimHei,sans-serif" font-size="10" text-anchor="middle" x="164.248" y="-331"><tspan>ChessIds</tspan></text><text fill="#000000" font-family="SimHei,sans-serif" font-size="10" text-anchor="middle" x="164.248" y="-319"><tspan>FormationType</tspan></text><text fill="#000000" font-family="SimHei,sans-serif" font-size="10" text-anchor="middle" x="164.248" y="-307"><tspan>MinPopulation</tspan></text></g><g id="edge22" class="edge"><path fill="none" stroke="#000000" stroke-width="1.2" stroke-dasharray="5,2" d="M 207.726 -309 C 242.555 -309 285.628 -309 285.628 -309 C 285.628 -309 285.628 -146.333 285.628 -146.333 C 285.628 -146.333 877.886 -146.333 877.886 -146.333"/><polygon fill="#000000" stroke="#000000" stroke-width="1.2" points="877.886,-149.833 887.886,-146.333 877.886,-142.833 877.886,-149.833"/><text fill="#000000" font-family="SimHei,sans-serif" font-size="9" text-anchor="middle" x="511.001" y="-137.7"><tspan>读取战斗配置</tspan></text></g><g id="edge26" class="edge"><path fill="none" stroke="#000000" stroke-width="1.2" stroke-dasharray="5,2" d="M 1169.79 -236.5 C 1133.11 -236.5 1082.63 -236.5 1082.63 -236.5 C 1082.63 -236.5 1082.63 -696 1082.63 -696 C 1082.63 -696 219.165 -696 219.165 -696"/><polygon fill="#000000" stroke="#000000" stroke-width="1.2" points="219.165,-692.5 209.165,-696 219.165,-699.5 219.165,-692.5"/><text fill="#000000" font-family="SimHei,sans-serif" font-size="9" text-anchor="middle" x="650.739" y="-766.7"><tspan>返回探索</tspan></text></g><g id="edge25" class="edge"><path fill="none" stroke="#000000" stroke-width="1.2" d="M 1169.53 -226 C 1112.22 -226 1009.63 -226 1009.63 -226 C 1009.63 -226 1009.63 -521.971 1009.63 -521.971"/><polygon fill="#000000" stroke="#000000" stroke-width="1.2" points="1006.13,-521.971 1009.63,-531.971 1013.13,-521.971 1006.13,-521.971"/><text fill="#000000" font-family="SimHei,sans-serif" font-size="9" text-anchor="middle" x="1082.43" y="-137.7"><tspan>胜负结果回调</tspan></text></g></g></svg>
