<?xml version="1.0" encoding="UTF-8" standalone="yes"?><svg xmlns="http://www.w3.org/2000/svg" xmlns:xlink="http://www.w3.org/1999/xlink" version="1.2" baseProfile="tiny" x="0" y="0" width="616" height="997" viewBox="0 0 615.57 997"><defs/><g id="graph0" class="graph" transform="matrix(1,0,0,1,4,993)"><polygon fill="#ffffff" stroke="rgba(0,0,0,0)" points="-4,4 -4,-993 611.573,-993 611.573,4 -4,4"/><g id="node1" class="node"><path fill="#fff9c4" stroke="#f57f17" stroke-width="1.5" d="M 80.1035 -989 C 80.1035 -989 11.9655 -989 11.9655 -989 C 5.9655 -989 -0.0345 -983 -0.0345 -977 C -0.0345 -977 -0.0345 -965 -0.0345 -965 C -0.0345 -959 5.9655 -953 11.9655 -953 C 11.9655 -953 80.1035 -953 80.1035 -953 C 86.1035 -953 92.1035 -959 92.1035 -965 C 92.1035 -965 92.1035 -977 92.1035 -977 C 92.1035 -983 86.1035 -989 80.1035 -989 Z"/><text fill="#000000" font-family="SimHei,sans-serif" font-size="10" text-anchor="middle" x="46.0345" y="-974"><tspan>ProcedureManager</tspan></text><text fill="#000000" font-family="SimHei,sans-serif" font-size="10" text-anchor="middle" x="46.0345" y="-962"><tspan>(有限状态机)</tspan></text></g><g id="node2" class="node"><path fill="#fff9c4" stroke="#f57f17" stroke-width="1.5" d="M 77.0568 -881 C 77.0568 -881 15.0122 -881 15.0122 -881 C 9.0122 -881 3.0122 -875 3.0122 -869 C 3.0122 -869 3.0122 -857 3.0122 -857 C 3.0122 -851 9.0122 -845 15.0122 -845 C 15.0122 -845 77.0568 -845 77.0568 -845 C 83.0568 -845 89.0568 -851 89.0568 -857 C 89.0568 -857 89.0568 -869 89.0568 -869 C 89.0568 -875 83.0568 -881 77.0568 -881 Z"/><text fill="#000000" font-family="SimHei,sans-serif" font-size="10" text-anchor="middle" x="46.0345" y="-866"><tspan>LaunchProcedure</tspan></text><text fill="#000000" font-family="SimHei,sans-serif" font-size="10" text-anchor="middle" x="46.0345" y="-854"><tspan>启动流程</tspan></text></g><g id="edge1" class="edge"><path fill="none" stroke="#000000" stroke-width="1.2" d="M 46.0345 -952.95 C 46.0345 -936.182 46.0345 -910.94 46.0345 -891.46"/><polygon fill="#000000" stroke="#000000" stroke-width="1.2" points="49.5346,-891.321 46.0345,-881.321 42.5346,-891.321 49.5346,-891.321"/><text fill="#000000" font-family="SimHei,sans-serif" font-size="9" text-anchor="middle" x="37.6345" y="-914.3"><tspan>启动</tspan></text></g><g id="node3" class="node"><path fill="#fff9c4" stroke="#f57f17" stroke-width="1.5" d="M 77.6135 -773 C 77.6135 -773 14.4555 -773 14.4555 -773 C 8.4555 -773 2.4555 -767 2.4555 -761 C 2.4555 -761 2.4555 -749 2.4555 -749 C 2.4555 -743 8.4555 -737 14.4555 -737 C 14.4555 -737 77.6135 -737 77.6135 -737 C 83.6135 -737 89.6135 -743 89.6135 -749 C 89.6135 -749 89.6135 -761 89.6135 -761 C 89.6135 -767 83.6135 -773 77.6135 -773 Z"/><text fill="#000000" font-family="SimHei,sans-serif" font-size="10" text-anchor="middle" x="46.0345" y="-758"><tspan>PreloadProcedure</tspan></text><text fill="#000000" font-family="SimHei,sans-serif" font-size="10" text-anchor="middle" x="46.0345" y="-746"><tspan>预加载流程</tspan></text></g><g id="edge2" class="edge"><path fill="none" stroke="#000000" stroke-width="1.2" d="M 46.0345 -844.95 C 46.0345 -828.182 46.0345 -802.94 46.0345 -783.46"/><polygon fill="#000000" stroke="#000000" stroke-width="1.2" points="49.5346,-783.321 46.0345,-773.321 42.5346,-783.321 49.5346,-783.321"/><text fill="#000000" font-family="SimHei,sans-serif" font-size="9" text-anchor="middle" x="37.6345" y="-806.3"><tspan>初始化完成</tspan></text></g><g id="node4" class="node"><path fill="#fff9c4" stroke="#f57f17" stroke-width="1.5" d="M 73.8966 -665 C 73.8966 -665 18.1724 -665 18.1724 -665 C 12.1724 -665 6.1724 -659 6.1724 -653 C 6.1724 -653 6.1724 -641 6.1724 -641 C 6.1724 -635 12.1724 -629 18.1724 -629 C 18.1724 -629 73.8966 -629 73.8966 -629 C 79.8966 -629 85.8966 -635 85.8966 -641 C 85.8966 -641 85.8966 -653 85.8966 -653 C 85.8966 -659 79.8966 -665 73.8966 -665 Z"/><text fill="#000000" font-family="SimHei,sans-serif" font-size="10" text-anchor="middle" x="46.0345" y="-650"><tspan>MenuProcedure</tspan></text><text fill="#000000" font-family="SimHei,sans-serif" font-size="10" text-anchor="middle" x="46.0345" y="-638"><tspan>主菜单流程</tspan></text></g><g id="edge3" class="edge"><path fill="none" stroke="#000000" stroke-width="1.2" d="M 46.0345 -736.95 C 46.0345 -720.182 46.0345 -694.94 46.0345 -675.46"/><polygon fill="#000000" stroke="#000000" stroke-width="1.2" points="49.5346,-675.321 46.0345,-665.321 42.5346,-675.321 49.5346,-675.321"/><text fill="#000000" font-family="SimHei,sans-serif" font-size="9" text-anchor="middle" x="37.6345" y="-698.3"><tspan>预加载完成</tspan></text></g><g id="node5" class="node"><path fill="#fff9c4" stroke="#f57f17" stroke-width="1.5" d="M 78.2247 -557 C 78.2247 -557 13.8443 -557 13.8443 -557 C 7.8443 -557 1.8443 -551 1.8443 -545 C 1.8443 -545 1.8443 -533 1.8443 -533 C 1.8443 -527 7.8443 -521 13.8443 -521 C 13.8443 -521 78.2247 -521 78.2247 -521 C 84.2247 -521 90.2247 -527 90.2247 -533 C 90.2247 -533 90.2247 -545 90.2247 -545 C 90.2247 -551 84.2247 -557 78.2247 -557 Z"/><text fill="#000000" font-family="SimHei,sans-serif" font-size="10" text-anchor="middle" x="46.0345" y="-542"><tspan>ExploreProcedure</tspan></text><text fill="#000000" font-family="SimHei,sans-serif" font-size="10" text-anchor="middle" x="46.0345" y="-530"><tspan>探索流程</tspan></text></g><g id="edge4" class="edge"><path fill="none" stroke="#000000" stroke-width="1.2" d="M 46.0345 -628.95 C 46.0345 -612.182 46.0345 -586.94 46.0345 -567.46"/><polygon fill="#000000" stroke="#000000" stroke-width="1.2" points="49.5346,-567.321 46.0345,-557.321 42.5346,-567.321 49.5346,-567.321"/><text fill="#000000" font-family="SimHei,sans-serif" font-size="9" text-anchor="middle" x="37.6345" y="-590.3"><tspan>开始游戏</tspan></text></g><g id="node6" class="node"><path fill="#fff9c4" stroke="#f57f17" stroke-width="1.5" d="M 78.2347 -449 C 78.2347 -449 13.8343 -449 13.8343 -449 C 7.8343 -449 1.8343 -443 1.8343 -437 C 1.8343 -437 1.8343 -425 1.8343 -425 C 1.8343 -419 7.8343 -413 13.8343 -413 C 13.8343 -413 78.2347 -413 78.2347 -413 C 84.2347 -413 90.2347 -419 90.2347 -425 C 90.2347 -425 90.2347 -437 90.2347 -437 C 90.2347 -443 84.2347 -449 78.2347 -449 Z"/><text fill="#000000" font-family="SimHei,sans-serif" font-size="10" text-anchor="middle" x="46.0345" y="-434"><tspan>CombatProcedure</tspan></text><text fill="#000000" font-family="SimHei,sans-serif" font-size="10" text-anchor="middle" x="46.0345" y="-422"><tspan>战斗流程</tspan></text></g><g id="edge5" class="edge"><path fill="none" stroke="#000000" stroke-width="1.2" d="M 59.3357 -520.68 C 59.5169 -520.205 59.6838 -519.728 59.8345 -519.249 C 63.6368 -507.168 64.2755 -477.823 61.4632 -459.118"/><polygon fill="#000000" stroke="#000000" stroke-width="1.2" points="64.878,-458.349 59.3357,-449.32 58.0374,-459.835 64.878,-458.349"/><text fill="#000000" font-family="SimHei,sans-serif" font-size="9" text-anchor="middle" x="54.4345" y="-482.3"><tspan>               触发战斗</tspan></text></g><g id="node7" class="node"><path fill="#ffe0b2" stroke="#e65100" stroke-width="1.5" d="M 314.484 -572 C 314.484 -572 240.36 -572 240.36 -572 C 234.36 -572 228.36 -566 228.36 -560 C 228.36 -560 228.36 -516 228.36 -516 C 228.36 -510 234.36 -504 240.36 -504 C 240.36 -504 314.484 -504 314.484 -504 C 320.484 -504 326.484 -510 326.484 -516 C 326.484 -516 326.484 -560 326.484 -560 C 326.484 -566 320.484 -572 314.484 -572 Z"/><text fill="#000000" font-family="SimHei,sans-serif" font-size="10" text-anchor="middle" x="277.422" y="-559"><tspan>ExploreManager</tspan></text><text fill="#000000" font-family="SimHei,sans-serif" font-size="10" text-anchor="middle" x="277.422" y="-547"><tspan>(探索系统)</tspan></text><text fill="#000000" font-family="SimHei,sans-serif" font-size="10" text-anchor="middle" x="277.422" y="-535"><tspan>---</tspan></text><text fill="#000000" font-family="SimHei,sans-serif" font-size="10" text-anchor="middle" x="277.422" y="-523"><tspan>敌人管理 / AI状态机</tspan></text><text fill="#000000" font-family="SimHei,sans-serif" font-size="10" text-anchor="middle" x="277.422" y="-511"><tspan>战斗触发</tspan></text></g><g id="edge7" class="edge"><path fill="none" stroke="#000000" stroke-width="1.2" d="M 90.3745 -538.808 C 126.59 -538.652 178.108 -538.429 217.911 -538.257"/><polygon fill="#000000" stroke="#000000" stroke-width="1.2" points="218.036,-541.757 228.021,-538.213 218.006,-534.757 218.036,-541.757"/><text fill="#000000" font-family="SimHei,sans-serif" font-size="9" text-anchor="middle" x="159.57" y="-540.7"><tspan>驱动探索</tspan></text></g><g id="edge6" class="edge"><path fill="none" stroke="#000000" stroke-width="1.2" d="M 46.0345 -449.321 C 46.0345 -466.179 46.0345 -491.435 46.0345 -510.853"/><polygon fill="#000000" stroke="#000000" stroke-width="1.2" points="42.5346,-510.95 46.0345,-520.95 49.5346,-510.95 42.5346,-510.95"/><text fill="#000000" font-family="SimHei,sans-serif" font-size="9" text-anchor="middle" x="37.6345" y="-482.3"><tspan>战斗结束返回             </tspan></text></g><g id="node8" class="node"><path fill="#ffe0b2" stroke="#e65100" stroke-width="1.5" d="M 315.625 -468 C 315.625 -468 239.219 -468 239.219 -468 C 233.219 -468 227.219 -462 227.219 -456 C 227.219 -456 227.219 -412 227.219 -412 C 227.219 -406 233.219 -400 239.219 -400 C 239.219 -400 315.625 -400 315.625 -400 C 321.625 -400 327.625 -406 327.625 -412 C 327.625 -412 327.625 -456 327.625 -456 C 327.625 -462 321.625 -468 315.625 -468 Z"/><text fill="#000000" font-family="SimHei,sans-serif" font-size="10" text-anchor="middle" x="277.422" y="-455"><tspan>CombatManager</tspan></text><text fill="#000000" font-family="SimHei,sans-serif" font-size="10" text-anchor="middle" x="277.422" y="-443"><tspan>(战斗系统)</tspan></text><text fill="#000000" font-family="SimHei,sans-serif" font-size="10" text-anchor="middle" x="277.422" y="-431"><tspan>---</tspan></text><text fill="#000000" font-family="SimHei,sans-serif" font-size="10" text-anchor="middle" x="277.422" y="-419"><tspan>棋子AI / 技能执行</tspan></text><text fill="#000000" font-family="SimHei,sans-serif" font-size="10" text-anchor="middle" x="277.422" y="-407"><tspan>伤害计算</tspan></text></g><g id="edge8" class="edge"><path fill="none" stroke="#000000" stroke-width="1.2" d="M 90.3745 -431.575 C 126.348 -432.041 177.422 -432.704 217.113 -433.218"/><polygon fill="#000000" stroke="#000000" stroke-width="1.2" points="217.157,-436.719 227.202,-433.349 217.248,-429.719 217.157,-436.719"/><text fill="#000000" font-family="SimHei,sans-serif" font-size="9" text-anchor="middle" x="159.57" y="-435.7"><tspan>驱动战斗</tspan></text></g><g id="node11" class="node"><path fill="#ffccbc" stroke="#d84315" stroke-width="1.5" d="M 309.917 -120 C 309.917 -120 244.927 -120 244.927 -120 C 238.927 -120 232.927 -114 232.927 -108 C 232.927 -108 232.927 -64 232.927 -64 C 232.927 -58 238.927 -52 244.927 -52 C 244.927 -52 309.917 -52 309.917 -52 C 315.917 -52 321.917 -58 321.917 -64 C 321.917 -64 321.917 -108 321.917 -108 C 321.917 -114 315.917 -120 309.917 -120 Z"/><text fill="#000000" font-family="SimHei,sans-serif" font-size="10" text-anchor="middle" x="277.422" y="-107"><tspan>ConfigManager</tspan></text><text fill="#000000" font-family="SimHei,sans-serif" font-size="10" text-anchor="middle" x="277.422" y="-95"><tspan>(配置系统)</tspan></text><text fill="#000000" font-family="SimHei,sans-serif" font-size="10" text-anchor="middle" x="277.422" y="-83"><tspan>---</tspan></text><text fill="#000000" font-family="SimHei,sans-serif" font-size="10" text-anchor="middle" x="277.422" y="-71"><tspan>配置数据</tspan></text><text fill="#000000" font-family="SimHei,sans-serif" font-size="10" text-anchor="middle" x="277.422" y="-59"><tspan>访问接口封装</tspan></text></g><g id="edge24" class="edge"><path fill="none" stroke="#000000" stroke-width="1.2" stroke-dasharray="5,2" d="M 241.933 -503.907 C 236.682 -498.154 231.541 -492.072 227.07 -486 C 186.951 -431.513 170.812 -417.96 154.069 -352.4 C 132.656 -268.556 193.904 -178.748 237.587 -127.765"/><polygon fill="#000000" stroke="#000000" stroke-width="1.2" points="240.227,-130.064 244.162,-120.227 234.951,-125.463 240.227,-130.064"/><text fill="#000000" font-family="SimHei,sans-serif" font-size="9" text-anchor="middle" x="159.57" y="-344.3"><tspan>读取配置</tspan></text></g><g id="node12" class="node"><path fill="#c8e6c9" stroke="#2e7d32" stroke-width="1.5" d="M 590.736 -712 C 590.736 -712 505.105 -712 505.105 -712 C 499.105 -712 493.105 -706 493.105 -700 C 493.105 -700 493.105 -688 493.105 -688 C 493.105 -682 499.105 -676 505.105 -676 C 505.105 -676 590.736 -676 590.736 -676 C 596.736 -676 602.736 -682 602.736 -688 C 602.736 -688 602.736 -700 602.736 -700 C 602.736 -706 596.736 -712 590.736 -712 Z"/><text fill="#000000" font-family="SimHei,sans-serif" font-size="10" text-anchor="middle" x="547.921" y="-697"><tspan>CombatStartEventArgs</tspan></text><text fill="#000000" font-family="SimHei,sans-serif" font-size="10" text-anchor="middle" x="547.921" y="-685"><tspan>(战斗开始)</tspan></text></g><g id="edge9" class="edge"><path fill="none" stroke="#000000" stroke-width="1.2" d="M 289.11 -572.09 C 302.838 -606.366 329.169 -657.532 370.773 -682 C 404.147 -701.627 447.415 -704.884 482.834 -703.109"/><polygon fill="#000000" stroke="#000000" stroke-width="1.2" points="483.324,-706.585 493.077,-702.447 482.872,-699.599 483.324,-706.585"/><text fill="#000000" font-family="SimHei,sans-serif" font-size="9" text-anchor="middle" x="408.021" y="-704.7"><tspan>发起战斗</tspan></text></g><g id="node15" class="node"><path fill="#c8e6c9" stroke="#2e7d32" stroke-width="1.5" d="M 595.726 -616 C 595.726 -616 500.115 -616 500.115 -616 C 494.115 -616 488.115 -610 488.115 -604 C 488.115 -604 488.115 -592 488.115 -592 C 488.115 -586 494.115 -580 500.115 -580 C 500.115 -580 595.726 -580 595.726 -580 C 601.726 -580 607.726 -586 607.726 -592 C 607.726 -592 607.726 -604 607.726 -604 C 607.726 -610 601.726 -616 595.726 -616 Z"/><text fill="#000000" font-family="SimHei,sans-serif" font-size="10" text-anchor="middle" x="547.921" y="-601"><tspan>EnemyPurifiedEventArgs</tspan></text><text fill="#000000" font-family="SimHei,sans-serif" font-size="10" text-anchor="middle" x="547.921" y="-589"><tspan>(敌人净化)</tspan></text></g><g id="edge12" class="edge"><path fill="none" stroke="#000000" stroke-width="1.2" d="M 293.885 -572.027 C 309.415 -599.813 335.568 -637.142 370.773 -654 C 419.315 -677.244 479.837 -646.397 516.1 -622.096"/><polygon fill="#000000" stroke="#000000" stroke-width="1.2" points="518.541,-624.663 524.774,-616.096 514.559,-618.906 518.541,-624.663"/><text fill="#000000" font-family="SimHei,sans-serif" font-size="9" text-anchor="middle" x="408.021" y="-664.7"><tspan>净化敌人</tspan></text></g><g id="node17" class="node"><path fill="#e1bee7" stroke="#6a1b9a" stroke-width="1.5" d="M 573.653 -466 C 573.653 -466 522.188 -466 522.188 -466 C 516.188 -466 510.188 -460 510.188 -454 C 510.188 -454 510.188 -410 510.188 -410 C 510.188 -404 516.188 -398 522.188 -398 C 522.188 -398 573.653 -398 573.653 -398 C 579.653 -398 585.653 -404 585.653 -410 C 585.653 -410 585.653 -454 585.653 -454 C 585.653 -460 579.653 -466 573.653 -466 Z"/><text fill="#000000" font-family="SimHei,sans-serif" font-size="10" text-anchor="middle" x="547.921" y="-453"><tspan>DataModel</tspan></text><text fill="#000000" font-family="SimHei,sans-serif" font-size="10" text-anchor="middle" x="547.921" y="-441"><tspan>(运行时数据)</tspan></text><text fill="#000000" font-family="SimHei,sans-serif" font-size="10" text-anchor="middle" x="547.921" y="-429"><tspan>---</tspan></text><text fill="#000000" font-family="SimHei,sans-serif" font-size="10" text-anchor="middle" x="547.921" y="-417"><tspan>游戏状态</tspan></text><text fill="#000000" font-family="SimHei,sans-serif" font-size="10" text-anchor="middle" x="547.921" y="-405"><tspan>玩家数据</tspan></text></g><g id="edge19" class="edge"><path fill="none" stroke="#000000" stroke-width="1.2" d="M 326.548 -530.797 C 360.768 -524.708 406.96 -514.317 445.268 -498 C 464.689 -489.728 484.542 -477.897 501.549 -466.531"/><polygon fill="#000000" stroke="#000000" stroke-width="1.2" points="503.878,-469.179 510.166,-460.652 499.933,-463.397 503.878,-469.179"/><text fill="#000000" font-family="SimHei,sans-serif" font-size="9" text-anchor="middle" x="408.021" y="-523.7"><tspan>更新数据</tspan></text></g><g id="edge25" class="edge"><path fill="none" stroke="#000000" stroke-width="1.2" stroke-dasharray="5,2" d="M 226.837 -405.475 C 186.948 -378.782 140.173 -335.727 154.069 -286.6 C 171.107 -226.366 211.888 -166.427 241.918 -127.975"/><polygon fill="#000000" stroke="#000000" stroke-width="1.2" points="244.686,-130.117 248.15,-120.104 239.198,-125.771 244.686,-130.117"/><text fill="#000000" font-family="SimHei,sans-serif" font-size="9" text-anchor="middle" x="159.57" y="-289.3"><tspan>读取配置</tspan></text></g><g id="node13" class="node"><path fill="#c8e6c9" stroke="#2e7d32" stroke-width="1.5" d="M 588.961 -244 C 588.961 -244 506.881 -244 506.881 -244 C 500.881 -244 494.881 -238 494.881 -232 C 494.881 -232 494.881 -220 494.881 -220 C 494.881 -214 500.881 -208 506.881 -208 C 506.881 -208 588.961 -208 588.961 -208 C 594.961 -208 600.961 -214 600.961 -220 C 600.961 -220 600.961 -232 600.961 -232 C 600.961 -238 594.961 -244 588.961 -244 Z"/><text fill="#000000" font-family="SimHei,sans-serif" font-size="10" text-anchor="middle" x="547.921" y="-229"><tspan>CombatEndEventArgs</tspan></text><text fill="#000000" font-family="SimHei,sans-serif" font-size="10" text-anchor="middle" x="547.921" y="-217"><tspan>(战斗结束)</tspan></text></g><g id="edge10" class="edge"><path fill="none" stroke="#000000" stroke-width="1.2" d="M 327.757 -415.343 C 363.873 -399.987 411.861 -375.326 445.268 -342 C 473.293 -314.043 461.178 -292.864 488.268 -264 C 493.067 -258.887 498.694 -254.164 504.54 -249.911"/><polygon fill="#000000" stroke="#000000" stroke-width="1.2" points="506.891,-252.545 513.191,-244.027 502.954,-246.757 506.891,-252.545"/><text fill="#000000" font-family="SimHei,sans-serif" font-size="9" text-anchor="middle" x="408.021" y="-396.7"><tspan>战斗结算</tspan></text></g><g id="edge20" class="edge"><path fill="none" stroke="#000000" stroke-width="1.2" d="M 327.807 -433.552 C 341.727 -433.432 356.835 -433.307 370.773 -433.2 C 414.58 -432.864 464.481 -432.53 500.132 -432.3"/><polygon fill="#000000" stroke="#000000" stroke-width="1.2" points="500.276,-435.8 510.253,-432.236 500.231,-428.8 500.276,-435.8"/><text fill="#000000" font-family="SimHei,sans-serif" font-size="9" text-anchor="middle" x="408.021" y="-436.7"><tspan>更新数据</tspan></text></g><g id="node9" class="node"><path fill="#ffe0b2" stroke="#e65100" stroke-width="1.5" d="M 305.977 -260 C 305.977 -260 248.867 -260 248.867 -260 C 242.867 -260 236.867 -254 236.867 -248 C 236.867 -248 236.867 -204 236.867 -204 C 236.867 -198 242.867 -192 248.867 -192 C 248.867 -192 305.977 -192 305.977 -192 C 311.977 -192 317.977 -198 317.977 -204 C 317.977 -204 317.977 -248 317.977 -248 C 317.977 -254 311.977 -260 305.977 -260 Z"/><text fill="#000000" font-family="SimHei,sans-serif" font-size="10" text-anchor="middle" x="277.422" y="-247"><tspan>ItemManager</tspan></text><text fill="#000000" font-family="SimHei,sans-serif" font-size="10" text-anchor="middle" x="277.422" y="-235"><tspan>(物品系统)</tspan></text><text fill="#000000" font-family="SimHei,sans-serif" font-size="10" text-anchor="middle" x="277.422" y="-223"><tspan>---</tspan></text><text fill="#000000" font-family="SimHei,sans-serif" font-size="10" text-anchor="middle" x="277.422" y="-211"><tspan>背包管理 / 装备</tspan></text><text fill="#000000" font-family="SimHei,sans-serif" font-size="10" text-anchor="middle" x="277.422" y="-199"><tspan>宝物词条</tspan></text></g><g id="edge26" class="edge"><path fill="none" stroke="#000000" stroke-width="1.2" stroke-dasharray="5,2" d="M 277.422 -191.62 C 277.422 -173.125 277.422 -150.105 277.422 -130.282"/><polygon fill="#000000" stroke="#000000" stroke-width="1.2" points="280.922,-130.248 277.422,-120.248 273.922,-130.248 280.922,-130.248"/><text fill="#000000" font-family="SimHei,sans-serif" font-size="9" text-anchor="middle" x="269.022" y="-153.3"><tspan>读取配置</tspan></text></g><g id="node14" class="node"><path fill="#c8e6c9" stroke="#2e7d32" stroke-width="1.5" d="M 592.666 -140 C 592.666 -140 503.175 -140 503.175 -140 C 497.175 -140 491.175 -134 491.175 -128 C 491.175 -128 491.175 -116 491.175 -116 C 491.175 -110 497.175 -104 503.175 -104 C 503.175 -104 592.666 -104 592.666 -104 C 598.666 -104 604.666 -110 604.666 -116 C 604.666 -116 604.666 -128 604.666 -128 C 604.666 -134 598.666 -140 592.666 -140 Z"/><text fill="#000000" font-family="SimHei,sans-serif" font-size="10" text-anchor="middle" x="547.921" y="-125"><tspan>ItemObtainedEventArgs</tspan></text><text fill="#000000" font-family="SimHei,sans-serif" font-size="10" text-anchor="middle" x="547.921" y="-113"><tspan>(物品获得)</tspan></text></g><g id="edge11" class="edge"><path fill="none" stroke="#000000" stroke-width="1.2" d="M 309.324 -191.815 C 326.075 -175.988 347.858 -158.456 370.773 -148.2 C 405.105 -132.835 446.552 -126.141 480.721 -123.354"/><polygon fill="#000000" stroke="#000000" stroke-width="1.2" points="481.353,-126.818 491.076,-122.61 480.85,-119.836 481.353,-126.818"/><text fill="#000000" font-family="SimHei,sans-serif" font-size="9" text-anchor="middle" x="408.021" y="-151.7"><tspan>物品变更</tspan></text></g><g id="edge21" class="edge"><path fill="none" stroke="#000000" stroke-width="1.2" d="M 318.146 -236.765 C 354.199 -247.728 406.901 -267.388 445.268 -297.2 C 462.774 -310.802 495.251 -355.116 519.001 -389.262"/><polygon fill="#000000" stroke="#000000" stroke-width="1.2" points="516.27,-391.466 524.837,-397.7 522.027,-387.484 516.27,-391.466"/><text fill="#000000" font-family="SimHei,sans-serif" font-size="9" text-anchor="middle" x="408.021" y="-300.7"><tspan>更新数据</tspan></text></g><g id="node10" class="node"><path fill="#ffe0b2" stroke="#e65100" stroke-width="1.5" d="M 300.894 -364 C 300.894 -364 253.95 -364 253.95 -364 C 247.95 -364 241.95 -358 241.95 -352 C 241.95 -352 241.95 -308 241.95 -308 C 241.95 -302 247.95 -296 253.95 -296 C 253.95 -296 300.894 -296 300.894 -296 C 306.894 -296 312.894 -302 312.894 -308 C 312.894 -308 312.894 -352 312.894 -352 C 312.894 -358 306.894 -364 300.894 -364 Z"/><text fill="#000000" font-family="SimHei,sans-serif" font-size="10" text-anchor="middle" x="277.422" y="-351"><tspan>CardManager</tspan></text><text fill="#000000" font-family="SimHei,sans-serif" font-size="10" text-anchor="middle" x="277.422" y="-339"><tspan>(卡牌系统)</tspan></text><text fill="#000000" font-family="SimHei,sans-serif" font-size="10" text-anchor="middle" x="277.422" y="-327"><tspan>---</tspan></text><text fill="#000000" font-family="SimHei,sans-serif" font-size="10" text-anchor="middle" x="277.422" y="-315"><tspan>卡牌管理</tspan></text><text fill="#000000" font-family="SimHei,sans-serif" font-size="10" text-anchor="middle" x="277.422" y="-303"><tspan>效果执行</tspan></text></g><g id="edge27" class="edge"><path fill="none" stroke="#000000" stroke-width="1.2" stroke-dasharray="5,2" d="M 241.787 -314.669 C 198.223 -293.446 132.753 -252.081 154.069 -202.6 C 168.597 -168.875 198.208 -140.356 224.776 -119.965"/><polygon fill="#000000" stroke="#000000" stroke-width="1.2" points="226.982,-122.686 232.904,-113.901 222.796,-117.076 226.982,-122.686"/><text fill="#000000" font-family="SimHei,sans-serif" font-size="9" text-anchor="middle" x="159.57" y="-205.3"><tspan>读取配置</tspan></text></g><g id="edge22" class="edge"><path fill="none" stroke="#000000" stroke-width="1.2" d="M 313.019 -322.099 C 348.086 -316.06 402.468 -311.454 445.268 -329.2 C 475.045 -341.546 500.675 -367.187 518.877 -389.77"/><polygon fill="#000000" stroke="#000000" stroke-width="1.2" points="516.329,-392.193 525.241,-397.922 521.846,-387.886 516.329,-392.193"/><text fill="#000000" font-family="SimHei,sans-serif" font-size="9" text-anchor="middle" x="408.021" y="-332.7"><tspan>更新数据</tspan></text></g><g id="node16" class="node"><path fill="#e1bee7" stroke="#6a1b9a" stroke-width="1.5" d="M 581.672 -68 C 581.672 -68 514.169 -68 514.169 -68 C 508.169 -68 502.169 -62 502.169 -56 C 502.169 -56 502.169 -12 502.169 -12 C 502.169 -6 508.169 0 514.169 0 C 514.169 0 581.672 0 581.672 0 C 587.672 0 593.672 -6 593.672 -12 C 593.672 -12 593.672 -56 593.672 -56 C 593.672 -62 587.672 -68 581.672 -68 Z"/><text fill="#000000" font-family="SimHei,sans-serif" font-size="10" text-anchor="middle" x="547.921" y="-55"><tspan>ConfigManager</tspan></text><text fill="#000000" font-family="SimHei,sans-serif" font-size="10" text-anchor="middle" x="547.921" y="-43"><tspan>(配置表缓存)</tspan></text><text fill="#000000" font-family="SimHei,sans-serif" font-size="10" text-anchor="middle" x="547.921" y="-31"><tspan>---</tspan></text><text fill="#000000" font-family="SimHei,sans-serif" font-size="10" text-anchor="middle" x="547.921" y="-19"><tspan>DataTable加载</tspan></text><text fill="#000000" font-family="SimHei,sans-serif" font-size="10" text-anchor="middle" x="547.921" y="-7"><tspan>数据缓存</tspan></text></g><g id="edge18" class="edge"><path fill="none" stroke="#000000" stroke-width="1.2" d="M 322.002 -76.2676 C 337.429 -72.9733 354.843 -69.3365 370.773 -66.2 C 411.249 -58.2306 457.072 -49.9205 491.971 -43.7389"/><polygon fill="#000000" stroke="#000000" stroke-width="1.2" points="492.732,-47.1588 501.971,-41.9729 491.515,-40.2654 492.732,-47.1588"/><text fill="#000000" font-family="SimHei,sans-serif" font-size="9" text-anchor="middle" x="408.021" y="-69.7"><tspan>封装配置访问</tspan></text></g><g id="edge13" class="edge"><path fill="none" stroke="#000000" stroke-width="1.2" d="M 512.822 -675.97 C 461.553 -649.606 372.082 -603.481 370.773 -602 C 334.378 -560.786 357.08 -532.523 327.773 -486 C 325.649 -482.627 323.278 -479.292 320.754 -476.037"/><polygon fill="#000000" stroke="#000000" stroke-width="1.2" points="323.289,-473.611 314.219,-468.135 317.895,-478.072 323.289,-473.611"/><text fill="#000000" font-family="SimHei,sans-serif" font-size="9" text-anchor="middle" x="408.021" y="-642.7"><tspan>触发战斗</tspan></text></g><g id="edge14" class="edge"><path fill="none" stroke="#000000" stroke-width="1.2" d="M 508.798 -244.146 C 500.898 -249.494 493.44 -256.085 488.268 -264 C 420.117 -368.293 539.879 -459.943 445.268 -541 C 415.934 -566.132 371.984 -564.437 336.415 -556.956"/><polygon fill="#000000" stroke="#000000" stroke-width="1.2" points="337.153,-553.535 326.624,-554.71 335.588,-560.357 337.153,-553.535"/><text fill="#000000" font-family="SimHei,sans-serif" font-size="9" text-anchor="middle" x="408.021" y="-563.7"><tspan>通知探索恢复</tspan></text></g><g id="edge15" class="edge"><path fill="none" stroke="#000000" stroke-width="1.2" d="M 521.436 -207.898 C 501.486 -195.409 472.927 -179.896 445.268 -173.2 C 413.089 -165.409 402.792 -164.773 370.773 -173.2 C 355.707 -177.166 340.517 -184.179 326.894 -191.825"/><polygon fill="#000000" stroke="#000000" stroke-width="1.2" points="325.052,-188.847 318.184,-196.915 328.584,-194.891 325.052,-188.847"/><text fill="#000000" font-family="SimHei,sans-serif" font-size="9" text-anchor="middle" x="408.021" y="-176.7"><tspan>通知发放奖励</tspan></text></g><g id="edge16" class="edge"><path fill="none" stroke="#000000" stroke-width="1.2" d="M 494.535 -214.093 C 457.94 -208.649 409.245 -206.916 370.773 -225.2 C 343.439 -238.191 347.874 -255.375 327.773 -278 C 324.651 -281.514 321.367 -285.111 318.034 -288.693"/><polygon fill="#000000" stroke="#000000" stroke-width="1.2" points="315.469,-286.31 311.16,-295.99 320.565,-291.11 315.469,-286.31"/><text fill="#000000" font-family="SimHei,sans-serif" font-size="9" text-anchor="middle" x="408.021" y="-228.7"><tspan>通知卡牌结算</tspan></text></g><g id="edge17" class="edge"><path fill="none" stroke="#000000" stroke-width="1.2" d="M 534.601 -579.783 C 516.431 -555.854 481.919 -513.553 445.268 -485.2 C 415.676 -462.308 398.608 -471 370.773 -446 C 345.279 -423.102 349.333 -408.637 327.773 -382 C 324.985 -378.555 322.01 -375.073 318.952 -371.628"/><polygon fill="#000000" stroke="#000000" stroke-width="1.2" points="321.486,-369.214 312.165,-364.178 316.312,-373.928 321.486,-369.214"/><text fill="#000000" font-family="SimHei,sans-serif" font-size="9" text-anchor="middle" x="408.021" y="-488.7"><tspan>触发卡牌获得</tspan></text></g><g id="node18" class="node"><path fill="#e1bee7" stroke="#6a1b9a" stroke-width="1.5" d="M 577.547 -326 C 577.547 -326 518.295 -326 518.295 -326 C 512.295 -326 506.295 -320 506.295 -314 C 506.295 -314 506.295 -294 506.295 -294 C 506.295 -288 512.295 -282 518.295 -282 C 518.295 -282 577.547 -282 577.547 -282 C 583.547 -282 589.547 -288 589.547 -294 C 589.547 -294 589.547 -314 589.547 -314 C 589.547 -320 583.547 -326 577.547 -326 Z"/><text fill="#000000" font-family="SimHei,sans-serif" font-size="10" text-anchor="middle" x="547.921" y="-313"><tspan>UI数据绑定</tspan></text><text fill="#000000" font-family="SimHei,sans-serif" font-size="10" text-anchor="middle" x="547.921" y="-301"><tspan>---</tspan></text><text fill="#000000" font-family="SimHei,sans-serif" font-size="10" text-anchor="middle" x="547.921" y="-289"><tspan>数据驱动UI更新</tspan></text></g><g id="edge23" class="edge"><path fill="none" stroke="#000000" stroke-width="1.2" d="M 547.921 -397.775 C 547.921 -378.641 547.921 -354.938 547.921 -336.15"/><polygon fill="#000000" stroke="#000000" stroke-width="1.2" points="551.421,-336.004 547.921,-326.004 544.421,-336.004 551.421,-336.004"/><text fill="#000000" font-family="SimHei,sans-serif" font-size="9" text-anchor="middle" x="539.521" y="-359.3"><tspan>数据变更通知</tspan></text></g></g></svg>
