<?xml version="1.0" encoding="UTF-8" standalone="yes"?><svg xmlns="http://www.w3.org/2000/svg" xmlns:xlink="http://www.w3.org/1999/xlink" version="1.2" baseProfile="tiny" x="0" y="0" width="1381" height="995" viewBox="0 0 1381.16 995"><defs/><g id="graph0" class="graph" transform="matrix(1,0,0,1,4,991)"><polygon fill="#ffffff" stroke="rgba(0,0,0,0)" points="-4,4 -4,-991 1377.16,-991 1377.16,4 -4,4"/><g id="node1" class="node"><polygon fill="#e3f2fd" stroke="#1976d2" stroke-width="2" points="0,-610.5 0,-762.5 221.187,-762.5 221.187,-610.5 0,-610.5"/><text fill="#000000" font-family="Times,serif" font-size="10" text-anchor="middle" x="32.166" y="-683.5"><tspan>ChessEntity</tspan></text><polyline fill="none" stroke="#1976d2" stroke-width="2" points="64.332,-610.5 64.332,-762.5"/><text fill="#000000" font-family="Times,serif" font-size="10" text-anchor="middle" x="142.76" y="-749.5"><tspan>+ m_AI: ChessAI</tspan></text><text fill="#000000" font-family="Times,serif" font-size="10" text-anchor="middle" x="142.76" y="-737.5"><tspan>+ m_Combat: CombatController</tspan></text><text fill="#000000" font-family="Times,serif" font-size="10" text-anchor="middle" x="142.76" y="-725.5"><tspan>+ m_NormalAttack: IChessSkill</tspan></text><text fill="#000000" font-family="Times,serif" font-size="10" text-anchor="middle" x="142.76" y="-713.5"><tspan>+ m_Transform: Transform</tspan></text><text fill="#000000" font-family="Times,serif" font-size="10" text-anchor="middle" x="142.76" y="-701.5"><tspan>+ m_BuffManager: BuffManager</tspan></text><text fill="#000000" font-family="Times,serif" font-size="10" text-anchor="middle" x="142.76" y="-689.5"><tspan>+ m_Attributes: ChessAttributes</tspan></text><text fill="#000000" font-family="Times,serif" font-size="10" text-anchor="middle" x="142.76" y="-677.5"><tspan>---</tspan></text><text fill="#000000" font-family="Times,serif" font-size="10" text-anchor="middle" x="142.76" y="-665.5"><tspan>+ Initialize()</tspan></text><text fill="#000000" font-family="Times,serif" font-size="10" text-anchor="middle" x="142.76" y="-653.5"><tspan>+ Tick()</tspan></text><text fill="#000000" font-family="Times,serif" font-size="10" text-anchor="middle" x="142.76" y="-641.5"><tspan>+ TakeDamage(damage, isCritical)</tspan></text><text fill="#000000" font-family="Times,serif" font-size="10" text-anchor="middle" x="142.76" y="-629.5"><tspan>+ Die()</tspan></text><text fill="#000000" font-family="Times,serif" font-size="10" text-anchor="middle" x="142.76" y="-617.5"><tspan>+ GetAttribute(attrType): double</tspan></text></g><g id="node2" class="node"><polygon fill="#e3f2fd" stroke="#1976d2" stroke-width="2" points="409.171,-746.5 409.171,-862.5 606.774,-862.5 606.774,-746.5 409.171,-746.5"/><text fill="#000000" font-family="Times,serif" font-size="10" text-anchor="middle" x="434.389" y="-801.5"><tspan>ChessAI</tspan></text><polyline fill="none" stroke="#1976d2" stroke-width="2" points="459.606,-746.5 459.606,-862.5"/><text fill="#000000" font-family="Times,serif" font-size="10" text-anchor="middle" x="533.19" y="-849.5"><tspan>+ m_Entity: ChessEntity</tspan></text><text fill="#000000" font-family="Times,serif" font-size="10" text-anchor="middle" x="533.19" y="-837.5"><tspan>+ m_IsInCombat: bool</tspan></text><text fill="#000000" font-family="Times,serif" font-size="10" text-anchor="middle" x="533.19" y="-825.5"><tspan>+ m_CurrentTarget: ChessEntity</tspan></text><text fill="#000000" font-family="Times,serif" font-size="10" text-anchor="middle" x="533.19" y="-813.5"><tspan>+ m_State: AIState</tspan></text><text fill="#000000" font-family="Times,serif" font-size="10" text-anchor="middle" x="533.19" y="-801.5"><tspan>---</tspan></text><text fill="#000000" font-family="Times,serif" font-size="10" text-anchor="middle" x="533.19" y="-789.5"><tspan>+ FindTarget(): ChessEntity</tspan></text><text fill="#000000" font-family="Times,serif" font-size="10" text-anchor="middle" x="533.19" y="-777.5"><tspan>+ Attack(target)</tspan></text><text fill="#000000" font-family="Times,serif" font-size="10" text-anchor="middle" x="533.19" y="-765.5"><tspan>+ Tick()</tspan></text><text fill="#000000" font-family="Times,serif" font-size="10" text-anchor="middle" x="533.19" y="-753.5"><tspan>+ ChangeState(newState)</tspan></text></g><g id="edge1" class="edge"><path fill="none" stroke="#000000" d="M 221.286 -719.37 C 276.28 -735.7 342.545 -755.377 397.507 -771.698"/><polygon fill="#000000" stroke="#000000" points="397.553,-771.711 404.443,-769.585 409.056,-775.127 402.166,-777.254 397.553,-771.711"/><text fill="#000000" font-family="Times,serif" font-size="14" text-anchor="middle" x="293.738" y="-753.7"><tspan>持有AI</tspan></text></g><g id="node3" class="node"><polygon fill="#e3f2fd" stroke="#1976d2" stroke-width="2" points="387.499,-268.5 387.499,-360.5 628.447,-360.5 628.447,-268.5 387.499,-268.5"/><text fill="#000000" font-family="Times,serif" font-size="10" text-anchor="middle" x="431.884" y="-311.5"><tspan>CombatController</tspan></text><polyline fill="none" stroke="#1976d2" stroke-width="2" points="476.268,-268.5 476.268,-360.5"/><text fill="#000000" font-family="Times,serif" font-size="10" text-anchor="middle" x="552.357" y="-347.5"><tspan>+ m_Entity: ChessEntity</tspan></text><text fill="#000000" font-family="Times,serif" font-size="10" text-anchor="middle" x="552.357" y="-335.5"><tspan>+ m_CurrentSkill: IChessSkill</tspan></text><text fill="#000000" font-family="Times,serif" font-size="10" text-anchor="middle" x="552.357" y="-323.5"><tspan>+ m_SkillExecutor: SkillExecutor</tspan></text><text fill="#000000" font-family="Times,serif" font-size="10" text-anchor="middle" x="552.357" y="-311.5"><tspan>---</tspan></text><text fill="#000000" font-family="Times,serif" font-size="10" text-anchor="middle" x="552.357" y="-299.5"><tspan>+ OnAttackExecute(skillId)</tspan></text><text fill="#000000" font-family="Times,serif" font-size="10" text-anchor="middle" x="552.357" y="-287.5"><tspan>+ OnSkillExecute(skillId)</tspan></text><text fill="#000000" font-family="Times,serif" font-size="10" text-anchor="middle" x="552.357" y="-275.5"><tspan>+ OnSkillEnd()</tspan></text></g><g id="edge2" class="edge"><path fill="none" stroke="#000000" d="M 131.458 -610.482 C 152.941 -545.695 192.545 -454.465 257.187 -398.7 C 290.564 -369.907 334.163 -350.869 375.63 -338.318"/><polygon fill="#000000" stroke="#000000" points="375.733,-338.288 380.382,-332.776 387.258,-334.947 382.609,-340.459 375.733,-338.288"/><text fill="#000000" font-family="Times,serif" font-size="14" text-anchor="middle" x="293.738" y="-403.7"><tspan>持有战斗控制</tspan></text></g><g id="node4" class="node"><polygon fill="#e3f2fd" stroke="#1976d2" stroke-width="2" points="794.18,-783.5 794.18,-923.5 1030.1,-923.5 1030.1,-783.5 794.18,-783.5"/><text fill="#000000" font-family="Times,serif" font-size="10" text-anchor="middle" x="834.119" y="-850.5"><tspan>ChessAttributes</tspan></text><polyline fill="none" stroke="#1976d2" stroke-width="2" points="874.058,-783.5 874.058,-923.5"/><text fill="#000000" font-family="Times,serif" font-size="10" text-anchor="middle" x="952.077" y="-910.5"><tspan>+ HP: double</tspan></text><text fill="#000000" font-family="Times,serif" font-size="10" text-anchor="middle" x="952.077" y="-898.5"><tspan>+ MaxHP: double</tspan></text><text fill="#000000" font-family="Times,serif" font-size="10" text-anchor="middle" x="952.077" y="-886.5"><tspan>+ ATK: double</tspan></text><text fill="#000000" font-family="Times,serif" font-size="10" text-anchor="middle" x="952.077" y="-874.5"><tspan>+ DEF: double</tspan></text><text fill="#000000" font-family="Times,serif" font-size="10" text-anchor="middle" x="952.077" y="-862.5"><tspan>+ CritRate: float</tspan></text><text fill="#000000" font-family="Times,serif" font-size="10" text-anchor="middle" x="952.077" y="-850.5"><tspan>+ CritDamage: float</tspan></text><text fill="#000000" font-family="Times,serif" font-size="10" text-anchor="middle" x="952.077" y="-838.5"><tspan>+ Speed: float</tspan></text><text fill="#000000" font-family="Times,serif" font-size="10" text-anchor="middle" x="952.077" y="-826.5"><tspan>---</tspan></text><text fill="#000000" font-family="Times,serif" font-size="10" text-anchor="middle" x="952.077" y="-814.5"><tspan>+ GetFinalValue(attrType): double</tspan></text><text fill="#000000" font-family="Times,serif" font-size="10" text-anchor="middle" x="952.077" y="-802.5"><tspan>+ ApplyModifier(modifier)</tspan></text><text fill="#000000" font-family="Times,serif" font-size="10" text-anchor="middle" x="952.077" y="-790.5"><tspan>+ RemoveModifier(modifier)</tspan></text></g><g id="edge3" class="edge"><path fill="none" stroke="#000000" d="M 221.319 -676.086 C 331.952 -669.086 505.81 -667.397 649.658 -707.7 C 702.745 -722.574 756.768 -750.043 801.892 -777.161"/><polygon fill="#000000" stroke="#000000" points="802.023,-777.241 809.228,-776.948 812.27,-783.486 805.065,-783.779 802.023,-777.241"/><text fill="#000000" font-family="Times,serif" font-size="14" text-anchor="middle" x="507.973" y="-712.7"><tspan>持有属性</tspan></text></g><g id="node5" class="node"><polygon fill="#fff3e0" stroke="#e65100" stroke-width="2" points="808.214,-372.5 808.214,-464.5 1016.06,-464.5 1016.06,-372.5 808.214,-372.5"/><text fill="#000000" font-family="Times,serif" font-size="10" text-anchor="middle" x="839.27" y="-415.5"><tspan>IChessSkill</tspan></text><polyline fill="none" stroke="#e65100" stroke-width="2" points="870.325,-372.5 870.325,-464.5"/><text fill="#000000" font-family="Times,serif" font-size="10" text-anchor="middle" x="943.193" y="-451.5"><tspan>+ skillId: int</tspan></text><text fill="#000000" font-family="Times,serif" font-size="10" text-anchor="middle" x="943.193" y="-439.5"><tspan>+ skillConfig: SkillConfig</tspan></text><text fill="#000000" font-family="Times,serif" font-size="10" text-anchor="middle" x="943.193" y="-427.5"><tspan>---</tspan></text><text fill="#000000" font-family="Times,serif" font-size="10" text-anchor="middle" x="943.193" y="-415.5"><tspan>+ ExecuteAttack(caster, target)*</tspan></text><text fill="#000000" font-family="Times,serif" font-size="10" text-anchor="middle" x="943.193" y="-403.5"><tspan>+ CalculateDamage(caster)*</tspan></text><text fill="#000000" font-family="Times,serif" font-size="10" text-anchor="middle" x="943.193" y="-391.5"><tspan>+ GetSkillConfig()*</tspan></text><text fill="#000000" font-family="Times,serif" font-size="10" text-anchor="middle" x="943.193" y="-379.5"><tspan>+ IsAvailable()*</tspan></text></g><g id="edge5" class="edge"><path fill="none" stroke="#000000" d="M 176.219 -610.245 C 223.618 -560.785 292.126 -499.935 366.288 -468.7 C 506.335 -409.716 684.045 -404.784 797.945 -409.422"/><polygon fill="#000000" stroke="#000000" points="808.081,-409.867 797.893,-413.924 803.086,-409.648 798.091,-409.428 798.091,-409.428 798.091,-409.428 803.086,-409.648 798.288,-404.933 808.081,-409.867 808.081,-409.867"/><text fill="#000000" font-family="Times,serif" font-size="14" text-anchor="middle" x="507.973" y="-473.7"><tspan>持有普攻</tspan></text></g><g id="node15" class="node"><polygon fill="#f3e5f5" stroke="#4a148c" stroke-width="2" points="405.298,-906.5 405.298,-986.5 610.649,-986.5 610.649,-906.5 405.298,-906.5"/><text fill="#000000" font-family="Times,serif" font-size="10" text-anchor="middle" x="440.228" y="-943.5"><tspan>BuffManager</tspan></text><polyline fill="none" stroke="#4a148c" stroke-width="2" points="475.159,-906.5 475.159,-986.5"/><text fill="#000000" font-family="Times,serif" font-size="10" text-anchor="middle" x="542.904" y="-973.5"><tspan>+ m_ActiveBuffs: BaseBuff[]</tspan></text><text fill="#000000" font-family="Times,serif" font-size="10" text-anchor="middle" x="542.904" y="-961.5"><tspan>---</tspan></text><text fill="#000000" font-family="Times,serif" font-size="10" text-anchor="middle" x="542.904" y="-949.5"><tspan>+ AddBuff(buffId, caster)</tspan></text><text fill="#000000" font-family="Times,serif" font-size="10" text-anchor="middle" x="542.904" y="-937.5"><tspan>+ RemoveBuff(buffId)</tspan></text><text fill="#000000" font-family="Times,serif" font-size="10" text-anchor="middle" x="542.904" y="-925.5"><tspan>+ HasBuff(buffId): bool</tspan></text><text fill="#000000" font-family="Times,serif" font-size="10" text-anchor="middle" x="542.904" y="-913.5"><tspan>+ Tick(deltaTime)</tspan></text></g><g id="edge4" class="edge"><path fill="none" stroke="#000000" d="M 197.552 -762.514 C 245.308 -801.973 306.783 -849.178 366.288 -884.5 C 375.97 -890.247 386.282 -895.775 396.757 -901.001"/><polygon fill="#000000" stroke="#000000" points="396.924,-901.082 404.069,-900.112 407.713,-906.335 400.567,-907.305 396.924,-901.082"/><text fill="#000000" font-family="Times,serif" font-size="14" text-anchor="middle" x="293.738" y="-865.7"><tspan>持有Buff管理</tspan></text></g><g id="edge6" class="edge"><path fill="none" stroke="#000000" stroke-dasharray="5,2" d="M 409.002 -757.949 C 392.229 -745.774 376.85 -731.028 366.288 -713.5 C 317.506 -632.544 399.893 -353.643 330.288 -289.7 C 220.286 -188.646 152.676 -455.233 125.034 -600.101"/><polygon fill="#000000" stroke="#000000" points="123.113,-610.315 120.539,-599.655 124.037,-605.401 124.962,-600.487 124.962,-600.487 124.962,-600.487 124.037,-605.401 129.384,-601.319 123.113,-610.315 123.113,-610.315"/><text fill="#000000" font-family="Times,serif" font-size="14" text-anchor="middle" x="293.738" y="-294.7"><tspan>引用目标</tspan></text></g><g id="edge7" class="edge"><path fill="none" stroke="#000000" d="M 628.688 -345.563 C 682.447 -359.396 745.428 -375.602 798.352 -389.221"/><polygon fill="#000000" stroke="#000000" points="808.112,-391.732 797.306,-393.598 803.27,-390.486 798.428,-389.24 798.428,-389.24 798.428,-389.24 803.27,-390.486 799.549,-384.882 808.112,-391.732 808.112,-391.732"/><text fill="#000000" font-family="Times,serif" font-size="14" text-anchor="middle" x="719.291" y="-380.7"><tspan>执行技能</tspan></text></g><g id="node14" class="node"><polygon fill="#fff3e0" stroke="#e65100" stroke-width="2" points="1190.55,-514.5 1190.55,-618.5 1361.51,-618.5 1361.51,-514.5 1190.55,-514.5"/><text fill="#000000" font-family="Times,serif" font-size="10" text-anchor="middle" x="1221.88" y="-563.5"><tspan>SkillConfig</tspan></text><polyline fill="none" stroke="#e65100" stroke-width="2" points="1253.22,-514.5 1253.22,-618.5"/><text fill="#000000" font-family="Times,serif" font-size="10" text-anchor="middle" x="1307.36" y="-605.5"><tspan>+ skillId: int</tspan></text><text fill="#000000" font-family="Times,serif" font-size="10" text-anchor="middle" x="1307.36" y="-593.5"><tspan>+ skillName: string</tspan></text><text fill="#000000" font-family="Times,serif" font-size="10" text-anchor="middle" x="1307.36" y="-581.5"><tspan>+ baseDamage: float</tspan></text><text fill="#000000" font-family="Times,serif" font-size="10" text-anchor="middle" x="1307.36" y="-569.5"><tspan>+ damageType: int</tspan></text><text fill="#000000" font-family="Times,serif" font-size="10" text-anchor="middle" x="1307.36" y="-557.5"><tspan>+ cooldownTime: float</tspan></text><text fill="#000000" font-family="Times,serif" font-size="10" text-anchor="middle" x="1307.36" y="-545.5"><tspan>+ targetType: int</tspan></text><text fill="#000000" font-family="Times,serif" font-size="10" text-anchor="middle" x="1307.36" y="-533.5"><tspan>+ buffIds: int[]</tspan></text><text fill="#000000" font-family="Times,serif" font-size="10" text-anchor="middle" x="1307.36" y="-521.5"><tspan>+ selfBuffIds: int[]</tspan></text></g><g id="edge17" class="edge"><path fill="none" stroke="#000000" d="M 1016.18 -407.531 C 1057.26 -407.226 1103.86 -412.096 1142.89 -429.7 C 1178.85 -445.921 1210.16 -476.637 1233.36 -504.86"/><polygon fill="#000000" stroke="#000000" points="1233.42,-504.937 1240.29,-507.127 1240.91,-514.311 1234.04,-512.122 1233.42,-504.937"/><text fill="#000000" font-family="Times,serif" font-size="14" text-anchor="middle" x="1107.12" y="-434.7"><tspan>持有配置</tspan></text></g><g id="node6" class="node"><polygon fill="#fff3e0" stroke="#e65100" stroke-width="2" points="1194.04,-374.5 1194.04,-410.5 1358.01,-410.5 1358.01,-374.5 1194.04,-374.5"/><text fill="#000000" font-family="Times,serif" font-size="10" text-anchor="middle" x="1227.31" y="-389.5"><tspan>IHitDetector</tspan></text><polyline fill="none" stroke="#e65100" stroke-width="2" points="1260.57,-374.5 1260.57,-410.5"/><text fill="#000000" font-family="Times,serif" font-size="10" text-anchor="middle" x="1309.29" y="-395.5"><tspan>---</tspan></text><text fill="#000000" font-family="Times,serif" font-size="10" text-anchor="middle" x="1309.29" y="-383.5"><tspan>+ Execute(context)*</tspan></text></g><g id="node7" class="node"><polygon fill="#bbdefb" stroke="#1565c0" stroke-width="2" points="366.288,-507.5 366.288,-599.5 649.658,-599.5 649.658,-507.5 366.288,-507.5"/><text fill="#000000" font-family="Times,serif" font-size="10" text-anchor="middle" x="424.549" y="-550.5"><tspan>ChessNormalAttackBase</tspan></text><polyline fill="none" stroke="#1565c0" stroke-width="2" points="482.81,-507.5 482.81,-599.5"/><text fill="#000000" font-family="Times,serif" font-size="10" text-anchor="middle" x="566.234" y="-586.5"><tspan># m_Config: SkillConfig</tspan></text><text fill="#000000" font-family="Times,serif" font-size="10" text-anchor="middle" x="566.234" y="-574.5"><tspan># m_LastExecuteTime: float</tspan></text><text fill="#000000" font-family="Times,serif" font-size="10" text-anchor="middle" x="566.234" y="-562.5"><tspan>---</tspan></text><text fill="#000000" font-family="Times,serif" font-size="10" text-anchor="middle" x="566.234" y="-550.5"><tspan>+ ExecuteAttack(caster, target)</tspan></text><text fill="#000000" font-family="Times,serif" font-size="10" text-anchor="middle" x="566.234" y="-538.5"><tspan>+ CalculateDamage(caster, isCritical)</tspan></text><text fill="#000000" font-family="Times,serif" font-size="10" text-anchor="middle" x="566.234" y="-526.5"><tspan>+ GetSkillConfig()</tspan></text><text fill="#000000" font-family="Times,serif" font-size="10" text-anchor="middle" x="566.234" y="-514.5"><tspan>+ GetCooldownTime()</tspan></text></g><g id="edge8" class="edge"><path fill="none" stroke="#000000" d="M 645.933 -507.418 C 695.567 -490.839 750.959 -472.337 798.306 -456.522"/><polygon fill="none" stroke="#000000" points="799.597,-459.781 807.973,-453.293 797.38,-453.142 799.597,-459.781"/><text fill="#000000" font-family="Times,serif" font-size="14" text-anchor="middle" x="719.291" y="-498.7"><tspan>实现</tspan></text></g><g id="node12" class="node"><polygon fill="#f1f8e9" stroke="#558b2f" stroke-width="2" points="788.924,-508.5 788.924,-544.5 1035.35,-544.5 1035.35,-508.5 788.924,-508.5"/><text fill="#000000" font-family="Times,serif" font-size="10" text-anchor="middle" x="835.796" y="-523.5"><tspan>HitDetectorFactory</tspan></text><polyline fill="none" stroke="#558b2f" stroke-width="2" points="882.669,-508.5 882.669,-544.5"/><text fill="#000000" font-family="Times,serif" font-size="10" text-anchor="middle" x="959.01" y="-529.5"><tspan>---</tspan></text><text fill="#000000" font-family="Times,serif" font-size="10" text-anchor="middle" x="959.01" y="-517.5"><tspan>+ GetDetector(type): IHitDetector</tspan></text></g><g id="edge13" class="edge"><path fill="none" stroke="#000000" stroke-dasharray="5,2" d="M 649.898 -544.019 C 691.713 -541.225 737.31 -538.179 778.581 -535.422"/><polygon fill="#000000" stroke="#000000" points="788.697,-534.746 779.019,-539.903 783.708,-535.08 778.719,-535.413 778.719,-535.413 778.719,-535.413 783.708,-535.08 778.419,-530.923 788.697,-534.746 788.697,-534.746"/><text fill="#000000" font-family="Times,serif" font-size="14" text-anchor="middle" x="719.291" y="-546.7"><tspan>获取检测器</tspan></text></g><g id="edge14" class="edge"><path fill="none" stroke="#000000" stroke-dasharray="5,2" d="M 649.979 -567.431 C 662.038 -568.267 674.055 -568.979 685.658 -569.5 C 859.843 -577.327 1063.23 -573.427 1180.08 -569.929"/><polygon fill="#000000" stroke="#000000" points="1190.43,-569.614 1180.57,-574.417 1185.43,-569.766 1180.43,-569.919 1180.43,-569.919 1180.43,-569.919 1185.43,-569.766 1180.29,-565.421 1190.43,-569.614 1190.43,-569.614"/><text fill="#000000" font-family="Times,serif" font-size="14" text-anchor="middle" x="912.138" y="-578.7"><tspan>引用配置</tspan></text></g><g id="node8" class="node"><polygon fill="#bbdefb" stroke="#1565c0" stroke-width="2" points="811.866,-117.5 811.866,-185.5 1012.41,-185.5 1012.41,-117.5 811.866,-117.5"/><text fill="#000000" font-family="Times,serif" font-size="10" text-anchor="middle" x="853.184" y="-148.5"><tspan>HitDetectorBase</tspan></text><polyline fill="none" stroke="#1565c0" stroke-width="2" points="894.502,-117.5 894.502,-185.5"/><text fill="#000000" font-family="Times,serif" font-size="10" text-anchor="middle" x="953.456" y="-172.5"><tspan># m_Context: HitContext</tspan></text><text fill="#000000" font-family="Times,serif" font-size="10" text-anchor="middle" x="953.456" y="-160.5"><tspan>---</tspan></text><text fill="#000000" font-family="Times,serif" font-size="10" text-anchor="middle" x="953.456" y="-148.5"><tspan>+ Execute(context)</tspan></text><text fill="#000000" font-family="Times,serif" font-size="10" text-anchor="middle" x="953.456" y="-136.5"><tspan># ApplyDamage(context)</tspan></text><text fill="#000000" font-family="Times,serif" font-size="10" text-anchor="middle" x="953.456" y="-124.5"><tspan># ApplyBuffsOnHit()</tspan></text></g><g id="edge9" class="edge"><path fill="none" stroke="#000000" d="M 963.502 -185.518 C 1038.16 -234.963 1174.81 -325.466 1239.82 -368.519"/><polygon fill="none" stroke="#000000" points="1238.23,-371.666 1248.5,-374.269 1242.09,-365.829 1238.23,-371.666"/><text fill="#000000" font-family="Times,serif" font-size="14" text-anchor="middle" x="1107.12" y="-305.7"><tspan>实现</tspan></text></g><g id="node13" class="node"><polygon fill="#fce4ec" stroke="#c2185b" stroke-width="2" points="1178.89,-111.5 1178.89,-191.5 1373.16,-191.5 1373.16,-111.5 1178.89,-111.5"/><text fill="#000000" font-family="Times,serif" font-size="10" text-anchor="middle" x="1209.11" y="-148.5"><tspan>HitContext</tspan></text><polyline fill="none" stroke="#c2185b" stroke-width="2" points="1239.33,-111.5 1239.33,-191.5"/><text fill="#000000" font-family="Times,serif" font-size="10" text-anchor="middle" x="1306.25" y="-178.5"><tspan>+ Attacker: ChessEntity</tspan></text><text fill="#000000" font-family="Times,serif" font-size="10" text-anchor="middle" x="1306.25" y="-166.5"><tspan>+ LockedTarget: ChessEntity</tspan></text><text fill="#000000" font-family="Times,serif" font-size="10" text-anchor="middle" x="1306.25" y="-154.5"><tspan>+ BaseDamage: double</tspan></text><text fill="#000000" font-family="Times,serif" font-size="10" text-anchor="middle" x="1306.25" y="-142.5"><tspan>+ IsCritical: bool</tspan></text><text fill="#000000" font-family="Times,serif" font-size="10" text-anchor="middle" x="1306.25" y="-130.5"><tspan>+ SkillConfig: SkillConfig</tspan></text><text fill="#000000" font-family="Times,serif" font-size="10" text-anchor="middle" x="1306.25" y="-118.5"><tspan>+ OnHitCallback: Action</tspan></text></g><g id="edge16" class="edge"><path fill="none" stroke="#000000" d="M 1012.53 -151.5 C 1061.05 -151.5 1119.31 -151.5 1168.71 -151.5"/><polygon fill="#000000" stroke="#000000" points="1178.78,-151.5 1168.78,-156 1173.78,-151.5 1168.78,-151.5 1168.78,-151.5 1168.78,-151.5 1173.78,-151.5 1168.78,-147 1178.78,-151.5 1178.78,-151.5"/><text fill="#000000" font-family="Times,serif" font-size="14" text-anchor="middle" x="1107.12" y="-155.7"><tspan>使用上下文</tspan></text></g><g id="node9" class="node"><polygon fill="#c8e6c9" stroke="#1b5e20" stroke-width="2" points="422.935,-88.5 422.935,-124.5 593.011,-124.5 593.011,-88.5 422.935,-88.5"/><text fill="#000000" font-family="Times,serif" font-size="10" text-anchor="middle" x="461.754" y="-103.5"><tspan>InstantDetector</tspan></text><polyline fill="none" stroke="#1b5e20" stroke-width="2" points="500.573,-88.5 500.573,-124.5"/><text fill="#000000" font-family="Times,serif" font-size="10" text-anchor="middle" x="546.792" y="-109.5"><tspan>---</tspan></text><text fill="#000000" font-family="Times,serif" font-size="10" text-anchor="middle" x="546.792" y="-97.5"><tspan>+ Execute(context)</tspan></text></g><g id="edge10" class="edge"><path fill="none" stroke="#000000" d="M 593.146 -112.005 C 640.317 -115.436 699.959 -120.399 752.924 -126.7 C 768.682 -128.575 785.274 -130.836 801.557 -133.221"/><polygon fill="none" stroke="#000000" points="801.239,-136.712 811.645,-134.72 802.267,-129.788 801.239,-136.712"/><text fill="#000000" font-family="Times,serif" font-size="14" text-anchor="middle" x="719.291" y="-131.7"><tspan>继承</tspan></text></g><g id="node10" class="node"><polygon fill="#c8e6c9" stroke="#1b5e20" stroke-width="2" points="421.686,-0.5 421.686,-44.5 594.26,-44.5 594.26,-0.5 421.686,-0.5"/><text fill="#000000" font-family="Times,serif" font-size="10" text-anchor="middle" x="459.39" y="-19.5"><tspan>MeleeDetector</tspan></text><polyline fill="none" stroke="#1b5e20" stroke-width="2" points="497.094,-0.5 497.094,-44.5"/><text fill="#000000" font-family="Times,serif" font-size="10" text-anchor="middle" x="545.677" y="-31.5"><tspan>+ meleeRange: float</tspan></text><text fill="#000000" font-family="Times,serif" font-size="10" text-anchor="middle" x="545.677" y="-19.5"><tspan>---</tspan></text><text fill="#000000" font-family="Times,serif" font-size="10" text-anchor="middle" x="545.677" y="-7.5"><tspan>+ Execute(context)</tspan></text></g><g id="edge11" class="edge"><path fill="none" stroke="#000000" d="M 588.637 -44.5143 C 636.602 -57.9599 698.51 -75.9358 752.924 -93.7 C 772.143 -99.9742 792.521 -107.047 812.051 -114.037"/><polygon fill="none" stroke="#000000" points="810.967,-117.367 821.562,-117.458 813.337,-110.78 810.967,-117.367"/><text fill="#000000" font-family="Times,serif" font-size="14" text-anchor="middle" x="719.291" y="-98.7"><tspan>继承</tspan></text></g><g id="node11" class="node"><polygon fill="#c8e6c9" stroke="#1b5e20" stroke-width="2" points="405.575,-168.5 405.575,-224.5 610.37,-224.5 610.37,-168.5 405.575,-168.5"/><text fill="#000000" font-family="Times,serif" font-size="10" text-anchor="middle" x="449.947" y="-193.5"><tspan>ProjectileDetector</tspan></text><polyline fill="none" stroke="#1b5e20" stroke-width="2" points="494.32,-168.5 494.32,-224.5"/><text fill="#000000" font-family="Times,serif" font-size="10" text-anchor="middle" x="552.345" y="-211.5"><tspan>+ projectileSpeed: float</tspan></text><text fill="#000000" font-family="Times,serif" font-size="10" text-anchor="middle" x="552.345" y="-199.5"><tspan>+ projectilePrefab: string</tspan></text><text fill="#000000" font-family="Times,serif" font-size="10" text-anchor="middle" x="552.345" y="-187.5"><tspan>---</tspan></text><text fill="#000000" font-family="Times,serif" font-size="10" text-anchor="middle" x="552.345" y="-175.5"><tspan>+ Execute(context)</tspan></text></g><g id="edge12" class="edge"><path fill="none" stroke="#000000" d="M 610.483 -185.086 C 668.847 -178.588 741.983 -170.445 801.624 -163.805"/><polygon fill="none" stroke="#000000" points="802.283,-167.253 811.834,-162.668 801.509,-160.296 802.283,-167.253"/><text fill="#000000" font-family="Times,serif" font-size="14" text-anchor="middle" x="719.291" y="-181.7"><tspan>继承</tspan></text></g><g id="edge15" class="edge"><path fill="none" stroke="#000000" stroke-dasharray="5,2" d="M 981.483 -508.465 C 1027.8 -495.691 1089.74 -477.196 1142.89 -456.5 C 1173.75 -444.483 1207.36 -428.304 1233.08 -415.219"/><polygon fill="#000000" stroke="#000000" points="1242.18,-410.552 1235.34,-419.119 1237.74,-412.834 1233.29,-415.115 1233.29,-415.115 1233.29,-415.115 1237.74,-412.834 1231.23,-411.111 1242.18,-410.552 1242.18,-410.552"/><text fill="#000000" font-family="Times,serif" font-size="14" text-anchor="middle" x="1107.12" y="-485.7"><tspan>创建</tspan></text></g><g id="edge18" class="edge"><path fill="none" stroke="#000000" stroke-dasharray="5,2" d="M 610.745 -922.852 C 663.474 -910.719 728.208 -895.823 784.149 -882.951"/><polygon fill="#000000" stroke="#000000" points="794.126,-880.655 785.39,-887.283 789.254,-881.776 784.381,-882.898 784.381,-882.898 784.381,-882.898 789.254,-881.776 783.372,-878.512 794.126,-880.655 794.126,-880.655"/><text fill="#000000" font-family="Times,serif" font-size="14" text-anchor="middle" x="719.291" y="-910.7"><tspan>修改属性</tspan></text></g></g></svg>
