<?xml version="1.0" encoding="UTF-8" standalone="yes"?><svg xmlns="http://www.w3.org/2000/svg" xmlns:xlink="http://www.w3.org/1999/xlink" version="1.2" baseProfile="tiny" x="0" y="0" width="764" height="327" viewBox="0 0 764.24 326.8"><defs/><g id="graph0" class="graph" transform="matrix(1,0,0,1,4,322.8)"><polygon fill="#ffffff" stroke="rgba(0,0,0,0)" points="-4,4 -4,-322.8 760.237,-322.8 760.237,4 -4,4"/><g id="node1" class="node"><polygon fill="#fff3e0" stroke="#000000" points="441.597,-318.7 309.012,-318.7 309.012,-194.1 441.597,-194.1 441.597,-318.7"/><text fill="#000000" font-family="Times,serif" font-size="14" text-anchor="middle" x="375.305" y="-302.2"><tspan>CombatSystem</tspan></text><text fill="#000000" font-family="Times,serif" font-size="14" text-anchor="middle" x="375.305" y="-269.4"><tspan>+ 棋子系统</tspan></text><text fill="#000000" font-family="Times,serif" font-size="14" text-anchor="middle" x="375.305" y="-252.6"><tspan>+ Buff系统</tspan></text><text fill="#000000" font-family="Times,serif" font-size="14" text-anchor="middle" x="375.305" y="-235.8"><tspan>+ 技能系统</tspan></text><text fill="#000000" font-family="Times,serif" font-size="14" text-anchor="middle" x="375.305" y="-219"><tspan>+ AI系统</tspan></text><text fill="#000000" font-family="Times,serif" font-size="14" text-anchor="middle" x="375.305" y="-202.2"><tspan>+ 伤害计算系统</tspan></text></g><g id="node2" class="node"><polygon fill="#ffccbc" stroke="#000000" points="110.415,-108 0.1947,-108 0.1947,0 110.415,0 110.415,-108"/><text fill="#000000" font-family="Times,serif" font-size="14" text-anchor="middle" x="55.3046" y="-91.4"><tspan>ChessSystem</tspan></text><text fill="#000000" font-family="Times,serif" font-size="14" text-anchor="middle" x="55.3046" y="-58.6"><tspan>+ 属性管理</tspan></text><text fill="#000000" font-family="Times,serif" font-size="14" text-anchor="middle" x="55.3046" y="-41.8"><tspan>+ 状态管理</tspan></text><text fill="#000000" font-family="Times,serif" font-size="14" text-anchor="middle" x="55.3046" y="-25"><tspan>+ 装备系统</tspan></text><text fill="#000000" font-family="Times,serif" font-size="14" text-anchor="middle" x="55.3046" y="-8.2"><tspan>+ 生命值继承</tspan></text></g><g id="edge1" class="edge"><path fill="none" stroke="#000000" d="M 309 -214.463 C 253.307 -179.237 174.229 -129.219 119.218 -94.4255"/><polygon fill="#000000" stroke="#000000" points="120.926,-91.3641 110.603,-88.9766 117.184,-97.2801 120.926,-91.3641"/></g><g id="node3" class="node"><polygon fill="#ffccbc" stroke="#000000" points="262.802,-108 175.808,-108 175.808,0 262.802,0 262.802,-108"/><text fill="#000000" font-family="Times,serif" font-size="14" text-anchor="middle" x="219.305" y="-91.4"><tspan>BuffSystem</tspan></text><text fill="#000000" font-family="Times,serif" font-size="14" text-anchor="middle" x="219.305" y="-58.6"><tspan>+ Buff应用</tspan></text><text fill="#000000" font-family="Times,serif" font-size="14" text-anchor="middle" x="219.305" y="-41.8"><tspan>+ Buff移除</tspan></text><text fill="#000000" font-family="Times,serif" font-size="14" text-anchor="middle" x="219.305" y="-25"><tspan>+ Buff叠加</tspan></text><text fill="#000000" font-family="Times,serif" font-size="14" text-anchor="middle" x="219.305" y="-8.2"><tspan>+ 条件判定</tspan></text></g><g id="edge2" class="edge"><path fill="none" stroke="#000000" d="M 327.226 -194.022 C 308.245 -169.394 286.476 -141.15 267.484 -116.51"/><polygon fill="#000000" stroke="#000000" points="270.035,-114.086 261.158,-108.302 264.49,-118.359 270.035,-114.086"/></g><g id="node4" class="node"><polygon fill="#ffccbc" stroke="#000000" points="422.466,-108 328.144,-108 328.144,0 422.466,0 422.466,-108"/><text fill="#000000" font-family="Times,serif" font-size="14" text-anchor="middle" x="375.305" y="-91.4"><tspan>SkillSystem</tspan></text><text fill="#000000" font-family="Times,serif" font-size="14" text-anchor="middle" x="375.305" y="-58.6"><tspan>+ 技能选择</tspan></text><text fill="#000000" font-family="Times,serif" font-size="14" text-anchor="middle" x="375.305" y="-41.8"><tspan>+ 技能执行</tspan></text><text fill="#000000" font-family="Times,serif" font-size="14" text-anchor="middle" x="375.305" y="-25"><tspan>+ 冷却管理</tspan></text><text fill="#000000" font-family="Times,serif" font-size="14" text-anchor="middle" x="375.305" y="-8.2"><tspan>+ 效果链</tspan></text></g><g id="edge3" class="edge"><path fill="none" stroke="#000000" d="M 375.305 -194.022 C 375.305 -170.036 375.305 -142.622 375.305 -118.445"/><polygon fill="#000000" stroke="#000000" points="378.805,-118.302 375.305,-108.302 371.805,-118.302 378.805,-118.302"/></g><g id="node5" class="node"><polygon fill="#ffccbc" stroke="#000000" points="587.035,-108 487.574,-108 487.574,0 587.035,0 587.035,-108"/><text fill="#000000" font-family="Times,serif" font-size="14" text-anchor="middle" x="537.305" y="-91.4"><tspan>AISystem</tspan></text><text fill="#000000" font-family="Times,serif" font-size="14" text-anchor="middle" x="537.305" y="-58.6"><tspan>+ 决策算法</tspan></text><text fill="#000000" font-family="Times,serif" font-size="14" text-anchor="middle" x="537.305" y="-41.8"><tspan>+ 评估函数</tspan></text><text fill="#000000" font-family="Times,serif" font-size="14" text-anchor="middle" x="537.305" y="-25"><tspan>+ 难度调整</tspan></text><text fill="#000000" font-family="Times,serif" font-size="14" text-anchor="middle" x="537.305" y="-8.2"><tspan>+ 目标选择</tspan></text></g><g id="edge4" class="edge"><path fill="none" stroke="#000000" d="M 425.232 -194.022 C 445.03 -169.287 467.746 -140.905 487.529 -116.189"/><polygon fill="#000000" stroke="#000000" points="490.325,-118.296 493.842,-108.302 484.86,-113.922 490.325,-118.296"/></g><g id="node6" class="node"><polygon fill="#ffccbc" stroke="#000000" points="756.169,-108 652.441,-108 652.441,0 756.169,0 756.169,-108"/><text fill="#000000" font-family="Times,serif" font-size="14" text-anchor="middle" x="704.305" y="-91.4"><tspan>DamageSystem</tspan></text><text fill="#000000" font-family="Times,serif" font-size="14" text-anchor="middle" x="704.305" y="-58.6"><tspan>+ 伤害计算</tspan></text><text fill="#000000" font-family="Times,serif" font-size="14" text-anchor="middle" x="704.305" y="-41.8"><tspan>+ 命中判定</tspan></text><text fill="#000000" font-family="Times,serif" font-size="14" text-anchor="middle" x="704.305" y="-25"><tspan>+ 暴击判定</tspan></text><text fill="#000000" font-family="Times,serif" font-size="14" text-anchor="middle" x="704.305" y="-8.2"><tspan>+ 伤害应用</tspan></text></g><g id="edge5" class="edge"><path fill="none" stroke="#000000" d="M 441.798 -216.438 C 490.978 -186.765 559.512 -145.171 619.305 -108 C 627.239 -103.067 635.564 -97.8414 643.772 -92.659"/><polygon fill="#000000" stroke="#000000" points="645.682,-95.5926 652.262,-87.2885 641.939,-89.6769 645.682,-95.5926"/></g></g></svg>
