<?xml version="1.0" encoding="UTF-8" ?>
<svg xmlns="http://www.w3.org/2000/svg" xmlns:xlink="http://www.w3.org/1999/xlink" width="730pt" height="491pt" viewBox="0.00 0.00 730.00 490.80">
<g id="graph0" class="graph" transform="scale(1 1) rotate(0) translate(4 486.8)">
<title>LayeredArchitecture</title>
<polygon fill="#ffffff" stroke="transparent" points="-4,4 -4,-486.8 726,-486.8 726,4 -4,4"/>
<g id="clust1" class="cluster">
<title>cluster_UI</title>
<polygon fill="#f5f5f5" stroke="#000000" points="118,-398 118,-474.8 714,-474.8 714,-398 118,-398"/>
<text text-anchor="middle" x="416" y="-458.2" font-family="Times,serif" font-size="14.00" fill="#000000">表现层 (Presentation Layer)</text>
</g>
<g id="clust2" class="cluster">
<title>cluster_Business</title>
<polygon fill="#f5f5f5" stroke="#000000" points="8,-268 8,-344.8 504,-344.8 504,-268 8,-268"/>
<text text-anchor="middle" x="256" y="-328.2" font-family="Times,serif" font-size="14.00" fill="#000000">业务逻辑层 (Business Logic Layer)</text>
</g>
<g id="clust3" class="cluster">
<title>cluster_Core</title>
<polygon fill="#f5f5f5" stroke="#000000" points="104,-138 104,-214.8 608,-214.8 608,-138 104,-138"/>
<text text-anchor="middle" x="356" y="-198.2" font-family="Times,serif" font-size="14.00" fill="#000000">核心系统层 (Core System Layer)</text>
</g>
<g id="clust4" class="cluster">
<title>cluster_Framework</title>
<polygon fill="#f5f5f5" stroke="#000000" points="141,-8 141,-84.8 426,-84.8 426,-8 141,-8"/>
<text text-anchor="middle" x="283.5" y="-68.2" font-family="Times,serif" font-size="14.00" fill="#000000">基础框架层 (Framework Layer)</text>
</g>
<!-- A1 -->
<g id="node1" class="node">
<title>A1</title>
<path fill="#e1f5ff" stroke="#000000" d="M486,-442C486,-442 456,-442 456,-442 450,-442 444,-436 444,-430 444,-430 444,-418 444,-418 444,-412 450,-406 456,-406 456,-406 486,-406 486,-406 492,-406 498,-412 498,-418 498,-418 498,-430 498,-430 498,-436 492,-442 486,-442"/>
<text text-anchor="middle" x="471" y="-421.3" font-family="微软雅黑" font-size="9.00" fill="#000000">战斗UI</text>
</g>
<!-- B1 -->
<g id="node7" class="node">
<title>B1</title>
<path fill="#fff3e0" stroke="#000000" d="M276,-312C276,-312 246,-312 246,-312 240,-312 234,-306 234,-300 234,-300 234,-288 234,-288 234,-282 240,-276 246,-276 246,-276 276,-276 276,-276 282,-276 288,-282 288,-288 288,-288 288,-300 288,-300 288,-306 282,-312 276,-312"/>
<text text-anchor="middle" x="261" y="-296.7" font-family="微软雅黑" font-size="9.00" fill="#000000">战斗系统</text>
<text text-anchor="middle" x="261" y="-285.9" font-family="微软雅黑" font-size="9.00" fill="#000000">Combat</text>
</g>
<!-- A1&#45;&gt;B1 -->
<g id="edge1" class="edge">
<title>A1-&gt;B1</title>
<path fill="none" stroke="#000000" stroke-width="1.2" d="M443.9923,-410.4944C399.0524,-388.0172 313.736,-345.3245 313,-344.8 302.8251,-337.5484 292.7432,-328.3083 284.204,-319.7021"/>
<polygon fill="#000000" stroke="#000000" stroke-width="1.2" points="286.5938,-317.1381 277.1334,-312.3682 281.5544,-321.9966 286.5938,-317.1381"/>
</g>
<!-- C3 -->
<g id="node14" class="node">
<title>C3</title>
<path fill="#f3e5f5" stroke="#000000" d="M588,-182C588,-182 558,-182 558,-182 552,-182 546,-176 546,-170 546,-170 546,-158 546,-158 546,-152 552,-146 558,-146 558,-146 588,-146 588,-146 594,-146 600,-152 600,-158 600,-158 600,-170 600,-170 600,-176 594,-182 588,-182"/>
<text text-anchor="middle" x="573" y="-166.7" font-family="微软雅黑" font-size="9.00" fill="#000000">UI系统</text>
<text text-anchor="middle" x="573" y="-155.9" font-family="微软雅黑" font-size="9.00" fill="#000000">UI</text>
</g>
<!-- A1&#45;&gt;C3 -->
<g id="edge15" class="edge">
<title>A1-&gt;C3</title>
<path fill="none" stroke="#000000" stroke-width="1.2" d="M482.8811,-405.6936C492.7011,-389.9994 506.5215,-366.5457 516,-344.8 538.8012,-292.4892 556.8633,-228.1015 566.1465,-191.9915"/>
<polygon fill="#000000" stroke="#000000" stroke-width="1.2" points="569.5733,-192.7167 568.6351,-182.1635 562.7874,-190.9984 569.5733,-192.7167"/>
</g>
<!-- A2 -->
<g id="node2" class="node">
<title>A2</title>
<path fill="#e1f5ff" stroke="#000000" d="M590,-442C590,-442 560,-442 560,-442 554,-442 548,-436 548,-430 548,-430 548,-418 548,-418 548,-412 554,-406 560,-406 560,-406 590,-406 590,-406 596,-406 602,-412 602,-418 602,-418 602,-430 602,-430 602,-436 596,-442 590,-442"/>
<text text-anchor="middle" x="575" y="-421.3" font-family="微软雅黑" font-size="9.00" fill="#000000">背包UI</text>
</g>
<!-- B2 -->
<g id="node8" class="node">
<title>B2</title>
<path fill="#fff3e0" stroke="#000000" d="M380,-312C380,-312 350,-312 350,-312 344,-312 338,-306 338,-300 338,-300 338,-288 338,-288 338,-282 344,-276 350,-276 350,-276 380,-276 380,-276 386,-276 392,-282 392,-288 392,-288 392,-300 392,-300 392,-306 386,-312 380,-312"/>
<text text-anchor="middle" x="365" y="-296.7" font-family="微软雅黑" font-size="9.00" fill="#000000">物品系统</text>
<text text-anchor="middle" x="365" y="-285.9" font-family="微软雅黑" font-size="9.00" fill="#000000">Item</text>
</g>
<!-- A2&#45;&gt;B2 -->
<g id="edge2" class="edge">
<title>A2-&gt;B2</title>
<path fill="none" stroke="#000000" stroke-width="1.2" d="M547.9923,-410.4944C503.0524,-388.0172 417.736,-345.3245 417,-344.8 406.8251,-337.5484 396.7432,-328.3083 388.204,-319.7021"/>
<polygon fill="#000000" stroke="#000000" stroke-width="1.2" points="390.5938,-317.1381 381.1334,-312.3682 385.5544,-321.9966 390.5938,-317.1381"/>
</g>
<!-- A2&#45;&gt;C3 -->
<g id="edge16" class="edge">
<title>A2-&gt;C3</title>
<path fill="none" stroke="#000000" stroke-width="1.2" d="M585.637,-405.8567C594.1265,-390.262 605.3423,-366.8629 610,-344.8 617.0505,-311.4028 615.8051,-301.6361 610,-268 605.3784,-241.2217 594.525,-212.201 585.7612,-191.6376"/>
<polygon fill="#000000" stroke="#000000" stroke-width="1.2" points="588.8776,-190.0283 581.6633,-182.2691 582.4643,-192.8336 588.8776,-190.0283"/>
</g>
<!-- A3 -->
<g id="node3" class="node">
<title>A3</title>
<path fill="#e1f5ff" stroke="#000000" d="M694,-442C694,-442 664,-442 664,-442 658,-442 652,-436 652,-430 652,-430 652,-418 652,-418 652,-412 658,-406 664,-406 664,-406 694,-406 694,-406 700,-406 706,-412 706,-418 706,-418 706,-430 706,-430 706,-436 700,-442 694,-442"/>
<text text-anchor="middle" x="679" y="-421.3" font-family="微软雅黑" font-size="9.00" fill="#000000">卡牌UI</text>
</g>
<!-- B3 -->
<g id="node9" class="node">
<title>B3</title>
<path fill="#fff3e0" stroke="#000000" d="M484,-312C484,-312 454,-312 454,-312 448,-312 442,-306 442,-300 442,-300 442,-288 442,-288 442,-282 448,-276 454,-276 454,-276 484,-276 484,-276 490,-276 496,-282 496,-288 496,-288 496,-300 496,-300 496,-306 490,-312 484,-312"/>
<text text-anchor="middle" x="469" y="-296.7" font-family="微软雅黑" font-size="9.00" fill="#000000">卡牌系统</text>
<text text-anchor="middle" x="469" y="-285.9" font-family="微软雅黑" font-size="9.00" fill="#000000">Card</text>
</g>
<!-- A3&#45;&gt;B3 -->
<g id="edge3" class="edge">
<title>A3-&gt;B3</title>
<path fill="none" stroke="#000000" stroke-width="1.2" d="M651.9761,-407.2709C614.513,-384.0795 546.7104,-342.1064 504.9924,-316.281"/>
<polygon fill="#000000" stroke="#000000" stroke-width="1.2" points="506.5977,-313.1585 496.2528,-310.8708 502.9132,-319.1103 506.5977,-313.1585"/>
</g>
<!-- A3&#45;&gt;C3 -->
<g id="edge17" class="edge">
<title>A3-&gt;C3</title>
<path fill="none" stroke="#000000" stroke-width="1.2" d="M678.268,-405.925C676.4926,-376.0435 670.4502,-314.98 650,-268 637.2332,-238.6709 614.8486,-209.7952 597.494,-189.9412"/>
<polygon fill="#000000" stroke="#000000" stroke-width="1.2" points="599.9166,-187.3993 590.6455,-182.271 594.695,-192.0615 599.9166,-187.3993"/>
</g>
<!-- A4 -->
<g id="node4" class="node">
<title>A4</title>
<path fill="#e1f5ff" stroke="#000000" d="M382,-442C382,-442 352,-442 352,-442 346,-442 340,-436 340,-430 340,-430 340,-418 340,-418 340,-412 346,-406 352,-406 352,-406 382,-406 382,-406 388,-406 394,-412 394,-418 394,-418 394,-430 394,-430 394,-436 388,-442 382,-442"/>
<text text-anchor="middle" x="367" y="-421.3" font-family="微软雅黑" font-size="9.00" fill="#000000">粒子特效</text>
</g>
<!-- A4&#45;&gt;B1 -->
<g id="edge4" class="edge">
<title>A4-&gt;B1</title>
<path fill="none" stroke="#000000" stroke-width="1.2" d="M352.2612,-405.9241C334.0899,-383.6386 303.0703,-345.5957 282.307,-320.1313"/>
<polygon fill="#000000" stroke="#000000" stroke-width="1.2" points="284.9874,-317.8799 275.9554,-312.3415 279.5622,-322.3035 284.9874,-317.8799"/>
</g>
<!-- A5 -->
<g id="node5" class="node">
<title>A5</title>
<path fill="#e1f5ff" stroke="#000000" d="M278.4983,-442C278.4983,-442 243.5017,-442 243.5017,-442 237.5017,-442 231.5017,-436 231.5017,-430 231.5017,-430 231.5017,-418 231.5017,-418 231.5017,-412 237.5017,-406 243.5017,-406 243.5017,-406 278.4983,-406 278.4983,-406 284.4983,-406 290.4983,-412 290.4983,-418 290.4983,-418 290.4983,-430 290.4983,-430 290.4983,-436 284.4983,-442 278.4983,-442"/>
<text text-anchor="middle" x="261" y="-421.3" font-family="微软雅黑" font-size="9.00" fill="#000000">角色动画</text>
</g>
<!-- A5&#45;&gt;B1 -->
<g id="edge5" class="edge">
<title>A5-&gt;B1</title>
<path fill="none" stroke="#000000" stroke-width="1.2" d="M261,-405.9241C261,-384.3139 261,-347.8868 261,-322.4801"/>
<polygon fill="#000000" stroke="#000000" stroke-width="1.2" points="264.5001,-322.3415 261,-312.3415 257.5001,-322.3415 264.5001,-322.3415"/>
</g>
<!-- A6 -->
<g id="node6" class="node">
<title>A6</title>
<path fill="#e1f5ff" stroke="#000000" d="M170.2476,-442C170.2476,-442 137.7524,-442 137.7524,-442 131.7524,-442 125.7524,-436 125.7524,-430 125.7524,-430 125.7524,-418 125.7524,-418 125.7524,-412 131.7524,-406 137.7524,-406 137.7524,-406 170.2476,-406 170.2476,-406 176.2476,-406 182.2476,-412 182.2476,-418 182.2476,-418 182.2476,-430 182.2476,-430 182.2476,-436 176.2476,-442 170.2476,-442"/>
<text text-anchor="middle" x="154" y="-421.3" font-family="微软雅黑" font-size="9.00" fill="#000000">音效系统</text>
</g>
<!-- B4 -->
<g id="node10" class="node">
<title>B4</title>
<path fill="#fff3e0" stroke="#000000" d="M172.2506,-312C172.2506,-312 141.7494,-312 141.7494,-312 135.7494,-312 129.7494,-306 129.7494,-300 129.7494,-300 129.7494,-288 129.7494,-288 129.7494,-282 135.7494,-276 141.7494,-276 141.7494,-276 172.2506,-276 172.2506,-276 178.2506,-276 184.2506,-282 184.2506,-288 184.2506,-288 184.2506,-300 184.2506,-300 184.2506,-306 178.2506,-312 172.2506,-312"/>
<text text-anchor="middle" x="157" y="-296.7" font-family="微软雅黑" font-size="9.00" fill="#000000">探索系统</text>
<text text-anchor="middle" x="157" y="-285.9" font-family="微软雅黑" font-size="9.00" fill="#000000">Explore</text>
</g>
<!-- A6&#45;&gt;B4 -->
<g id="edge6" class="edge">
<title>A6-&gt;B4</title>
<path fill="none" stroke="#000000" stroke-width="1.2" d="M154.4171,-405.9241C154.9158,-384.3139 155.7565,-347.8868 156.3428,-322.4801"/>
<polygon fill="#000000" stroke="#000000" stroke-width="1.2" points="159.845,-322.4196 156.5767,-312.3415 152.8469,-322.2581 159.845,-322.4196"/>
</g>
<!-- C1 -->
<g id="node12" class="node">
<title>C1</title>
<path fill="#f3e5f5" stroke="#000000" d="M379.5728,-182C379.5728,-182 348.4272,-182 348.4272,-182 342.4272,-182 336.4272,-176 336.4272,-170 336.4272,-170 336.4272,-158 336.4272,-158 336.4272,-152 342.4272,-146 348.4272,-146 348.4272,-146 379.5728,-146 379.5728,-146 385.5728,-146 391.5728,-152 391.5728,-158 391.5728,-158 391.5728,-170 391.5728,-170 391.5728,-176 385.5728,-182 379.5728,-182"/>
<text text-anchor="middle" x="364" y="-166.7" font-family="微软雅黑" font-size="9.00" fill="#000000">事件系统</text>
<text text-anchor="middle" x="364" y="-155.9" font-family="微软雅黑" font-size="9.00" fill="#000000">Event</text>
</g>
<!-- B1&#45;&gt;C1 -->
<g id="edge7" class="edge">
<title>B1-&gt;C1</title>
<path fill="none" stroke="#000000" stroke-width="1.2" d="M275.3217,-275.9241C292.9022,-253.735 322.8596,-215.9247 343.0334,-190.4627"/>
<polygon fill="#000000" stroke="#000000" stroke-width="1.2" points="346.001,-192.3531 349.4679,-182.3415 340.5144,-188.006 346.001,-192.3531"/>
</g>
<!-- C2 -->
<g id="node13" class="node">
<title>C2</title>
<path fill="#f3e5f5" stroke="#000000" d="M274.7536,-182C274.7536,-182 239.2464,-182 239.2464,-182 233.2464,-182 227.2464,-176 227.2464,-170 227.2464,-170 227.2464,-158 227.2464,-158 227.2464,-152 233.2464,-146 239.2464,-146 239.2464,-146 274.7536,-146 274.7536,-146 280.7536,-146 286.7536,-152 286.7536,-158 286.7536,-158 286.7536,-170 286.7536,-170 286.7536,-176 280.7536,-182 274.7536,-182"/>
<text text-anchor="middle" x="257" y="-166.7" font-family="微软雅黑" font-size="9.00" fill="#000000">实体系统</text>
<text text-anchor="middle" x="257" y="-155.9" font-family="微软雅黑" font-size="9.00" fill="#000000">Entity</text>
</g>
<!-- B1&#45;&gt;C2 -->
<g id="edge12" class="edge">
<title>B1-&gt;C2</title>
<path fill="none" stroke="#000000" stroke-width="1.2" d="M260.4438,-275.9241C259.7789,-254.3139 258.6581,-217.8868 257.8763,-192.4801"/>
<polygon fill="#000000" stroke="#000000" stroke-width="1.2" points="261.3703,-192.2291 257.5644,-182.3415 254.3737,-192.4445 261.3703,-192.2291"/>
</g>
<!-- C4 -->
<g id="node15" class="node">
<title>C4</title>
<path fill="#f3e5f5" stroke="#000000" d="M165.9992,-182C165.9992,-182 124.0008,-182 124.0008,-182 118.0008,-182 112.0008,-176 112.0008,-170 112.0008,-170 112.0008,-158 112.0008,-158 112.0008,-152 118.0008,-146 124.0008,-146 124.0008,-146 165.9992,-146 165.9992,-146 171.9992,-146 177.9992,-152 177.9992,-158 177.9992,-158 177.9992,-170 177.9992,-170 177.9992,-176 171.9992,-182 165.9992,-182"/>
<text text-anchor="middle" x="145" y="-166.7" font-family="微软雅黑" font-size="9.00" fill="#000000">数据表系统</text>
<text text-anchor="middle" x="145" y="-155.9" font-family="微软雅黑" font-size="9.00" fill="#000000">DataTable</text>
</g>
<!-- B1&#45;&gt;C4 -->
<g id="edge18" class="edge">
<title>B1-&gt;C4</title>
<path fill="none" stroke="#000000" stroke-width="1.2" d="M244.8707,-275.9241C224.9852,-253.6386 191.0392,-215.5957 168.3171,-190.1313"/>
<polygon fill="#000000" stroke="#000000" stroke-width="1.2" points="170.6357,-187.4727 161.3663,-182.3415 165.4127,-192.1332 170.6357,-187.4727"/>
</g>
<!-- C5 -->
<g id="node16" class="node">
<title>C5</title>
<path fill="#f3e5f5" stroke="#000000" d="M484.2438,-182C484.2438,-182 453.7562,-182 453.7562,-182 447.7562,-182 441.7562,-176 441.7562,-170 441.7562,-170 441.7562,-158 441.7562,-158 441.7562,-152 447.7562,-146 453.7562,-146 453.7562,-146 484.2438,-146 484.2438,-146 490.2438,-146 496.2438,-152 496.2438,-158 496.2438,-158 496.2438,-170 496.2438,-170 496.2438,-176 490.2438,-182 484.2438,-182"/>
<text text-anchor="middle" x="469" y="-166.7" font-family="微软雅黑" font-size="9.00" fill="#000000">资源系统</text>
<text text-anchor="middle" x="469" y="-155.9" font-family="微软雅黑" font-size="9.00" fill="#000000">Resource</text>
</g>
<!-- B1&#45;&gt;C5 -->
<g id="edge22" class="edge">
<title>B1-&gt;C5</title>
<path fill="none" stroke="#000000" stroke-width="1.2" d="M288.2608,-280.2913C332.2053,-258.1745 414.1144,-216.8677 417,-214.8 427.1563,-207.5224 437.234,-198.2764 445.775,-189.6727"/>
<polygon fill="#000000" stroke="#000000" stroke-width="1.2" points="448.4229,-191.9692 452.8485,-182.3429 443.3858,-187.1082 448.4229,-191.9692"/>
</g>
<!-- B2&#45;&gt;C1 -->
<g id="edge8" class="edge">
<title>B2-&gt;C1</title>
<path fill="none" stroke="#000000" stroke-width="1.2" d="M364.861,-275.9241C364.6947,-254.3139 364.4145,-217.8868 364.2191,-192.4801"/>
<polygon fill="#000000" stroke="#000000" stroke-width="1.2" points="367.718,-192.3143 364.1411,-182.3415 360.7182,-192.3682 367.718,-192.3143"/>
</g>
<!-- B2&#45;&gt;C2 -->
<g id="edge13" class="edge">
<title>B2-&gt;C2</title>
<path fill="none" stroke="#000000" stroke-width="1.2" d="M349.9831,-275.9241C331.469,-253.6386 299.8641,-215.5957 278.7091,-190.1313"/>
<polygon fill="#000000" stroke="#000000" stroke-width="1.2" points="281.32,-187.7969 272.2376,-182.3415 275.9356,-192.27 281.32,-187.7969"/>
</g>
<!-- B2&#45;&gt;C4 -->
<g id="edge19" class="edge">
<title>B2-&gt;C4</title>
<path fill="none" stroke="#000000" stroke-width="1.2" d="M337.785,-280.2853C329.8112,-276.2961 321.068,-271.9501 313,-268 263.866,-243.9441 247.5359,-245.1203 202,-214.8 190.9666,-207.4533 179.8555,-198.0948 170.411,-189.4171"/>
<polygon fill="#000000" stroke="#000000" stroke-width="1.2" points="172.5862,-186.6578 162.9079,-182.3472 167.7857,-191.7524 172.5862,-186.6578"/>
</g>
<!-- B2&#45;&gt;C5 -->
<g id="edge23" class="edge">
<title>B2-&gt;C5</title>
<path fill="none" stroke="#000000" stroke-width="1.2" d="M379.4608,-275.9241C397.212,-253.735 427.4602,-215.9247 447.8299,-190.4627"/>
<polygon fill="#000000" stroke="#000000" stroke-width="1.2" points="450.8129,-192.3367 454.3268,-182.3415 445.3468,-187.9638 450.8129,-192.3367"/>
</g>
<!-- B3&#45;&gt;C1 -->
<g id="edge9" class="edge">
<title>B3-&gt;C1</title>
<path fill="none" stroke="#000000" stroke-width="1.2" d="M454.4002,-275.9241C436.4004,-253.6386 405.6734,-215.5957 385.106,-190.1313"/>
<polygon fill="#000000" stroke="#000000" stroke-width="1.2" points="387.8205,-187.9218 378.8143,-182.3415 382.3749,-192.3201 387.8205,-187.9218"/>
</g>
<!-- B3&#45;&gt;C5 -->
<g id="edge24" class="edge">
<title>B3-&gt;C5</title>
<path fill="none" stroke="#000000" stroke-width="1.2" d="M469,-275.9241C469,-254.3139 469,-217.8868 469,-192.4801"/>
<polygon fill="#000000" stroke="#000000" stroke-width="1.2" points="472.5001,-192.3415 469,-182.3415 465.5001,-192.3415 472.5001,-192.3415"/>
</g>
<!-- B4&#45;&gt;C1 -->
<g id="edge10" class="edge">
<title>B4-&gt;C1</title>
<path fill="none" stroke="#000000" stroke-width="1.2" d="M184.1496,-280.3931C227.0562,-258.8512 306.2942,-218.8998 312,-214.8 322.1468,-207.5092 332.2224,-198.2602 340.7643,-189.6578"/>
<polygon fill="#000000" stroke="#000000" stroke-width="1.2" points="343.4113,-191.9553 347.8393,-182.3301 338.3754,-187.0931 343.4113,-191.9553"/>
</g>
<!-- B4&#45;&gt;C2 -->
<g id="edge14" class="edge">
<title>B4-&gt;C2</title>
<path fill="none" stroke="#000000" stroke-width="1.2" d="M170.9046,-275.9241C187.973,-253.735 217.0579,-215.9247 236.6441,-190.4627"/>
<polygon fill="#000000" stroke="#000000" stroke-width="1.2" points="239.5682,-192.4018 242.8911,-182.3415 234.0198,-188.1338 239.5682,-192.4018"/>
</g>
<!-- B4&#45;&gt;C4 -->
<g id="edge20" class="edge">
<title>B4-&gt;C4</title>
<path fill="none" stroke="#000000" stroke-width="1.2" d="M155.3315,-275.9241C153.3367,-254.3139 149.9742,-217.8868 147.6289,-192.4801"/>
<polygon fill="#000000" stroke="#000000" stroke-width="1.2" points="151.0975,-191.9774 146.6931,-182.3415 144.1271,-192.6209 151.0975,-191.9774"/>
</g>
<!-- B4&#45;&gt;C5 -->
<g id="edge25" class="edge">
<title>B4-&gt;C5</title>
<path fill="none" stroke="#000000" stroke-width="1.2" d="M184.3082,-278.9799C192.1315,-275.0548 200.7725,-271.0689 209,-268 298.4032,-234.6518 333.8187,-261.5538 417,-214.8 428.3458,-208.4229 438.9889,-198.9401 447.6543,-189.8886"/>
<polygon fill="#000000" stroke="#000000" stroke-width="1.2" points="450.277,-192.207 454.4402,-182.4644 445.1101,-187.4843 450.277,-192.207"/>
</g>
<!-- B5 -->
<g id="node11" class="node">
<title>B5</title>
<path fill="#fff3e0" stroke="#000000" d="M67.5022,-312C67.5022,-312 28.4978,-312 28.4978,-312 22.4978,-312 16.4978,-306 16.4978,-300 16.4978,-300 16.4978,-288 16.4978,-288 16.4978,-282 22.4978,-276 28.4978,-276 28.4978,-276 67.5022,-276 67.5022,-276 73.5022,-276 79.5022,-282 79.5022,-288 79.5022,-288 79.5022,-300 79.5022,-300 79.5022,-306 73.5022,-312 67.5022,-312"/>
<text text-anchor="middle" x="48" y="-296.7" font-family="微软雅黑" font-size="9.00" fill="#000000">配置系统</text>
<text text-anchor="middle" x="48" y="-285.9" font-family="微软雅黑" font-size="9.00" fill="#000000">Config</text>
</g>
<!-- B5&#45;&gt;C1 -->
<g id="edge11" class="edge">
<title>B5-&gt;C1</title>
<path fill="none" stroke="#000000" stroke-width="1.2" d="M79.5476,-278.4132C87.7207,-274.708 96.5909,-270.9723 105,-268 194.5598,-236.3441 229.221,-261.3908 312,-214.8 323.3421,-208.4163 333.9845,-198.9322 342.6504,-189.8815"/>
<polygon fill="#000000" stroke="#000000" stroke-width="1.2" points="345.2725,-192.2006 349.4368,-182.4584 340.1061,-187.4773 345.2725,-192.2006"/>
</g>
<!-- B5&#45;&gt;C4 -->
<g id="edge21" class="edge">
<title>B5-&gt;C4</title>
<path fill="none" stroke="#000000" stroke-width="1.2" d="M61.4874,-275.9241C78.0439,-253.735 106.2562,-215.9247 125.2548,-190.4627"/>
<polygon fill="#000000" stroke="#000000" stroke-width="1.2" points="128.1393,-192.4494 131.3144,-182.3415 122.5289,-188.2632 128.1393,-192.4494"/>
</g>
<!-- D1 -->
<g id="node17" class="node">
<title>D1</title>
<path fill="#e8f5e9" stroke="#000000" d="M406.4905,-52C406.4905,-52 321.5095,-52 321.5095,-52 315.5095,-52 309.5095,-46 309.5095,-40 309.5095,-40 309.5095,-28 309.5095,-28 309.5095,-22 315.5095,-16 321.5095,-16 321.5095,-16 406.4905,-16 406.4905,-16 412.4905,-16 418.4905,-22 418.4905,-28 418.4905,-28 418.4905,-40 418.4905,-40 418.4905,-46 412.4905,-52 406.4905,-52"/>
<text text-anchor="middle" x="364" y="-36.7" font-family="微软雅黑" font-size="9.00" fill="#000000">🎮 Unity引擎</text>
<text text-anchor="middle" x="364" y="-25.9" font-family="微软雅黑" font-size="9.00" fill="#000000">Rendering/Physics/Audio</text>
</g>
<!-- C1&#45;&gt;D1 -->
<g id="edge26" class="edge">
<title>C1-&gt;D1</title>
<path fill="none" stroke="#000000" stroke-width="1.2" d="M364,-145.9241C364,-124.3139 364,-87.8868 364,-62.4801"/>
<polygon fill="#000000" stroke="#000000" stroke-width="1.2" points="367.5001,-62.3415 364,-52.3415 360.5001,-62.3415 367.5001,-62.3415"/>
</g>
<!-- C2&#45;&gt;D1 -->
<g id="edge27" class="edge">
<title>C2-&gt;D1</title>
<path fill="none" stroke="#000000" stroke-width="1.2" d="M271.8779,-145.9241C290.2206,-123.6386 321.5328,-85.5957 342.492,-60.1313"/>
<polygon fill="#000000" stroke="#000000" stroke-width="1.2" points="345.2509,-62.2868 348.9035,-52.3415 339.8461,-57.8383 345.2509,-62.2868"/>
</g>
<!-- C3&#45;&gt;D1 -->
<g id="edge28" class="edge">
<title>C3-&gt;D1</title>
<path fill="none" stroke="#000000" stroke-width="1.2" d="M545.6769,-147.0048C508.8757,-124.1141 443.2224,-83.2771 401.7312,-57.4691"/>
<polygon fill="#000000" stroke="#000000" stroke-width="1.2" points="403.3491,-54.3537 393.0091,-52.0439 399.6518,-60.2977 403.3491,-54.3537"/>
</g>
<!-- D2 -->
<g id="node18" class="node">
<title>D2</title>
<path fill="#e8f5e9" stroke="#000000" d="M247.4887,-52C247.4887,-52 160.5113,-52 160.5113,-52 154.5113,-52 148.5113,-46 148.5113,-40 148.5113,-40 148.5113,-28 148.5113,-28 148.5113,-22 154.5113,-16 160.5113,-16 160.5113,-16 247.4887,-16 247.4887,-16 253.4887,-16 259.4887,-22 259.4887,-28 259.4887,-28 259.4887,-40 259.4887,-40 259.4887,-46 253.4887,-52 247.4887,-52"/>
<text text-anchor="middle" x="204" y="-36.7" font-family="微软雅黑" font-size="9.00" fill="#000000">🔧 GameFramework</text>
<text text-anchor="middle" x="204" y="-25.9" font-family="微软雅黑" font-size="9.00" fill="#000000">FSM/ObjectPool/Network</text>
</g>
<!-- C4&#45;&gt;D2 -->
<g id="edge29" class="edge">
<title>C4-&gt;D2</title>
<path fill="none" stroke="#000000" stroke-width="1.2" d="M153.2037,-145.9241C163.1427,-124.0245 179.9877,-86.9084 191.535,-61.4653"/>
<polygon fill="#000000" stroke="#000000" stroke-width="1.2" points="194.7301,-62.8941 195.6758,-52.3415 188.3558,-60.0011 194.7301,-62.8941"/>
</g>
<!-- C5&#45;&gt;D2 -->
<g id="edge30" class="edge">
<title>C5-&gt;D2</title>
<path fill="none" stroke="#000000" stroke-width="1.2" d="M441.6717,-149.8194C433.773,-145.8618 425.0979,-141.6492 417,-138 359.3327,-112.0131 341.3468,-113.5381 285,-84.8 269.3257,-76.8057 252.7444,-66.7222 238.6945,-57.6501"/>
<polygon fill="#000000" stroke="#000000" stroke-width="1.2" points="240.5886,-54.7068 230.3044,-52.1599 236.7557,-60.5642 240.5886,-54.7068"/>
</g>
</g>
</svg>