<?xml version="1.0" encoding="UTF-8" standalone="yes"?><svg xmlns="http://www.w3.org/2000/svg" xmlns:xlink="http://www.w3.org/1999/xlink" version="1.2" baseProfile="tiny" x="0" y="0" width="1365" height="349" viewBox="0 0 1365 348.8"><defs/><g id="graph0" class="graph" transform="matrix(1,0,0,1,4,344.8)"><polygon fill="#ffffff" stroke="rgba(0,0,0,0)" points="-4,4 -4,-344.8 1361,-344.8 1361,4 -4,4"/><g id="node1" class="node"><path fill="#ffccbc" stroke="#d84315" d="M 190 -340.602 C 190 -340.602 12 -340.602 12 -340.602 C 6 -340.602 0 -334.602 0 -328.602 C 0 -328.602 0 -311.398 0 -311.398 C 0 -305.398 6 -299.398 12 -299.398 C 12 -299.398 190 -299.398 190 -299.398 C 196 -299.398 202 -305.398 202 -311.398 C 202 -311.398 202 -328.602 202 -328.602 C 202 -334.602 196 -340.602 190 -340.602 Z"/><text fill="#000000" font-family="SimHei,sans-serif" font-size="14" text-anchor="middle" x="101" y="-324.2"><tspan>1. ChessAI</tspan></text><text fill="#000000" font-family="SimHei,sans-serif" font-size="14" text-anchor="middle" x="101" y="-307.4"><tspan>PlayAttackAnimation()</tspan></text></g><g id="node2" class="node"><path fill="#fff9c4" stroke="#f57f17" d="M 421 -340.602 C 421 -340.602 243 -340.602 243 -340.602 C 237 -340.602 231 -334.602 231 -328.602 C 231 -328.602 231 -311.398 231 -311.398 C 231 -305.398 237 -299.398 243 -299.398 C 243 -299.398 421 -299.398 421 -299.398 C 427 -299.398 433 -305.398 433 -311.398 C 433 -311.398 433 -328.602 433 -328.602 C 433 -334.602 427 -340.602 421 -340.602 Z"/><text fill="#000000" font-family="SimHei,sans-serif" font-size="14" text-anchor="middle" x="332" y="-324.2"><tspan>2. 播放攻击动画</tspan></text><text fill="#000000" font-family="SimHei,sans-serif" font-size="14" text-anchor="middle" x="332" y="-307.4"><tspan>(1-2秒)</tspan></text></g><g id="edge1" class="edge"><path fill="none" stroke="#000000" stroke-width="1.5" d="M 202.32 -320 C 202.32 -320 220.814 -320 220.814 -320"/><polygon fill="#000000" stroke="#000000" stroke-width="1.5" points="220.814,-323.5 230.814,-320 220.814,-316.5 220.814,-323.5"/></g><g id="node3" class="node"><path fill="#e1bee7" stroke="#6a1b9a" d="M 652 -340.602 C 652 -340.602 474 -340.602 474 -340.602 C 468 -340.602 462 -334.602 462 -328.602 C 462 -328.602 462 -311.398 462 -311.398 C 462 -305.398 468 -299.398 474 -299.398 C 474 -299.398 652 -299.398 652 -299.398 C 658 -299.398 664 -305.398 664 -311.398 C 664 -311.398 664 -328.602 664 -328.602 C 664 -334.602 658 -340.602 652 -340.602 Z"/><text fill="#000000" font-family="SimHei,sans-serif" font-size="14" text-anchor="middle" x="563" y="-324.2"><tspan>3. Animator</tspan></text><text fill="#000000" font-family="SimHei,sans-serif" font-size="14" text-anchor="middle" x="563" y="-307.4"><tspan>触发AnimEvent_AttackHit</tspan></text></g><g id="edge2" class="edge"><path fill="none" stroke="#000000" stroke-width="1.5" d="M 433.32 -320 C 433.32 -320 451.814 -320 451.814 -320"/><polygon fill="#000000" stroke="#000000" stroke-width="1.5" points="451.814,-323.5 461.814,-320 451.814,-316.5 451.814,-323.5"/></g><g id="node4" class="node"><path fill="#b3e5fc" stroke="#01579b" d="M 883 -340.602 C 883 -340.602 705 -340.602 705 -340.602 C 699 -340.602 693 -334.602 693 -328.602 C 693 -328.602 693 -311.398 693 -311.398 C 693 -305.398 699 -299.398 705 -299.398 C 705 -299.398 883 -299.398 883 -299.398 C 889 -299.398 895 -305.398 895 -311.398 C 895 -311.398 895 -328.602 895 -328.602 C 895 -334.602 889 -340.602 883 -340.602 Z"/><text fill="#000000" font-family="SimHei,sans-serif" font-size="14" text-anchor="middle" x="794" y="-324.2"><tspan>4. Event System</tspan></text><text fill="#000000" font-family="SimHei,sans-serif" font-size="14" text-anchor="middle" x="794" y="-307.4"><tspan>OnAttackExecute(skillId)</tspan></text></g><g id="edge3" class="edge"><path fill="none" stroke="#000000" stroke-width="1.5" d="M 664.32 -320 C 664.32 -320 682.814 -320 682.814 -320"/><polygon fill="#000000" stroke="#000000" stroke-width="1.5" points="682.814,-323.5 692.814,-320 682.814,-316.5 682.814,-323.5"/></g><g id="node5" class="node"><path fill="#e3f2fd" stroke="#1976d2" d="M 1114 -340.602 C 1114 -340.602 936 -340.602 936 -340.602 C 930 -340.602 924 -334.602 924 -328.602 C 924 -328.602 924 -311.398 924 -311.398 C 924 -305.398 930 -299.398 936 -299.398 C 936 -299.398 1114 -299.398 1114 -299.398 C 1120 -299.398 1126 -305.398 1126 -311.398 C 1126 -311.398 1126 -328.602 1126 -328.602 C 1126 -334.602 1120 -340.602 1114 -340.602 Z"/><text fill="#000000" font-family="SimHei,sans-serif" font-size="14" text-anchor="middle" x="1025" y="-324.2"><tspan>5. CombatController</tspan></text><text fill="#000000" font-family="SimHei,sans-serif" font-size="14" text-anchor="middle" x="1025" y="-307.4"><tspan>ExecuteAttack(caster, target)</tspan></text></g><g id="edge4" class="edge"><path fill="none" stroke="#000000" stroke-width="1.5" d="M 895.32 -320 C 895.32 -320 913.814 -320 913.814 -320"/><polygon fill="#000000" stroke="#000000" stroke-width="1.5" points="913.814,-323.5 923.814,-320 913.814,-316.5 913.814,-323.5"/></g><g id="node6" class="node"><path fill="#f3e5f5" stroke="#4a148c" d="M 1345 -340.602 C 1345 -340.602 1167 -340.602 1167 -340.602 C 1161 -340.602 1155 -334.602 1155 -328.602 C 1155 -328.602 1155 -311.398 1155 -311.398 C 1155 -305.398 1161 -299.398 1167 -299.398 C 1167 -299.398 1345 -299.398 1345 -299.398 C 1351 -299.398 1357 -305.398 1357 -311.398 C 1357 -311.398 1357 -328.602 1357 -328.602 C 1357 -334.602 1351 -340.602 1345 -340.602 Z"/><text fill="#000000" font-family="SimHei,sans-serif" font-size="14" text-anchor="middle" x="1256" y="-324.2"><tspan>6. IChessSkill</tspan></text><text fill="#000000" font-family="SimHei,sans-serif" font-size="14" text-anchor="middle" x="1256" y="-307.4"><tspan>CalculateDamage() 检查暴击</tspan></text></g><g id="edge5" class="edge"><path fill="none" stroke="#000000" stroke-width="1.5" d="M 1126.32 -320 C 1126.32 -320 1144.81 -320 1144.81 -320"/><polygon fill="#000000" stroke="#000000" stroke-width="1.5" points="1144.81,-323.5 1154.81,-320 1144.81,-316.5 1144.81,-323.5"/></g><g id="node7" class="node"><path fill="#f3e5f5" stroke="#4a148c" d="M 1345 -191.002 C 1345 -191.002 1167 -191.002 1167 -191.002 C 1161 -191.002 1155 -185.002 1155 -179.002 C 1155 -179.002 1155 -161.798 1155 -161.798 C 1155 -155.798 1161 -149.798 1167 -149.798 C 1167 -149.798 1345 -149.798 1345 -149.798 C 1351 -149.798 1357 -155.798 1357 -161.798 C 1357 -161.798 1357 -179.002 1357 -179.002 C 1357 -185.002 1351 -191.002 1345 -191.002 Z"/><text fill="#000000" font-family="SimHei,sans-serif" font-size="14" text-anchor="middle" x="1256" y="-174.6"><tspan>7. IChessSkill</tspan></text><text fill="#000000" font-family="SimHei,sans-serif" font-size="14" text-anchor="middle" x="1256" y="-157.8"><tspan>构建HitContext</tspan></text></g><g id="edge21" class="edge"><path fill="none" stroke="#000000" stroke-width="1.5" d="M 1256 -299.199 C 1256 -299.199 1256 -201.025 1256 -201.025"/><polygon fill="#000000" stroke="#000000" stroke-width="1.5" points="1259.5,-201.024 1256,-191.025 1252.5,-201.025 1259.5,-201.024"/></g><g id="node8" class="node"><path fill="#c8e6c9" stroke="#2e7d32" d="M 1114 -191.002 C 1114 -191.002 936 -191.002 936 -191.002 C 930 -191.002 924 -185.002 924 -179.002 C 924 -179.002 924 -161.798 924 -161.798 C 924 -155.798 930 -149.798 936 -149.798 C 936 -149.798 1114 -149.798 1114 -149.798 C 1120 -149.798 1126 -155.798 1126 -161.798 C 1126 -161.798 1126 -179.002 1126 -179.002 C 1126 -185.002 1120 -191.002 1114 -191.002 Z"/><text fill="#000000" font-family="SimHei,sans-serif" font-size="14" text-anchor="middle" x="1025" y="-174.6"><tspan>8. HitDetector</tspan></text><text fill="#000000" font-family="SimHei,sans-serif" font-size="14" text-anchor="middle" x="1025" y="-157.8"><tspan>Execute(context)</tspan></text></g><g id="edge11" class="edge"><path fill="none" stroke="#000000" stroke-width="1.5" d="M 1154.68 -177 C 1154.68 -177 1136.19 -177 1136.19 -177"/><polygon fill="#000000" stroke="#000000" stroke-width="1.5" points="1136.19,-173.5 1126.19,-177 1136.19,-180.5 1136.19,-173.5"/></g><g id="node9" class="node"><path fill="#c8e6c9" stroke="#2e7d32" d="M 883 -191.002 C 883 -191.002 705 -191.002 705 -191.002 C 699 -191.002 693 -185.002 693 -179.002 C 693 -179.002 693 -161.798 693 -161.798 C 693 -155.798 699 -149.798 705 -149.798 C 705 -149.798 883 -149.798 883 -149.798 C 889 -149.798 895 -155.798 895 -161.798 C 895 -161.798 895 -179.002 895 -179.002 C 895 -185.002 889 -191.002 883 -191.002 Z"/><text fill="#000000" font-family="SimHei,sans-serif" font-size="14" text-anchor="middle" x="794" y="-174.6"><tspan>9. HitDetector</tspan></text><text fill="#000000" font-family="SimHei,sans-serif" font-size="14" text-anchor="middle" x="794" y="-157.8"><tspan>命中检测(Instant/Melee/AOE)</tspan></text></g><g id="edge12" class="edge"><path fill="none" stroke="#000000" stroke-width="1.5" d="M 923.68 -163 C 923.68 -163 905.186 -163 905.186 -163"/><polygon fill="#000000" stroke="#000000" stroke-width="1.5" points="905.186,-159.5 895.186,-163 905.186,-166.5 905.186,-159.5"/></g><g id="node10" class="node"><path fill="#c8e6c9" stroke="#2e7d32" d="M 652 -191.002 C 652 -191.002 474 -191.002 474 -191.002 C 468 -191.002 462 -185.002 462 -179.002 C 462 -179.002 462 -161.798 462 -161.798 C 462 -155.798 468 -149.798 474 -149.798 C 474 -149.798 652 -149.798 652 -149.798 C 658 -149.798 664 -155.798 664 -161.798 C 664 -161.798 664 -179.002 664 -179.002 C 664 -185.002 658 -191.002 652 -191.002 Z"/><text fill="#000000" font-family="SimHei,sans-serif" font-size="14" text-anchor="middle" x="563" y="-174.6"><tspan>10. HitDetector</tspan></text><text fill="#000000" font-family="SimHei,sans-serif" font-size="14" text-anchor="middle" x="563" y="-157.8"><tspan>ApplyDamage(target)</tspan></text></g><g id="edge13" class="edge"><path fill="none" stroke="#000000" stroke-width="1.5" d="M 692.68 -177 C 692.68 -177 674.186 -177 674.186 -177"/><polygon fill="#000000" stroke="#000000" stroke-width="1.5" points="674.186,-173.5 664.186,-177 674.186,-180.5 674.186,-173.5"/></g><g id="node11" class="node"><path fill="#c8e6c9" stroke="#2e7d32" d="M 421 -191.002 C 421 -191.002 243 -191.002 243 -191.002 C 237 -191.002 231 -185.002 231 -179.002 C 231 -179.002 231 -161.798 231 -161.798 C 231 -155.798 237 -149.798 243 -149.798 C 243 -149.798 421 -149.798 421 -149.798 C 427 -149.798 433 -155.798 433 -161.798 C 433 -161.798 433 -179.002 433 -179.002 C 433 -185.002 427 -191.002 421 -191.002 Z"/><text fill="#000000" font-family="SimHei,sans-serif" font-size="14" text-anchor="middle" x="332" y="-174.6"><tspan>11. HitDetector</tspan></text><text fill="#000000" font-family="SimHei,sans-serif" font-size="14" text-anchor="middle" x="332" y="-157.8"><tspan>ApplyBuffsOnHit()</tspan></text></g><g id="edge14" class="edge"><path fill="none" stroke="#000000" stroke-width="1.5" d="M 461.68 -177 C 461.68 -177 443.186 -177 443.186 -177"/><polygon fill="#000000" stroke="#000000" stroke-width="1.5" points="443.186,-173.5 433.186,-177 443.186,-180.5 443.186,-173.5"/></g><g id="node12" class="node"><polygon fill="#ffe0b2" stroke="#e65100" stroke-dasharray="5,2" points="202,-191.002 0,-191.002 0,-149.798 202,-149.798 202,-191.002"/><text fill="#000000" font-family="SimHei,sans-serif" font-size="14" text-anchor="middle" x="101" y="-174.6"><tspan>12. 可选: 自定义回调</tspan></text><text fill="#000000" font-family="SimHei,sans-serif" font-size="14" text-anchor="middle" x="101" y="-157.8"><tspan>OnHitCallback?.Invoke()</tspan></text></g><g id="edge15" class="edge"><path fill="none" stroke="#000000" stroke-width="1.5" d="M 230.68 -177 C 230.68 -177 212.186 -177 212.186 -177"/><polygon fill="#000000" stroke="#000000" stroke-width="1.5" points="212.186,-173.5 202.186,-177 212.186,-180.5 212.186,-173.5"/></g><g id="node13" class="node"><polygon fill="#ffe0b2" stroke="#e65100" stroke-dasharray="5,2" points="202,-41.4019 0,-41.4019 0,-0.1981 202,-0.1981 202,-41.4019"/><text fill="#000000" font-family="SimHei,sans-serif" font-size="14" text-anchor="middle" x="101" y="-25"><tspan>13. 条件应用额外Buff</tspan></text><text fill="#000000" font-family="SimHei,sans-serif" font-size="14" text-anchor="middle" x="101" y="-8.2"><tspan>(可选)</tspan></text></g><g id="edge22" class="edge"><path fill="none" stroke="#000000" stroke-width="1.5" d="M 101 -149.599 C 101 -149.599 101 -51.4246 101 -51.4246"/><polygon fill="#000000" stroke="#000000" stroke-width="1.5" points="104.5,-51.4245 101,-41.4246 97.5001,-51.4246 104.5,-51.4245"/></g><g id="node14" class="node"><path fill="#f8bbd0" stroke="#880e4f" d="M 421 -41.4019 C 421 -41.4019 243 -41.4019 243 -41.4019 C 237 -41.4019 231 -35.4019 231 -29.4019 C 231 -29.4019 231 -12.1981 231 -12.1981 C 231 -6.1981 237 -0.1981 243 -0.1981 C 243 -0.1981 421 -0.1981 421 -0.1981 C 427 -0.1981 433 -6.1981 433 -12.1981 C 433 -12.1981 433 -29.4019 433 -29.4019 C 433 -35.4019 427 -41.4019 421 -41.4019 Z"/><text fill="#000000" font-family="SimHei,sans-serif" font-size="14" text-anchor="middle" x="332" y="-25"><tspan>14. BuffManager</tspan></text><text fill="#000000" font-family="SimHei,sans-serif" font-size="14" text-anchor="middle" x="332" y="-8.2"><tspan>AddBuff(buffId)</tspan></text></g><g id="edge16" class="edge"><path fill="none" stroke="#000000" stroke-width="1.5" d="M 202.32 -20 C 202.32 -20 220.814 -20 220.814 -20"/><polygon fill="#000000" stroke="#000000" stroke-width="1.5" points="220.814,-23.5001 230.814,-20 220.814,-16.5001 220.814,-23.5001"/></g><g id="node15" class="node"><path fill="#e3f2fd" stroke="#1976d2" d="M 652 -41.4019 C 652 -41.4019 474 -41.4019 474 -41.4019 C 468 -41.4019 462 -35.4019 462 -29.4019 C 462 -29.4019 462 -12.1981 462 -12.1981 C 462 -6.1981 468 -0.1981 474 -0.1981 C 474 -0.1981 652 -0.1981 652 -0.1981 C 658 -0.1981 664 -6.1981 664 -12.1981 C 664 -12.1981 664 -29.4019 664 -29.4019 C 664 -35.4019 658 -41.4019 652 -41.4019 Z"/><text fill="#000000" font-family="SimHei,sans-serif" font-size="14" text-anchor="middle" x="563" y="-25"><tspan>15. 返回伤害结果</tspan></text><text fill="#000000" font-family="SimHei,sans-serif" font-size="14" text-anchor="middle" x="563" y="-8.2"><tspan>HitDetector → Controller</tspan></text></g><g id="edge17" class="edge"><path fill="none" stroke="#000000" stroke-width="1.5" d="M 433.32 -20 C 433.32 -20 451.814 -20 451.814 -20"/><polygon fill="#000000" stroke="#000000" stroke-width="1.5" points="451.814,-23.5001 461.814,-20 451.814,-16.5001 451.814,-23.5001"/></g><g id="node16" class="node"><path fill="#e3f2fd" stroke="#1976d2" d="M 883 -41.4019 C 883 -41.4019 705 -41.4019 705 -41.4019 C 699 -41.4019 693 -35.4019 693 -29.4019 C 693 -29.4019 693 -12.1981 693 -12.1981 C 693 -6.1981 699 -0.1981 705 -0.1981 C 705 -0.1981 883 -0.1981 883 -0.1981 C 889 -0.1981 895 -6.1981 895 -12.1981 C 895 -12.1981 895 -29.4019 895 -29.4019 C 895 -35.4019 889 -41.4019 883 -41.4019 Z"/><text fill="#000000" font-family="SimHei,sans-serif" font-size="14" text-anchor="middle" x="794" y="-25"><tspan>16. CombatController</tspan></text><text fill="#000000" font-family="SimHei,sans-serif" font-size="14" text-anchor="middle" x="794" y="-8.2"><tspan>PlayHitAnimation()</tspan></text></g><g id="edge18" class="edge"><path fill="none" stroke="#000000" stroke-width="1.5" d="M 664.32 -20 C 664.32 -20 682.814 -20 682.814 -20"/><polygon fill="#000000" stroke="#000000" stroke-width="1.5" points="682.814,-23.5001 692.814,-20 682.814,-16.5001 682.814,-23.5001"/></g><g id="node17" class="node"><path fill="#e1bee7" stroke="#6a1b9a" d="M 1114 -41.4019 C 1114 -41.4019 936 -41.4019 936 -41.4019 C 930 -41.4019 924 -35.4019 924 -29.4019 C 924 -29.4019 924 -12.1981 924 -12.1981 C 924 -6.1981 930 -0.1981 936 -0.1981 C 936 -0.1981 1114 -0.1981 1114 -0.1981 C 1120 -0.1981 1126 -6.1981 1126 -12.1981 C 1126 -12.1981 1126 -29.4019 1126 -29.4019 C 1126 -35.4019 1120 -41.4019 1114 -41.4019 Z"/><text fill="#000000" font-family="SimHei,sans-serif" font-size="14" text-anchor="middle" x="1025" y="-25"><tspan>17. Animator</tspan></text><text fill="#000000" font-family="SimHei,sans-serif" font-size="14" text-anchor="middle" x="1025" y="-8.2"><tspan>动画播放完成</tspan></text></g><g id="edge19" class="edge"><path fill="none" stroke="#000000" stroke-width="1.5" d="M 895.32 -20 C 895.32 -20 913.814 -20 913.814 -20"/><polygon fill="#000000" stroke="#000000" stroke-width="1.5" points="913.814,-23.5001 923.814,-20 913.814,-16.5001 913.814,-23.5001"/></g><g id="node18" class="node"><path fill="#ffccbc" stroke="#d84315" d="M 1345 -41.4019 C 1345 -41.4019 1167 -41.4019 1167 -41.4019 C 1161 -41.4019 1155 -35.4019 1155 -29.4019 C 1155 -29.4019 1155 -12.1981 1155 -12.1981 C 1155 -6.1981 1161 -0.1981 1167 -0.1981 C 1167 -0.1981 1345 -0.1981 1345 -0.1981 C 1351 -0.1981 1357 -6.1981 1357 -12.1981 C 1357 -12.1981 1357 -29.4019 1357 -29.4019 C 1357 -35.4019 1351 -41.4019 1345 -41.4019 Z"/><text fill="#000000" font-family="SimHei,sans-serif" font-size="14" text-anchor="middle" x="1256" y="-25"><tspan>18. ChessAI</tspan></text><text fill="#000000" font-family="SimHei,sans-serif" font-size="14" text-anchor="middle" x="1256" y="-8.2"><tspan>刷新目标 准备下一次攻击</tspan></text></g><g id="edge20" class="edge"><path fill="none" stroke="#000000" stroke-width="1.5" d="M 1126.32 -20 C 1126.32 -20 1144.81 -20 1144.81 -20"/><polygon fill="#000000" stroke="#000000" stroke-width="1.5" points="1144.81,-23.5001 1154.81,-20 1144.81,-16.5001 1144.81,-23.5001"/></g></g></svg>
