<?xml version="1.0" encoding="UTF-8" standalone="yes"?><svg xmlns="http://www.w3.org/2000/svg" xmlns:xlink="http://www.w3.org/1999/xlink" version="1.2" baseProfile="tiny" x="0" y="0" width="2076" height="1080" viewBox="0 0 2076.03 1080.1"><defs/><g id="graph0" class="graph" transform="matrix(1,0,0,1,4,1076.1)"><polygon fill="#ffffff" stroke="rgba(0,0,0,0)" points="-4,4 -4,-1076.1 2072.03,-1076.1 2072.03,4 -4,4"/><g id="node1" class="node"><polygon fill="#e3f2fd" stroke="#1976d2" stroke-width="2" points="691.738,-587.9 691.738,-714.7 894.694,-714.7 894.694,-587.9 691.738,-587.9"/><text fill="#000000" font-family="Times,serif" font-size="9" text-anchor="middle" x="724.475" y="-648.6"><tspan>CardManager</tspan></text><polyline fill="none" stroke="#1976d2" stroke-width="2" points="757.213,-587.9 757.213,-714.7"/><text fill="#000000" font-family="Times,serif" font-size="9" text-anchor="middle" x="825.953" y="-702.6"><tspan>- m_CardPool: CardPool</tspan></text><text fill="#000000" font-family="Times,serif" font-size="9" text-anchor="middle" x="825.953" y="-691.8"><tspan>- m_HandCards: HandCards</tspan></text><text fill="#000000" font-family="Times,serif" font-size="9" text-anchor="middle" x="825.953" y="-681"><tspan>- m_CardFactory: CardFactory</tspan></text><text fill="#000000" font-family="Times,serif" font-size="9" text-anchor="middle" x="825.953" y="-670.2"><tspan>- m_CurrentSession: CardSession</tspan></text><text fill="#000000" font-family="Times,serif" font-size="9" text-anchor="middle" x="825.953" y="-659.4"><tspan>---</tspan></text><text fill="#000000" font-family="Times,serif" font-size="9" text-anchor="middle" x="825.953" y="-648.6"><tspan>+ ObtainCard(cardId)</tspan></text><text fill="#000000" font-family="Times,serif" font-size="9" text-anchor="middle" x="825.953" y="-637.8"><tspan>+ UseCard(cardId, target)</tspan></text><text fill="#000000" font-family="Times,serif" font-size="9" text-anchor="middle" x="825.953" y="-627"><tspan>+ DiscardCard(cardId)</tspan></text><text fill="#000000" font-family="Times,serif" font-size="9" text-anchor="middle" x="825.953" y="-616.2"><tspan>+ GetHandCards(): Card[]</tspan></text><text fill="#000000" font-family="Times,serif" font-size="9" text-anchor="middle" x="825.953" y="-605.4"><tspan>+ GetCardById(cardId): Card</tspan></text><text fill="#000000" font-family="Times,serif" font-size="9" text-anchor="middle" x="825.953" y="-594.6"><tspan>+ OnCardUsed()</tspan></text></g><g id="node10" class="node"><polygon fill="#e8f5e9" stroke="#1b5e20" stroke-width="2" points="1172.45,-619.7 1172.45,-724.9 1367.06,-724.9 1367.06,-619.7 1172.45,-619.7"/><text fill="#000000" font-family="Times,serif" font-size="9" text-anchor="middle" x="1197.45" y="-669.6"><tspan>CardPool</tspan></text><polyline fill="none" stroke="#1b5e20" stroke-width="2" points="1222.44,-619.7 1222.44,-724.9"/><text fill="#000000" font-family="Times,serif" font-size="9" text-anchor="middle" x="1294.75" y="-712.8"><tspan>- m_Cards: Dictionary&lt;int, Card[]&gt;</tspan></text><text fill="#000000" font-family="Times,serif" font-size="9" text-anchor="middle" x="1294.75" y="-702"><tspan>- m_PullCount: int</tspan></text><text fill="#000000" font-family="Times,serif" font-size="9" text-anchor="middle" x="1294.75" y="-691.2"><tspan>- m_MaxCards: int</tspan></text><text fill="#000000" font-family="Times,serif" font-size="9" text-anchor="middle" x="1294.75" y="-680.4"><tspan>---</tspan></text><text fill="#000000" font-family="Times,serif" font-size="9" text-anchor="middle" x="1294.75" y="-669.6"><tspan>+ AddCard(cardId, count)</tspan></text><text fill="#000000" font-family="Times,serif" font-size="9" text-anchor="middle" x="1294.75" y="-658.8"><tspan>+ RemoveCard(cardId, count)</tspan></text><text fill="#000000" font-family="Times,serif" font-size="9" text-anchor="middle" x="1294.75" y="-648"><tspan>+ GetCardCount(cardId): int</tspan></text><text fill="#000000" font-family="Times,serif" font-size="9" text-anchor="middle" x="1294.75" y="-637.2"><tspan>+ GetAllCards(): Card[]</tspan></text><text fill="#000000" font-family="Times,serif" font-size="9" text-anchor="middle" x="1294.75" y="-626.4"><tspan>+ IsAvailable(cardId): bool</tspan></text></g><g id="edge1" class="edge"><path fill="none" stroke="#000000" d="M 894.861 -655.779 C 972.861 -659.217 1080.36 -663.954 1160.26 -667.475"/><polygon fill="#000000" stroke="#000000" points="1160.35,-667.479 1166.52,-663.747 1172.34,-668.007 1166.17,-671.739 1160.35,-667.479"/><text fill="#000000" font-family="Times,serif" font-size="14" text-anchor="middle" x="1038.3" y="-669.5"><tspan>持有卡牌池</tspan></text></g><g id="node11" class="node"><polygon fill="#e8f5e9" stroke="#1b5e20" stroke-width="2" points="1179.24,-459.3 1179.24,-575.3 1360.27,-575.3 1360.27,-459.3 1179.24,-459.3"/><text fill="#000000" font-family="Times,serif" font-size="9" text-anchor="middle" x="1207.48" y="-514.6"><tspan>HandCards</tspan></text><polyline fill="none" stroke="#1b5e20" stroke-width="2" points="1235.73,-459.3 1235.73,-575.3"/><text fill="#000000" font-family="Times,serif" font-size="9" text-anchor="middle" x="1298" y="-563.2"><tspan>- m_Cards: Card[]</tspan></text><text fill="#000000" font-family="Times,serif" font-size="9" text-anchor="middle" x="1298" y="-552.4"><tspan>- m_MaxSlots: int</tspan></text><text fill="#000000" font-family="Times,serif" font-size="9" text-anchor="middle" x="1298" y="-541.6"><tspan>- m_CurrentSlots: int</tspan></text><text fill="#000000" font-family="Times,serif" font-size="9" text-anchor="middle" x="1298" y="-530.8"><tspan>---</tspan></text><text fill="#000000" font-family="Times,serif" font-size="9" text-anchor="middle" x="1298" y="-520"><tspan>+ AddCard(card): bool</tspan></text><text fill="#000000" font-family="Times,serif" font-size="9" text-anchor="middle" x="1298" y="-509.2"><tspan>+ RemoveCard(cardId): bool</tspan></text><text fill="#000000" font-family="Times,serif" font-size="9" text-anchor="middle" x="1298" y="-498.4"><tspan>+ GetCards(): Card[]</tspan></text><text fill="#000000" font-family="Times,serif" font-size="9" text-anchor="middle" x="1298" y="-487.6"><tspan>+ GetCardAt(slotIndex): Card</tspan></text><text fill="#000000" font-family="Times,serif" font-size="9" text-anchor="middle" x="1298" y="-476.8"><tspan>+ IsFull(): bool</tspan></text><text fill="#000000" font-family="Times,serif" font-size="9" text-anchor="middle" x="1298" y="-466"><tspan>+ IsEmpty(): bool</tspan></text></g><g id="edge2" class="edge"><path fill="none" stroke="#000000" d="M 894.861 -622.718 C 975.236 -600.117 1086.94 -568.707 1167.48 -546.06"/><polygon fill="#000000" stroke="#000000" points="1167.57,-546.033 1172.27,-540.558 1179.13,-542.784 1174.43,-548.259 1167.57,-546.033"/><text fill="#000000" font-family="Times,serif" font-size="14" text-anchor="middle" x="1038.3" y="-604.5"><tspan>持有手牌</tspan></text></g><g id="node12" class="node"><polygon fill="#f1f8e9" stroke="#558b2f" stroke-width="2" points="1150.03,-375.1 1150.03,-415.5 1389.48,-415.5 1389.48,-375.1 1150.03,-375.1"/><text fill="#000000" font-family="Times,serif" font-size="9" text-anchor="middle" x="1180.52" y="-392.6"><tspan>CardFactory</tspan></text><polyline fill="none" stroke="#558b2f" stroke-width="2" points="1211.01,-375.1 1211.01,-415.5"/><text fill="#000000" font-family="Times,serif" font-size="9" text-anchor="middle" x="1300.25" y="-403.4"><tspan>+ CreateCard(cardId): Card</tspan></text><text fill="#000000" font-family="Times,serif" font-size="9" text-anchor="middle" x="1300.25" y="-392.6"><tspan>+ CreateCardEffect(effectType): ICardEffect</tspan></text><text fill="#000000" font-family="Times,serif" font-size="9" text-anchor="middle" x="1300.25" y="-381.8"><tspan>+ GetCardConfig(cardId)</tspan></text></g><g id="edge3" class="edge"><path fill="none" stroke="#000000" d="M 893.462 -587.686 C 904.704 -580.247 915.932 -572.679 926.571 -565.3 C 942.962 -553.933 945.751 -549.222 962.571 -538.5 C 1042.41 -487.609 1063.43 -475.578 1150.03 -437.3 C 1164.79 -430.773 1180.92 -424.541 1196.41 -418.97"/><polygon fill="#000000" stroke="#000000" points="1205.96,-415.59 1198.03,-423.169 1201.25,-417.258 1196.53,-418.927 1196.53,-418.927 1196.53,-418.927 1201.25,-417.258 1195.03,-414.685 1205.96,-415.59 1205.96,-415.59"/><text fill="#000000" font-family="Times,serif" font-size="14" text-anchor="middle" x="1038.3" y="-543.5"><tspan>委托创建</tspan></text></g><g id="node13" class="node"><polygon fill="#fce4ec" stroke="#c2185b" stroke-width="2" points="1176.73,-154.9 1176.73,-227.7 1362.78,-227.7 1362.78,-154.9 1176.73,-154.9"/><text fill="#000000" font-family="Times,serif" font-size="9" text-anchor="middle" x="1212.72" y="-188.6"><tspan>CardEventArgs</tspan></text><polyline fill="none" stroke="#c2185b" stroke-width="2" points="1248.71,-154.9 1248.71,-227.7"/><text fill="#000000" font-family="Times,serif" font-size="9" text-anchor="middle" x="1305.74" y="-215.6"><tspan>+ cardId: int</tspan></text><text fill="#000000" font-family="Times,serif" font-size="9" text-anchor="middle" x="1305.74" y="-204.8"><tspan>+ cardName: string</tspan></text><text fill="#000000" font-family="Times,serif" font-size="9" text-anchor="middle" x="1305.74" y="-194"><tspan>+ targetEntity: ChessEntity</tspan></text><text fill="#000000" font-family="Times,serif" font-size="9" text-anchor="middle" x="1305.74" y="-183.2"><tspan>+ effectType: int</tspan></text><text fill="#000000" font-family="Times,serif" font-size="9" text-anchor="middle" x="1305.74" y="-172.4"><tspan>+ eventType: int</tspan></text><text fill="#000000" font-family="Times,serif" font-size="9" text-anchor="middle" x="1305.74" y="-161.6"><tspan>+ timestamp: float</tspan></text></g><g id="edge5" class="edge"><path fill="none" stroke="#000000" stroke-dasharray="5,2" d="M 894.976 -597.67 C 906.868 -588.141 917.846 -577.349 926.571 -565.3 C 963.699 -514.032 929.048 -481.194 962.571 -427.5 C 1009.58 -352.203 1048.94 -357.66 1114.03 -297.3 C 1130.62 -281.914 1132.11 -275.124 1150.03 -261.3 C 1162.89 -251.372 1177.3 -241.813 1191.53 -233.119"/><polygon fill="#000000" stroke="#000000" points="1200.36,-227.822 1194.1,-236.826 1196.07,-230.395 1191.78,-232.968 1191.78,-232.968 1191.78,-232.968 1196.07,-230.395 1189.47,-229.109 1200.36,-227.822 1200.36,-227.822"/><text fill="#000000" font-family="Times,serif" font-size="14" text-anchor="middle" x="1038.3" y="-432.5"><tspan>发布事件</tspan></text></g><g id="node15" class="node"><polygon fill="#e0f2f1" stroke="#00695c" stroke-width="2" points="1170.02,-768.7 1170.02,-873.9 1369.49,-873.9 1369.49,-768.7 1170.02,-768.7"/><text fill="#000000" font-family="Times,serif" font-size="9" text-anchor="middle" x="1200.52" y="-818.6"><tspan>CardSession</tspan></text><polyline fill="none" stroke="#00695c" stroke-width="2" points="1231.01,-768.7 1231.01,-873.9"/><text fill="#000000" font-family="Times,serif" font-size="9" text-anchor="middle" x="1300.25" y="-861.8"><tspan>- m_SessionId: string</tspan></text><text fill="#000000" font-family="Times,serif" font-size="9" text-anchor="middle" x="1300.25" y="-851"><tspan>- m_StartTime: float</tspan></text><text fill="#000000" font-family="Times,serif" font-size="9" text-anchor="middle" x="1300.25" y="-840.2"><tspan>- m_UsedCards: Card[]</tspan></text><text fill="#000000" font-family="Times,serif" font-size="9" text-anchor="middle" x="1300.25" y="-829.4"><tspan>- m_RemainingCards: HandCards</tspan></text><text fill="#000000" font-family="Times,serif" font-size="9" text-anchor="middle" x="1300.25" y="-818.6"><tspan>---</tspan></text><text fill="#000000" font-family="Times,serif" font-size="9" text-anchor="middle" x="1300.25" y="-807.8"><tspan>+ StartSession()</tspan></text><text fill="#000000" font-family="Times,serif" font-size="9" text-anchor="middle" x="1300.25" y="-797"><tspan>+ UseCard(cardId)</tspan></text><text fill="#000000" font-family="Times,serif" font-size="9" text-anchor="middle" x="1300.25" y="-786.2"><tspan>+ EndSession()</tspan></text><text fill="#000000" font-family="Times,serif" font-size="9" text-anchor="middle" x="1300.25" y="-775.4"><tspan>+ GetSessionData()</tspan></text></g><g id="edge4" class="edge"><path fill="none" stroke="#000000" d="M 894.861 -687.561 C 972.874 -715.391 1080.4 -753.75 1160.3 -782.253"/><polygon fill="#000000" stroke="#000000" points="1169.9,-785.678 1158.97,-786.557 1165.19,-783.998 1160.48,-782.318 1160.48,-782.318 1160.48,-782.318 1165.19,-783.998 1161.99,-778.08 1169.9,-785.678 1169.9,-785.678"/><text fill="#000000" font-family="Times,serif" font-size="14" text-anchor="middle" x="1038.3" y="-765.5"><tspan>管理会话</tspan></text></g><g id="node2" class="node"><polygon fill="#e3f2fd" stroke="#1976d2" stroke-width="2" points="1519.8,-508.9 1519.8,-635.7 1684.82,-635.7 1684.82,-508.9 1519.8,-508.9"/><text fill="#000000" font-family="Times,serif" font-size="9" text-anchor="middle" x="1536.55" y="-569.6"><tspan>Card</tspan></text><polyline fill="none" stroke="#1976d2" stroke-width="2" points="1553.3,-508.9 1553.3,-635.7"/><text fill="#000000" font-family="Times,serif" font-size="9" text-anchor="middle" x="1619.06" y="-623.6"><tspan>+ cardId: int</tspan></text><text fill="#000000" font-family="Times,serif" font-size="9" text-anchor="middle" x="1619.06" y="-612.8"><tspan>+ cardName: string</tspan></text><text fill="#000000" font-family="Times,serif" font-size="9" text-anchor="middle" x="1619.06" y="-602"><tspan>+ cardType: int</tspan></text><text fill="#000000" font-family="Times,serif" font-size="9" text-anchor="middle" x="1619.06" y="-591.2"><tspan>+ cost: int</tspan></text><text fill="#000000" font-family="Times,serif" font-size="9" text-anchor="middle" x="1619.06" y="-580.4"><tspan>+ rarity: int</tspan></text><text fill="#000000" font-family="Times,serif" font-size="9" text-anchor="middle" x="1619.06" y="-569.6"><tspan>+ description: string</tspan></text><text fill="#000000" font-family="Times,serif" font-size="9" text-anchor="middle" x="1619.06" y="-558.8"><tspan>+ iconPath: string</tspan></text><text fill="#000000" font-family="Times,serif" font-size="9" text-anchor="middle" x="1619.06" y="-548"><tspan>+ m_Effect: ICardEffect</tspan></text><text fill="#000000" font-family="Times,serif" font-size="9" text-anchor="middle" x="1619.06" y="-537.2"><tspan>---</tspan></text><text fill="#000000" font-family="Times,serif" font-size="9" text-anchor="middle" x="1619.06" y="-526.4"><tspan>+ GetEffectDescription(): string</tspan></text><text fill="#000000" font-family="Times,serif" font-size="9" text-anchor="middle" x="1619.06" y="-515.6"><tspan>+ CanBeUsed(context): bool</tspan></text></g><g id="node3" class="node"><polygon fill="#fff3e0" stroke="#e65100" stroke-width="2" points="1876.02,-514.3 1876.02,-630.3 2025.06,-630.3 2025.06,-514.3 1876.02,-514.3"/><text fill="#000000" font-family="Times,serif" font-size="9" text-anchor="middle" x="1905.27" y="-569.6"><tspan>CardConfig</tspan></text><polyline fill="none" stroke="#e65100" stroke-width="2" points="1934.52,-514.3 1934.52,-630.3"/><text fill="#000000" font-family="Times,serif" font-size="9" text-anchor="middle" x="1979.79" y="-618.2"><tspan>+ cardId: int</tspan></text><text fill="#000000" font-family="Times,serif" font-size="9" text-anchor="middle" x="1979.79" y="-607.4"><tspan>+ cardName: string</tspan></text><text fill="#000000" font-family="Times,serif" font-size="9" text-anchor="middle" x="1979.79" y="-596.6"><tspan>+ cardType: int</tspan></text><text fill="#000000" font-family="Times,serif" font-size="9" text-anchor="middle" x="1979.79" y="-585.8"><tspan>+ cardRarity: int</tspan></text><text fill="#000000" font-family="Times,serif" font-size="9" text-anchor="middle" x="1979.79" y="-575"><tspan>+ effectType: int</tspan></text><text fill="#000000" font-family="Times,serif" font-size="9" text-anchor="middle" x="1979.79" y="-564.2"><tspan>+ effectParams: int[]</tspan></text><text fill="#000000" font-family="Times,serif" font-size="9" text-anchor="middle" x="1979.79" y="-553.4"><tspan>+ cost: int</tspan></text><text fill="#000000" font-family="Times,serif" font-size="9" text-anchor="middle" x="1979.79" y="-542.6"><tspan>+ targetType: int</tspan></text><text fill="#000000" font-family="Times,serif" font-size="9" text-anchor="middle" x="1979.79" y="-531.8"><tspan>+ triggerId: string</tspan></text><text fill="#000000" font-family="Times,serif" font-size="9" text-anchor="middle" x="1979.79" y="-521"><tspan>+ description: string</tspan></text></g><g id="edge6" class="edge"><path fill="none" stroke="#000000" d="M 1684.84 -572.3 C 1739.46 -572.3 1810.9 -572.3 1865.94 -572.3"/><polygon fill="#000000" stroke="#000000" points="1876.02,-572.3 1866.02,-576.8 1871.02,-572.3 1866.02,-572.3 1866.02,-572.3 1866.02,-572.3 1871.02,-572.3 1866.02,-567.8 1876.02,-572.3 1876.02,-572.3"/><text fill="#000000" font-family="Times,serif" font-size="14" text-anchor="middle" x="1758.94" y="-576.5"><tspan>读取配置</tspan></text></g><g id="node4" class="node"><polygon fill="#e3f2fd" stroke="#1976d2" stroke-width="2" points="1833.05,-385.9 1833.05,-458.7 2068.03,-458.7 2068.03,-385.9 1833.05,-385.9"/><text fill="#000000" font-family="Times,serif" font-size="9" text-anchor="middle" x="1862.28" y="-419.6"><tspan>ICardEffect</tspan></text><polyline fill="none" stroke="#1976d2" stroke-width="2" points="1891.52,-385.9 1891.52,-458.7"/><text fill="#000000" font-family="Times,serif" font-size="9" text-anchor="middle" x="1979.78" y="-446.6"><tspan>+ effectId: int</tspan></text><text fill="#000000" font-family="Times,serif" font-size="9" text-anchor="middle" x="1979.78" y="-435.8"><tspan>+ effectType: int</tspan></text><text fill="#000000" font-family="Times,serif" font-size="9" text-anchor="middle" x="1979.78" y="-425"><tspan>---</tspan></text><text fill="#000000" font-family="Times,serif" font-size="9" text-anchor="middle" x="1979.78" y="-414.2"><tspan>+ Execute(context)*</tspan></text><text fill="#000000" font-family="Times,serif" font-size="9" text-anchor="middle" x="1979.78" y="-403.4"><tspan>+ CanTrigger(context)*: bool</tspan></text><text fill="#000000" font-family="Times,serif" font-size="9" text-anchor="middle" x="1979.78" y="-392.6"><tspan>+ GetEffectTargets(context)*: ChessEntity[]</tspan></text></g><g id="edge7" class="edge"><path fill="none" stroke="#000000" d="M 1684.84 -536.752 C 1735.82 -514.793 1801.44 -486.525 1854.71 -463.577"/><polygon fill="#000000" stroke="#000000" points="1854.86,-463.513 1858.79,-457.466 1865.88,-458.766 1861.96,-464.813 1854.86,-463.513"/><text fill="#000000" font-family="Times,serif" font-size="14" text-anchor="middle" x="1758.94" y="-524.5"><tspan>持有效果</tspan></text></g><g id="node5" class="node"><polygon fill="#e3f2fd" stroke="#1976d2" stroke-width="2" points="285.494,-170.1 285.494,-264.5 512.417,-264.5 512.417,-170.1 285.494,-170.1"/><text fill="#000000" font-family="Times,serif" font-size="9" text-anchor="middle" x="321.978" y="-214.6"><tspan>CardEffectBase</tspan></text><polyline fill="none" stroke="#1976d2" stroke-width="2" points="358.462,-170.1 358.462,-264.5"/><text fill="#000000" font-family="Times,serif" font-size="9" text-anchor="middle" x="435.439" y="-252.4"><tspan># m_EffectId: int</tspan></text><text fill="#000000" font-family="Times,serif" font-size="9" text-anchor="middle" x="435.439" y="-241.6"><tspan># m_Config: CardConfig</tspan></text><text fill="#000000" font-family="Times,serif" font-size="9" text-anchor="middle" x="435.439" y="-230.8"><tspan># m_Executor: EffectExecutor</tspan></text><text fill="#000000" font-family="Times,serif" font-size="9" text-anchor="middle" x="435.439" y="-220"><tspan>---</tspan></text><text fill="#000000" font-family="Times,serif" font-size="9" text-anchor="middle" x="435.439" y="-209.2"><tspan>+ Execute(context)</tspan></text><text fill="#000000" font-family="Times,serif" font-size="9" text-anchor="middle" x="435.439" y="-198.4"><tspan># GetTargets(context)*: ChessEntity[]</tspan></text><text fill="#000000" font-family="Times,serif" font-size="9" text-anchor="middle" x="435.439" y="-187.6"><tspan># ApplyEffect(target)</tspan></text><text fill="#000000" font-family="Times,serif" font-size="9" text-anchor="middle" x="435.439" y="-176.8"><tspan># PlayEffect()</tspan></text></g><g id="edge10" class="edge"><path fill="none" stroke="#000000" d="M 512.729 -260.693 C 590.523 -286.52 696.646 -314.3 793.216 -314.3 C 793.216 -314.3 793.216 -314.3 1602.31 -314.3 C 1696.77 -314.3 1799.44 -351 1868.64 -381.612"/><polygon fill="none" stroke="#000000" points="1867.62,-384.991 1878.18,-385.887 1870.49,-378.603 1867.62,-384.991"/><text fill="#000000" font-family="Times,serif" font-size="14" text-anchor="middle" x="1269.75" y="-318.5"><tspan>实现</tspan></text></g><g id="edge16" class="edge"><path fill="none" stroke="#000000" stroke-dasharray="5,2" d="M 512.597 -179.977 C 557.883 -166.935 610.814 -153.947 659.86 -147.5 C 837.095 -124.202 1045.05 -150.505 1166.63 -171.236"/><polygon fill="#000000" stroke="#000000" points="1176.67,-172.97 1166.05,-175.704 1171.75,-172.12 1166.82,-171.269 1166.82,-171.269 1166.82,-171.269 1171.75,-172.12 1167.59,-166.835 1176.67,-172.97 1176.67,-172.97"/><text fill="#000000" font-family="Times,serif" font-size="14" text-anchor="middle" x="793.216" y="-152.5"><tspan>触发事件</tspan></text></g><g id="node14" class="node"><polygon fill="#f3e5f5" stroke="#4a148c" stroke-width="2" points="659.86,-186.3 659.86,-248.3 926.571,-248.3 926.571,-186.3 659.86,-186.3"/><text fill="#000000" font-family="Times,serif" font-size="9" text-anchor="middle" x="695.094" y="-214.6"><tspan>EffectExecutor</tspan></text><polyline fill="none" stroke="#4a148c" stroke-width="2" points="730.327,-186.3 730.327,-248.3"/><text fill="#000000" font-family="Times,serif" font-size="9" text-anchor="middle" x="828.449" y="-236.2"><tspan>+ ApplyCardEffect(card, target)</tspan></text><text fill="#000000" font-family="Times,serif" font-size="9" text-anchor="middle" x="828.449" y="-225.4"><tspan>+ PlayCardEffectAnimation(effectType, position)</tspan></text><text fill="#000000" font-family="Times,serif" font-size="9" text-anchor="middle" x="828.449" y="-214.6"><tspan>+ PlayCardEffectSound(cardId)</tspan></text><text fill="#000000" font-family="Times,serif" font-size="9" text-anchor="middle" x="828.449" y="-203.8"><tspan>+ ApplyBuffToTarget(buffIds, target, source)</tspan></text><text fill="#000000" font-family="Times,serif" font-size="9" text-anchor="middle" x="828.449" y="-193"><tspan>+ ApplyDamageToTarget(damage, target, source)</tspan></text></g><g id="edge15" class="edge"><path fill="none" stroke="#000000" d="M 512.463 -217.3 C 555.184 -217.3 604.337 -217.3 649.456 -217.3"/><polygon fill="#000000" stroke="#000000" points="659.619,-217.3 649.619,-221.8 654.619,-217.3 649.619,-217.3 649.619,-217.3 649.619,-217.3 654.619,-217.3 649.619,-212.8 659.619,-217.3 659.619,-217.3"/><text fill="#000000" font-family="Times,serif" font-size="14" text-anchor="middle" x="586.139" y="-221.5"><tspan>委托执行</tspan></text></g><g id="node6" class="node"><polygon fill="#bbdefb" stroke="#1565c0" stroke-width="2" points="1.7667,-362.3 1.7667,-424.3 181.013,-424.3 181.013,-362.3 1.7667,-362.3"/><text fill="#000000" font-family="Times,serif" font-size="9" text-anchor="middle" x="45.7509" y="-390.6"><tspan>AllyBuffCardEffect</tspan></text><polyline fill="none" stroke="#1565c0" stroke-width="2" points="89.7352,-362.3 89.7352,-424.3"/><text fill="#000000" font-family="Times,serif" font-size="9" text-anchor="middle" x="135.374" y="-412.2"><tspan>- buffIds: int[]</tspan></text><text fill="#000000" font-family="Times,serif" font-size="9" text-anchor="middle" x="135.374" y="-401.4"><tspan>- targetType: int</tspan></text><text fill="#000000" font-family="Times,serif" font-size="9" text-anchor="middle" x="135.374" y="-390.6"><tspan>---</tspan></text><text fill="#000000" font-family="Times,serif" font-size="9" text-anchor="middle" x="135.374" y="-379.8"><tspan>+ Execute(context)</tspan></text><text fill="#000000" font-family="Times,serif" font-size="9" text-anchor="middle" x="135.374" y="-369"><tspan>+ GetEffectTargets()</tspan></text></g><g id="edge11" class="edge"><path fill="none" stroke="#000000" d="M 145.668 -362.24 C 190.429 -336.626 254.899 -299.735 307.592 -269.581"/><polygon fill="none" stroke="#000000" points="309.337,-272.616 316.278,-264.611 305.86,-266.54 309.337,-272.616"/><text fill="#000000" font-family="Times,serif" font-size="14" text-anchor="middle" x="234.137" y="-320.5"><tspan>继承</tspan></text></g><g id="node7" class="node"><polygon fill="#bbdefb" stroke="#1565c0" stroke-width="2" points="2.0173,-234.5 2.0173,-318.1 180.762,-318.1 180.762,-234.5 2.0173,-234.5"/><text fill="#000000" font-family="Times,serif" font-size="9" text-anchor="middle" x="44.7465" y="-273.6"><tspan>DamageCardEffect</tspan></text><polyline fill="none" stroke="#1565c0" stroke-width="2" points="87.4757,-234.5 87.4757,-318.1"/><text fill="#000000" font-family="Times,serif" font-size="9" text-anchor="middle" x="134.119" y="-306"><tspan>- damageValue: float</tspan></text><text fill="#000000" font-family="Times,serif" font-size="9" text-anchor="middle" x="134.119" y="-295.2"><tspan>- damageType: int</tspan></text><text fill="#000000" font-family="Times,serif" font-size="9" text-anchor="middle" x="134.119" y="-284.4"><tspan>- areaRadius: float</tspan></text><text fill="#000000" font-family="Times,serif" font-size="9" text-anchor="middle" x="134.119" y="-273.6"><tspan>---</tspan></text><text fill="#000000" font-family="Times,serif" font-size="9" text-anchor="middle" x="134.119" y="-262.8"><tspan>+ Execute(context)</tspan></text><text fill="#000000" font-family="Times,serif" font-size="9" text-anchor="middle" x="134.119" y="-252"><tspan>+ CalculateDamage()</tspan></text><text fill="#000000" font-family="Times,serif" font-size="9" text-anchor="middle" x="134.119" y="-241.2"><tspan>+ GetEffectTargets()</tspan></text></g><g id="edge12" class="edge"><path fill="none" stroke="#000000" d="M 180.764 -259.156 C 210.212 -253.507 243.505 -247.12 275.054 -241.068"/><polygon fill="none" stroke="#000000" points="276.067,-244.438 285.228,-239.116 274.748,-237.563 276.067,-244.438"/><text fill="#000000" font-family="Times,serif" font-size="14" text-anchor="middle" x="234.137" y="-255.5"><tspan>继承</tspan></text></g><g id="node8" class="node"><polygon fill="#bbdefb" stroke="#1565c0" stroke-width="2" points="0,-128.3 0,-190.3 182.78,-190.3 182.78,-128.3 0,-128.3"/><text fill="#000000" font-family="Times,serif" font-size="9" text-anchor="middle" x="41.4876" y="-156.6"><tspan>ControlCardEffect</tspan></text><polyline fill="none" stroke="#1565c0" stroke-width="2" points="82.9753,-128.3 82.9753,-190.3"/><text fill="#000000" font-family="Times,serif" font-size="9" text-anchor="middle" x="132.877" y="-178.2"><tspan>- controlType: int</tspan></text><text fill="#000000" font-family="Times,serif" font-size="9" text-anchor="middle" x="132.877" y="-167.4"><tspan>- duration: float</tspan></text><text fill="#000000" font-family="Times,serif" font-size="9" text-anchor="middle" x="132.877" y="-156.6"><tspan>---</tspan></text><text fill="#000000" font-family="Times,serif" font-size="9" text-anchor="middle" x="132.877" y="-145.8"><tspan>+ Execute(context)</tspan></text><text fill="#000000" font-family="Times,serif" font-size="9" text-anchor="middle" x="132.877" y="-135"><tspan>+ ApplyControl(target)</tspan></text></g><g id="edge13" class="edge"><path fill="none" stroke="#000000" d="M 182.837 -176.545 C 211.837 -182.014 244.398 -188.154 275.274 -193.976"/><polygon fill="none" stroke="#000000" points="274.757,-197.441 285.233,-195.854 276.054,-190.562 274.757,-197.441"/><text fill="#000000" font-family="Times,serif" font-size="14" text-anchor="middle" x="234.137" y="-192.5"><tspan>继承</tspan></text></g><g id="node9" class="node"><polygon fill="#bbdefb" stroke="#1565c0" stroke-width="2" points="9.5193,-0.5 9.5193,-84.1 173.26,-84.1 173.26,-0.5 9.5193,-0.5"/><text fill="#000000" font-family="Times,serif" font-size="9" text-anchor="middle" x="45.7509" y="-39.6"><tspan>HealCardEffect</tspan></text><polyline fill="none" stroke="#1565c0" stroke-width="2" points="81.9826,-0.5 81.9826,-84.1"/><text fill="#000000" font-family="Times,serif" font-size="9" text-anchor="middle" x="127.621" y="-72"><tspan>- healValue: float</tspan></text><text fill="#000000" font-family="Times,serif" font-size="9" text-anchor="middle" x="127.621" y="-61.2"><tspan>- healType: int</tspan></text><text fill="#000000" font-family="Times,serif" font-size="9" text-anchor="middle" x="127.621" y="-50.4"><tspan>- targetType: int</tspan></text><text fill="#000000" font-family="Times,serif" font-size="9" text-anchor="middle" x="127.621" y="-39.6"><tspan>---</tspan></text><text fill="#000000" font-family="Times,serif" font-size="9" text-anchor="middle" x="127.621" y="-28.8"><tspan>+ Execute(context)</tspan></text><text fill="#000000" font-family="Times,serif" font-size="9" text-anchor="middle" x="127.621" y="-18"><tspan>+ CalculateHeal()</tspan></text><text fill="#000000" font-family="Times,serif" font-size="9" text-anchor="middle" x="127.621" y="-7.2"><tspan>+ GetEffectTargets()</tspan></text></g><g id="edge14" class="edge"><path fill="none" stroke="#000000" d="M 165.06 -84.2169 C 207.628 -108.438 261.559 -139.124 306.904 -164.924"/><polygon fill="none" stroke="#000000" points="305.431,-168.113 315.853,-170.016 308.892,-162.028 305.431,-168.113"/><text fill="#000000" font-family="Times,serif" font-size="14" text-anchor="middle" x="234.137" y="-134.5"><tspan>继承</tspan></text></g><g id="edge19" class="edge"><path fill="none" stroke="#000000" d="M 1367.29 -642.972 C 1412.37 -629.415 1465.64 -613.397 1510.06 -600.041"/><polygon fill="#000000" stroke="#000000" points="1519.68,-597.146 1511.4,-604.336 1514.9,-598.586 1510.11,-600.026 1510.11,-600.026 1510.11,-600.026 1514.9,-598.586 1508.81,-595.717 1519.68,-597.146 1519.68,-597.146"/><text fill="#000000" font-family="Times,serif" font-size="14" text-anchor="middle" x="1454.64" y="-629.5"><tspan>存放卡牌池</tspan></text></g><g id="edge18" class="edge"><path fill="none" stroke="#000000" d="M 1360.63 -532.329 C 1406.94 -539.989 1463.16 -549.286 1509.72 -556.986"/><polygon fill="#000000" stroke="#000000" points="1519.8,-558.654 1509.2,-561.462 1514.87,-557.838 1509.93,-557.022 1509.93,-557.022 1509.93,-557.022 1514.87,-557.838 1510.67,-552.582 1519.8,-558.654 1519.8,-558.654"/><text fill="#000000" font-family="Times,serif" font-size="14" text-anchor="middle" x="1454.64" y="-556.5"><tspan>存放手牌</tspan></text></g><g id="edge8" class="edge"><path fill="none" stroke="#000000" stroke-dasharray="5,2" d="M 1336.1 -415.553 C 1353.77 -421.76 1372.63 -429.134 1389.48 -437.3 C 1430.95 -457.398 1474.31 -483.805 1511 -507.929"/><polygon fill="#000000" stroke="#000000" points="1519.69,-513.683 1508.87,-511.914 1515.52,-510.923 1511.35,-508.162 1511.35,-508.162 1511.35,-508.162 1515.52,-510.923 1513.83,-504.41 1519.69,-513.683 1519.69,-513.683"/><text fill="#000000" font-family="Times,serif" font-size="14" text-anchor="middle" x="1454.64" y="-492.5"><tspan>创建卡牌</tspan></text></g><g id="edge9" class="edge"><path fill="none" stroke="#000000" stroke-dasharray="5,2" d="M 1389.51 -400.049 C 1510.95 -404.866 1698.23 -412.293 1822.55 -417.224"/><polygon fill="#000000" stroke="#000000" points="1832.88,-417.634 1822.71,-421.734 1827.88,-417.435 1822.89,-417.237 1822.89,-417.237 1822.89,-417.237 1827.88,-417.435 1823.07,-412.741 1832.88,-417.634 1832.88,-417.634"/><text fill="#000000" font-family="Times,serif" font-size="14" text-anchor="middle" x="1602.31" y="-416.5"><tspan>创建效果</tspan></text></g><g id="edge17" class="edge"><path fill="none" stroke="#000000" stroke-dasharray="5,2" d="M 926.592 -210.023 C 1002.44 -205.885 1096 -200.78 1166.26 -196.947"/><polygon fill="#000000" stroke="#000000" points="1176.45,-196.391 1166.71,-201.429 1171.46,-196.663 1166.47,-196.935 1166.47,-196.935 1166.47,-196.935 1171.46,-196.663 1166.22,-192.442 1176.45,-196.391 1176.45,-196.391"/><text fill="#000000" font-family="Times,serif" font-size="14" text-anchor="middle" x="1038.3" y="-212.5"><tspan>发布结果</tspan></text></g><g id="node16" class="node"><polygon fill="#fff9c4" stroke="#f57f17" stroke-width="2" points="299.235,-513.3 299.235,-629.3 498.676,-629.3 498.676,-513.3 299.235,-513.3"/><text fill="#000000" font-family="Times,serif" font-size="9" text-anchor="middle" x="320.728" y="-568.6"><tspan>CardUI</tspan></text><polyline fill="none" stroke="#f57f17" stroke-width="2" points="342.221,-513.3 342.221,-629.3"/><text fill="#000000" font-family="Times,serif" font-size="9" text-anchor="middle" x="420.449" y="-617.2"><tspan>- m_CardManager: CardManager</tspan></text><text fill="#000000" font-family="Times,serif" font-size="9" text-anchor="middle" x="420.449" y="-606.4"><tspan>- m_HandCardsList: CardUIItem[]</tspan></text><text fill="#000000" font-family="Times,serif" font-size="9" text-anchor="middle" x="420.449" y="-595.6"><tspan>- m_CardDetailPanel: CardDetailPanel</tspan></text><text fill="#000000" font-family="Times,serif" font-size="9" text-anchor="middle" x="420.449" y="-584.8"><tspan>- m_CardAnimator: CardAnimator</tspan></text><text fill="#000000" font-family="Times,serif" font-size="9" text-anchor="middle" x="420.449" y="-574"><tspan>---</tspan></text><text fill="#000000" font-family="Times,serif" font-size="9" text-anchor="middle" x="420.449" y="-563.2"><tspan>+ DisplayHandCards()</tspan></text><text fill="#000000" font-family="Times,serif" font-size="9" text-anchor="middle" x="420.449" y="-552.4"><tspan>+ OnCardSelected(cardId)</tspan></text><text fill="#000000" font-family="Times,serif" font-size="9" text-anchor="middle" x="420.449" y="-541.6"><tspan>+ OnCardUsed(cardId)</tspan></text><text fill="#000000" font-family="Times,serif" font-size="9" text-anchor="middle" x="420.449" y="-530.8"><tspan>+ ShowCardDetail(cardId)</tspan></text><text fill="#000000" font-family="Times,serif" font-size="9" text-anchor="middle" x="420.449" y="-520"><tspan>+ PlayCardAnimation(cardId)</tspan></text></g><g id="edge20" class="edge"><path fill="none" stroke="#000000" d="M 498.699 -591.539 C 554.444 -602.851 624.066 -616.977 681.62 -628.656"/><polygon fill="#000000" stroke="#000000" points="691.483,-630.657 680.788,-633.079 686.582,-629.663 681.682,-628.668 681.682,-628.668 681.682,-628.668 686.582,-629.663 682.577,-624.258 691.483,-630.657 691.483,-630.657"/><text fill="#000000" font-family="Times,serif" font-size="14" text-anchor="middle" x="586.139" y="-620.5"><tspan>引用管理器</tspan></text></g><g id="edge23" class="edge"><path fill="none" stroke="#000000" stroke-dasharray="5,2" d="M 498.715 -516.161 C 609.789 -456.096 795.687 -359.489 962.571 -291.3 C 1029.21 -264.071 1106.25 -239.008 1166.5 -220.784"/><polygon fill="#000000" stroke="#000000" points="1176.41,-217.804 1168.13,-224.995 1171.62,-219.245 1166.83,-220.685 1166.83,-220.685 1166.83,-220.685 1171.62,-219.245 1165.53,-216.376 1176.41,-217.804 1176.41,-217.804"/><text fill="#000000" font-family="Times,serif" font-size="14" text-anchor="middle" x="793.216" y="-436.5"><tspan>订阅事件</tspan></text></g><g id="node17" class="node"><polygon fill="#fff9c4" stroke="#f57f17" stroke-width="2" points="962.571,-860.3 962.571,-976.3 1114.03,-976.3 1114.03,-860.3 962.571,-860.3"/><text fill="#000000" font-family="Times,serif" font-size="9" text-anchor="middle" x="992.311" y="-915.6"><tspan>CardUIItem</tspan></text><polyline fill="none" stroke="#f57f17" stroke-width="2" points="1022.05,-860.3 1022.05,-976.3"/><text fill="#000000" font-family="Times,serif" font-size="9" text-anchor="middle" x="1068.04" y="-964.2"><tspan>- m_Card: Card</tspan></text><text fill="#000000" font-family="Times,serif" font-size="9" text-anchor="middle" x="1068.04" y="-953.4"><tspan>- m_Icon: Image</tspan></text><text fill="#000000" font-family="Times,serif" font-size="9" text-anchor="middle" x="1068.04" y="-942.6"><tspan>- m_CostText: Text</tspan></text><text fill="#000000" font-family="Times,serif" font-size="9" text-anchor="middle" x="1068.04" y="-931.8"><tspan>- m_NameText: Text</tspan></text><text fill="#000000" font-family="Times,serif" font-size="9" text-anchor="middle" x="1068.04" y="-921"><tspan>---</tspan></text><text fill="#000000" font-family="Times,serif" font-size="9" text-anchor="middle" x="1068.04" y="-910.2"><tspan>+ SetCard(card)</tspan></text><text fill="#000000" font-family="Times,serif" font-size="9" text-anchor="middle" x="1068.04" y="-899.4"><tspan>+ OnClicked()</tspan></text><text fill="#000000" font-family="Times,serif" font-size="9" text-anchor="middle" x="1068.04" y="-888.6"><tspan>+ OnPointerEnter()</tspan></text><text fill="#000000" font-family="Times,serif" font-size="9" text-anchor="middle" x="1068.04" y="-877.8"><tspan>+ OnPointerExit()</tspan></text><text fill="#000000" font-family="Times,serif" font-size="9" text-anchor="middle" x="1068.04" y="-867"><tspan>+ ShowTooltip()</tspan></text></g><g id="edge21" class="edge"><path fill="none" stroke="#000000" d="M 485.292 -629.439 C 535.398 -662.278 600.211 -703.24 659.86 -736.3 C 757.407 -790.364 873.507 -844.804 951.154 -879.865"/><polygon fill="#000000" stroke="#000000" points="951.383,-879.968 958.496,-878.784 962.324,-884.895 955.211,-886.078 951.383,-879.968"/><text fill="#000000" font-family="Times,serif" font-size="14" text-anchor="middle" x="586.139" y="-720.5"><tspan>管理卡牌项</tspan></text></g><g id="node18" class="node"><polygon fill="#fff9c4" stroke="#f57f17" stroke-width="2" points="668.837,-503.1 668.837,-543.5 917.595,-543.5 917.595,-503.1 668.837,-503.1"/><text fill="#000000" font-family="Times,serif" font-size="9" text-anchor="middle" x="702.829" y="-520.6"><tspan>CardAnimator</tspan></text><polyline fill="none" stroke="#f57f17" stroke-width="2" points="736.822,-503.1 736.822,-543.5"/><text fill="#000000" font-family="Times,serif" font-size="9" text-anchor="middle" x="827.208" y="-531.4"><tspan>+ PlayCardUsedAnimation(cardId, targetPos)</tspan></text><text fill="#000000" font-family="Times,serif" font-size="9" text-anchor="middle" x="827.208" y="-520.6"><tspan>+ PlayCardEffectAnimation(effectType)</tspan></text><text fill="#000000" font-family="Times,serif" font-size="9" text-anchor="middle" x="827.208" y="-509.8"><tspan>+ PlayCardRemovalAnimation(cardId)</tspan></text></g><g id="edge22" class="edge"><path fill="none" stroke="#000000" d="M 498.999 -556.988 C 515.498 -554.74 532.43 -552.5 548.417 -550.5 C 584.099 -546.036 622.753 -541.569 658.578 -537.584"/><polygon fill="#000000" stroke="#000000" points="668.602,-536.473 659.159,-542.047 663.633,-537.024 658.663,-537.575 658.663,-537.575 658.663,-537.575 663.633,-537.024 658.167,-533.102 668.602,-536.473 668.602,-536.473"/><text fill="#000000" font-family="Times,serif" font-size="14" text-anchor="middle" x="586.139" y="-555.5"><tspan>播放动画</tspan></text></g><g id="edge24" class="edge"><path fill="none" stroke="#000000" d="M 1114.11 -932.09 C 1189.27 -941.716 1305.09 -945.304 1389.48 -896.3 C 1485.2 -840.719 1545.77 -722.827 1576.85 -645.628"/><polygon fill="#000000" stroke="#000000" points="1580.68,-635.953 1581.19,-646.908 1578.84,-640.603 1577,-645.252 1577,-645.252 1577,-645.252 1578.84,-640.603 1572.82,-643.597 1580.68,-635.953 1580.68,-635.953"/><text fill="#000000" font-family="Times,serif" font-size="14" text-anchor="middle" x="1269.75" y="-941.5"><tspan>显示卡牌数据</tspan></text></g><g id="node19" class="node"><polygon fill="#ffccbc" stroke="#d84315" stroke-width="2" points="301.726,-962.9 301.726,-1035.7 496.186,-1035.7 496.186,-962.9 301.726,-962.9"/><text fill="#000000" font-family="Times,serif" font-size="9" text-anchor="middle" x="339.717" y="-996.6"><tspan>CardPurification</tspan></text><polyline fill="none" stroke="#d84315" stroke-width="2" points="377.709,-962.9 377.709,-1035.7"/><text fill="#000000" font-family="Times,serif" font-size="9" text-anchor="middle" x="436.947" y="-1023.6"><tspan>- sourceEnemy: ChessEntity</tspan></text><text fill="#000000" font-family="Times,serif" font-size="9" text-anchor="middle" x="436.947" y="-1012.8"><tspan>- availableCards: CardId[]</tspan></text><text fill="#000000" font-family="Times,serif" font-size="9" text-anchor="middle" x="436.947" y="-1002"><tspan>---</tspan></text><text fill="#000000" font-family="Times,serif" font-size="9" text-anchor="middle" x="436.947" y="-991.2"><tspan>+ SelectCard(cardId): Card</tspan></text><text fill="#000000" font-family="Times,serif" font-size="9" text-anchor="middle" x="436.947" y="-980.4"><tspan>+ ConfirmSelection()</tspan></text><text fill="#000000" font-family="Times,serif" font-size="9" text-anchor="middle" x="436.947" y="-969.6"><tspan>+ GetPurificationCards()</tspan></text></g><g id="edge26" class="edge"><path fill="none" stroke="#000000" stroke-dasharray="5,2" d="M 485.281 -962.802 C 529.572 -941.536 582.708 -911.888 623.86 -876.3 C 674.62 -832.404 719.634 -770.897 750.471 -723.283"/><polygon fill="#000000" stroke="#000000" points="755.871,-714.864 754.26,-725.711 753.171,-719.073 750.472,-723.282 750.472,-723.282 750.472,-723.282 753.171,-719.073 746.684,-720.852 755.871,-714.864 755.871,-714.864"/><text fill="#000000" font-family="Times,serif" font-size="14" text-anchor="middle" x="586.139" y="-932.5"><tspan>提交获得</tspan></text></g><g id="edge25" class="edge"><path fill="none" stroke="#000000" d="M 496.231 -1019.94 C 680.714 -1054.05 1089.76 -1105.32 1389.48 -964.3 C 1512.99 -906.189 1567.32 -742.266 1589.18 -645.788"/><polygon fill="#000000" stroke="#000000" points="1591.38,-635.806 1593.62,-646.54 1590.3,-640.688 1589.23,-645.571 1589.23,-645.571 1589.23,-645.571 1590.3,-640.688 1584.83,-644.602 1591.38,-635.806 1591.38,-635.806"/><text fill="#000000" font-family="Times,serif" font-size="14" text-anchor="middle" x="1038.3" y="-1059.5"><tspan>产出卡牌</tspan></text></g></g></svg>
