<?xml version="1.0" encoding="UTF-8" standalone="yes"?><svg xmlns="http://www.w3.org/2000/svg" xmlns:xlink="http://www.w3.org/1999/xlink" version="1.2" baseProfile="tiny" x="0" y="0" width="878" height="288" viewBox="0 0 878 288"><defs/><g id="graph0" class="graph" transform="matrix(1,0,0,1,4,284)"><polygon fill="#ffffff" stroke="rgba(0,0,0,0)" points="-4,4 -4,-284 874,-284 874,4 -4,4"/><g id="node1" class="node"><path fill="#e3f2fd" stroke="#000000" d="M 103 -280 C 103 -280 12 -280 12 -280 C 6 -280 0 -274 0 -268 C 0 -268 0 -256 0 -256 C 0 -250 6 -244 12 -244 C 12 -244 103 -244 103 -244 C 109 -244 115 -250 115 -256 C 115 -256 115 -268 115 -268 C 115 -274 109 -280 103 -280 Z"/><text fill="#000000" font-family="SimHei,sans-serif" font-size="10" text-anchor="middle" x="57.5" y="-259"><tspan>1. 战斗胜利</tspan></text></g><g id="node2" class="node"><path fill="#e3f2fd" stroke="#000000" d="M 254 -280 C 254 -280 163 -280 163 -280 C 157 -280 151 -274 151 -268 C 151 -268 151 -256 151 -256 C 151 -250 157 -244 163 -244 C 163 -244 254 -244 254 -244 C 260 -244 266 -250 266 -256 C 266 -256 266 -268 266 -268 C 266 -274 260 -280 254 -280 Z"/><text fill="#000000" font-family="SimHei,sans-serif" font-size="10" text-anchor="middle" x="208.5" y="-259"><tspan>2. 检查特殊敌人</tspan></text></g><g id="edge1" class="edge"><path fill="none" stroke="#000000" stroke-width="1.2" d="M 115.017 -262 C 115.017 -262 140.893 -262 140.893 -262"/><polygon fill="#000000" stroke="#000000" stroke-width="1.2" points="140.893,-265.5 150.893,-262 140.893,-258.5 140.893,-265.5"/></g><g id="node3" class="node"><path fill="#e3f2fd" stroke="#000000" d="M 405 -280 C 405 -280 314 -280 314 -280 C 308 -280 302 -274 302 -268 C 302 -268 302 -256 302 -256 C 302 -250 308 -244 314 -244 C 314 -244 405 -244 405 -244 C 411 -244 417 -250 417 -256 C 417 -256 417 -268 417 -268 C 417 -274 411 -280 405 -280 Z"/><text fill="#000000" font-family="SimHei,sans-serif" font-size="10" text-anchor="middle" x="359.5" y="-259"><tspan>3. 敌人净化</tspan></text></g><g id="edge2" class="edge"><path fill="none" stroke="#000000" stroke-width="1.2" d="M 266.017 -262 C 266.017 -262 291.892 -262 291.892 -262"/><polygon fill="#000000" stroke="#000000" stroke-width="1.2" points="291.893,-265.5 301.892,-262 291.892,-258.5 291.893,-265.5"/></g><g id="node4" class="node"><path fill="#fff3e0" stroke="#000000" d="M 556 -280 C 556 -280 465 -280 465 -280 C 459 -280 453 -274 453 -268 C 453 -268 453 -256 453 -256 C 453 -250 459 -244 465 -244 C 465 -244 556 -244 556 -244 C 562 -244 568 -250 568 -256 C 568 -256 568 -268 568 -268 C 568 -274 562 -280 556 -280 Z"/><text fill="#000000" font-family="SimHei,sans-serif" font-size="10" text-anchor="middle" x="510.5" y="-259"><tspan>4. 获得卡牌ID</tspan></text></g><g id="edge3" class="edge"><path fill="none" stroke="#000000" stroke-width="1.2" d="M 417.017 -262 C 417.017 -262 442.892 -262 442.892 -262"/><polygon fill="#000000" stroke="#000000" stroke-width="1.2" points="442.893,-265.5 452.892,-262 442.892,-258.5 442.893,-265.5"/></g><g id="node5" class="node"><path fill="#fff3e0" stroke="#000000" d="M 707 -280 C 707 -280 616 -280 616 -280 C 610 -280 604 -274 604 -268 C 604 -268 604 -256 604 -256 C 604 -250 610 -244 616 -244 C 616 -244 707 -244 707 -244 C 713 -244 719 -250 719 -256 C 719 -256 719 -268 719 -268 C 719 -274 713 -280 707 -280 Z"/><text fill="#000000" font-family="SimHei,sans-serif" font-size="10" text-anchor="middle" x="661.5" y="-259"><tspan>5. 加入CardPool</tspan></text></g><g id="edge4" class="edge"><path fill="none" stroke="#000000" stroke-width="1.2" d="M 568.017 -262 C 568.017 -262 593.893 -262 593.893 -262"/><polygon fill="#000000" stroke="#000000" stroke-width="1.2" points="593.893,-265.5 603.893,-262 593.893,-258.5 593.893,-265.5"/></g><g id="node6" class="node"><path fill="#fff3e0" stroke="#000000" d="M 858 -280 C 858 -280 767 -280 767 -280 C 761 -280 755 -274 755 -268 C 755 -268 755 -256 755 -256 C 755 -250 761 -244 767 -244 C 767 -244 858 -244 858 -244 C 864 -244 870 -250 870 -256 C 870 -256 870 -268 870 -268 C 870 -274 864 -280 858 -280 Z"/><text fill="#000000" font-family="SimHei,sans-serif" font-size="10" text-anchor="middle" x="812.5" y="-259"><tspan>6. 卡牌选择UI</tspan></text></g><g id="edge5" class="edge"><path fill="none" stroke="#000000" stroke-width="1.2" d="M 719.017 -262 C 719.017 -262 744.893 -262 744.893 -262"/><polygon fill="#000000" stroke="#000000" stroke-width="1.2" points="744.893,-265.5 754.893,-262 744.893,-258.5 744.893,-265.5"/></g><g id="node7" class="node"><path fill="#fff3e0" stroke="#000000" d="M 858 -158 C 858 -158 767 -158 767 -158 C 761 -158 755 -152 755 -146 C 755 -146 755 -134 755 -134 C 755 -128 761 -122 767 -122 C 767 -122 858 -122 858 -122 C 864 -122 870 -128 870 -134 C 870 -134 870 -146 870 -146 C 870 -152 864 -158 858 -158 Z"/><text fill="#000000" font-family="SimHei,sans-serif" font-size="10" text-anchor="middle" x="812.5" y="-143"><tspan>7. 玩家选择</tspan></text><text fill="#000000" font-family="SimHei,sans-serif" font-size="10" text-anchor="middle" x="812.5" y="-131"><tspan>(最多3张)</tspan></text></g><g id="edge20" class="edge"><path fill="none" stroke="#000000" stroke-width="1.2" d="M 812.5 -243.999 C 812.5 -243.999 812.5 -168.075 812.5 -168.075"/><polygon fill="#000000" stroke="#000000" stroke-width="1.2" points="816,-168.075 812.5,-158.075 809,-168.075 816,-168.075"/></g><g id="node8" class="node"><path fill="#f3e5f5" stroke="#000000" d="M 707 -158 C 707 -158 616 -158 616 -158 C 610 -158 604 -152 604 -146 C 604 -146 604 -134 604 -134 C 604 -128 610 -122 616 -122 C 616 -122 707 -122 707 -122 C 713 -122 719 -128 719 -134 C 719 -134 719 -146 719 -146 C 719 -152 713 -158 707 -158 Z"/><text fill="#000000" font-family="SimHei,sans-serif" font-size="10" text-anchor="middle" x="661.5" y="-137"><tspan>8. 进入HandCards</tspan></text></g><g id="edge11" class="edge"><path fill="none" stroke="#000000" stroke-width="1.2" d="M 754.983 -146 C 754.983 -146 729.107 -146 729.107 -146"/><polygon fill="#000000" stroke="#000000" stroke-width="1.2" points="729.107,-142.5 719.107,-146 729.107,-149.5 729.107,-142.5"/></g><g id="node9" class="node"><path fill="#c8e6c9" stroke="#000000" d="M 556 -158 C 556 -158 465 -158 465 -158 C 459 -158 453 -152 453 -146 C 453 -146 453 -134 453 -134 C 453 -128 459 -122 465 -122 C 465 -122 556 -122 556 -122 C 562 -122 568 -128 568 -134 C 568 -134 568 -146 568 -146 C 568 -152 562 -158 556 -158 Z"/><text fill="#000000" font-family="SimHei,sans-serif" font-size="10" text-anchor="middle" x="510.5" y="-137"><tspan>9. 选择出牌</tspan></text></g><g id="edge12" class="edge"><path fill="none" stroke="#000000" stroke-width="1.2" d="M 603.983 -134 C 603.983 -134 578.107 -134 578.107 -134"/><polygon fill="#000000" stroke="#000000" stroke-width="1.2" points="578.107,-130.5 568.107,-134 578.107,-137.5 578.107,-130.5"/></g><g id="node10" class="node"><path fill="#c8e6c9" stroke="#000000" d="M 405 -158 C 405 -158 314 -158 314 -158 C 308 -158 302 -152 302 -146 C 302 -146 302 -134 302 -134 C 302 -128 308 -122 314 -122 C 314 -122 405 -122 405 -122 C 411 -122 417 -128 417 -134 C 417 -134 417 -146 417 -146 C 417 -152 411 -158 405 -158 Z"/><text fill="#000000" font-family="SimHei,sans-serif" font-size="10" text-anchor="middle" x="359.5" y="-137"><tspan>10. 获取CardTable</tspan></text></g><g id="edge13" class="edge"><path fill="none" stroke="#000000" stroke-width="1.2" d="M 452.983 -146 C 452.983 -146 427.108 -146 427.108 -146"/><polygon fill="#000000" stroke="#000000" stroke-width="1.2" points="427.108,-142.5 417.108,-146 427.107,-149.5 427.108,-142.5"/></g><g id="node11" class="node"><path fill="#c8e6c9" stroke="#000000" d="M 254 -158 C 254 -158 163 -158 163 -158 C 157 -158 151 -152 151 -146 C 151 -146 151 -134 151 -134 C 151 -128 157 -122 163 -122 C 163 -122 254 -122 254 -122 C 260 -122 266 -128 266 -134 C 266 -134 266 -146 266 -146 C 266 -152 260 -158 254 -158 Z"/><text fill="#000000" font-family="SimHei,sans-serif" font-size="10" text-anchor="middle" x="208.5" y="-137"><tspan>11. 解析卡牌效果</tspan></text></g><g id="edge14" class="edge"><path fill="none" stroke="#000000" stroke-width="1.2" d="M 301.983 -146 C 301.983 -146 276.108 -146 276.108 -146"/><polygon fill="#000000" stroke="#000000" stroke-width="1.2" points="276.108,-142.5 266.108,-146 276.107,-149.5 276.108,-142.5"/></g><g id="node12" class="node"><path fill="#c8e6c9" stroke="#000000" d="M 103 -158 C 103 -158 12 -158 12 -158 C 6 -158 0 -152 0 -146 C 0 -146 0 -134 0 -134 C 0 -128 6 -122 12 -122 C 12 -122 103 -122 103 -122 C 109 -122 115 -128 115 -134 C 115 -134 115 -146 115 -146 C 115 -152 109 -158 103 -158 Z"/><text fill="#000000" font-family="SimHei,sans-serif" font-size="10" text-anchor="middle" x="57.5" y="-137"><tspan>12. 确定作用对象</tspan></text></g><g id="edge15" class="edge"><path fill="none" stroke="#000000" stroke-width="1.2" d="M 150.983 -146 C 150.983 -146 125.108 -146 125.108 -146"/><polygon fill="#000000" stroke="#000000" stroke-width="1.2" points="125.108,-142.5 115.108,-146 125.107,-149.5 125.108,-142.5"/></g><g id="node13" class="node"><path fill="#ffccbc" stroke="#000000" d="M 103 -36 C 103 -36 12 -36 12 -36 C 6 -36 0 -30 0 -24 C 0 -24 0 -12 0 -12 C 0 -6 6 0 12 0 C 12 0 103 0 103 0 C 109 0 115 -6 115 -12 C 115 -12 115 -24 115 -24 C 115 -30 109 -36 103 -36 Z"/><text fill="#000000" font-family="SimHei,sans-serif" font-size="10" text-anchor="middle" x="57.5" y="-21"><tspan>13. 应用效果</tspan></text><text fill="#000000" font-family="SimHei,sans-serif" font-size="10" text-anchor="middle" x="57.5" y="-9"><tspan>(我方/敌方)</tspan></text></g><g id="edge21" class="edge"><path fill="none" stroke="#000000" stroke-width="1.2" d="M 57.5 -121.999 C 57.5 -121.999 57.5 -46.0754 57.5 -46.0754"/><polygon fill="#000000" stroke="#000000" stroke-width="1.2" points="61.0001,-46.0753 57.5,-36.0754 54.0001,-46.0754 61.0001,-46.0753"/></g><g id="node14" class="node"><path fill="#bbdefb" stroke="#000000" d="M 254 -36 C 254 -36 163 -36 163 -36 C 157 -36 151 -30 151 -24 C 151 -24 151 -12 151 -12 C 151 -6 157 0 163 0 C 163 0 254 0 254 0 C 260 0 266 -6 266 -12 C 266 -12 266 -24 266 -24 C 266 -30 260 -36 254 -36 Z"/><text fill="#000000" font-family="SimHei,sans-serif" font-size="10" text-anchor="middle" x="208.5" y="-15"><tspan>14. 更新状态</tspan></text></g><g id="edge16" class="edge"><path fill="none" stroke="#000000" stroke-width="1.2" d="M 115.017 -18 C 115.017 -18 140.893 -18 140.893 -18"/><polygon fill="#000000" stroke="#000000" stroke-width="1.2" points="140.893,-21.5001 150.893,-18 140.893,-14.5001 140.893,-21.5001"/></g><g id="node15" class="node"><path fill="#bbdefb" stroke="#000000" d="M 405 -36 C 405 -36 314 -36 314 -36 C 308 -36 302 -30 302 -24 C 302 -24 302 -12 302 -12 C 302 -6 308 0 314 0 C 314 0 405 0 405 0 C 411 0 417 -6 417 -12 C 417 -12 417 -24 417 -24 C 417 -30 411 -36 405 -36 Z"/><text fill="#000000" font-family="SimHei,sans-serif" font-size="10" text-anchor="middle" x="359.5" y="-15"><tspan>15. 发布事件</tspan></text></g><g id="edge17" class="edge"><path fill="none" stroke="#000000" stroke-width="1.2" d="M 266.017 -18 C 266.017 -18 291.892 -18 291.892 -18"/><polygon fill="#000000" stroke="#000000" stroke-width="1.2" points="291.893,-21.5001 301.892,-18 291.892,-14.5001 291.893,-21.5001"/></g><g id="node16" class="node"><path fill="#bbdefb" stroke="#000000" d="M 556 -36 C 556 -36 465 -36 465 -36 C 459 -36 453 -30 453 -24 C 453 -24 453 -12 453 -12 C 453 -6 459 0 465 0 C 465 0 556 0 556 0 C 562 0 568 -6 568 -12 C 568 -12 568 -24 568 -24 C 568 -30 562 -36 556 -36 Z"/><text fill="#000000" font-family="SimHei,sans-serif" font-size="10" text-anchor="middle" x="510.5" y="-15"><tspan>16. 播放特效</tspan></text></g><g id="edge18" class="edge"><path fill="none" stroke="#000000" stroke-width="1.2" d="M 417.017 -18 C 417.017 -18 442.892 -18 442.892 -18"/><polygon fill="#000000" stroke="#000000" stroke-width="1.2" points="442.893,-21.5001 452.892,-18 442.892,-14.5001 442.893,-21.5001"/></g><g id="node17" class="node"><path fill="#c8e6c9" stroke="#000000" d="M 707 -36 C 707 -36 616 -36 616 -36 C 610 -36 604 -30 604 -24 C 604 -24 604 -12 604 -12 C 604 -6 610 0 616 0 C 616 0 707 0 707 0 C 713 0 719 -6 719 -12 C 719 -12 719 -24 719 -24 C 719 -30 713 -36 707 -36 Z"/><text fill="#000000" font-family="SimHei,sans-serif" font-size="10" text-anchor="middle" x="661.5" y="-15"><tspan>17. 继续游戏</tspan></text></g><g id="edge19" class="edge"><path fill="none" stroke="#000000" stroke-width="1.2" d="M 568.017 -18 C 568.017 -18 593.893 -18 593.893 -18"/><polygon fill="#000000" stroke="#000000" stroke-width="1.2" points="593.893,-21.5001 603.893,-18 593.893,-14.5001 593.893,-21.5001"/></g></g></svg>
