<?xml version="1.0" encoding="UTF-8" standalone="yes"?><svg xmlns="http://www.w3.org/2000/svg" xmlns:xlink="http://www.w3.org/1999/xlink" version="1.2" baseProfile="tiny" x="0" y="0" width="1966" height="845" viewBox="0 0 1966.02 845"><defs/><g id="graph0" class="graph" transform="matrix(1,0,0,1,4,841)"><polygon fill="#ffffff" stroke="rgba(0,0,0,0)" points="-4,4 -4,-841 1962.02,-841 1962.02,4 -4,4"/><g id="node1" class="node"><polygon fill="#e3f2fd" stroke="#1976d2" stroke-width="2" points="374.834,-567.5 374.834,-695.5 600.734,-695.5 600.734,-567.5 374.834,-567.5"/><text fill="#000000" font-family="Times,serif" font-size="10" text-anchor="middle" x="409.765" y="-628.5"><tspan>BuffManager</tspan></text><polyline fill="none" stroke="#1976d2" stroke-width="2" points="444.696,-567.5 444.696,-695.5"/><text fill="#000000" font-family="Times,serif" font-size="10" text-anchor="middle" x="522.715" y="-682.5"><tspan>+ m_ActiveBuffs: BaseBuff[]</tspan></text><text fill="#000000" font-family="Times,serif" font-size="10" text-anchor="middle" x="522.715" y="-670.5"><tspan>+ m_Owner: ChessEntity</tspan></text><text fill="#000000" font-family="Times,serif" font-size="10" text-anchor="middle" x="522.715" y="-658.5"><tspan>+ m_BuffFactory: BuffFactory</tspan></text><text fill="#000000" font-family="Times,serif" font-size="10" text-anchor="middle" x="522.715" y="-646.5"><tspan>---</tspan></text><text fill="#000000" font-family="Times,serif" font-size="10" text-anchor="middle" x="522.715" y="-634.5"><tspan>+ AddBuff(buffId, caster)</tspan></text><text fill="#000000" font-family="Times,serif" font-size="10" text-anchor="middle" x="522.715" y="-622.5"><tspan>+ RemoveBuff(buffId)</tspan></text><text fill="#000000" font-family="Times,serif" font-size="10" text-anchor="middle" x="522.715" y="-610.5"><tspan>+ RemoveBuffByType(type)</tspan></text><text fill="#000000" font-family="Times,serif" font-size="10" text-anchor="middle" x="522.715" y="-598.5"><tspan>+ Tick(deltaTime)</tspan></text><text fill="#000000" font-family="Times,serif" font-size="10" text-anchor="middle" x="522.715" y="-586.5"><tspan>+ GetBuffByType(type): BaseBuff</tspan></text><text fill="#000000" font-family="Times,serif" font-size="10" text-anchor="middle" x="522.715" y="-574.5"><tspan>+ HasBuff(buffId): bool</tspan></text></g><g id="node2" class="node"><polygon fill="#fff3e0" stroke="#e65100" stroke-width="2" points="1410.26,-294.5 1410.26,-494.5 1613.85,-494.5 1613.85,-294.5 1410.26,-294.5"/><text fill="#000000" font-family="Times,serif" font-size="10" text-anchor="middle" x="1437.14" y="-391.5"><tspan>BaseBuff</tspan></text><polyline fill="none" stroke="#e65100" stroke-width="2" points="1464.02,-294.5 1464.02,-494.5"/><text fill="#000000" font-family="Times,serif" font-size="10" text-anchor="middle" x="1538.94" y="-481.5"><tspan># m_Id: int</tspan></text><text fill="#000000" font-family="Times,serif" font-size="10" text-anchor="middle" x="1538.94" y="-469.5"><tspan># m_Name: string</tspan></text><text fill="#000000" font-family="Times,serif" font-size="10" text-anchor="middle" x="1538.94" y="-457.5"><tspan># m_Type: BuffType</tspan></text><text fill="#000000" font-family="Times,serif" font-size="10" text-anchor="middle" x="1538.94" y="-445.5"><tspan># m_StackCount: int</tspan></text><text fill="#000000" font-family="Times,serif" font-size="10" text-anchor="middle" x="1538.94" y="-433.5"><tspan># m_Duration: float</tspan></text><text fill="#000000" font-family="Times,serif" font-size="10" text-anchor="middle" x="1538.94" y="-421.5"><tspan># m_RemainingTime: float</tspan></text><text fill="#000000" font-family="Times,serif" font-size="10" text-anchor="middle" x="1538.94" y="-409.5"><tspan># m_EffectType: BuffEffectType</tspan></text><text fill="#000000" font-family="Times,serif" font-size="10" text-anchor="middle" x="1538.94" y="-397.5"><tspan># m_Caster: ChessEntity</tspan></text><text fill="#000000" font-family="Times,serif" font-size="10" text-anchor="middle" x="1538.94" y="-385.5"><tspan># m_Owner: ChessEntity</tspan></text><text fill="#000000" font-family="Times,serif" font-size="10" text-anchor="middle" x="1538.94" y="-373.5"><tspan>---</tspan></text><text fill="#000000" font-family="Times,serif" font-size="10" text-anchor="middle" x="1538.94" y="-361.5"><tspan>+ OnApply()*</tspan></text><text fill="#000000" font-family="Times,serif" font-size="10" text-anchor="middle" x="1538.94" y="-349.5"><tspan>+ OnTick(deltaTime)*</tspan></text><text fill="#000000" font-family="Times,serif" font-size="10" text-anchor="middle" x="1538.94" y="-337.5"><tspan>+ OnRemove()*</tspan></text><text fill="#000000" font-family="Times,serif" font-size="10" text-anchor="middle" x="1538.94" y="-325.5"><tspan>+ CanStack(): bool</tspan></text><text fill="#000000" font-family="Times,serif" font-size="10" text-anchor="middle" x="1538.94" y="-313.5"><tspan>+ Refresh()</tspan></text><text fill="#000000" font-family="Times,serif" font-size="10" text-anchor="middle" x="1538.94" y="-301.5"><tspan>+ IsExpired(): bool</tspan></text></g><g id="edge1" class="edge"><path fill="none" stroke="#000000" d="M 600.836 -602.359 C 676.126 -583.169 777.331 -557.789 867.009 -536.7 C 1052.66 -493.041 1269.33 -446.094 1398.36 -418.557"/><polygon fill="#000000" stroke="#000000" points="1398.45,-418.538 1403.49,-413.375 1410.19,-416.035 1405.16,-421.199 1398.45,-418.538"/><text fill="#000000" font-family="Times,serif" font-size="14" text-anchor="middle" x="1000.22" y="-540.7"><tspan>管理Buff列表                                                </tspan></text></g><g id="node7" class="node"><polygon fill="#f1f8e9" stroke="#558b2f" stroke-width="2" points="867.009,-575.5 867.009,-619.5 1133.43,-619.5 1133.43,-575.5 867.009,-575.5"/><text fill="#000000" font-family="Times,serif" font-size="10" text-anchor="middle" x="899.445" y="-594.5"><tspan>BuffFactory</tspan></text><polyline fill="none" stroke="#558b2f" stroke-width="2" points="931.881,-575.5 931.881,-619.5"/><text fill="#000000" font-family="Times,serif" font-size="10" text-anchor="middle" x="1032.65" y="-606.5"><tspan>---</tspan></text><text fill="#000000" font-family="Times,serif" font-size="10" text-anchor="middle" x="1032.65" y="-594.5"><tspan>+ CreateBuff(buffId, caster, owner): BaseBuff</tspan></text><text fill="#000000" font-family="Times,serif" font-size="10" text-anchor="middle" x="1032.65" y="-582.5"><tspan>+ GetBuffConfig(buffId): BuffTable</tspan></text></g><g id="edge2" class="edge"><path fill="none" stroke="#000000" d="M 600.874 -623.996 C 676.201 -618.999 775.828 -612.388 856.728 -607.021"/><polygon fill="#000000" stroke="#000000" points="867.002,-606.339 857.322,-611.491 862.013,-606.67 857.024,-607.001 857.024,-607.001 857.024,-607.001 862.013,-606.67 856.726,-602.511 867.002,-606.339 867.002,-606.339"/><text fill="#000000" font-family="Times,serif" font-size="14" text-anchor="middle" x="733.871" y="-624.7"><tspan>委托创建</tspan></text></g><g id="node12" class="node"><polygon fill="#fce4ec" stroke="#c2185b" stroke-width="2" points="894.761,-663.5 894.761,-731.5 1105.68,-731.5 1105.68,-663.5 894.761,-663.5"/><text fill="#000000" font-family="Times,serif" font-size="10" text-anchor="middle" x="933.307" y="-694.5"><tspan>BuffEventArgs</tspan></text><polyline fill="none" stroke="#c2185b" stroke-width="2" points="971.852,-663.5 971.852,-731.5"/><text fill="#000000" font-family="Times,serif" font-size="10" text-anchor="middle" x="1038.76" y="-718.5"><tspan>+ buffId: int</tspan></text><text fill="#000000" font-family="Times,serif" font-size="10" text-anchor="middle" x="1038.76" y="-706.5"><tspan>+ caster: ChessEntity</tspan></text><text fill="#000000" font-family="Times,serif" font-size="10" text-anchor="middle" x="1038.76" y="-694.5"><tspan>+ target: ChessEntity</tspan></text><text fill="#000000" font-family="Times,serif" font-size="10" text-anchor="middle" x="1038.76" y="-682.5"><tspan>+ eventType: BuffEventType</tspan></text><text fill="#000000" font-family="Times,serif" font-size="10" text-anchor="middle" x="1038.76" y="-670.5"><tspan>+ stackCount: int</tspan></text></g><g id="edge14" class="edge"><path fill="none" stroke="#000000" stroke-dasharray="5,2" d="M 600.874 -646.066 C 685.078 -656.911 799.648 -671.667 884.48 -682.593"/><polygon fill="#000000" stroke="#000000" points="894.412,-683.872 883.919,-687.058 889.453,-683.234 884.494,-682.595 884.494,-682.595 884.494,-682.595 889.453,-683.234 885.069,-678.132 894.412,-683.872 894.412,-683.872"/><text fill="#000000" font-family="Times,serif" font-size="14" text-anchor="middle" x="733.871" y="-677.7"><tspan>发布事件</tspan></text></g><g id="node8" class="node"><polygon fill="#fff9c4" stroke="#f57f17" stroke-width="2" points="1763.24,-571.5 1763.24,-687.5 1958.02,-687.5 1958.02,-571.5 1763.24,-571.5"/><text fill="#000000" font-family="Times,serif" font-size="10" text-anchor="middle" x="1791.79" y="-626.5"><tspan>BuffTable</tspan></text><polyline fill="none" stroke="#f57f17" stroke-width="2" points="1820.33,-571.5 1820.33,-687.5"/><text fill="#000000" font-family="Times,serif" font-size="10" text-anchor="middle" x="1889.18" y="-674.5"><tspan>+ Id: int</tspan></text><text fill="#000000" font-family="Times,serif" font-size="10" text-anchor="middle" x="1889.18" y="-662.5"><tspan>+ Name: string</tspan></text><text fill="#000000" font-family="Times,serif" font-size="10" text-anchor="middle" x="1889.18" y="-650.5"><tspan>+ Type: BuffType</tspan></text><text fill="#000000" font-family="Times,serif" font-size="10" text-anchor="middle" x="1889.18" y="-638.5"><tspan>+ EffectType: BuffEffectType</tspan></text><text fill="#000000" font-family="Times,serif" font-size="10" text-anchor="middle" x="1889.18" y="-626.5"><tspan>+ Duration: float</tspan></text><text fill="#000000" font-family="Times,serif" font-size="10" text-anchor="middle" x="1889.18" y="-614.5"><tspan>+ Parameter1: float</tspan></text><text fill="#000000" font-family="Times,serif" font-size="10" text-anchor="middle" x="1889.18" y="-602.5"><tspan>+ Parameter2: float</tspan></text><text fill="#000000" font-family="Times,serif" font-size="10" text-anchor="middle" x="1889.18" y="-590.5"><tspan>+ StackLimit: int</tspan></text><text fill="#000000" font-family="Times,serif" font-size="10" text-anchor="middle" x="1889.18" y="-578.5"><tspan>+ IsStackable: bool</tspan></text></g><g id="edge9" class="edge"><path fill="none" stroke="#000000" stroke-dasharray="5,2" d="M 1614.29 -463.42 C 1662.33 -495.808 1719.23 -534.172 1766.24 -565.865"/><polygon fill="#000000" stroke="#000000" points="1774.6,-571.498 1763.79,-569.639 1770.45,-568.703 1766.31,-565.908 1766.31,-565.908 1766.31,-565.908 1770.45,-568.703 1768.82,-562.177 1774.6,-571.498 1774.6,-571.498"/><text fill="#000000" font-family="Times,serif" font-size="14" text-anchor="middle" x="1688.55" y="-536.7"><tspan>引用配置</tspan></text></g><g id="node3" class="node"><polygon fill="#bbdefb" stroke="#1565c0" stroke-width="2" points="896.97,-112.5 896.97,-204.5 1103.47,-204.5 1103.47,-112.5 896.97,-112.5"/><text fill="#000000" font-family="Times,serif" font-size="10" text-anchor="middle" x="931.356" y="-155.5"><tspan>StatModBuff</tspan></text><polyline fill="none" stroke="#1565c0" stroke-width="2" points="965.742,-112.5 965.742,-204.5"/><text fill="#000000" font-family="Times,serif" font-size="10" text-anchor="middle" x="1034.61" y="-191.5"><tspan>+ m_AttrType: AttributeType</tspan></text><text fill="#000000" font-family="Times,serif" font-size="10" text-anchor="middle" x="1034.61" y="-179.5"><tspan>+ m_ModValue: float</tspan></text><text fill="#000000" font-family="Times,serif" font-size="10" text-anchor="middle" x="1034.61" y="-167.5"><tspan>+ m_ModType: ModifierType</tspan></text><text fill="#000000" font-family="Times,serif" font-size="10" text-anchor="middle" x="1034.61" y="-155.5"><tspan>---</tspan></text><text fill="#000000" font-family="Times,serif" font-size="10" text-anchor="middle" x="1034.61" y="-143.5"><tspan>+ OnApply()</tspan></text><text fill="#000000" font-family="Times,serif" font-size="10" text-anchor="middle" x="1034.61" y="-131.5"><tspan>+ OnRemove()</tspan></text><text fill="#000000" font-family="Times,serif" font-size="10" text-anchor="middle" x="1034.61" y="-119.5"><tspan>+ CalculateModifier(): float</tspan></text></g><g id="edge3" class="edge"><path fill="none" stroke="#000000" d="M 1103.49 -187.599 C 1180.49 -211.295 1286.97 -248.363 1374.26 -294.7 C 1383.35 -299.528 1392.53 -304.892 1401.59 -310.555"/><polygon fill="none" stroke="#000000" points="1399.92,-313.644 1410.24,-316.07 1403.69,-307.742 1399.92,-313.644"/><text fill="#000000" font-family="Times,serif" font-size="14" text-anchor="middle" x="1271.84" y="-298.7"><tspan>继承</tspan></text></g><g id="node4" class="node"><polygon fill="#bbdefb" stroke="#1565c0" stroke-width="2" points="910.307,-0.5 910.307,-68.5 1090.13,-68.5 1090.13,-0.5 910.307,-0.5"/><text fill="#000000" font-family="Times,serif" font-size="10" text-anchor="middle" x="937.748" y="-31.5"><tspan>FrostBuff</tspan></text><polyline fill="none" stroke="#1565c0" stroke-width="2" points="965.189,-0.5 965.189,-68.5"/><text fill="#000000" font-family="Times,serif" font-size="10" text-anchor="middle" x="1027.66" y="-55.5"><tspan>+ m_SlowPercentage: float</tspan></text><text fill="#000000" font-family="Times,serif" font-size="10" text-anchor="middle" x="1027.66" y="-43.5"><tspan>+ m_CanAttack: bool</tspan></text><text fill="#000000" font-family="Times,serif" font-size="10" text-anchor="middle" x="1027.66" y="-31.5"><tspan>---</tspan></text><text fill="#000000" font-family="Times,serif" font-size="10" text-anchor="middle" x="1027.66" y="-19.5"><tspan>+ OnApply()</tspan></text><text fill="#000000" font-family="Times,serif" font-size="10" text-anchor="middle" x="1027.66" y="-7.5"><tspan>+ OnTick(deltaTime)</tspan></text></g><g id="edge4" class="edge"><path fill="none" stroke="#000000" d="M 1090.17 -53.906 C 1171.34 -74.9904 1290.52 -115.193 1374.26 -183.7 C 1408.02 -211.317 1436.39 -249.418 1458.45 -285.64"/><polygon fill="none" stroke="#000000" points="1455.49,-287.522 1463.63,-294.309 1461.5,-283.93 1455.49,-287.522"/><text fill="#000000" font-family="Times,serif" font-size="14" text-anchor="middle" x="1271.84" y="-188.7"><tspan>继承</tspan></text></g><g id="node5" class="node"><polygon fill="#bbdefb" stroke="#1565c0" stroke-width="2" points="910.311,-360.5 910.311,-428.5 1090.13,-428.5 1090.13,-360.5 910.311,-360.5"/><text fill="#000000" font-family="Times,serif" font-size="10" text-anchor="middle" x="937.473" y="-391.5"><tspan>BurnBuff</tspan></text><polyline fill="none" stroke="#1565c0" stroke-width="2" points="964.635,-360.5 964.635,-428.5"/><text fill="#000000" font-family="Times,serif" font-size="10" text-anchor="middle" x="1027.38" y="-415.5"><tspan>+ m_DamagePerTick: float</tspan></text><text fill="#000000" font-family="Times,serif" font-size="10" text-anchor="middle" x="1027.38" y="-403.5"><tspan>+ m_TickInterval: float</tspan></text><text fill="#000000" font-family="Times,serif" font-size="10" text-anchor="middle" x="1027.38" y="-391.5"><tspan>---</tspan></text><text fill="#000000" font-family="Times,serif" font-size="10" text-anchor="middle" x="1027.38" y="-379.5"><tspan>+ OnApply()</tspan></text><text fill="#000000" font-family="Times,serif" font-size="10" text-anchor="middle" x="1027.38" y="-367.5"><tspan>+ OnTick(deltaTime)</tspan></text></g><g id="edge5" class="edge"><path fill="none" stroke="#000000" d="M 1090.25 -394.5 C 1176.6 -394.5 1307.23 -394.5 1400.21 -394.5"/><polygon fill="none" stroke="#000000" points="1400.22,-398 1410.22,-394.5 1400.22,-391 1400.22,-398"/><text fill="#000000" font-family="Times,serif" font-size="14" text-anchor="middle" x="1271.84" y="-398.7"><tspan>继承</tspan></text></g><g id="node6" class="node"><polygon fill="#bbdefb" stroke="#1565c0" stroke-width="2" points="898.928,-248.5 898.928,-316.5 1101.51,-316.5 1101.51,-248.5 898.928,-248.5"/><text fill="#000000" font-family="Times,serif" font-size="10" text-anchor="middle" x="928.869" y="-279.5"><tspan>ShieldBuff</tspan></text><polyline fill="none" stroke="#1565c0" stroke-width="2" points="958.811,-248.5 958.811,-316.5"/><text fill="#000000" font-family="Times,serif" font-size="10" text-anchor="middle" x="1030.16" y="-303.5"><tspan>+ m_ShieldAmount: float</tspan></text><text fill="#000000" font-family="Times,serif" font-size="10" text-anchor="middle" x="1030.16" y="-291.5"><tspan>+ m_RemainingShield: float</tspan></text><text fill="#000000" font-family="Times,serif" font-size="10" text-anchor="middle" x="1030.16" y="-279.5"><tspan>---</tspan></text><text fill="#000000" font-family="Times,serif" font-size="10" text-anchor="middle" x="1030.16" y="-267.5"><tspan>+ OnApply()</tspan></text><text fill="#000000" font-family="Times,serif" font-size="10" text-anchor="middle" x="1030.16" y="-255.5"><tspan>+ BlockDamage(damage): float</tspan></text></g><g id="edge6" class="edge"><path fill="none" stroke="#000000" d="M 1101.65 -304.695 C 1187.75 -323.534 1311.12 -350.532 1400.1 -370.001"/><polygon fill="none" stroke="#000000" points="1399.44,-373.439 1409.95,-372.158 1400.93,-366.601 1399.44,-373.439"/><text fill="#000000" font-family="Times,serif" font-size="14" text-anchor="middle" x="1271.84" y="-364.7"><tspan>继承</tspan></text></g><g id="edge7" class="edge"><path fill="none" stroke="#000000" stroke-dasharray="5,2" d="M 1133.51 -580.711 C 1232.08 -567.58 1352.8 -549.726 1374.26 -538.5 C 1392.57 -528.921 1409.84 -515.974 1425.56 -501.751"/><polygon fill="#000000" stroke="#000000" points="1433.14,-494.676 1428.9,-504.787 1429.49,-498.086 1425.83,-501.496 1425.83,-501.496 1425.83,-501.496 1429.49,-498.086 1422.76,-498.205 1433.14,-494.676 1433.14,-494.676"/><text fill="#000000" font-family="Times,serif" font-size="14" text-anchor="middle" x="1271.84" y="-578.7"><tspan>创建</tspan></text></g><g id="edge8" class="edge"><path fill="none" stroke="#000000" stroke-dasharray="5,2" d="M 1133.71 -602.465 C 1304.15 -608.803 1595.72 -619.647 1752.8 -625.49"/><polygon fill="#000000" stroke="#000000" points="1762.95,-625.867 1752.79,-629.992 1757.96,-625.681 1752.96,-625.495 1752.96,-625.495 1752.96,-625.495 1757.96,-625.681 1753.13,-620.999 1762.95,-625.867 1762.95,-625.867"/><text fill="#000000" font-family="Times,serif" font-size="14" text-anchor="middle" x="1512.06" y="-623.7"><tspan>读取配置</tspan></text></g><g id="node9" class="node"><polygon fill="#f3e5f5" stroke="#4a148c" stroke-width="2" points="1169.43,-756.5 1169.43,-836.5 1374.26,-836.5 1374.26,-756.5 1169.43,-756.5"/><text fill="#000000" font-family="Times,serif" font-size="10" text-anchor="middle" x="1200.77" y="-793.5"><tspan>SkillConfig</tspan></text><polyline fill="none" stroke="#4a148c" stroke-width="2" points="1232.1,-756.5 1232.1,-836.5"/><text fill="#000000" font-family="Times,serif" font-size="10" text-anchor="middle" x="1303.18" y="-823.5"><tspan>+ BuffIds: int[]</tspan></text><text fill="#000000" font-family="Times,serif" font-size="10" text-anchor="middle" x="1303.18" y="-811.5"><tspan>+ SelfBuffIds: int[]</tspan></text><text fill="#000000" font-family="Times,serif" font-size="10" text-anchor="middle" x="1303.18" y="-799.5"><tspan>+ BuffTriggerType: int</tspan></text><text fill="#000000" font-family="Times,serif" font-size="10" text-anchor="middle" x="1303.18" y="-787.5"><tspan>---</tspan></text><text fill="#000000" font-family="Times,serif" font-size="10" text-anchor="middle" x="1303.18" y="-775.5"><tspan>+ GetBuffsToApply(): int[]</tspan></text><text fill="#000000" font-family="Times,serif" font-size="10" text-anchor="middle" x="1303.18" y="-763.5"><tspan>+ GetSelfBuffsToApply(): int[]</tspan></text></g><g id="edge13" class="edge"><path fill="none" stroke="#000000" stroke-dasharray="5,2" d="M 1374.4 -767.411 C 1480.48 -737.324 1645.41 -690.545 1753.23 -659.963"/><polygon fill="#000000" stroke="#000000" points="1763.16,-657.147 1754.77,-664.205 1758.35,-658.511 1753.54,-659.876 1753.54,-659.876 1753.54,-659.876 1758.35,-658.511 1752.31,-655.546 1763.16,-657.147 1763.16,-657.147"/><text fill="#000000" font-family="Times,serif" font-size="14" text-anchor="middle" x="1512.06" y="-757.7"><tspan>引用BuffId</tspan></text></g><g id="node10" class="node"><polygon fill="#e8f5e9" stroke="#1b5e20" stroke-width="2" points="0,-682.5 0,-738.5 221.725,-738.5 221.725,-682.5 0,-682.5"/><text fill="#000000" font-family="Times,serif" font-size="10" text-anchor="middle" x="38.2595" y="-707.5"><tspan>EffectExecutor</tspan></text><polyline fill="none" stroke="#1b5e20" stroke-width="2" points="76.519,-682.5 76.519,-738.5"/><text fill="#000000" font-family="Times,serif" font-size="10" text-anchor="middle" x="149.122" y="-725.5"><tspan>---</tspan></text><text fill="#000000" font-family="Times,serif" font-size="10" text-anchor="middle" x="149.122" y="-713.5"><tspan>+ ApplyBuffsOnHit(context)</tspan></text><text fill="#000000" font-family="Times,serif" font-size="10" text-anchor="middle" x="149.122" y="-701.5"><tspan>+ ApplyDamageBuffs(target)</tspan></text><text fill="#000000" font-family="Times,serif" font-size="10" text-anchor="middle" x="149.122" y="-689.5"><tspan>+ CalculateBuffModifier(entity)</tspan></text></g><g id="edge10" class="edge"><path fill="none" stroke="#000000" d="M 221.913 -687.225 C 266.724 -677.832 318.603 -666.959 364.573 -657.324"/><polygon fill="#000000" stroke="#000000" points="374.591,-655.224 365.727,-661.68 369.698,-656.25 364.804,-657.276 364.804,-657.276 364.804,-657.276 369.698,-656.25 363.881,-652.871 374.591,-655.224 374.591,-655.224"/><text fill="#000000" font-family="Times,serif" font-size="14" text-anchor="middle" x="298.279" y="-681.7"><tspan>调用添加Buff</tspan></text></g><g id="node11" class="node"><polygon fill="#fce4ec" stroke="#c2185b" stroke-width="2" points="636.734,-754.5 636.734,-810.5 831.009,-810.5 831.009,-754.5 636.734,-754.5"/><text fill="#000000" font-family="Times,serif" font-size="10" text-anchor="middle" x="666.956" y="-779.5"><tspan>HitContext</tspan></text><polyline fill="none" stroke="#c2185b" stroke-width="2" points="697.177,-754.5 697.177,-810.5"/><text fill="#000000" font-family="Times,serif" font-size="10" text-anchor="middle" x="764.093" y="-797.5"><tspan>+ Attacker: ChessEntity</tspan></text><text fill="#000000" font-family="Times,serif" font-size="10" text-anchor="middle" x="764.093" y="-785.5"><tspan>+ LockedTarget: ChessEntity</tspan></text><text fill="#000000" font-family="Times,serif" font-size="10" text-anchor="middle" x="764.093" y="-773.5"><tspan>+ SkillConfig: SkillConfig</tspan></text><text fill="#000000" font-family="Times,serif" font-size="10" text-anchor="middle" x="764.093" y="-761.5"><tspan>+ OnHitCallback: Action</tspan></text></g><g id="edge11" class="edge"><path fill="none" stroke="#000000" d="M 221.885 -723.331 C 336.324 -736.556 513.531 -757.036 626.582 -770.101"/><polygon fill="#000000" stroke="#000000" points="636.639,-771.263 626.189,-774.585 631.672,-770.689 626.705,-770.115 626.705,-770.115 626.705,-770.115 631.672,-770.689 627.222,-765.645 636.639,-771.263 636.639,-771.263"/><text fill="#000000" font-family="Times,serif" font-size="14" text-anchor="middle" x="298.279" y="-739.7"><tspan>使用上下文</tspan></text></g><g id="edge12" class="edge"><path fill="none" stroke="#000000" d="M 831.294 -785.035 C 922.907 -787.419 1060.09 -790.989 1156.99 -793.511"/><polygon fill="#000000" stroke="#000000" points="1157.2,-793.516 1163.3,-789.674 1169.19,-793.829 1163.09,-797.671 1157.2,-793.516"/><text fill="#000000" font-family="Times,serif" font-size="14" text-anchor="middle" x="1000.22" y="-796.7"><tspan>持有配置</tspan></text></g></g></svg>
